G04 #@! TF.FileFunction,Soldermask,Top*
%FSLAX46Y46*%
G04 Gerber Fmt 4.6, Leading zero omitted, Abs format (unit mm)*
G04 Created by KiCad (PCBNEW (after 2015-mar-04 BZR unknown)-product) date Thu 09 Apr 2015 03:29:38 PM EDT*
%MOMM*%
G01*
G04 APERTURE LIST*
%ADD10C,0.100000*%
%ADD11R,0.600000X0.650000*%
%ADD12O,0.300000X1.500000*%
%ADD13O,1.500000X0.300000*%
%ADD14R,0.800000X0.300000*%
%ADD15R,0.300000X0.800000*%
%ADD16R,1.800000X1.800000*%
%ADD17R,0.850000X0.280000*%
%ADD18R,0.280000X0.850000*%
%ADD19R,2.050000X2.050000*%
%ADD20R,0.300000X0.900000*%
%ADD21R,0.900000X0.300000*%
%ADD22R,6.150000X6.150000*%
%ADD23R,1.500000X1.500000*%
%ADD24O,0.300000X0.850000*%
%ADD25R,2.100000X1.600000*%
%ADD26R,0.900000X0.950000*%
%ADD27R,2.286000X1.524000*%
%ADD28O,2.286000X1.524000*%
%ADD29C,2.900000*%
%ADD30R,2.400000X2.000000*%
%ADD31R,0.899160X0.800100*%
%ADD32R,1.100000X1.300000*%
%ADD33R,0.900000X1.300000*%
%ADD34R,0.950000X1.000000*%
%ADD35R,1.350000X0.400000*%
%ADD36O,1.750000X1.750000*%
%ADD37O,1.450000X1.450000*%
%ADD38R,0.800000X1.300000*%
%ADD39R,1.600000X1.500000*%
%ADD40R,1.200000X1.800000*%
%ADD41R,0.900000X1.200000*%
%ADD42R,2.700000X1.000000*%
%ADD43R,1.727000X0.457000*%
%ADD44R,0.950000X1.450000*%
%ADD45R,0.600000X0.600000*%
%ADD46R,0.650000X0.600000*%
%ADD47R,1.450000X1.150000*%
%ADD48R,1.150000X1.450000*%
%ADD49R,0.800100X0.899160*%
%ADD50R,0.950000X0.900000*%
%ADD51C,1.200000*%
G04 APERTURE END LIST*
D10*
D11*
X112500000Y-101050000D03*
X112500000Y-101950000D03*
D12*
X122500000Y-104700000D03*
X123000000Y-104700000D03*
X123500000Y-104700000D03*
X124000000Y-104700000D03*
X124500000Y-104700000D03*
X125000000Y-104700000D03*
X125500000Y-104700000D03*
X126000000Y-104700000D03*
X126500000Y-104700000D03*
X127000000Y-104700000D03*
X127500000Y-104700000D03*
X128000000Y-104700000D03*
X128500000Y-104700000D03*
X129000000Y-104700000D03*
X129500000Y-104700000D03*
X130000000Y-104700000D03*
X130500000Y-104700000D03*
X131000000Y-104700000D03*
X131500000Y-104700000D03*
X132000000Y-104700000D03*
X132500000Y-104700000D03*
X133000000Y-104700000D03*
X133500000Y-104700000D03*
X134000000Y-104700000D03*
X134500000Y-104700000D03*
D13*
X136200000Y-103000000D03*
X136200000Y-102500000D03*
X136200000Y-102000000D03*
X136200000Y-101500000D03*
X136200000Y-101000000D03*
X136200000Y-100500000D03*
X136200000Y-100000000D03*
X136200000Y-99500000D03*
X136200000Y-99000000D03*
X136200000Y-98500000D03*
X136200000Y-98000000D03*
X136200000Y-97500000D03*
X136200000Y-97000000D03*
X136200000Y-96500000D03*
X136200000Y-96000000D03*
X136200000Y-95500000D03*
X136200000Y-95000000D03*
X136200000Y-94500000D03*
X136200000Y-94000000D03*
X136200000Y-93500000D03*
X136200000Y-93000000D03*
X136200000Y-92500000D03*
X136200000Y-92000000D03*
X136200000Y-91500000D03*
X136200000Y-91000000D03*
D12*
X134500000Y-89300000D03*
X134000000Y-89300000D03*
X133500000Y-89300000D03*
X133000000Y-89300000D03*
X132500000Y-89300000D03*
X132000000Y-89300000D03*
X131500000Y-89300000D03*
X131000000Y-89300000D03*
X130500000Y-89300000D03*
X130000000Y-89300000D03*
X129500000Y-89300000D03*
X129000000Y-89300000D03*
X128500000Y-89300000D03*
X128000000Y-89300000D03*
X127500000Y-89300000D03*
X127000000Y-89300000D03*
X126500000Y-89300000D03*
X126000000Y-89300000D03*
X125500000Y-89300000D03*
X125000000Y-89300000D03*
X124500000Y-89300000D03*
X124000000Y-89300000D03*
X123500000Y-89300000D03*
X123000000Y-89300000D03*
X122500000Y-89300000D03*
D13*
X120800000Y-91000000D03*
X120800000Y-91500000D03*
X120800000Y-92000000D03*
X120800000Y-92500000D03*
X120800000Y-93000000D03*
X120800000Y-93500000D03*
X120800000Y-94000000D03*
X120800000Y-94500000D03*
X120800000Y-95000000D03*
X120800000Y-95500000D03*
X120800000Y-96000000D03*
X120800000Y-96500000D03*
X120800000Y-97000000D03*
X120800000Y-97500000D03*
X120800000Y-98000000D03*
X120800000Y-98500000D03*
X120800000Y-99000000D03*
X120800000Y-99500000D03*
X120800000Y-100000000D03*
X120800000Y-100500000D03*
X120800000Y-101000000D03*
X120800000Y-101500000D03*
X120800000Y-102000000D03*
X120800000Y-102500000D03*
X120800000Y-103000000D03*
D14*
X112000000Y-114250000D03*
X112000000Y-114750000D03*
X112000000Y-115250000D03*
X112000000Y-115750000D03*
D15*
X112750000Y-116500000D03*
X113250000Y-116500000D03*
X113750000Y-116500000D03*
X114250000Y-116500000D03*
D14*
X115000000Y-115750000D03*
X115000000Y-115250000D03*
X115000000Y-114750000D03*
X115000000Y-114250000D03*
D15*
X114250000Y-113500000D03*
X113750000Y-113500000D03*
X113250000Y-113500000D03*
X112750000Y-113500000D03*
D16*
X113500000Y-115000000D03*
D17*
X132775000Y-111000000D03*
X132775000Y-111500000D03*
X132775000Y-112000000D03*
X132775000Y-112500000D03*
X132775000Y-113000000D03*
X136225000Y-113000000D03*
X136225000Y-112500000D03*
X136225000Y-112000000D03*
X136225000Y-111500000D03*
X136225000Y-111000000D03*
D18*
X133750000Y-113725000D03*
X135250000Y-113725000D03*
X135250000Y-110275000D03*
X133750000Y-110275000D03*
D19*
X134500000Y-112000000D03*
D20*
X108500000Y-99540000D03*
X109000000Y-99450000D03*
X109500000Y-99450000D03*
X110000000Y-99450000D03*
X110500000Y-99450000D03*
X111000000Y-99450000D03*
X111500000Y-99450000D03*
X112000000Y-99450000D03*
X112500000Y-99450000D03*
X113000000Y-99450000D03*
X113500000Y-99450000D03*
X114000000Y-99450000D03*
X114500000Y-99450000D03*
X115000000Y-99450000D03*
X115500000Y-99450000D03*
X116000000Y-99540000D03*
D21*
X116790000Y-98750000D03*
X116700000Y-98250000D03*
X116700000Y-97750000D03*
X116700000Y-97250000D03*
X116700000Y-96750000D03*
X116700000Y-96250000D03*
X116700000Y-95750000D03*
X116700000Y-95250000D03*
X116700000Y-94750000D03*
X116700000Y-94250000D03*
X116700000Y-93750000D03*
X116700000Y-93250000D03*
X116700000Y-92750000D03*
X116700000Y-92250000D03*
X116700000Y-91750000D03*
X116790000Y-91250000D03*
D20*
X116000000Y-90460000D03*
X115500000Y-90550000D03*
X115000000Y-90550000D03*
X114500000Y-90550000D03*
X114000000Y-90550000D03*
X113500000Y-90550000D03*
X113000000Y-90550000D03*
X112500000Y-90550000D03*
X112000000Y-90550000D03*
X111500000Y-90550000D03*
X111000000Y-90550000D03*
X110500000Y-90550000D03*
X110000000Y-90550000D03*
X109500000Y-90550000D03*
X109000000Y-90550000D03*
X108500000Y-90460000D03*
D21*
X107710000Y-91250000D03*
X107800000Y-91750000D03*
X107800000Y-92250000D03*
X107800000Y-92750000D03*
X107800000Y-93250000D03*
X107800000Y-93750000D03*
X107800000Y-94250000D03*
X107800000Y-94750000D03*
X107800000Y-95250000D03*
X107800000Y-95750000D03*
X107800000Y-96250000D03*
X107800000Y-96750000D03*
X107800000Y-97250000D03*
X107800000Y-97750000D03*
X107800000Y-98250000D03*
X107710000Y-98750000D03*
D22*
X112250000Y-95000000D03*
D23*
X118850000Y-105500000D03*
X117650000Y-105500000D03*
D24*
X122975000Y-113050000D03*
X122325000Y-113050000D03*
X121675000Y-113050000D03*
X121025000Y-113050000D03*
X121025000Y-115950000D03*
X121675000Y-115950000D03*
X122325000Y-115950000D03*
X122975000Y-115950000D03*
D25*
X122000000Y-114500000D03*
D26*
X117000000Y-118500000D03*
X118500000Y-118500000D03*
D27*
X143976000Y-92570000D03*
D28*
X143976000Y-95110000D03*
X143976000Y-97650000D03*
X143976000Y-100190000D03*
X143976000Y-102730000D03*
X143976000Y-105270000D03*
X143976000Y-107810000D03*
X143976000Y-110350000D03*
X143976000Y-112890000D03*
X143976000Y-115430000D03*
X147024000Y-92570000D03*
X147024000Y-95110000D03*
X147024000Y-97650000D03*
X147024000Y-100190000D03*
X147024000Y-102730000D03*
X147024000Y-105270000D03*
X147024000Y-107810000D03*
X147024000Y-110350000D03*
X147024000Y-112890000D03*
X147024000Y-115430000D03*
D29*
X146000000Y-118000000D03*
X146000000Y-90000000D03*
X102500000Y-118000000D03*
D30*
X102500000Y-99500000D03*
X102500000Y-103500000D03*
D29*
X102500000Y-90000000D03*
D31*
X101600840Y-95500000D03*
X103399160Y-95500000D03*
X101600840Y-97250000D03*
X103399160Y-97250000D03*
D32*
X111250000Y-104150000D03*
D33*
X109550000Y-104150000D03*
X109550000Y-106350000D03*
X111450000Y-106350000D03*
D34*
X108700000Y-111500000D03*
X110300000Y-111500000D03*
D35*
X104000000Y-108950000D03*
X104000000Y-109600000D03*
X104000000Y-110250000D03*
X104000000Y-110900000D03*
X104000000Y-111550000D03*
D36*
X101300000Y-106750000D03*
X101300000Y-113750000D03*
D37*
X104000000Y-107750000D03*
X104000000Y-112750000D03*
D33*
X113050000Y-106350000D03*
X114950000Y-106350000D03*
D38*
X114000000Y-104150000D03*
D39*
X128100000Y-110270000D03*
X128100000Y-107730000D03*
X125900000Y-107730000D03*
X125900000Y-110270000D03*
D40*
X122950000Y-118000000D03*
X120050000Y-118000000D03*
D41*
X124900000Y-118000000D03*
X128100000Y-118000000D03*
D42*
X126500000Y-115600000D03*
X126500000Y-113400000D03*
D43*
X135554000Y-117975000D03*
X135554000Y-117325000D03*
X135554000Y-116675000D03*
X135554000Y-116025000D03*
X133446000Y-116025000D03*
X133446000Y-116675000D03*
X133446000Y-117325000D03*
X133446000Y-117975000D03*
D44*
X140500000Y-95500000D03*
X138500000Y-95500000D03*
X140500000Y-98000000D03*
X138500000Y-98000000D03*
X140500000Y-100500000D03*
X138500000Y-100500000D03*
X140500000Y-103000000D03*
X138500000Y-103000000D03*
X140500000Y-105500000D03*
X138500000Y-105500000D03*
X140500000Y-108000000D03*
X138500000Y-108000000D03*
X140500000Y-110500000D03*
X138500000Y-110500000D03*
X140500000Y-113000000D03*
X138500000Y-113000000D03*
X140500000Y-115500000D03*
X138500000Y-115500000D03*
D45*
X105000000Y-94050000D03*
X105000000Y-94950000D03*
X105000000Y-98450000D03*
X105000000Y-97550000D03*
D46*
X110450000Y-89000000D03*
X109550000Y-89000000D03*
X114550000Y-89000000D03*
X115450000Y-89000000D03*
D11*
X106250000Y-94050000D03*
X106250000Y-94950000D03*
X106250000Y-98450000D03*
X106250000Y-97550000D03*
X114000000Y-101050000D03*
X114000000Y-101950000D03*
D26*
X111000000Y-118250000D03*
X109500000Y-118250000D03*
D45*
X120300000Y-107500000D03*
X121200000Y-107500000D03*
D11*
X105500000Y-99800000D03*
X105500000Y-100700000D03*
X105500000Y-103200000D03*
X105500000Y-102300000D03*
D46*
X108950000Y-101250000D03*
X108050000Y-101250000D03*
D45*
X108950000Y-102500000D03*
X108050000Y-102500000D03*
X116750000Y-101050000D03*
X116750000Y-101950000D03*
D11*
X106250000Y-116300000D03*
X106250000Y-117200000D03*
X107000000Y-107950000D03*
X107000000Y-107050000D03*
D45*
X108750000Y-108300000D03*
X108750000Y-109200000D03*
X110000000Y-108300000D03*
X110000000Y-109200000D03*
X105000000Y-116300000D03*
X105000000Y-117200000D03*
D47*
X109500000Y-114100000D03*
X109500000Y-115900000D03*
D48*
X103400000Y-93000000D03*
X101600000Y-93000000D03*
D46*
X111550000Y-108000000D03*
X112450000Y-108000000D03*
D45*
X111550000Y-109500000D03*
X112450000Y-109500000D03*
D46*
X114950000Y-108000000D03*
X114050000Y-108000000D03*
D45*
X114050000Y-109500000D03*
X114950000Y-109500000D03*
D46*
X133450000Y-108500000D03*
X132550000Y-108500000D03*
X135550000Y-108500000D03*
X136450000Y-108500000D03*
D45*
X123450000Y-108750000D03*
X122550000Y-108750000D03*
X121200000Y-108750000D03*
X120300000Y-108750000D03*
D48*
X122400000Y-110500000D03*
X120600000Y-110500000D03*
D45*
X138000000Y-118200000D03*
X138000000Y-117300000D03*
D49*
X130250000Y-118149160D03*
X130250000Y-116350840D03*
D45*
X130250000Y-113550000D03*
X130250000Y-114450000D03*
D26*
X112750000Y-111500000D03*
X114250000Y-111500000D03*
D46*
X123450000Y-107500000D03*
X122550000Y-107500000D03*
D50*
X116750000Y-116500000D03*
X116750000Y-115000000D03*
D51*
X140000000Y-89000000D03*
X140000000Y-91000000D03*
D45*
X117800000Y-107000000D03*
X118700000Y-107000000D03*
D51*
X107750000Y-118250000D03*
X117000000Y-111000000D03*
X117000000Y-112500000D03*
M02*
