G04 #@! TF.FileFunction,Copper,L2,Inr,Signal*
%FSLAX46Y46*%
G04 Gerber Fmt 4.6, Leading zero omitted, Abs format (unit mm)*
G04 Created by KiCad (PCBNEW (after 2015-mar-04 BZR unknown)-product) date Thu 09 Apr 2015 03:29:38 PM EDT*
%MOMM*%
G01*
G04 APERTURE LIST*
%ADD10C,0.100000*%
%ADD11C,0.800000*%
%ADD12R,2.286000X1.524000*%
%ADD13O,2.286000X1.524000*%
%ADD14O,1.750000X1.750000*%
%ADD15O,1.450000X1.450000*%
%ADD16C,0.600000*%
%ADD17C,0.200000*%
%ADD18C,0.500000*%
G04 APERTURE END LIST*
D10*
D11*
X110750000Y-96500000D03*
X110750000Y-93500000D03*
X113750000Y-93500000D03*
X113750000Y-96500000D03*
D12*
X143976000Y-92570000D03*
D13*
X143976000Y-95110000D03*
X143976000Y-97650000D03*
X143976000Y-100190000D03*
X143976000Y-102730000D03*
X143976000Y-105270000D03*
X143976000Y-107810000D03*
X143976000Y-110350000D03*
X143976000Y-112890000D03*
X143976000Y-115430000D03*
X147024000Y-92570000D03*
X147024000Y-95110000D03*
X147024000Y-97650000D03*
X147024000Y-100190000D03*
X147024000Y-102730000D03*
X147024000Y-105270000D03*
X147024000Y-107810000D03*
X147024000Y-110350000D03*
X147024000Y-112890000D03*
X147024000Y-115430000D03*
D14*
X101300000Y-106750000D03*
X101300000Y-113750000D03*
D15*
X104000000Y-107750000D03*
X104000000Y-112750000D03*
D16*
X122510003Y-112020019D03*
X123250000Y-112020019D03*
X110000000Y-113000000D03*
X109000000Y-113000000D03*
X117689990Y-94500000D03*
X127800000Y-95900000D03*
X125400000Y-97000000D03*
X131600000Y-97900000D03*
X129200000Y-93700000D03*
X126750000Y-102000000D03*
X127500000Y-97400000D03*
X128300000Y-94600000D03*
X132200000Y-96700000D03*
X129600000Y-97800000D03*
X122600000Y-114900000D03*
X122600000Y-114100000D03*
X121400000Y-114900000D03*
X121400000Y-114100000D03*
X114000000Y-115500000D03*
X113000000Y-115500000D03*
X114000000Y-114500000D03*
X113000000Y-114500000D03*
X120250000Y-109500002D03*
X131250000Y-106000000D03*
X134000000Y-103500000D03*
X135000000Y-105250000D03*
X137250000Y-101500000D03*
X128810020Y-90750000D03*
X127287506Y-92250000D03*
X123379989Y-91000000D03*
X122189990Y-91000000D03*
X122010010Y-93500000D03*
X122010010Y-97000000D03*
X118739998Y-100500000D03*
X137500000Y-95750000D03*
X127000000Y-103500000D03*
X129500000Y-103489990D03*
X137410010Y-91500000D03*
X123500000Y-105750000D03*
X126500000Y-106000000D03*
X128500000Y-106000000D03*
X137410026Y-98500000D03*
X116250000Y-89310010D03*
X107750000Y-99500000D03*
X110560010Y-100570233D03*
X114500000Y-96500000D03*
X115250000Y-111500000D03*
X108250000Y-116000010D03*
X108750000Y-118750000D03*
X115500000Y-109500000D03*
X105750000Y-111500000D03*
X105750000Y-110750000D03*
X106500000Y-111500000D03*
X106500000Y-110750000D03*
X108000000Y-101900000D03*
X116750000Y-114250000D03*
X115000000Y-113500000D03*
X107000000Y-106250000D03*
X106228782Y-95479231D03*
X105734764Y-97022280D03*
X105500000Y-101500000D03*
X108750000Y-89000000D03*
X106750000Y-92510005D03*
X101500000Y-94000000D03*
X101500000Y-96500000D03*
X132000000Y-115989997D03*
X133000000Y-107750000D03*
X136250000Y-107750000D03*
X136500000Y-109500000D03*
X134250000Y-113750000D03*
X134500000Y-112000000D03*
X117750000Y-104250000D03*
X133000000Y-95250000D03*
X111500000Y-103000000D03*
X122000000Y-116750000D03*
X120000000Y-113000000D03*
X120000000Y-113750000D03*
X120000000Y-114500000D03*
X120000000Y-115250000D03*
X120000000Y-116000000D03*
X120000000Y-116750000D03*
X121000000Y-118000000D03*
X139750000Y-106750000D03*
X141750000Y-102000000D03*
X129250000Y-116500000D03*
X126500000Y-111750000D03*
X122250000Y-101750000D03*
X138750000Y-117239997D03*
X130810020Y-101750000D03*
X114499111Y-100250444D03*
X113250132Y-100240065D03*
X116000000Y-100500000D03*
X113250000Y-102000000D03*
X114747947Y-102252053D03*
X115500000Y-102760003D03*
X137250000Y-100500000D03*
X132250000Y-103500000D03*
X136000000Y-103750000D03*
X137500000Y-93000000D03*
X131613316Y-90439991D03*
X125439990Y-92250000D03*
X122189990Y-92250000D03*
X122000444Y-94500889D03*
X122007963Y-100549926D03*
X121999556Y-102749111D03*
X124939990Y-105750000D03*
X124750000Y-102000000D03*
X111000000Y-89500000D03*
X110000000Y-101250000D03*
X117250000Y-89750000D03*
X112500000Y-117500000D03*
X112500000Y-118250000D03*
X112500000Y-119000000D03*
X115500000Y-118260010D03*
X115500000Y-119000000D03*
X106750000Y-91750002D03*
X134250000Y-108500000D03*
X107750000Y-89000000D03*
X133000000Y-94250000D03*
X106258319Y-93250554D03*
X128250000Y-111750000D03*
X118000000Y-97289980D03*
X113239998Y-101000000D03*
X112500000Y-119750000D03*
X115500000Y-119750000D03*
X106250000Y-115250000D03*
X106750000Y-99000000D03*
X114060005Y-89742922D03*
X106750000Y-90989987D03*
X115500000Y-102000000D03*
X134499210Y-99035805D03*
X138500000Y-101750000D03*
X134500000Y-97500000D03*
X137750000Y-96750000D03*
X134491773Y-98264782D03*
X138565776Y-99248084D03*
X137500000Y-108000000D03*
X134439980Y-100555807D03*
X121250000Y-117000000D03*
X122764130Y-105939996D03*
X122000000Y-118000000D03*
X132056868Y-117975000D03*
X137000000Y-116000000D03*
X124250000Y-109000000D03*
X105500000Y-95900000D03*
X105500000Y-93200000D03*
X104250000Y-98250000D03*
X104750000Y-96500000D03*
X131000000Y-103500000D03*
X137500000Y-94000000D03*
X125439990Y-90928005D03*
X114500000Y-117500000D03*
X114500000Y-118250000D03*
X114500000Y-119000000D03*
X119000000Y-112500000D03*
X119500000Y-99750000D03*
X137250000Y-99500000D03*
X130854566Y-90396396D03*
X121999994Y-95260890D03*
X126239997Y-103500000D03*
X113500000Y-117500000D03*
X113500000Y-118250000D03*
X113500000Y-119000000D03*
X119031245Y-110968755D03*
X118239980Y-115997386D03*
X121250000Y-106500000D03*
X121750000Y-112020019D03*
X117672568Y-99672568D03*
X118966042Y-97964506D03*
X123810020Y-101250000D03*
X122689990Y-101000000D03*
X119589990Y-91000000D03*
X120250000Y-103750000D03*
X120499551Y-89749102D03*
X118250000Y-93010018D03*
X119110019Y-91760022D03*
X134500000Y-102500000D03*
X134000000Y-96000000D03*
X133750000Y-93500000D03*
X134000000Y-91000000D03*
X135834502Y-106607492D03*
X137500000Y-102250000D03*
X140060010Y-117000000D03*
X142250000Y-94000000D03*
X134500050Y-99795806D03*
X138500000Y-104250000D03*
X132000000Y-116750000D03*
X129689990Y-108750000D03*
X138750000Y-118000000D03*
X113655396Y-89099575D03*
X111240115Y-88736115D03*
X118000000Y-88750000D03*
X112500000Y-89250000D03*
X111775988Y-89484015D03*
X124500000Y-90989998D03*
X142000000Y-90750000D03*
X141500000Y-111750000D03*
D17*
X127800000Y-95900000D02*
X126700000Y-97000000D01*
X126700000Y-97000000D02*
X125400000Y-97000000D01*
X131600000Y-97900000D02*
X131500000Y-97800000D01*
X131600000Y-97300000D02*
X131600000Y-97900000D01*
X132200000Y-96700000D02*
X129200000Y-93700000D01*
X127800000Y-95900000D02*
X127800000Y-95100000D01*
X127500000Y-96200000D02*
X127800000Y-95900000D01*
X126750000Y-102000000D02*
X126750000Y-98150000D01*
X126750000Y-98150000D02*
X127500000Y-97400000D01*
X127500000Y-97400000D02*
X127500000Y-96200000D01*
X127800000Y-95100000D02*
X128300000Y-94600000D01*
X129200000Y-93700000D02*
X128300000Y-94600000D01*
X132200000Y-96700000D02*
X131600000Y-97300000D01*
X131500000Y-97800000D02*
X129600000Y-97800000D01*
D18*
X146770000Y-114198249D02*
X141801751Y-114198249D01*
X146770000Y-112890000D02*
X146770000Y-114198249D01*
X146770000Y-114198249D02*
X146770000Y-115430000D01*
X146770000Y-111656991D02*
X142406991Y-111656991D01*
X146770000Y-110350000D02*
X146770000Y-111656991D01*
X146770000Y-111656991D02*
X146770000Y-112890000D01*
X146770000Y-109037300D02*
X142537300Y-109037300D01*
X146770000Y-107810000D02*
X146770000Y-109037300D01*
X146770000Y-109037300D02*
X146770000Y-110350000D01*
X146770000Y-106574476D02*
X142324476Y-106574476D01*
X146770000Y-105270000D02*
X146770000Y-106574476D01*
X146770000Y-106574476D02*
X146770000Y-107810000D01*
X146770000Y-103986159D02*
X142013841Y-103986159D01*
X146770000Y-102730000D02*
X146770000Y-103986159D01*
X146770000Y-103986159D02*
X146770000Y-105270000D01*
X142273725Y-101476275D02*
X141750000Y-102000000D01*
X146770000Y-101476275D02*
X142273725Y-101476275D01*
X146770000Y-100190000D02*
X146770000Y-101476275D01*
X146770000Y-101476275D02*
X146770000Y-102730000D01*
X146770000Y-98919330D02*
X142080670Y-98919330D01*
X146770000Y-97650000D02*
X146770000Y-98919330D01*
X146770000Y-98919330D02*
X146770000Y-100190000D01*
X146770000Y-96393759D02*
X142356241Y-96393759D01*
X146770000Y-95110000D02*
X146770000Y-96393759D01*
X146770000Y-96393759D02*
X146770000Y-97650000D01*
D17*
X112799999Y-88950001D02*
X112500000Y-89250000D01*
X117750000Y-88500000D02*
X113250000Y-88500000D01*
X113250000Y-88500000D02*
X112799999Y-88950001D01*
X118000000Y-88750000D02*
X117750000Y-88500000D01*
G36*
X148400000Y-119900000D02*
X147750304Y-119900000D01*
X142100104Y-119900000D01*
X142100104Y-111631176D01*
X142008952Y-111410571D01*
X141840317Y-111241641D01*
X141619871Y-111150104D01*
X141381176Y-111149896D01*
X141160571Y-111241048D01*
X140991641Y-111409683D01*
X140900104Y-111630129D01*
X140899896Y-111868824D01*
X140991048Y-112089429D01*
X141159683Y-112258359D01*
X141380129Y-112349896D01*
X141618824Y-112350104D01*
X141839429Y-112258952D01*
X142008359Y-112090317D01*
X142099896Y-111869871D01*
X142100104Y-111631176D01*
X142100104Y-119900000D01*
X140660114Y-119900000D01*
X140660114Y-116881176D01*
X140568962Y-116660571D01*
X140400327Y-116491641D01*
X140179881Y-116400104D01*
X139941186Y-116399896D01*
X139720581Y-116491048D01*
X139551651Y-116659683D01*
X139460114Y-116880129D01*
X139459906Y-117118824D01*
X139551058Y-117339429D01*
X139719693Y-117508359D01*
X139940139Y-117599896D01*
X140178834Y-117600104D01*
X140399439Y-117508952D01*
X140568369Y-117340317D01*
X140659906Y-117119871D01*
X140660114Y-116881176D01*
X140660114Y-119900000D01*
X139350104Y-119900000D01*
X139350104Y-117881176D01*
X139258952Y-117660571D01*
X139165880Y-117567336D01*
X139165880Y-99129260D01*
X139074728Y-98908655D01*
X138906093Y-98739725D01*
X138685647Y-98648188D01*
X138446952Y-98647980D01*
X138350104Y-98687996D01*
X138350104Y-96631176D01*
X138258952Y-96410571D01*
X138100104Y-96251445D01*
X138100104Y-93881176D01*
X138008952Y-93660571D01*
X137848529Y-93499867D01*
X138008359Y-93340317D01*
X138099896Y-93119871D01*
X138100104Y-92881176D01*
X138008952Y-92660571D01*
X137840317Y-92491641D01*
X137619871Y-92400104D01*
X137381176Y-92399896D01*
X137160571Y-92491048D01*
X136991641Y-92659683D01*
X136900104Y-92880129D01*
X136899896Y-93118824D01*
X136991048Y-93339429D01*
X137151470Y-93500132D01*
X136991641Y-93659683D01*
X136900104Y-93880129D01*
X136899896Y-94118824D01*
X136991048Y-94339429D01*
X137159683Y-94508359D01*
X137380129Y-94599896D01*
X137618824Y-94600104D01*
X137839429Y-94508952D01*
X138008359Y-94340317D01*
X138099896Y-94119871D01*
X138100104Y-93881176D01*
X138100104Y-96251445D01*
X138090317Y-96241641D01*
X137869871Y-96150104D01*
X137631176Y-96149896D01*
X137410571Y-96241048D01*
X137241641Y-96409683D01*
X137150104Y-96630129D01*
X137149896Y-96868824D01*
X137241048Y-97089429D01*
X137409683Y-97258359D01*
X137630129Y-97349896D01*
X137868824Y-97350104D01*
X138089429Y-97258952D01*
X138258359Y-97090317D01*
X138349896Y-96869871D01*
X138350104Y-96631176D01*
X138350104Y-98687996D01*
X138226347Y-98739132D01*
X138057417Y-98907767D01*
X137965880Y-99128213D01*
X137965672Y-99366908D01*
X138056824Y-99587513D01*
X138225459Y-99756443D01*
X138445905Y-99847980D01*
X138684600Y-99848188D01*
X138905205Y-99757036D01*
X139074135Y-99588401D01*
X139165672Y-99367955D01*
X139165880Y-99129260D01*
X139165880Y-117567336D01*
X139100104Y-117501445D01*
X139100104Y-104131176D01*
X139100104Y-101631176D01*
X139008952Y-101410571D01*
X138840317Y-101241641D01*
X138619871Y-101150104D01*
X138381176Y-101149896D01*
X138160571Y-101241048D01*
X137991641Y-101409683D01*
X137900104Y-101630129D01*
X137899954Y-101801383D01*
X137850104Y-101751445D01*
X137850104Y-100381176D01*
X137758952Y-100160571D01*
X137598529Y-99999867D01*
X137758359Y-99840317D01*
X137849896Y-99619871D01*
X137850104Y-99381176D01*
X137758952Y-99160571D01*
X137590317Y-98991641D01*
X137369871Y-98900104D01*
X137131176Y-98899896D01*
X136910571Y-98991048D01*
X136741641Y-99159683D01*
X136650104Y-99380129D01*
X136649896Y-99618824D01*
X136741048Y-99839429D01*
X136901470Y-100000132D01*
X136741641Y-100159683D01*
X136650104Y-100380129D01*
X136649896Y-100618824D01*
X136741048Y-100839429D01*
X136909683Y-101008359D01*
X137130129Y-101099896D01*
X137368824Y-101100104D01*
X137589429Y-101008952D01*
X137758359Y-100840317D01*
X137849896Y-100619871D01*
X137850104Y-100381176D01*
X137850104Y-101751445D01*
X137840317Y-101741641D01*
X137619871Y-101650104D01*
X137381176Y-101649896D01*
X137160571Y-101741048D01*
X136991641Y-101909683D01*
X136900104Y-102130129D01*
X136899896Y-102368824D01*
X136991048Y-102589429D01*
X137159683Y-102758359D01*
X137380129Y-102849896D01*
X137618824Y-102850104D01*
X137839429Y-102758952D01*
X138008359Y-102590317D01*
X138099896Y-102369871D01*
X138100045Y-102198616D01*
X138159683Y-102258359D01*
X138380129Y-102349896D01*
X138618824Y-102350104D01*
X138839429Y-102258952D01*
X139008359Y-102090317D01*
X139099896Y-101869871D01*
X139100104Y-101631176D01*
X139100104Y-104131176D01*
X139008952Y-103910571D01*
X138840317Y-103741641D01*
X138619871Y-103650104D01*
X138381176Y-103649896D01*
X138160571Y-103741048D01*
X137991641Y-103909683D01*
X137900104Y-104130129D01*
X137899896Y-104368824D01*
X137991048Y-104589429D01*
X138159683Y-104758359D01*
X138380129Y-104849896D01*
X138618824Y-104850104D01*
X138839429Y-104758952D01*
X139008359Y-104590317D01*
X139099896Y-104369871D01*
X139100104Y-104131176D01*
X139100104Y-117501445D01*
X139090317Y-117491641D01*
X138869871Y-117400104D01*
X138631176Y-117399896D01*
X138410571Y-117491048D01*
X138241641Y-117659683D01*
X138150104Y-117880129D01*
X138149896Y-118118824D01*
X138241048Y-118339429D01*
X138409683Y-118508359D01*
X138630129Y-118599896D01*
X138868824Y-118600104D01*
X139089429Y-118508952D01*
X139258359Y-118340317D01*
X139349896Y-118119871D01*
X139350104Y-117881176D01*
X139350104Y-119900000D01*
X138100104Y-119900000D01*
X138100104Y-107881176D01*
X138008952Y-107660571D01*
X137840317Y-107491641D01*
X137619871Y-107400104D01*
X137381176Y-107399896D01*
X137160571Y-107491048D01*
X136991641Y-107659683D01*
X136900104Y-107880129D01*
X136899896Y-108118824D01*
X136991048Y-108339429D01*
X137159683Y-108508359D01*
X137380129Y-108599896D01*
X137618824Y-108600104D01*
X137839429Y-108508952D01*
X138008359Y-108340317D01*
X138099896Y-108119871D01*
X138100104Y-107881176D01*
X138100104Y-119900000D01*
X137600104Y-119900000D01*
X137600104Y-115881176D01*
X137508952Y-115660571D01*
X137340317Y-115491641D01*
X137119871Y-115400104D01*
X136881176Y-115399896D01*
X136660571Y-115491048D01*
X136600104Y-115551409D01*
X136600104Y-103631176D01*
X136508952Y-103410571D01*
X136340317Y-103241641D01*
X136119871Y-103150104D01*
X135881176Y-103149896D01*
X135660571Y-103241048D01*
X135491641Y-103409683D01*
X135400104Y-103630129D01*
X135399896Y-103868824D01*
X135491048Y-104089429D01*
X135659683Y-104258359D01*
X135880129Y-104349896D01*
X136118824Y-104350104D01*
X136339429Y-104258952D01*
X136508359Y-104090317D01*
X136599896Y-103869871D01*
X136600104Y-103631176D01*
X136600104Y-115551409D01*
X136491641Y-115659683D01*
X136434606Y-115797038D01*
X136434606Y-106488668D01*
X136343454Y-106268063D01*
X136174819Y-106099133D01*
X135954373Y-106007596D01*
X135715678Y-106007388D01*
X135495073Y-106098540D01*
X135326143Y-106267175D01*
X135234606Y-106487621D01*
X135234398Y-106726316D01*
X135325550Y-106946921D01*
X135494185Y-107115851D01*
X135714631Y-107207388D01*
X135953326Y-107207596D01*
X136173931Y-107116444D01*
X136342861Y-106947809D01*
X136434398Y-106727363D01*
X136434606Y-106488668D01*
X136434606Y-115797038D01*
X136400104Y-115880129D01*
X136399896Y-116118824D01*
X136491048Y-116339429D01*
X136659683Y-116508359D01*
X136880129Y-116599896D01*
X137118824Y-116600104D01*
X137339429Y-116508952D01*
X137508359Y-116340317D01*
X137599896Y-116119871D01*
X137600104Y-115881176D01*
X137600104Y-119900000D01*
X135100154Y-119900000D01*
X135100154Y-99676982D01*
X135009002Y-99456377D01*
X134968159Y-99415462D01*
X135007569Y-99376122D01*
X135099106Y-99155676D01*
X135099314Y-98916981D01*
X135008162Y-98696376D01*
X134958515Y-98646642D01*
X135000132Y-98605099D01*
X135091669Y-98384653D01*
X135091877Y-98145958D01*
X135000725Y-97925353D01*
X134962017Y-97886577D01*
X135008359Y-97840317D01*
X135099896Y-97619871D01*
X135100104Y-97381176D01*
X135008952Y-97160571D01*
X134840317Y-96991641D01*
X134619871Y-96900104D01*
X134600104Y-96900086D01*
X134600104Y-95881176D01*
X134600104Y-90881176D01*
X134508952Y-90660571D01*
X134340317Y-90491641D01*
X134119871Y-90400104D01*
X133881176Y-90399896D01*
X133660571Y-90491048D01*
X133491641Y-90659683D01*
X133400104Y-90880129D01*
X133399896Y-91118824D01*
X133491048Y-91339429D01*
X133659683Y-91508359D01*
X133880129Y-91599896D01*
X134118824Y-91600104D01*
X134339429Y-91508952D01*
X134508359Y-91340317D01*
X134599896Y-91119871D01*
X134600104Y-90881176D01*
X134600104Y-95881176D01*
X134508952Y-95660571D01*
X134350104Y-95501445D01*
X134350104Y-93381176D01*
X134258952Y-93160571D01*
X134090317Y-92991641D01*
X133869871Y-92900104D01*
X133631176Y-92899896D01*
X133410571Y-92991048D01*
X133241641Y-93159683D01*
X133150104Y-93380129D01*
X133149896Y-93618824D01*
X133171715Y-93671631D01*
X133119871Y-93650104D01*
X132881176Y-93649896D01*
X132660571Y-93741048D01*
X132491641Y-93909683D01*
X132400104Y-94130129D01*
X132399896Y-94368824D01*
X132491048Y-94589429D01*
X132659683Y-94758359D01*
X132880129Y-94849896D01*
X133118824Y-94850104D01*
X133339429Y-94758952D01*
X133508359Y-94590317D01*
X133599896Y-94369871D01*
X133600104Y-94131176D01*
X133578284Y-94078368D01*
X133630129Y-94099896D01*
X133868824Y-94100104D01*
X134089429Y-94008952D01*
X134258359Y-93840317D01*
X134349896Y-93619871D01*
X134350104Y-93381176D01*
X134350104Y-95501445D01*
X134340317Y-95491641D01*
X134119871Y-95400104D01*
X133881176Y-95399896D01*
X133660571Y-95491048D01*
X133491641Y-95659683D01*
X133400104Y-95880129D01*
X133399896Y-96118824D01*
X133491048Y-96339429D01*
X133659683Y-96508359D01*
X133880129Y-96599896D01*
X134118824Y-96600104D01*
X134339429Y-96508952D01*
X134508359Y-96340317D01*
X134599896Y-96119871D01*
X134600104Y-95881176D01*
X134600104Y-96900086D01*
X134381176Y-96899896D01*
X134160571Y-96991048D01*
X133991641Y-97159683D01*
X133900104Y-97380129D01*
X133899896Y-97618824D01*
X133991048Y-97839429D01*
X134029755Y-97878204D01*
X133983414Y-97924465D01*
X133891877Y-98144911D01*
X133891669Y-98383606D01*
X133982821Y-98604211D01*
X134032467Y-98653944D01*
X133990851Y-98695488D01*
X133899314Y-98915934D01*
X133899106Y-99154629D01*
X133990258Y-99375234D01*
X134031100Y-99416148D01*
X133991691Y-99455489D01*
X133900154Y-99675935D01*
X133899946Y-99914630D01*
X133991098Y-100135235D01*
X134001538Y-100145694D01*
X133931621Y-100215490D01*
X133840084Y-100435936D01*
X133839876Y-100674631D01*
X133931028Y-100895236D01*
X134099663Y-101064166D01*
X134320109Y-101155703D01*
X134558804Y-101155911D01*
X134779409Y-101064759D01*
X134948339Y-100896124D01*
X135039876Y-100675678D01*
X135040084Y-100436983D01*
X134948932Y-100216378D01*
X134938491Y-100205918D01*
X135008409Y-100136123D01*
X135099946Y-99915677D01*
X135100154Y-99676982D01*
X135100154Y-119900000D01*
X135100104Y-119900000D01*
X135100104Y-102381176D01*
X135008952Y-102160571D01*
X134840317Y-101991641D01*
X134619871Y-101900104D01*
X134381176Y-101899896D01*
X134160571Y-101991048D01*
X133991641Y-102159683D01*
X133900104Y-102380129D01*
X133899896Y-102618824D01*
X133991048Y-102839429D01*
X134159683Y-103008359D01*
X134380129Y-103099896D01*
X134618824Y-103100104D01*
X134839429Y-103008952D01*
X135008359Y-102840317D01*
X135099896Y-102619871D01*
X135100104Y-102381176D01*
X135100104Y-119900000D01*
X134850104Y-119900000D01*
X134850104Y-108381176D01*
X134758952Y-108160571D01*
X134590317Y-107991641D01*
X134369871Y-107900104D01*
X134131176Y-107899896D01*
X133910571Y-107991048D01*
X133741641Y-108159683D01*
X133650104Y-108380129D01*
X133649896Y-108618824D01*
X133741048Y-108839429D01*
X133909683Y-109008359D01*
X134130129Y-109099896D01*
X134368824Y-109100104D01*
X134589429Y-109008952D01*
X134758359Y-108840317D01*
X134849896Y-108619871D01*
X134850104Y-108381176D01*
X134850104Y-119900000D01*
X132850104Y-119900000D01*
X132850104Y-103381176D01*
X132758952Y-103160571D01*
X132590317Y-102991641D01*
X132369871Y-102900104D01*
X132213420Y-102899967D01*
X132213420Y-90321167D01*
X132122268Y-90100562D01*
X131953633Y-89931632D01*
X131733187Y-89840095D01*
X131494492Y-89839887D01*
X131273887Y-89931039D01*
X131255816Y-89949077D01*
X131194883Y-89888037D01*
X130974437Y-89796500D01*
X130735742Y-89796292D01*
X130515137Y-89887444D01*
X130346207Y-90056079D01*
X130254670Y-90276525D01*
X130254462Y-90515220D01*
X130345614Y-90735825D01*
X130514249Y-90904755D01*
X130734695Y-90996292D01*
X130973390Y-90996500D01*
X131193995Y-90905348D01*
X131212065Y-90887309D01*
X131272999Y-90948350D01*
X131493445Y-91039887D01*
X131732140Y-91040095D01*
X131952745Y-90948943D01*
X132121675Y-90780308D01*
X132213212Y-90559862D01*
X132213420Y-90321167D01*
X132213420Y-102899967D01*
X132131176Y-102899896D01*
X131910571Y-102991048D01*
X131741641Y-103159683D01*
X131650104Y-103380129D01*
X131649896Y-103618824D01*
X131741048Y-103839429D01*
X131909683Y-104008359D01*
X132130129Y-104099896D01*
X132368824Y-104100104D01*
X132589429Y-104008952D01*
X132758359Y-103840317D01*
X132849896Y-103619871D01*
X132850104Y-103381176D01*
X132850104Y-119900000D01*
X132656972Y-119900000D01*
X132656972Y-117856176D01*
X132600104Y-117718544D01*
X132600104Y-116631176D01*
X132508952Y-116410571D01*
X132340317Y-116241641D01*
X132119871Y-116150104D01*
X131881176Y-116149896D01*
X131660571Y-116241048D01*
X131600104Y-116301409D01*
X131600104Y-103381176D01*
X131508952Y-103160571D01*
X131340317Y-102991641D01*
X131119871Y-102900104D01*
X130881176Y-102899896D01*
X130660571Y-102991048D01*
X130491641Y-103159683D01*
X130400104Y-103380129D01*
X130399896Y-103618824D01*
X130491048Y-103839429D01*
X130659683Y-104008359D01*
X130880129Y-104099896D01*
X131118824Y-104100104D01*
X131339429Y-104008952D01*
X131508359Y-103840317D01*
X131599896Y-103619871D01*
X131600104Y-103381176D01*
X131600104Y-116301409D01*
X131491641Y-116409683D01*
X131400104Y-116630129D01*
X131399896Y-116868824D01*
X131491048Y-117089429D01*
X131659683Y-117258359D01*
X131880129Y-117349896D01*
X132118824Y-117350104D01*
X132339429Y-117258952D01*
X132508359Y-117090317D01*
X132599896Y-116869871D01*
X132600104Y-116631176D01*
X132600104Y-117718544D01*
X132565820Y-117635571D01*
X132397185Y-117466641D01*
X132176739Y-117375104D01*
X131938044Y-117374896D01*
X131717439Y-117466048D01*
X131548509Y-117634683D01*
X131456972Y-117855129D01*
X131456764Y-118093824D01*
X131547916Y-118314429D01*
X131716551Y-118483359D01*
X131936997Y-118574896D01*
X132175692Y-118575104D01*
X132396297Y-118483952D01*
X132565227Y-118315317D01*
X132656764Y-118094871D01*
X132656972Y-117856176D01*
X132656972Y-119900000D01*
X130290094Y-119900000D01*
X130290094Y-108631176D01*
X130198942Y-108410571D01*
X130030307Y-108241641D01*
X129809861Y-108150104D01*
X129571166Y-108149896D01*
X129350561Y-108241048D01*
X129181631Y-108409683D01*
X129090094Y-108630129D01*
X129089886Y-108868824D01*
X129181038Y-109089429D01*
X129349673Y-109258359D01*
X129570119Y-109349896D01*
X129808814Y-109350104D01*
X130029419Y-109258952D01*
X130198349Y-109090317D01*
X130289886Y-108869871D01*
X130290094Y-108631176D01*
X130290094Y-119900000D01*
X128850104Y-119900000D01*
X128850104Y-111631176D01*
X128758952Y-111410571D01*
X128590317Y-111241641D01*
X128369871Y-111150104D01*
X128131176Y-111149896D01*
X127910571Y-111241048D01*
X127741641Y-111409683D01*
X127650104Y-111630129D01*
X127649896Y-111868824D01*
X127741048Y-112089429D01*
X127909683Y-112258359D01*
X128130129Y-112349896D01*
X128368824Y-112350104D01*
X128589429Y-112258952D01*
X128758359Y-112090317D01*
X128849896Y-111869871D01*
X128850104Y-111631176D01*
X128850104Y-119900000D01*
X126840101Y-119900000D01*
X126840101Y-103381176D01*
X126748949Y-103160571D01*
X126580314Y-102991641D01*
X126359868Y-102900104D01*
X126121173Y-102899896D01*
X126040094Y-102933397D01*
X126040094Y-92131176D01*
X126040094Y-90809181D01*
X125948942Y-90588576D01*
X125780307Y-90419646D01*
X125559861Y-90328109D01*
X125321166Y-90327901D01*
X125100561Y-90419053D01*
X124938918Y-90580413D01*
X124840317Y-90481639D01*
X124619871Y-90390102D01*
X124381176Y-90389894D01*
X124160571Y-90481046D01*
X123991641Y-90649681D01*
X123900104Y-90870127D01*
X123899896Y-91108822D01*
X123991048Y-91329427D01*
X124159683Y-91498357D01*
X124380129Y-91589894D01*
X124618824Y-91590102D01*
X124839429Y-91498950D01*
X125001071Y-91337589D01*
X125099673Y-91436364D01*
X125320119Y-91527901D01*
X125558814Y-91528109D01*
X125779419Y-91436957D01*
X125948349Y-91268322D01*
X126039886Y-91047876D01*
X126040094Y-90809181D01*
X126040094Y-92131176D01*
X125948942Y-91910571D01*
X125780307Y-91741641D01*
X125559861Y-91650104D01*
X125321166Y-91649896D01*
X125100561Y-91741048D01*
X124931631Y-91909683D01*
X124840094Y-92130129D01*
X124839886Y-92368824D01*
X124931038Y-92589429D01*
X125099673Y-92758359D01*
X125320119Y-92849896D01*
X125558814Y-92850104D01*
X125779419Y-92758952D01*
X125948349Y-92590317D01*
X126039886Y-92369871D01*
X126040094Y-92131176D01*
X126040094Y-102933397D01*
X125900568Y-102991048D01*
X125731638Y-103159683D01*
X125640101Y-103380129D01*
X125639893Y-103618824D01*
X125731045Y-103839429D01*
X125899680Y-104008359D01*
X126120126Y-104099896D01*
X126358821Y-104100104D01*
X126579426Y-104008952D01*
X126748356Y-103840317D01*
X126839893Y-103619871D01*
X126840101Y-103381176D01*
X126840101Y-119900000D01*
X125540094Y-119900000D01*
X125540094Y-105631176D01*
X125448942Y-105410571D01*
X125350104Y-105311560D01*
X125350104Y-101881176D01*
X125258952Y-101660571D01*
X125090317Y-101491641D01*
X124869871Y-101400104D01*
X124631176Y-101399896D01*
X124410571Y-101491048D01*
X124323512Y-101577954D01*
X124409916Y-101369871D01*
X124410124Y-101131176D01*
X124318972Y-100910571D01*
X124150337Y-100741641D01*
X123929891Y-100650104D01*
X123691196Y-100649896D01*
X123470591Y-100741048D01*
X123301661Y-100909683D01*
X123290044Y-100937658D01*
X123290094Y-100881176D01*
X123198942Y-100660571D01*
X123030307Y-100491641D01*
X122809861Y-100400104D01*
X122790094Y-100400086D01*
X122790094Y-92131176D01*
X122698942Y-91910571D01*
X122530307Y-91741641D01*
X122309861Y-91650104D01*
X122071166Y-91649896D01*
X121850561Y-91741048D01*
X121681631Y-91909683D01*
X121590094Y-92130129D01*
X121589886Y-92368824D01*
X121681038Y-92589429D01*
X121849673Y-92758359D01*
X122070119Y-92849896D01*
X122308814Y-92850104D01*
X122529419Y-92758952D01*
X122698349Y-92590317D01*
X122789886Y-92369871D01*
X122790094Y-92131176D01*
X122790094Y-100400086D01*
X122600548Y-100399920D01*
X122600548Y-94382065D01*
X122509396Y-94161460D01*
X122340761Y-93992530D01*
X122120315Y-93900993D01*
X121881620Y-93900785D01*
X121661015Y-93991937D01*
X121492085Y-94160572D01*
X121400548Y-94381018D01*
X121400340Y-94619713D01*
X121491492Y-94840318D01*
X121531690Y-94880587D01*
X121491635Y-94920573D01*
X121400098Y-95141019D01*
X121399890Y-95379714D01*
X121491042Y-95600319D01*
X121659677Y-95769249D01*
X121880123Y-95860786D01*
X122118818Y-95860994D01*
X122339423Y-95769842D01*
X122508353Y-95601207D01*
X122599890Y-95380761D01*
X122600098Y-95142066D01*
X122508946Y-94921461D01*
X122468747Y-94881191D01*
X122508803Y-94841206D01*
X122600340Y-94620760D01*
X122600548Y-94382065D01*
X122600548Y-100399920D01*
X122595181Y-100399916D01*
X122516915Y-100210497D01*
X122348280Y-100041567D01*
X122127834Y-99950030D01*
X121889139Y-99949822D01*
X121668534Y-100040974D01*
X121499604Y-100209609D01*
X121408067Y-100430055D01*
X121407859Y-100668750D01*
X121499011Y-100889355D01*
X121667646Y-101058285D01*
X121888092Y-101149822D01*
X122102771Y-101150009D01*
X122181038Y-101339429D01*
X122349673Y-101508359D01*
X122570119Y-101599896D01*
X122808814Y-101600104D01*
X123029419Y-101508952D01*
X123198349Y-101340317D01*
X123209965Y-101312341D01*
X123209916Y-101368824D01*
X123301068Y-101589429D01*
X123469703Y-101758359D01*
X123690149Y-101849896D01*
X123928844Y-101850104D01*
X124149449Y-101758952D01*
X124236507Y-101672045D01*
X124150104Y-101880129D01*
X124149896Y-102118824D01*
X124241048Y-102339429D01*
X124409683Y-102508359D01*
X124630129Y-102599896D01*
X124868824Y-102600104D01*
X125089429Y-102508952D01*
X125258359Y-102340317D01*
X125349896Y-102119871D01*
X125350104Y-101881176D01*
X125350104Y-105311560D01*
X125280307Y-105241641D01*
X125059861Y-105150104D01*
X124821166Y-105149896D01*
X124600561Y-105241048D01*
X124431631Y-105409683D01*
X124340094Y-105630129D01*
X124339886Y-105868824D01*
X124431038Y-106089429D01*
X124599673Y-106258359D01*
X124820119Y-106349896D01*
X125058814Y-106350104D01*
X125279419Y-106258952D01*
X125448349Y-106090317D01*
X125539886Y-105869871D01*
X125540094Y-105631176D01*
X125540094Y-119900000D01*
X124850104Y-119900000D01*
X124850104Y-108881176D01*
X124758952Y-108660571D01*
X124590317Y-108491641D01*
X124369871Y-108400104D01*
X124131176Y-108399896D01*
X123910571Y-108491048D01*
X123741641Y-108659683D01*
X123650104Y-108880129D01*
X123649896Y-109118824D01*
X123741048Y-109339429D01*
X123909683Y-109508359D01*
X124130129Y-109599896D01*
X124368824Y-109600104D01*
X124589429Y-109508952D01*
X124758359Y-109340317D01*
X124849896Y-109119871D01*
X124850104Y-108881176D01*
X124850104Y-119900000D01*
X123850104Y-119900000D01*
X123850104Y-111901195D01*
X123758952Y-111680590D01*
X123590317Y-111511660D01*
X123369871Y-111420123D01*
X123364234Y-111420118D01*
X123364234Y-105821172D01*
X123273082Y-105600567D01*
X123104447Y-105431637D01*
X122884001Y-105340100D01*
X122645306Y-105339892D01*
X122599660Y-105358752D01*
X122599660Y-102630287D01*
X122508508Y-102409682D01*
X122339873Y-102240752D01*
X122119427Y-102149215D01*
X121880732Y-102149007D01*
X121660127Y-102240159D01*
X121491197Y-102408794D01*
X121399660Y-102629240D01*
X121399452Y-102867935D01*
X121490604Y-103088540D01*
X121659239Y-103257470D01*
X121879685Y-103349007D01*
X122118380Y-103349215D01*
X122338985Y-103258063D01*
X122507915Y-103089428D01*
X122599452Y-102868982D01*
X122599660Y-102630287D01*
X122599660Y-105358752D01*
X122424701Y-105431044D01*
X122255771Y-105599679D01*
X122164234Y-105820125D01*
X122164026Y-106058820D01*
X122255178Y-106279425D01*
X122423813Y-106448355D01*
X122644259Y-106539892D01*
X122882954Y-106540100D01*
X123103559Y-106448948D01*
X123272489Y-106280313D01*
X123364026Y-106059867D01*
X123364234Y-105821172D01*
X123364234Y-111420118D01*
X123131176Y-111419915D01*
X122910571Y-111511067D01*
X122880096Y-111541488D01*
X122850320Y-111511660D01*
X122629874Y-111420123D01*
X122391179Y-111419915D01*
X122170574Y-111511067D01*
X122130078Y-111551491D01*
X122090317Y-111511660D01*
X121869871Y-111420123D01*
X121850104Y-111420105D01*
X121850104Y-106381176D01*
X121758952Y-106160571D01*
X121590317Y-105991641D01*
X121369871Y-105900104D01*
X121131176Y-105899896D01*
X121099655Y-105912920D01*
X121099655Y-89630278D01*
X121008503Y-89409673D01*
X120839868Y-89240743D01*
X120619422Y-89149206D01*
X120380727Y-89148998D01*
X120160122Y-89240150D01*
X119991192Y-89408785D01*
X119899655Y-89629231D01*
X119899447Y-89867926D01*
X119990599Y-90088531D01*
X120159234Y-90257461D01*
X120379680Y-90348998D01*
X120618375Y-90349206D01*
X120838980Y-90258054D01*
X121007910Y-90089419D01*
X121099447Y-89868973D01*
X121099655Y-89630278D01*
X121099655Y-105912920D01*
X120910571Y-105991048D01*
X120850104Y-106051409D01*
X120850104Y-103631176D01*
X120758952Y-103410571D01*
X120590317Y-103241641D01*
X120369871Y-103150104D01*
X120190094Y-103149947D01*
X120190094Y-90881176D01*
X120098942Y-90660571D01*
X119930307Y-90491641D01*
X119709861Y-90400104D01*
X119471166Y-90399896D01*
X119250561Y-90491048D01*
X119081631Y-90659683D01*
X118990094Y-90880129D01*
X118989886Y-91118824D01*
X119006871Y-91159931D01*
X118991195Y-91159918D01*
X118770590Y-91251070D01*
X118601660Y-91419705D01*
X118510123Y-91640151D01*
X118509915Y-91878846D01*
X118601067Y-92099451D01*
X118769702Y-92268381D01*
X118990148Y-92359918D01*
X119228843Y-92360126D01*
X119449448Y-92268974D01*
X119618378Y-92100339D01*
X119709915Y-91879893D01*
X119710123Y-91641198D01*
X119693137Y-91600090D01*
X119708814Y-91600104D01*
X119929419Y-91508952D01*
X120098349Y-91340317D01*
X120189886Y-91119871D01*
X120190094Y-90881176D01*
X120190094Y-103149947D01*
X120131176Y-103149896D01*
X120100104Y-103162734D01*
X120100104Y-99631176D01*
X120008952Y-99410571D01*
X119840317Y-99241641D01*
X119619871Y-99150104D01*
X119566146Y-99150057D01*
X119566146Y-97845682D01*
X119474994Y-97625077D01*
X119306359Y-97456147D01*
X119085913Y-97364610D01*
X118850104Y-97364404D01*
X118850104Y-92891194D01*
X118758952Y-92670589D01*
X118590317Y-92501659D01*
X118369871Y-92410122D01*
X118131176Y-92409914D01*
X117910571Y-92501066D01*
X117850104Y-92561427D01*
X117850104Y-89631176D01*
X117758952Y-89410571D01*
X117590317Y-89241641D01*
X117369871Y-89150104D01*
X117131176Y-89149896D01*
X116910571Y-89241048D01*
X116741641Y-89409683D01*
X116650104Y-89630129D01*
X116649896Y-89868824D01*
X116741048Y-90089429D01*
X116909683Y-90258359D01*
X117130129Y-90349896D01*
X117368824Y-90350104D01*
X117589429Y-90258952D01*
X117758359Y-90090317D01*
X117849896Y-89869871D01*
X117850104Y-89631176D01*
X117850104Y-92561427D01*
X117741641Y-92669701D01*
X117650104Y-92890147D01*
X117649896Y-93128842D01*
X117741048Y-93349447D01*
X117909683Y-93518377D01*
X118130129Y-93609914D01*
X118368824Y-93610122D01*
X118589429Y-93518970D01*
X118758359Y-93350335D01*
X118849896Y-93129889D01*
X118850104Y-92891194D01*
X118850104Y-97364404D01*
X118847218Y-97364402D01*
X118626613Y-97455554D01*
X118548568Y-97533462D01*
X118599896Y-97409851D01*
X118600104Y-97171156D01*
X118508952Y-96950551D01*
X118340317Y-96781621D01*
X118119871Y-96690084D01*
X117881176Y-96689876D01*
X117660571Y-96781028D01*
X117491641Y-96949663D01*
X117400104Y-97170109D01*
X117399896Y-97408804D01*
X117491048Y-97629409D01*
X117659683Y-97798339D01*
X117880129Y-97889876D01*
X118118824Y-97890084D01*
X118339429Y-97798932D01*
X118417473Y-97721023D01*
X118366146Y-97844635D01*
X118365938Y-98083330D01*
X118457090Y-98303935D01*
X118625725Y-98472865D01*
X118846171Y-98564402D01*
X119084866Y-98564610D01*
X119305471Y-98473458D01*
X119474401Y-98304823D01*
X119565938Y-98084377D01*
X119566146Y-97845682D01*
X119566146Y-99150057D01*
X119381176Y-99149896D01*
X119160571Y-99241048D01*
X118991641Y-99409683D01*
X118900104Y-99630129D01*
X118899896Y-99868824D01*
X118991048Y-100089429D01*
X119159683Y-100258359D01*
X119380129Y-100349896D01*
X119618824Y-100350104D01*
X119839429Y-100258952D01*
X120008359Y-100090317D01*
X120099896Y-99869871D01*
X120100104Y-99631176D01*
X120100104Y-103162734D01*
X119910571Y-103241048D01*
X119741641Y-103409683D01*
X119650104Y-103630129D01*
X119649896Y-103868824D01*
X119741048Y-104089429D01*
X119909683Y-104258359D01*
X120130129Y-104349896D01*
X120368824Y-104350104D01*
X120589429Y-104258952D01*
X120758359Y-104090317D01*
X120849896Y-103869871D01*
X120850104Y-103631176D01*
X120850104Y-106051409D01*
X120741641Y-106159683D01*
X120650104Y-106380129D01*
X120649896Y-106618824D01*
X120741048Y-106839429D01*
X120909683Y-107008359D01*
X121130129Y-107099896D01*
X121368824Y-107100104D01*
X121589429Y-107008952D01*
X121758359Y-106840317D01*
X121849896Y-106619871D01*
X121850104Y-106381176D01*
X121850104Y-111420105D01*
X121631176Y-111419915D01*
X121410571Y-111511067D01*
X121241641Y-111679702D01*
X121150104Y-111900148D01*
X121149896Y-112138843D01*
X121241048Y-112359448D01*
X121409683Y-112528378D01*
X121630129Y-112619915D01*
X121868824Y-112620123D01*
X122089429Y-112528971D01*
X122129924Y-112488546D01*
X122169686Y-112528378D01*
X122390132Y-112619915D01*
X122628827Y-112620123D01*
X122849432Y-112528971D01*
X122879906Y-112498549D01*
X122909683Y-112528378D01*
X123130129Y-112619915D01*
X123368824Y-112620123D01*
X123589429Y-112528971D01*
X123758359Y-112360336D01*
X123849896Y-112139890D01*
X123850104Y-111901195D01*
X123850104Y-119900000D01*
X122600104Y-119900000D01*
X122600104Y-117881176D01*
X122508952Y-117660571D01*
X122340317Y-117491641D01*
X122119871Y-117400104D01*
X121881176Y-117399896D01*
X121850104Y-117412734D01*
X121850104Y-116881176D01*
X121758952Y-116660571D01*
X121590317Y-116491641D01*
X121369871Y-116400104D01*
X121131176Y-116399896D01*
X120910571Y-116491048D01*
X120741641Y-116659683D01*
X120650104Y-116880129D01*
X120649896Y-117118824D01*
X120741048Y-117339429D01*
X120909683Y-117508359D01*
X121130129Y-117599896D01*
X121368824Y-117600104D01*
X121589429Y-117508952D01*
X121758359Y-117340317D01*
X121849896Y-117119871D01*
X121850104Y-116881176D01*
X121850104Y-117412734D01*
X121660571Y-117491048D01*
X121491641Y-117659683D01*
X121400104Y-117880129D01*
X121399896Y-118118824D01*
X121491048Y-118339429D01*
X121659683Y-118508359D01*
X121880129Y-118599896D01*
X122118824Y-118600104D01*
X122339429Y-118508952D01*
X122508359Y-118340317D01*
X122599896Y-118119871D01*
X122600104Y-117881176D01*
X122600104Y-119900000D01*
X119631349Y-119900000D01*
X119631349Y-110849931D01*
X119540197Y-110629326D01*
X119371562Y-110460396D01*
X119151116Y-110368859D01*
X118912421Y-110368651D01*
X118691816Y-110459803D01*
X118522886Y-110628438D01*
X118431349Y-110848884D01*
X118431141Y-111087579D01*
X118522293Y-111308184D01*
X118690928Y-111477114D01*
X118911374Y-111568651D01*
X119150069Y-111568859D01*
X119370674Y-111477707D01*
X119539604Y-111309072D01*
X119631141Y-111088626D01*
X119631349Y-110849931D01*
X119631349Y-119900000D01*
X119600104Y-119900000D01*
X119600104Y-112381176D01*
X119508952Y-112160571D01*
X119340317Y-111991641D01*
X119119871Y-111900104D01*
X118881176Y-111899896D01*
X118660571Y-111991048D01*
X118491641Y-112159683D01*
X118400104Y-112380129D01*
X118399896Y-112618824D01*
X118491048Y-112839429D01*
X118659683Y-113008359D01*
X118880129Y-113099896D01*
X119118824Y-113100104D01*
X119339429Y-113008952D01*
X119508359Y-112840317D01*
X119599896Y-112619871D01*
X119600104Y-112381176D01*
X119600104Y-119900000D01*
X118840084Y-119900000D01*
X118840084Y-115878562D01*
X118748932Y-115657957D01*
X118580297Y-115489027D01*
X118359851Y-115397490D01*
X118272672Y-115397414D01*
X118272672Y-99553744D01*
X118181520Y-99333139D01*
X118012885Y-99164209D01*
X117792439Y-99072672D01*
X117553744Y-99072464D01*
X117333139Y-99163616D01*
X117164209Y-99332251D01*
X117072672Y-99552697D01*
X117072464Y-99791392D01*
X117163616Y-100011997D01*
X117332251Y-100180927D01*
X117552697Y-100272464D01*
X117791392Y-100272672D01*
X118011997Y-100181520D01*
X118180927Y-100012885D01*
X118272464Y-99792439D01*
X118272672Y-99553744D01*
X118272672Y-115397414D01*
X118121156Y-115397282D01*
X117900551Y-115488434D01*
X117731621Y-115657069D01*
X117640084Y-115877515D01*
X117639876Y-116116210D01*
X117731028Y-116336815D01*
X117899663Y-116505745D01*
X118120109Y-116597282D01*
X118358804Y-116597490D01*
X118579409Y-116506338D01*
X118748339Y-116337703D01*
X118839876Y-116117257D01*
X118840084Y-115878562D01*
X118840084Y-119900000D01*
X116087385Y-119900000D01*
X116099896Y-119869871D01*
X116100104Y-119631176D01*
X116008952Y-119410571D01*
X115973529Y-119375086D01*
X116008359Y-119340317D01*
X116099896Y-119119871D01*
X116100104Y-118881176D01*
X116008952Y-118660571D01*
X115978534Y-118630099D01*
X116008359Y-118600327D01*
X116099896Y-118379881D01*
X116100104Y-118141186D01*
X116100104Y-102641179D01*
X116008952Y-102420574D01*
X115968527Y-102380078D01*
X116008359Y-102340317D01*
X116099896Y-102119871D01*
X116100104Y-101881176D01*
X116008952Y-101660571D01*
X115840317Y-101491641D01*
X115619871Y-101400104D01*
X115381176Y-101399896D01*
X115160571Y-101491048D01*
X114991641Y-101659683D01*
X114900104Y-101880129D01*
X114899896Y-102118824D01*
X114991048Y-102339429D01*
X115031472Y-102379924D01*
X114991641Y-102419686D01*
X114900104Y-102640132D01*
X114899896Y-102878827D01*
X114991048Y-103099432D01*
X115159683Y-103268362D01*
X115380129Y-103359899D01*
X115618824Y-103360107D01*
X115839429Y-103268955D01*
X116008359Y-103100320D01*
X116099896Y-102879874D01*
X116100104Y-102641179D01*
X116100104Y-118141186D01*
X116008952Y-117920581D01*
X115840317Y-117751651D01*
X115619871Y-117660114D01*
X115381176Y-117659906D01*
X115160571Y-117751058D01*
X115004872Y-117906484D01*
X114973529Y-117875086D01*
X115008359Y-117840317D01*
X115099896Y-117619871D01*
X115100104Y-117381176D01*
X115008952Y-117160571D01*
X114840317Y-116991641D01*
X114619871Y-116900104D01*
X114381176Y-116899896D01*
X114160571Y-116991048D01*
X113999867Y-117151470D01*
X113840317Y-116991641D01*
X113840102Y-116991551D01*
X113840102Y-100881176D01*
X113748950Y-100660571D01*
X113580315Y-100491641D01*
X113359869Y-100400104D01*
X113121174Y-100399896D01*
X112900569Y-100491048D01*
X112731639Y-100659683D01*
X112640102Y-100880129D01*
X112639894Y-101118824D01*
X112731046Y-101339429D01*
X112899681Y-101508359D01*
X113120127Y-101599896D01*
X113358822Y-101600104D01*
X113579427Y-101508952D01*
X113748357Y-101340317D01*
X113839894Y-101119871D01*
X113840102Y-100881176D01*
X113840102Y-116991551D01*
X113619871Y-116900104D01*
X113381176Y-116899896D01*
X113160571Y-116991048D01*
X112999867Y-117151470D01*
X112840317Y-116991641D01*
X112619871Y-116900104D01*
X112381176Y-116899896D01*
X112160571Y-116991048D01*
X111991641Y-117159683D01*
X111900104Y-117380129D01*
X111899896Y-117618824D01*
X111991048Y-117839429D01*
X112026470Y-117874913D01*
X111991641Y-117909683D01*
X111900104Y-118130129D01*
X111899896Y-118368824D01*
X111991048Y-118589429D01*
X112026470Y-118624913D01*
X111991641Y-118659683D01*
X111900104Y-118880129D01*
X111899896Y-119118824D01*
X111991048Y-119339429D01*
X112026470Y-119374913D01*
X111991641Y-119409683D01*
X111900104Y-119630129D01*
X111899896Y-119868824D01*
X111912777Y-119900000D01*
X110600104Y-119900000D01*
X110600104Y-112881176D01*
X110600104Y-101131176D01*
X110508952Y-100910571D01*
X110340317Y-100741641D01*
X110119871Y-100650104D01*
X109881176Y-100649896D01*
X109660571Y-100741048D01*
X109491641Y-100909683D01*
X109400104Y-101130129D01*
X109399896Y-101368824D01*
X109491048Y-101589429D01*
X109659683Y-101758359D01*
X109880129Y-101849896D01*
X110118824Y-101850104D01*
X110339429Y-101758952D01*
X110508359Y-101590317D01*
X110599896Y-101369871D01*
X110600104Y-101131176D01*
X110600104Y-112881176D01*
X110508952Y-112660571D01*
X110340317Y-112491641D01*
X110119871Y-112400104D01*
X109881176Y-112399896D01*
X109660571Y-112491048D01*
X109499867Y-112651470D01*
X109340317Y-112491641D01*
X109119871Y-112400104D01*
X108881176Y-112399896D01*
X108660571Y-112491048D01*
X108491641Y-112659683D01*
X108400104Y-112880129D01*
X108399896Y-113118824D01*
X108491048Y-113339429D01*
X108659683Y-113508359D01*
X108880129Y-113599896D01*
X109118824Y-113600104D01*
X109339429Y-113508952D01*
X109500132Y-113348529D01*
X109659683Y-113508359D01*
X109880129Y-113599896D01*
X110118824Y-113600104D01*
X110339429Y-113508952D01*
X110508359Y-113340317D01*
X110599896Y-113119871D01*
X110600104Y-112881176D01*
X110600104Y-119900000D01*
X108350104Y-119900000D01*
X108350104Y-88881176D01*
X108258952Y-88660571D01*
X108090317Y-88491641D01*
X107869871Y-88400104D01*
X107631176Y-88399896D01*
X107410571Y-88491048D01*
X107241641Y-88659683D01*
X107150104Y-88880129D01*
X107149896Y-89118824D01*
X107241048Y-89339429D01*
X107409683Y-89508359D01*
X107630129Y-89599896D01*
X107868824Y-89600104D01*
X108089429Y-89508952D01*
X108258359Y-89340317D01*
X108349896Y-89119871D01*
X108350104Y-88881176D01*
X108350104Y-119900000D01*
X107350104Y-119900000D01*
X107350104Y-98881176D01*
X107350104Y-91631178D01*
X107258952Y-91410573D01*
X107218521Y-91370071D01*
X107258359Y-91330304D01*
X107349896Y-91109858D01*
X107350104Y-90871163D01*
X107258952Y-90650558D01*
X107090317Y-90481628D01*
X106869871Y-90390091D01*
X106631176Y-90389883D01*
X106410571Y-90481035D01*
X106241641Y-90649670D01*
X106150104Y-90870116D01*
X106149896Y-91108811D01*
X106241048Y-91329416D01*
X106281478Y-91369917D01*
X106241641Y-91409685D01*
X106150104Y-91630131D01*
X106149896Y-91868826D01*
X106241048Y-92089431D01*
X106409683Y-92258361D01*
X106630129Y-92349898D01*
X106868824Y-92350106D01*
X107089429Y-92258954D01*
X107258359Y-92090319D01*
X107349896Y-91869873D01*
X107350104Y-91631178D01*
X107350104Y-98881176D01*
X107258952Y-98660571D01*
X107090317Y-98491641D01*
X106869871Y-98400104D01*
X106858423Y-98400094D01*
X106858423Y-93131730D01*
X106767271Y-92911125D01*
X106598636Y-92742195D01*
X106378190Y-92650658D01*
X106139495Y-92650450D01*
X105918890Y-92741602D01*
X105904515Y-92755951D01*
X105840317Y-92691641D01*
X105619871Y-92600104D01*
X105381176Y-92599896D01*
X105160571Y-92691048D01*
X104991641Y-92859683D01*
X104900104Y-93080129D01*
X104899896Y-93318824D01*
X104991048Y-93539429D01*
X105159683Y-93708359D01*
X105380129Y-93799896D01*
X105618824Y-93800104D01*
X105839429Y-93708952D01*
X105853803Y-93694602D01*
X105918002Y-93758913D01*
X106138448Y-93850450D01*
X106377143Y-93850658D01*
X106597748Y-93759506D01*
X106766678Y-93590871D01*
X106858215Y-93370425D01*
X106858423Y-93131730D01*
X106858423Y-98400094D01*
X106631176Y-98399896D01*
X106410571Y-98491048D01*
X106241641Y-98659683D01*
X106150104Y-98880129D01*
X106149896Y-99118824D01*
X106241048Y-99339429D01*
X106409683Y-99508359D01*
X106630129Y-99599896D01*
X106868824Y-99600104D01*
X107089429Y-99508952D01*
X107258359Y-99340317D01*
X107349896Y-99119871D01*
X107350104Y-98881176D01*
X107350104Y-119900000D01*
X106850104Y-119900000D01*
X106850104Y-115131176D01*
X106758952Y-114910571D01*
X106590317Y-114741641D01*
X106369871Y-114650104D01*
X106131176Y-114649896D01*
X106100104Y-114662734D01*
X106100104Y-95781176D01*
X106008952Y-95560571D01*
X105840317Y-95391641D01*
X105619871Y-95300104D01*
X105381176Y-95299896D01*
X105160571Y-95391048D01*
X104991641Y-95559683D01*
X104900104Y-95780129D01*
X104899988Y-95912609D01*
X104869871Y-95900104D01*
X104631176Y-95899896D01*
X104410571Y-95991048D01*
X104250304Y-96151035D01*
X104250304Y-89653431D01*
X103984443Y-89009999D01*
X103492590Y-88517287D01*
X102849624Y-88250304D01*
X102153431Y-88249696D01*
X101509999Y-88515557D01*
X101017287Y-89007410D01*
X100750304Y-89650376D01*
X100749696Y-90346569D01*
X101015557Y-90990001D01*
X101507410Y-91482713D01*
X102150376Y-91749696D01*
X102846569Y-91750304D01*
X103490001Y-91484443D01*
X103982713Y-90992590D01*
X104249696Y-90349624D01*
X104250304Y-89653431D01*
X104250304Y-96151035D01*
X104241641Y-96159683D01*
X104150104Y-96380129D01*
X104149896Y-96618824D01*
X104241048Y-96839429D01*
X104409683Y-97008359D01*
X104630129Y-97099896D01*
X104868824Y-97100104D01*
X105089429Y-97008952D01*
X105258359Y-96840317D01*
X105349896Y-96619871D01*
X105350011Y-96487390D01*
X105380129Y-96499896D01*
X105618824Y-96500104D01*
X105839429Y-96408952D01*
X106008359Y-96240317D01*
X106099896Y-96019871D01*
X106100104Y-95781176D01*
X106100104Y-114662734D01*
X105910571Y-114741048D01*
X105741641Y-114909683D01*
X105650104Y-115130129D01*
X105649896Y-115368824D01*
X105741048Y-115589429D01*
X105909683Y-115758359D01*
X106130129Y-115849896D01*
X106368824Y-115850104D01*
X106589429Y-115758952D01*
X106758359Y-115590317D01*
X106849896Y-115369871D01*
X106850104Y-115131176D01*
X106850104Y-119900000D01*
X105025000Y-119900000D01*
X105025000Y-112770081D01*
X105025000Y-112729919D01*
X105025000Y-107770081D01*
X105025000Y-107729919D01*
X104946977Y-107337668D01*
X104850104Y-107192688D01*
X104850104Y-98131176D01*
X104758952Y-97910571D01*
X104590317Y-97741641D01*
X104369871Y-97650104D01*
X104131176Y-97649896D01*
X103910571Y-97741048D01*
X103741641Y-97909683D01*
X103650104Y-98130129D01*
X103649896Y-98368824D01*
X103741048Y-98589429D01*
X103909683Y-98758359D01*
X104130129Y-98849896D01*
X104368824Y-98850104D01*
X104589429Y-98758952D01*
X104758359Y-98590317D01*
X104849896Y-98369871D01*
X104850104Y-98131176D01*
X104850104Y-107192688D01*
X104724784Y-107005135D01*
X104392251Y-106782942D01*
X104000000Y-106704919D01*
X103607749Y-106782942D01*
X103275216Y-107005135D01*
X103053023Y-107337668D01*
X102975000Y-107729919D01*
X102975000Y-107770081D01*
X103053023Y-108162332D01*
X103275216Y-108494865D01*
X103607749Y-108717058D01*
X104000000Y-108795081D01*
X104392251Y-108717058D01*
X104724784Y-108494865D01*
X104946977Y-108162332D01*
X105025000Y-107770081D01*
X105025000Y-112729919D01*
X104946977Y-112337668D01*
X104724784Y-112005135D01*
X104392251Y-111782942D01*
X104000000Y-111704919D01*
X103607749Y-111782942D01*
X103275216Y-112005135D01*
X103053023Y-112337668D01*
X102975000Y-112729919D01*
X102975000Y-112770081D01*
X103053023Y-113162332D01*
X103275216Y-113494865D01*
X103607749Y-113717058D01*
X104000000Y-113795081D01*
X104392251Y-113717058D01*
X104724784Y-113494865D01*
X104946977Y-113162332D01*
X105025000Y-112770081D01*
X105025000Y-119900000D01*
X104250304Y-119900000D01*
X104250304Y-117653431D01*
X103984443Y-117009999D01*
X103492590Y-116517287D01*
X102849624Y-116250304D01*
X102153431Y-116249696D01*
X101509999Y-116515557D01*
X101017287Y-117007410D01*
X100750304Y-117650376D01*
X100749696Y-118346569D01*
X101015557Y-118990001D01*
X101507410Y-119482713D01*
X102150376Y-119749696D01*
X102846569Y-119750304D01*
X103490001Y-119484443D01*
X103982713Y-118992590D01*
X104249696Y-118349624D01*
X104250304Y-117653431D01*
X104250304Y-119900000D01*
X100600000Y-119900000D01*
X100600000Y-114691301D01*
X100850347Y-114858578D01*
X101300000Y-114948020D01*
X101749653Y-114858578D01*
X102130850Y-114603870D01*
X102385558Y-114222673D01*
X102475000Y-113773020D01*
X102475000Y-113726980D01*
X102385558Y-113277327D01*
X102130850Y-112896130D01*
X101749653Y-112641422D01*
X101300000Y-112551980D01*
X100850347Y-112641422D01*
X100600000Y-112808698D01*
X100600000Y-107691301D01*
X100850347Y-107858578D01*
X101300000Y-107948020D01*
X101749653Y-107858578D01*
X102130850Y-107603870D01*
X102385558Y-107222673D01*
X102475000Y-106773020D01*
X102475000Y-106726980D01*
X102385558Y-106277327D01*
X102130850Y-105896130D01*
X101749653Y-105641422D01*
X101300000Y-105551980D01*
X100850347Y-105641422D01*
X100600000Y-105808698D01*
X100600000Y-88100000D01*
X113249994Y-88100000D01*
X113096927Y-88130448D01*
X112967157Y-88217157D01*
X112967154Y-88217160D01*
X112534284Y-88650029D01*
X112381176Y-88649896D01*
X112160571Y-88741048D01*
X111991641Y-88909683D01*
X111986608Y-88921801D01*
X111895859Y-88884119D01*
X111828353Y-88884060D01*
X111840011Y-88855986D01*
X111840219Y-88617291D01*
X111749067Y-88396686D01*
X111580432Y-88227756D01*
X111359986Y-88136219D01*
X111121291Y-88136011D01*
X110900686Y-88227163D01*
X110731756Y-88395798D01*
X110640219Y-88616244D01*
X110640011Y-88854939D01*
X110691046Y-88978455D01*
X110660571Y-88991048D01*
X110491641Y-89159683D01*
X110400104Y-89380129D01*
X110399896Y-89618824D01*
X110491048Y-89839429D01*
X110659683Y-90008359D01*
X110880129Y-90099896D01*
X111118824Y-90100104D01*
X111339429Y-90008952D01*
X111395923Y-89952556D01*
X111435671Y-89992374D01*
X111656117Y-90083911D01*
X111894812Y-90084119D01*
X112115417Y-89992967D01*
X112284347Y-89824332D01*
X112289379Y-89812213D01*
X112380129Y-89849896D01*
X112618824Y-89850104D01*
X112839429Y-89758952D01*
X113008359Y-89590317D01*
X113099896Y-89369871D01*
X113099933Y-89326440D01*
X113146444Y-89439004D01*
X113315079Y-89607934D01*
X113460069Y-89668139D01*
X113459901Y-89861746D01*
X113551053Y-90082351D01*
X113719688Y-90251281D01*
X113940134Y-90342818D01*
X114178829Y-90343026D01*
X114399434Y-90251874D01*
X114568364Y-90083239D01*
X114659901Y-89862793D01*
X114660109Y-89624098D01*
X114568957Y-89403493D01*
X114400322Y-89234563D01*
X114255331Y-89174357D01*
X114255500Y-88980751D01*
X114222134Y-88900000D01*
X117412777Y-88900000D01*
X117491048Y-89089429D01*
X117659683Y-89258359D01*
X117880129Y-89349896D01*
X118118824Y-89350104D01*
X118339429Y-89258952D01*
X118508359Y-89090317D01*
X118599896Y-88869871D01*
X118600104Y-88631176D01*
X118508952Y-88410571D01*
X118340317Y-88241641D01*
X118119871Y-88150104D01*
X117932246Y-88149940D01*
X117932245Y-88149940D01*
X117903074Y-88130448D01*
X117750000Y-88100000D01*
X148400000Y-88100000D01*
X148400000Y-92141994D01*
X148184217Y-91819053D01*
X147839680Y-91588840D01*
X147433270Y-91508000D01*
X146932988Y-91508000D01*
X146990001Y-91484443D01*
X147482713Y-90992590D01*
X147749696Y-90349624D01*
X147750304Y-89653431D01*
X147484443Y-89009999D01*
X146992590Y-88517287D01*
X146349624Y-88250304D01*
X145653431Y-88249696D01*
X145009999Y-88515557D01*
X144517287Y-89007410D01*
X144250304Y-89650376D01*
X144249696Y-90346569D01*
X144515557Y-90990001D01*
X145007410Y-91482713D01*
X145054154Y-91502123D01*
X142833000Y-91502123D01*
X142718611Y-91524317D01*
X142618074Y-91590359D01*
X142600104Y-91616980D01*
X142600104Y-90631176D01*
X142508952Y-90410571D01*
X142340317Y-90241641D01*
X142119871Y-90150104D01*
X141881176Y-90149896D01*
X141660571Y-90241048D01*
X141491641Y-90409683D01*
X141400104Y-90630129D01*
X141399896Y-90868824D01*
X141491048Y-91089429D01*
X141659683Y-91258359D01*
X141880129Y-91349896D01*
X142118824Y-91350104D01*
X142339429Y-91258952D01*
X142508359Y-91090317D01*
X142599896Y-90869871D01*
X142600104Y-90631176D01*
X142600104Y-91616980D01*
X142550775Y-91690060D01*
X142527123Y-91808000D01*
X142527123Y-93332000D01*
X142549317Y-93446389D01*
X142574814Y-93485203D01*
X142369871Y-93400104D01*
X142131176Y-93399896D01*
X141910571Y-93491048D01*
X141741641Y-93659683D01*
X141650104Y-93880129D01*
X141649896Y-94118824D01*
X141741048Y-94339429D01*
X141909683Y-94508359D01*
X142130129Y-94599896D01*
X142368824Y-94600104D01*
X142589429Y-94508952D01*
X142758359Y-94340317D01*
X142849896Y-94119871D01*
X142850104Y-93881176D01*
X142758952Y-93660571D01*
X142707784Y-93609313D01*
X142715060Y-93614225D01*
X142833000Y-93637877D01*
X145119000Y-93637877D01*
X145233389Y-93615683D01*
X145333926Y-93549641D01*
X145401225Y-93449940D01*
X145424877Y-93332000D01*
X145424877Y-91808000D01*
X145402683Y-91693611D01*
X145360440Y-91629304D01*
X145650376Y-91749696D01*
X145967168Y-91749972D01*
X145863783Y-91819053D01*
X145633570Y-92163590D01*
X145552730Y-92570000D01*
X145633570Y-92976410D01*
X145863783Y-93320947D01*
X146208320Y-93551160D01*
X146614730Y-93632000D01*
X147433270Y-93632000D01*
X147839680Y-93551160D01*
X148184217Y-93320947D01*
X148400000Y-92998005D01*
X148400000Y-94550769D01*
X148262013Y-94323697D01*
X147895872Y-94055586D01*
X147455000Y-93948000D01*
X147074000Y-93948000D01*
X147074000Y-95060000D01*
X147094000Y-95060000D01*
X147094000Y-95160000D01*
X147074000Y-95160000D01*
X147074000Y-96272000D01*
X147455000Y-96272000D01*
X147895872Y-96164414D01*
X148262013Y-95896303D01*
X148400000Y-95669230D01*
X148400000Y-97090769D01*
X148262013Y-96863697D01*
X147895872Y-96595586D01*
X147455000Y-96488000D01*
X147074000Y-96488000D01*
X147074000Y-97600000D01*
X147094000Y-97600000D01*
X147094000Y-97700000D01*
X147074000Y-97700000D01*
X147074000Y-98812000D01*
X147455000Y-98812000D01*
X147895872Y-98704414D01*
X148262013Y-98436303D01*
X148400000Y-98209230D01*
X148400000Y-99630769D01*
X148262013Y-99403697D01*
X147895872Y-99135586D01*
X147455000Y-99028000D01*
X147074000Y-99028000D01*
X147074000Y-100140000D01*
X147094000Y-100140000D01*
X147094000Y-100240000D01*
X147074000Y-100240000D01*
X147074000Y-101352000D01*
X147455000Y-101352000D01*
X147895872Y-101244414D01*
X148262013Y-100976303D01*
X148400000Y-100749230D01*
X148400000Y-102170769D01*
X148262013Y-101943697D01*
X147895872Y-101675586D01*
X147455000Y-101568000D01*
X147074000Y-101568000D01*
X147074000Y-102680000D01*
X147094000Y-102680000D01*
X147094000Y-102780000D01*
X147074000Y-102780000D01*
X147074000Y-103892000D01*
X147455000Y-103892000D01*
X147895872Y-103784414D01*
X148262013Y-103516303D01*
X148400000Y-103289230D01*
X148400000Y-104710769D01*
X148262013Y-104483697D01*
X147895872Y-104215586D01*
X147455000Y-104108000D01*
X147074000Y-104108000D01*
X147074000Y-105220000D01*
X147094000Y-105220000D01*
X147094000Y-105320000D01*
X147074000Y-105320000D01*
X147074000Y-106432000D01*
X147455000Y-106432000D01*
X147895872Y-106324414D01*
X148262013Y-106056303D01*
X148400000Y-105829230D01*
X148400000Y-107250769D01*
X148262013Y-107023697D01*
X147895872Y-106755586D01*
X147455000Y-106648000D01*
X147074000Y-106648000D01*
X147074000Y-107760000D01*
X147094000Y-107760000D01*
X147094000Y-107860000D01*
X147074000Y-107860000D01*
X147074000Y-108972000D01*
X147455000Y-108972000D01*
X147895872Y-108864414D01*
X148262013Y-108596303D01*
X148400000Y-108369230D01*
X148400000Y-109790769D01*
X148262013Y-109563697D01*
X147895872Y-109295586D01*
X147455000Y-109188000D01*
X147074000Y-109188000D01*
X147074000Y-110300000D01*
X147094000Y-110300000D01*
X147094000Y-110400000D01*
X147074000Y-110400000D01*
X147074000Y-111512000D01*
X147455000Y-111512000D01*
X147895872Y-111404414D01*
X148262013Y-111136303D01*
X148400000Y-110909230D01*
X148400000Y-112330769D01*
X148262013Y-112103697D01*
X147895872Y-111835586D01*
X147455000Y-111728000D01*
X147074000Y-111728000D01*
X147074000Y-112840000D01*
X147094000Y-112840000D01*
X147094000Y-112940000D01*
X147074000Y-112940000D01*
X147074000Y-114052000D01*
X147455000Y-114052000D01*
X147895872Y-113944414D01*
X148262013Y-113676303D01*
X148400000Y-113449230D01*
X148400000Y-114870769D01*
X148262013Y-114643697D01*
X147895872Y-114375586D01*
X147455000Y-114268000D01*
X147074000Y-114268000D01*
X147074000Y-115380000D01*
X147094000Y-115380000D01*
X147094000Y-115480000D01*
X147074000Y-115480000D01*
X147074000Y-115500000D01*
X146974000Y-115500000D01*
X146974000Y-115480000D01*
X146974000Y-115380000D01*
X146974000Y-114268000D01*
X146974000Y-114052000D01*
X146974000Y-112940000D01*
X146974000Y-112840000D01*
X146974000Y-111728000D01*
X146974000Y-111512000D01*
X146974000Y-110400000D01*
X146974000Y-110300000D01*
X146974000Y-109188000D01*
X146974000Y-108972000D01*
X146974000Y-107860000D01*
X146974000Y-107760000D01*
X146974000Y-106648000D01*
X146974000Y-106432000D01*
X146974000Y-105320000D01*
X146974000Y-105220000D01*
X146974000Y-104108000D01*
X146974000Y-103892000D01*
X146974000Y-102780000D01*
X146974000Y-102680000D01*
X146974000Y-101568000D01*
X146974000Y-101352000D01*
X146974000Y-100240000D01*
X146974000Y-100140000D01*
X146974000Y-99028000D01*
X146974000Y-98812000D01*
X146974000Y-97700000D01*
X146974000Y-97600000D01*
X146974000Y-96488000D01*
X146974000Y-96272000D01*
X146974000Y-95160000D01*
X146974000Y-95060000D01*
X146974000Y-93948000D01*
X146593000Y-93948000D01*
X146152128Y-94055586D01*
X145785987Y-94323697D01*
X145550318Y-94711515D01*
X145504191Y-94879007D01*
X145582178Y-95060000D01*
X146974000Y-95060000D01*
X146974000Y-95160000D01*
X145582178Y-95160000D01*
X145504191Y-95340993D01*
X145550318Y-95508485D01*
X145785987Y-95896303D01*
X146152128Y-96164414D01*
X146593000Y-96272000D01*
X146974000Y-96272000D01*
X146974000Y-96488000D01*
X146593000Y-96488000D01*
X146152128Y-96595586D01*
X145785987Y-96863697D01*
X145550318Y-97251515D01*
X145504191Y-97419007D01*
X145582178Y-97600000D01*
X146974000Y-97600000D01*
X146974000Y-97700000D01*
X145582178Y-97700000D01*
X145504191Y-97880993D01*
X145550318Y-98048485D01*
X145785987Y-98436303D01*
X146152128Y-98704414D01*
X146593000Y-98812000D01*
X146974000Y-98812000D01*
X146974000Y-99028000D01*
X146593000Y-99028000D01*
X146152128Y-99135586D01*
X145785987Y-99403697D01*
X145550318Y-99791515D01*
X145504191Y-99959007D01*
X145582178Y-100140000D01*
X146974000Y-100140000D01*
X146974000Y-100240000D01*
X145582178Y-100240000D01*
X145504191Y-100420993D01*
X145550318Y-100588485D01*
X145785987Y-100976303D01*
X146152128Y-101244414D01*
X146593000Y-101352000D01*
X146974000Y-101352000D01*
X146974000Y-101568000D01*
X146593000Y-101568000D01*
X146152128Y-101675586D01*
X145785987Y-101943697D01*
X145550318Y-102331515D01*
X145504191Y-102499007D01*
X145582178Y-102680000D01*
X146974000Y-102680000D01*
X146974000Y-102780000D01*
X145582178Y-102780000D01*
X145504191Y-102960993D01*
X145550318Y-103128485D01*
X145785987Y-103516303D01*
X146152128Y-103784414D01*
X146593000Y-103892000D01*
X146974000Y-103892000D01*
X146974000Y-104108000D01*
X146593000Y-104108000D01*
X146152128Y-104215586D01*
X145785987Y-104483697D01*
X145550318Y-104871515D01*
X145504191Y-105039007D01*
X145582178Y-105220000D01*
X146974000Y-105220000D01*
X146974000Y-105320000D01*
X145582178Y-105320000D01*
X145504191Y-105500993D01*
X145550318Y-105668485D01*
X145785987Y-106056303D01*
X146152128Y-106324414D01*
X146593000Y-106432000D01*
X146974000Y-106432000D01*
X146974000Y-106648000D01*
X146593000Y-106648000D01*
X146152128Y-106755586D01*
X145785987Y-107023697D01*
X145550318Y-107411515D01*
X145504191Y-107579007D01*
X145582178Y-107760000D01*
X146974000Y-107760000D01*
X146974000Y-107860000D01*
X145582178Y-107860000D01*
X145504191Y-108040993D01*
X145550318Y-108208485D01*
X145785987Y-108596303D01*
X146152128Y-108864414D01*
X146593000Y-108972000D01*
X146974000Y-108972000D01*
X146974000Y-109188000D01*
X146593000Y-109188000D01*
X146152128Y-109295586D01*
X145785987Y-109563697D01*
X145550318Y-109951515D01*
X145504191Y-110119007D01*
X145582178Y-110300000D01*
X146974000Y-110300000D01*
X146974000Y-110400000D01*
X145582178Y-110400000D01*
X145504191Y-110580993D01*
X145550318Y-110748485D01*
X145785987Y-111136303D01*
X146152128Y-111404414D01*
X146593000Y-111512000D01*
X146974000Y-111512000D01*
X146974000Y-111728000D01*
X146593000Y-111728000D01*
X146152128Y-111835586D01*
X145785987Y-112103697D01*
X145550318Y-112491515D01*
X145504191Y-112659007D01*
X145582178Y-112840000D01*
X146974000Y-112840000D01*
X146974000Y-112940000D01*
X145582178Y-112940000D01*
X145504191Y-113120993D01*
X145550318Y-113288485D01*
X145785987Y-113676303D01*
X146152128Y-113944414D01*
X146593000Y-114052000D01*
X146974000Y-114052000D01*
X146974000Y-114268000D01*
X146593000Y-114268000D01*
X146152128Y-114375586D01*
X145785987Y-114643697D01*
X145550318Y-115031515D01*
X145504191Y-115199007D01*
X145582178Y-115380000D01*
X146974000Y-115380000D01*
X146974000Y-115480000D01*
X145582178Y-115480000D01*
X145504191Y-115660993D01*
X145550318Y-115828485D01*
X145785987Y-116216303D01*
X145831802Y-116249851D01*
X145653431Y-116249696D01*
X145447270Y-116334880D01*
X145447270Y-115430000D01*
X145447270Y-112890000D01*
X145447270Y-110350000D01*
X145447270Y-107810000D01*
X145447270Y-105270000D01*
X145447270Y-102730000D01*
X145447270Y-100190000D01*
X145447270Y-97650000D01*
X145447270Y-95110000D01*
X145366430Y-94703590D01*
X145136217Y-94359053D01*
X144791680Y-94128840D01*
X144385270Y-94048000D01*
X143566730Y-94048000D01*
X143160320Y-94128840D01*
X142815783Y-94359053D01*
X142585570Y-94703590D01*
X142504730Y-95110000D01*
X142585570Y-95516410D01*
X142815783Y-95860947D01*
X143160320Y-96091160D01*
X143566730Y-96172000D01*
X144385270Y-96172000D01*
X144791680Y-96091160D01*
X145136217Y-95860947D01*
X145366430Y-95516410D01*
X145447270Y-95110000D01*
X145447270Y-97650000D01*
X145366430Y-97243590D01*
X145136217Y-96899053D01*
X144791680Y-96668840D01*
X144385270Y-96588000D01*
X143566730Y-96588000D01*
X143160320Y-96668840D01*
X142815783Y-96899053D01*
X142585570Y-97243590D01*
X142504730Y-97650000D01*
X142585570Y-98056410D01*
X142815783Y-98400947D01*
X143160320Y-98631160D01*
X143566730Y-98712000D01*
X144385270Y-98712000D01*
X144791680Y-98631160D01*
X145136217Y-98400947D01*
X145366430Y-98056410D01*
X145447270Y-97650000D01*
X145447270Y-100190000D01*
X145366430Y-99783590D01*
X145136217Y-99439053D01*
X144791680Y-99208840D01*
X144385270Y-99128000D01*
X143566730Y-99128000D01*
X143160320Y-99208840D01*
X142815783Y-99439053D01*
X142585570Y-99783590D01*
X142504730Y-100190000D01*
X142585570Y-100596410D01*
X142815783Y-100940947D01*
X143160320Y-101171160D01*
X143566730Y-101252000D01*
X144385270Y-101252000D01*
X144791680Y-101171160D01*
X145136217Y-100940947D01*
X145366430Y-100596410D01*
X145447270Y-100190000D01*
X145447270Y-102730000D01*
X145366430Y-102323590D01*
X145136217Y-101979053D01*
X144791680Y-101748840D01*
X144385270Y-101668000D01*
X143566730Y-101668000D01*
X143160320Y-101748840D01*
X142815783Y-101979053D01*
X142585570Y-102323590D01*
X142504730Y-102730000D01*
X142585570Y-103136410D01*
X142815783Y-103480947D01*
X143160320Y-103711160D01*
X143566730Y-103792000D01*
X144385270Y-103792000D01*
X144791680Y-103711160D01*
X145136217Y-103480947D01*
X145366430Y-103136410D01*
X145447270Y-102730000D01*
X145447270Y-105270000D01*
X145366430Y-104863590D01*
X145136217Y-104519053D01*
X144791680Y-104288840D01*
X144385270Y-104208000D01*
X143566730Y-104208000D01*
X143160320Y-104288840D01*
X142815783Y-104519053D01*
X142585570Y-104863590D01*
X142504730Y-105270000D01*
X142585570Y-105676410D01*
X142815783Y-106020947D01*
X143160320Y-106251160D01*
X143566730Y-106332000D01*
X144385270Y-106332000D01*
X144791680Y-106251160D01*
X145136217Y-106020947D01*
X145366430Y-105676410D01*
X145447270Y-105270000D01*
X145447270Y-107810000D01*
X145366430Y-107403590D01*
X145136217Y-107059053D01*
X144791680Y-106828840D01*
X144385270Y-106748000D01*
X143566730Y-106748000D01*
X143160320Y-106828840D01*
X142815783Y-107059053D01*
X142585570Y-107403590D01*
X142504730Y-107810000D01*
X142585570Y-108216410D01*
X142815783Y-108560947D01*
X143160320Y-108791160D01*
X143566730Y-108872000D01*
X144385270Y-108872000D01*
X144791680Y-108791160D01*
X145136217Y-108560947D01*
X145366430Y-108216410D01*
X145447270Y-107810000D01*
X145447270Y-110350000D01*
X145366430Y-109943590D01*
X145136217Y-109599053D01*
X144791680Y-109368840D01*
X144385270Y-109288000D01*
X143566730Y-109288000D01*
X143160320Y-109368840D01*
X142815783Y-109599053D01*
X142585570Y-109943590D01*
X142504730Y-110350000D01*
X142585570Y-110756410D01*
X142815783Y-111100947D01*
X143160320Y-111331160D01*
X143566730Y-111412000D01*
X144385270Y-111412000D01*
X144791680Y-111331160D01*
X145136217Y-111100947D01*
X145366430Y-110756410D01*
X145447270Y-110350000D01*
X145447270Y-112890000D01*
X145366430Y-112483590D01*
X145136217Y-112139053D01*
X144791680Y-111908840D01*
X144385270Y-111828000D01*
X143566730Y-111828000D01*
X143160320Y-111908840D01*
X142815783Y-112139053D01*
X142585570Y-112483590D01*
X142504730Y-112890000D01*
X142585570Y-113296410D01*
X142815783Y-113640947D01*
X143160320Y-113871160D01*
X143566730Y-113952000D01*
X144385270Y-113952000D01*
X144791680Y-113871160D01*
X145136217Y-113640947D01*
X145366430Y-113296410D01*
X145447270Y-112890000D01*
X145447270Y-115430000D01*
X145366430Y-115023590D01*
X145136217Y-114679053D01*
X144791680Y-114448840D01*
X144385270Y-114368000D01*
X143566730Y-114368000D01*
X143160320Y-114448840D01*
X142815783Y-114679053D01*
X142585570Y-115023590D01*
X142504730Y-115430000D01*
X142585570Y-115836410D01*
X142815783Y-116180947D01*
X143160320Y-116411160D01*
X143566730Y-116492000D01*
X144385270Y-116492000D01*
X144791680Y-116411160D01*
X145136217Y-116180947D01*
X145366430Y-115836410D01*
X145447270Y-115430000D01*
X145447270Y-116334880D01*
X145009999Y-116515557D01*
X144517287Y-117007410D01*
X144250304Y-117650376D01*
X144249696Y-118346569D01*
X144515557Y-118990001D01*
X145007410Y-119482713D01*
X145650376Y-119749696D01*
X146346569Y-119750304D01*
X146990001Y-119484443D01*
X147482713Y-118992590D01*
X147749696Y-118349624D01*
X147750304Y-117653431D01*
X147484443Y-117009999D01*
X147067172Y-116592000D01*
X147074000Y-116592000D01*
X147074002Y-116592000D01*
X147455000Y-116592000D01*
X147895872Y-116484414D01*
X148262013Y-116216303D01*
X148400000Y-115989230D01*
X148400000Y-119900000D01*
X148400000Y-119900000D01*
G37*
X148400000Y-119900000D02*
X147750304Y-119900000D01*
X142100104Y-119900000D01*
X142100104Y-111631176D01*
X142008952Y-111410571D01*
X141840317Y-111241641D01*
X141619871Y-111150104D01*
X141381176Y-111149896D01*
X141160571Y-111241048D01*
X140991641Y-111409683D01*
X140900104Y-111630129D01*
X140899896Y-111868824D01*
X140991048Y-112089429D01*
X141159683Y-112258359D01*
X141380129Y-112349896D01*
X141618824Y-112350104D01*
X141839429Y-112258952D01*
X142008359Y-112090317D01*
X142099896Y-111869871D01*
X142100104Y-111631176D01*
X142100104Y-119900000D01*
X140660114Y-119900000D01*
X140660114Y-116881176D01*
X140568962Y-116660571D01*
X140400327Y-116491641D01*
X140179881Y-116400104D01*
X139941186Y-116399896D01*
X139720581Y-116491048D01*
X139551651Y-116659683D01*
X139460114Y-116880129D01*
X139459906Y-117118824D01*
X139551058Y-117339429D01*
X139719693Y-117508359D01*
X139940139Y-117599896D01*
X140178834Y-117600104D01*
X140399439Y-117508952D01*
X140568369Y-117340317D01*
X140659906Y-117119871D01*
X140660114Y-116881176D01*
X140660114Y-119900000D01*
X139350104Y-119900000D01*
X139350104Y-117881176D01*
X139258952Y-117660571D01*
X139165880Y-117567336D01*
X139165880Y-99129260D01*
X139074728Y-98908655D01*
X138906093Y-98739725D01*
X138685647Y-98648188D01*
X138446952Y-98647980D01*
X138350104Y-98687996D01*
X138350104Y-96631176D01*
X138258952Y-96410571D01*
X138100104Y-96251445D01*
X138100104Y-93881176D01*
X138008952Y-93660571D01*
X137848529Y-93499867D01*
X138008359Y-93340317D01*
X138099896Y-93119871D01*
X138100104Y-92881176D01*
X138008952Y-92660571D01*
X137840317Y-92491641D01*
X137619871Y-92400104D01*
X137381176Y-92399896D01*
X137160571Y-92491048D01*
X136991641Y-92659683D01*
X136900104Y-92880129D01*
X136899896Y-93118824D01*
X136991048Y-93339429D01*
X137151470Y-93500132D01*
X136991641Y-93659683D01*
X136900104Y-93880129D01*
X136899896Y-94118824D01*
X136991048Y-94339429D01*
X137159683Y-94508359D01*
X137380129Y-94599896D01*
X137618824Y-94600104D01*
X137839429Y-94508952D01*
X138008359Y-94340317D01*
X138099896Y-94119871D01*
X138100104Y-93881176D01*
X138100104Y-96251445D01*
X138090317Y-96241641D01*
X137869871Y-96150104D01*
X137631176Y-96149896D01*
X137410571Y-96241048D01*
X137241641Y-96409683D01*
X137150104Y-96630129D01*
X137149896Y-96868824D01*
X137241048Y-97089429D01*
X137409683Y-97258359D01*
X137630129Y-97349896D01*
X137868824Y-97350104D01*
X138089429Y-97258952D01*
X138258359Y-97090317D01*
X138349896Y-96869871D01*
X138350104Y-96631176D01*
X138350104Y-98687996D01*
X138226347Y-98739132D01*
X138057417Y-98907767D01*
X137965880Y-99128213D01*
X137965672Y-99366908D01*
X138056824Y-99587513D01*
X138225459Y-99756443D01*
X138445905Y-99847980D01*
X138684600Y-99848188D01*
X138905205Y-99757036D01*
X139074135Y-99588401D01*
X139165672Y-99367955D01*
X139165880Y-99129260D01*
X139165880Y-117567336D01*
X139100104Y-117501445D01*
X139100104Y-104131176D01*
X139100104Y-101631176D01*
X139008952Y-101410571D01*
X138840317Y-101241641D01*
X138619871Y-101150104D01*
X138381176Y-101149896D01*
X138160571Y-101241048D01*
X137991641Y-101409683D01*
X137900104Y-101630129D01*
X137899954Y-101801383D01*
X137850104Y-101751445D01*
X137850104Y-100381176D01*
X137758952Y-100160571D01*
X137598529Y-99999867D01*
X137758359Y-99840317D01*
X137849896Y-99619871D01*
X137850104Y-99381176D01*
X137758952Y-99160571D01*
X137590317Y-98991641D01*
X137369871Y-98900104D01*
X137131176Y-98899896D01*
X136910571Y-98991048D01*
X136741641Y-99159683D01*
X136650104Y-99380129D01*
X136649896Y-99618824D01*
X136741048Y-99839429D01*
X136901470Y-100000132D01*
X136741641Y-100159683D01*
X136650104Y-100380129D01*
X136649896Y-100618824D01*
X136741048Y-100839429D01*
X136909683Y-101008359D01*
X137130129Y-101099896D01*
X137368824Y-101100104D01*
X137589429Y-101008952D01*
X137758359Y-100840317D01*
X137849896Y-100619871D01*
X137850104Y-100381176D01*
X137850104Y-101751445D01*
X137840317Y-101741641D01*
X137619871Y-101650104D01*
X137381176Y-101649896D01*
X137160571Y-101741048D01*
X136991641Y-101909683D01*
X136900104Y-102130129D01*
X136899896Y-102368824D01*
X136991048Y-102589429D01*
X137159683Y-102758359D01*
X137380129Y-102849896D01*
X137618824Y-102850104D01*
X137839429Y-102758952D01*
X138008359Y-102590317D01*
X138099896Y-102369871D01*
X138100045Y-102198616D01*
X138159683Y-102258359D01*
X138380129Y-102349896D01*
X138618824Y-102350104D01*
X138839429Y-102258952D01*
X139008359Y-102090317D01*
X139099896Y-101869871D01*
X139100104Y-101631176D01*
X139100104Y-104131176D01*
X139008952Y-103910571D01*
X138840317Y-103741641D01*
X138619871Y-103650104D01*
X138381176Y-103649896D01*
X138160571Y-103741048D01*
X137991641Y-103909683D01*
X137900104Y-104130129D01*
X137899896Y-104368824D01*
X137991048Y-104589429D01*
X138159683Y-104758359D01*
X138380129Y-104849896D01*
X138618824Y-104850104D01*
X138839429Y-104758952D01*
X139008359Y-104590317D01*
X139099896Y-104369871D01*
X139100104Y-104131176D01*
X139100104Y-117501445D01*
X139090317Y-117491641D01*
X138869871Y-117400104D01*
X138631176Y-117399896D01*
X138410571Y-117491048D01*
X138241641Y-117659683D01*
X138150104Y-117880129D01*
X138149896Y-118118824D01*
X138241048Y-118339429D01*
X138409683Y-118508359D01*
X138630129Y-118599896D01*
X138868824Y-118600104D01*
X139089429Y-118508952D01*
X139258359Y-118340317D01*
X139349896Y-118119871D01*
X139350104Y-117881176D01*
X139350104Y-119900000D01*
X138100104Y-119900000D01*
X138100104Y-107881176D01*
X138008952Y-107660571D01*
X137840317Y-107491641D01*
X137619871Y-107400104D01*
X137381176Y-107399896D01*
X137160571Y-107491048D01*
X136991641Y-107659683D01*
X136900104Y-107880129D01*
X136899896Y-108118824D01*
X136991048Y-108339429D01*
X137159683Y-108508359D01*
X137380129Y-108599896D01*
X137618824Y-108600104D01*
X137839429Y-108508952D01*
X138008359Y-108340317D01*
X138099896Y-108119871D01*
X138100104Y-107881176D01*
X138100104Y-119900000D01*
X137600104Y-119900000D01*
X137600104Y-115881176D01*
X137508952Y-115660571D01*
X137340317Y-115491641D01*
X137119871Y-115400104D01*
X136881176Y-115399896D01*
X136660571Y-115491048D01*
X136600104Y-115551409D01*
X136600104Y-103631176D01*
X136508952Y-103410571D01*
X136340317Y-103241641D01*
X136119871Y-103150104D01*
X135881176Y-103149896D01*
X135660571Y-103241048D01*
X135491641Y-103409683D01*
X135400104Y-103630129D01*
X135399896Y-103868824D01*
X135491048Y-104089429D01*
X135659683Y-104258359D01*
X135880129Y-104349896D01*
X136118824Y-104350104D01*
X136339429Y-104258952D01*
X136508359Y-104090317D01*
X136599896Y-103869871D01*
X136600104Y-103631176D01*
X136600104Y-115551409D01*
X136491641Y-115659683D01*
X136434606Y-115797038D01*
X136434606Y-106488668D01*
X136343454Y-106268063D01*
X136174819Y-106099133D01*
X135954373Y-106007596D01*
X135715678Y-106007388D01*
X135495073Y-106098540D01*
X135326143Y-106267175D01*
X135234606Y-106487621D01*
X135234398Y-106726316D01*
X135325550Y-106946921D01*
X135494185Y-107115851D01*
X135714631Y-107207388D01*
X135953326Y-107207596D01*
X136173931Y-107116444D01*
X136342861Y-106947809D01*
X136434398Y-106727363D01*
X136434606Y-106488668D01*
X136434606Y-115797038D01*
X136400104Y-115880129D01*
X136399896Y-116118824D01*
X136491048Y-116339429D01*
X136659683Y-116508359D01*
X136880129Y-116599896D01*
X137118824Y-116600104D01*
X137339429Y-116508952D01*
X137508359Y-116340317D01*
X137599896Y-116119871D01*
X137600104Y-115881176D01*
X137600104Y-119900000D01*
X135100154Y-119900000D01*
X135100154Y-99676982D01*
X135009002Y-99456377D01*
X134968159Y-99415462D01*
X135007569Y-99376122D01*
X135099106Y-99155676D01*
X135099314Y-98916981D01*
X135008162Y-98696376D01*
X134958515Y-98646642D01*
X135000132Y-98605099D01*
X135091669Y-98384653D01*
X135091877Y-98145958D01*
X135000725Y-97925353D01*
X134962017Y-97886577D01*
X135008359Y-97840317D01*
X135099896Y-97619871D01*
X135100104Y-97381176D01*
X135008952Y-97160571D01*
X134840317Y-96991641D01*
X134619871Y-96900104D01*
X134600104Y-96900086D01*
X134600104Y-95881176D01*
X134600104Y-90881176D01*
X134508952Y-90660571D01*
X134340317Y-90491641D01*
X134119871Y-90400104D01*
X133881176Y-90399896D01*
X133660571Y-90491048D01*
X133491641Y-90659683D01*
X133400104Y-90880129D01*
X133399896Y-91118824D01*
X133491048Y-91339429D01*
X133659683Y-91508359D01*
X133880129Y-91599896D01*
X134118824Y-91600104D01*
X134339429Y-91508952D01*
X134508359Y-91340317D01*
X134599896Y-91119871D01*
X134600104Y-90881176D01*
X134600104Y-95881176D01*
X134508952Y-95660571D01*
X134350104Y-95501445D01*
X134350104Y-93381176D01*
X134258952Y-93160571D01*
X134090317Y-92991641D01*
X133869871Y-92900104D01*
X133631176Y-92899896D01*
X133410571Y-92991048D01*
X133241641Y-93159683D01*
X133150104Y-93380129D01*
X133149896Y-93618824D01*
X133171715Y-93671631D01*
X133119871Y-93650104D01*
X132881176Y-93649896D01*
X132660571Y-93741048D01*
X132491641Y-93909683D01*
X132400104Y-94130129D01*
X132399896Y-94368824D01*
X132491048Y-94589429D01*
X132659683Y-94758359D01*
X132880129Y-94849896D01*
X133118824Y-94850104D01*
X133339429Y-94758952D01*
X133508359Y-94590317D01*
X133599896Y-94369871D01*
X133600104Y-94131176D01*
X133578284Y-94078368D01*
X133630129Y-94099896D01*
X133868824Y-94100104D01*
X134089429Y-94008952D01*
X134258359Y-93840317D01*
X134349896Y-93619871D01*
X134350104Y-93381176D01*
X134350104Y-95501445D01*
X134340317Y-95491641D01*
X134119871Y-95400104D01*
X133881176Y-95399896D01*
X133660571Y-95491048D01*
X133491641Y-95659683D01*
X133400104Y-95880129D01*
X133399896Y-96118824D01*
X133491048Y-96339429D01*
X133659683Y-96508359D01*
X133880129Y-96599896D01*
X134118824Y-96600104D01*
X134339429Y-96508952D01*
X134508359Y-96340317D01*
X134599896Y-96119871D01*
X134600104Y-95881176D01*
X134600104Y-96900086D01*
X134381176Y-96899896D01*
X134160571Y-96991048D01*
X133991641Y-97159683D01*
X133900104Y-97380129D01*
X133899896Y-97618824D01*
X133991048Y-97839429D01*
X134029755Y-97878204D01*
X133983414Y-97924465D01*
X133891877Y-98144911D01*
X133891669Y-98383606D01*
X133982821Y-98604211D01*
X134032467Y-98653944D01*
X133990851Y-98695488D01*
X133899314Y-98915934D01*
X133899106Y-99154629D01*
X133990258Y-99375234D01*
X134031100Y-99416148D01*
X133991691Y-99455489D01*
X133900154Y-99675935D01*
X133899946Y-99914630D01*
X133991098Y-100135235D01*
X134001538Y-100145694D01*
X133931621Y-100215490D01*
X133840084Y-100435936D01*
X133839876Y-100674631D01*
X133931028Y-100895236D01*
X134099663Y-101064166D01*
X134320109Y-101155703D01*
X134558804Y-101155911D01*
X134779409Y-101064759D01*
X134948339Y-100896124D01*
X135039876Y-100675678D01*
X135040084Y-100436983D01*
X134948932Y-100216378D01*
X134938491Y-100205918D01*
X135008409Y-100136123D01*
X135099946Y-99915677D01*
X135100154Y-99676982D01*
X135100154Y-119900000D01*
X135100104Y-119900000D01*
X135100104Y-102381176D01*
X135008952Y-102160571D01*
X134840317Y-101991641D01*
X134619871Y-101900104D01*
X134381176Y-101899896D01*
X134160571Y-101991048D01*
X133991641Y-102159683D01*
X133900104Y-102380129D01*
X133899896Y-102618824D01*
X133991048Y-102839429D01*
X134159683Y-103008359D01*
X134380129Y-103099896D01*
X134618824Y-103100104D01*
X134839429Y-103008952D01*
X135008359Y-102840317D01*
X135099896Y-102619871D01*
X135100104Y-102381176D01*
X135100104Y-119900000D01*
X134850104Y-119900000D01*
X134850104Y-108381176D01*
X134758952Y-108160571D01*
X134590317Y-107991641D01*
X134369871Y-107900104D01*
X134131176Y-107899896D01*
X133910571Y-107991048D01*
X133741641Y-108159683D01*
X133650104Y-108380129D01*
X133649896Y-108618824D01*
X133741048Y-108839429D01*
X133909683Y-109008359D01*
X134130129Y-109099896D01*
X134368824Y-109100104D01*
X134589429Y-109008952D01*
X134758359Y-108840317D01*
X134849896Y-108619871D01*
X134850104Y-108381176D01*
X134850104Y-119900000D01*
X132850104Y-119900000D01*
X132850104Y-103381176D01*
X132758952Y-103160571D01*
X132590317Y-102991641D01*
X132369871Y-102900104D01*
X132213420Y-102899967D01*
X132213420Y-90321167D01*
X132122268Y-90100562D01*
X131953633Y-89931632D01*
X131733187Y-89840095D01*
X131494492Y-89839887D01*
X131273887Y-89931039D01*
X131255816Y-89949077D01*
X131194883Y-89888037D01*
X130974437Y-89796500D01*
X130735742Y-89796292D01*
X130515137Y-89887444D01*
X130346207Y-90056079D01*
X130254670Y-90276525D01*
X130254462Y-90515220D01*
X130345614Y-90735825D01*
X130514249Y-90904755D01*
X130734695Y-90996292D01*
X130973390Y-90996500D01*
X131193995Y-90905348D01*
X131212065Y-90887309D01*
X131272999Y-90948350D01*
X131493445Y-91039887D01*
X131732140Y-91040095D01*
X131952745Y-90948943D01*
X132121675Y-90780308D01*
X132213212Y-90559862D01*
X132213420Y-90321167D01*
X132213420Y-102899967D01*
X132131176Y-102899896D01*
X131910571Y-102991048D01*
X131741641Y-103159683D01*
X131650104Y-103380129D01*
X131649896Y-103618824D01*
X131741048Y-103839429D01*
X131909683Y-104008359D01*
X132130129Y-104099896D01*
X132368824Y-104100104D01*
X132589429Y-104008952D01*
X132758359Y-103840317D01*
X132849896Y-103619871D01*
X132850104Y-103381176D01*
X132850104Y-119900000D01*
X132656972Y-119900000D01*
X132656972Y-117856176D01*
X132600104Y-117718544D01*
X132600104Y-116631176D01*
X132508952Y-116410571D01*
X132340317Y-116241641D01*
X132119871Y-116150104D01*
X131881176Y-116149896D01*
X131660571Y-116241048D01*
X131600104Y-116301409D01*
X131600104Y-103381176D01*
X131508952Y-103160571D01*
X131340317Y-102991641D01*
X131119871Y-102900104D01*
X130881176Y-102899896D01*
X130660571Y-102991048D01*
X130491641Y-103159683D01*
X130400104Y-103380129D01*
X130399896Y-103618824D01*
X130491048Y-103839429D01*
X130659683Y-104008359D01*
X130880129Y-104099896D01*
X131118824Y-104100104D01*
X131339429Y-104008952D01*
X131508359Y-103840317D01*
X131599896Y-103619871D01*
X131600104Y-103381176D01*
X131600104Y-116301409D01*
X131491641Y-116409683D01*
X131400104Y-116630129D01*
X131399896Y-116868824D01*
X131491048Y-117089429D01*
X131659683Y-117258359D01*
X131880129Y-117349896D01*
X132118824Y-117350104D01*
X132339429Y-117258952D01*
X132508359Y-117090317D01*
X132599896Y-116869871D01*
X132600104Y-116631176D01*
X132600104Y-117718544D01*
X132565820Y-117635571D01*
X132397185Y-117466641D01*
X132176739Y-117375104D01*
X131938044Y-117374896D01*
X131717439Y-117466048D01*
X131548509Y-117634683D01*
X131456972Y-117855129D01*
X131456764Y-118093824D01*
X131547916Y-118314429D01*
X131716551Y-118483359D01*
X131936997Y-118574896D01*
X132175692Y-118575104D01*
X132396297Y-118483952D01*
X132565227Y-118315317D01*
X132656764Y-118094871D01*
X132656972Y-117856176D01*
X132656972Y-119900000D01*
X130290094Y-119900000D01*
X130290094Y-108631176D01*
X130198942Y-108410571D01*
X130030307Y-108241641D01*
X129809861Y-108150104D01*
X129571166Y-108149896D01*
X129350561Y-108241048D01*
X129181631Y-108409683D01*
X129090094Y-108630129D01*
X129089886Y-108868824D01*
X129181038Y-109089429D01*
X129349673Y-109258359D01*
X129570119Y-109349896D01*
X129808814Y-109350104D01*
X130029419Y-109258952D01*
X130198349Y-109090317D01*
X130289886Y-108869871D01*
X130290094Y-108631176D01*
X130290094Y-119900000D01*
X128850104Y-119900000D01*
X128850104Y-111631176D01*
X128758952Y-111410571D01*
X128590317Y-111241641D01*
X128369871Y-111150104D01*
X128131176Y-111149896D01*
X127910571Y-111241048D01*
X127741641Y-111409683D01*
X127650104Y-111630129D01*
X127649896Y-111868824D01*
X127741048Y-112089429D01*
X127909683Y-112258359D01*
X128130129Y-112349896D01*
X128368824Y-112350104D01*
X128589429Y-112258952D01*
X128758359Y-112090317D01*
X128849896Y-111869871D01*
X128850104Y-111631176D01*
X128850104Y-119900000D01*
X126840101Y-119900000D01*
X126840101Y-103381176D01*
X126748949Y-103160571D01*
X126580314Y-102991641D01*
X126359868Y-102900104D01*
X126121173Y-102899896D01*
X126040094Y-102933397D01*
X126040094Y-92131176D01*
X126040094Y-90809181D01*
X125948942Y-90588576D01*
X125780307Y-90419646D01*
X125559861Y-90328109D01*
X125321166Y-90327901D01*
X125100561Y-90419053D01*
X124938918Y-90580413D01*
X124840317Y-90481639D01*
X124619871Y-90390102D01*
X124381176Y-90389894D01*
X124160571Y-90481046D01*
X123991641Y-90649681D01*
X123900104Y-90870127D01*
X123899896Y-91108822D01*
X123991048Y-91329427D01*
X124159683Y-91498357D01*
X124380129Y-91589894D01*
X124618824Y-91590102D01*
X124839429Y-91498950D01*
X125001071Y-91337589D01*
X125099673Y-91436364D01*
X125320119Y-91527901D01*
X125558814Y-91528109D01*
X125779419Y-91436957D01*
X125948349Y-91268322D01*
X126039886Y-91047876D01*
X126040094Y-90809181D01*
X126040094Y-92131176D01*
X125948942Y-91910571D01*
X125780307Y-91741641D01*
X125559861Y-91650104D01*
X125321166Y-91649896D01*
X125100561Y-91741048D01*
X124931631Y-91909683D01*
X124840094Y-92130129D01*
X124839886Y-92368824D01*
X124931038Y-92589429D01*
X125099673Y-92758359D01*
X125320119Y-92849896D01*
X125558814Y-92850104D01*
X125779419Y-92758952D01*
X125948349Y-92590317D01*
X126039886Y-92369871D01*
X126040094Y-92131176D01*
X126040094Y-102933397D01*
X125900568Y-102991048D01*
X125731638Y-103159683D01*
X125640101Y-103380129D01*
X125639893Y-103618824D01*
X125731045Y-103839429D01*
X125899680Y-104008359D01*
X126120126Y-104099896D01*
X126358821Y-104100104D01*
X126579426Y-104008952D01*
X126748356Y-103840317D01*
X126839893Y-103619871D01*
X126840101Y-103381176D01*
X126840101Y-119900000D01*
X125540094Y-119900000D01*
X125540094Y-105631176D01*
X125448942Y-105410571D01*
X125350104Y-105311560D01*
X125350104Y-101881176D01*
X125258952Y-101660571D01*
X125090317Y-101491641D01*
X124869871Y-101400104D01*
X124631176Y-101399896D01*
X124410571Y-101491048D01*
X124323512Y-101577954D01*
X124409916Y-101369871D01*
X124410124Y-101131176D01*
X124318972Y-100910571D01*
X124150337Y-100741641D01*
X123929891Y-100650104D01*
X123691196Y-100649896D01*
X123470591Y-100741048D01*
X123301661Y-100909683D01*
X123290044Y-100937658D01*
X123290094Y-100881176D01*
X123198942Y-100660571D01*
X123030307Y-100491641D01*
X122809861Y-100400104D01*
X122790094Y-100400086D01*
X122790094Y-92131176D01*
X122698942Y-91910571D01*
X122530307Y-91741641D01*
X122309861Y-91650104D01*
X122071166Y-91649896D01*
X121850561Y-91741048D01*
X121681631Y-91909683D01*
X121590094Y-92130129D01*
X121589886Y-92368824D01*
X121681038Y-92589429D01*
X121849673Y-92758359D01*
X122070119Y-92849896D01*
X122308814Y-92850104D01*
X122529419Y-92758952D01*
X122698349Y-92590317D01*
X122789886Y-92369871D01*
X122790094Y-92131176D01*
X122790094Y-100400086D01*
X122600548Y-100399920D01*
X122600548Y-94382065D01*
X122509396Y-94161460D01*
X122340761Y-93992530D01*
X122120315Y-93900993D01*
X121881620Y-93900785D01*
X121661015Y-93991937D01*
X121492085Y-94160572D01*
X121400548Y-94381018D01*
X121400340Y-94619713D01*
X121491492Y-94840318D01*
X121531690Y-94880587D01*
X121491635Y-94920573D01*
X121400098Y-95141019D01*
X121399890Y-95379714D01*
X121491042Y-95600319D01*
X121659677Y-95769249D01*
X121880123Y-95860786D01*
X122118818Y-95860994D01*
X122339423Y-95769842D01*
X122508353Y-95601207D01*
X122599890Y-95380761D01*
X122600098Y-95142066D01*
X122508946Y-94921461D01*
X122468747Y-94881191D01*
X122508803Y-94841206D01*
X122600340Y-94620760D01*
X122600548Y-94382065D01*
X122600548Y-100399920D01*
X122595181Y-100399916D01*
X122516915Y-100210497D01*
X122348280Y-100041567D01*
X122127834Y-99950030D01*
X121889139Y-99949822D01*
X121668534Y-100040974D01*
X121499604Y-100209609D01*
X121408067Y-100430055D01*
X121407859Y-100668750D01*
X121499011Y-100889355D01*
X121667646Y-101058285D01*
X121888092Y-101149822D01*
X122102771Y-101150009D01*
X122181038Y-101339429D01*
X122349673Y-101508359D01*
X122570119Y-101599896D01*
X122808814Y-101600104D01*
X123029419Y-101508952D01*
X123198349Y-101340317D01*
X123209965Y-101312341D01*
X123209916Y-101368824D01*
X123301068Y-101589429D01*
X123469703Y-101758359D01*
X123690149Y-101849896D01*
X123928844Y-101850104D01*
X124149449Y-101758952D01*
X124236507Y-101672045D01*
X124150104Y-101880129D01*
X124149896Y-102118824D01*
X124241048Y-102339429D01*
X124409683Y-102508359D01*
X124630129Y-102599896D01*
X124868824Y-102600104D01*
X125089429Y-102508952D01*
X125258359Y-102340317D01*
X125349896Y-102119871D01*
X125350104Y-101881176D01*
X125350104Y-105311560D01*
X125280307Y-105241641D01*
X125059861Y-105150104D01*
X124821166Y-105149896D01*
X124600561Y-105241048D01*
X124431631Y-105409683D01*
X124340094Y-105630129D01*
X124339886Y-105868824D01*
X124431038Y-106089429D01*
X124599673Y-106258359D01*
X124820119Y-106349896D01*
X125058814Y-106350104D01*
X125279419Y-106258952D01*
X125448349Y-106090317D01*
X125539886Y-105869871D01*
X125540094Y-105631176D01*
X125540094Y-119900000D01*
X124850104Y-119900000D01*
X124850104Y-108881176D01*
X124758952Y-108660571D01*
X124590317Y-108491641D01*
X124369871Y-108400104D01*
X124131176Y-108399896D01*
X123910571Y-108491048D01*
X123741641Y-108659683D01*
X123650104Y-108880129D01*
X123649896Y-109118824D01*
X123741048Y-109339429D01*
X123909683Y-109508359D01*
X124130129Y-109599896D01*
X124368824Y-109600104D01*
X124589429Y-109508952D01*
X124758359Y-109340317D01*
X124849896Y-109119871D01*
X124850104Y-108881176D01*
X124850104Y-119900000D01*
X123850104Y-119900000D01*
X123850104Y-111901195D01*
X123758952Y-111680590D01*
X123590317Y-111511660D01*
X123369871Y-111420123D01*
X123364234Y-111420118D01*
X123364234Y-105821172D01*
X123273082Y-105600567D01*
X123104447Y-105431637D01*
X122884001Y-105340100D01*
X122645306Y-105339892D01*
X122599660Y-105358752D01*
X122599660Y-102630287D01*
X122508508Y-102409682D01*
X122339873Y-102240752D01*
X122119427Y-102149215D01*
X121880732Y-102149007D01*
X121660127Y-102240159D01*
X121491197Y-102408794D01*
X121399660Y-102629240D01*
X121399452Y-102867935D01*
X121490604Y-103088540D01*
X121659239Y-103257470D01*
X121879685Y-103349007D01*
X122118380Y-103349215D01*
X122338985Y-103258063D01*
X122507915Y-103089428D01*
X122599452Y-102868982D01*
X122599660Y-102630287D01*
X122599660Y-105358752D01*
X122424701Y-105431044D01*
X122255771Y-105599679D01*
X122164234Y-105820125D01*
X122164026Y-106058820D01*
X122255178Y-106279425D01*
X122423813Y-106448355D01*
X122644259Y-106539892D01*
X122882954Y-106540100D01*
X123103559Y-106448948D01*
X123272489Y-106280313D01*
X123364026Y-106059867D01*
X123364234Y-105821172D01*
X123364234Y-111420118D01*
X123131176Y-111419915D01*
X122910571Y-111511067D01*
X122880096Y-111541488D01*
X122850320Y-111511660D01*
X122629874Y-111420123D01*
X122391179Y-111419915D01*
X122170574Y-111511067D01*
X122130078Y-111551491D01*
X122090317Y-111511660D01*
X121869871Y-111420123D01*
X121850104Y-111420105D01*
X121850104Y-106381176D01*
X121758952Y-106160571D01*
X121590317Y-105991641D01*
X121369871Y-105900104D01*
X121131176Y-105899896D01*
X121099655Y-105912920D01*
X121099655Y-89630278D01*
X121008503Y-89409673D01*
X120839868Y-89240743D01*
X120619422Y-89149206D01*
X120380727Y-89148998D01*
X120160122Y-89240150D01*
X119991192Y-89408785D01*
X119899655Y-89629231D01*
X119899447Y-89867926D01*
X119990599Y-90088531D01*
X120159234Y-90257461D01*
X120379680Y-90348998D01*
X120618375Y-90349206D01*
X120838980Y-90258054D01*
X121007910Y-90089419D01*
X121099447Y-89868973D01*
X121099655Y-89630278D01*
X121099655Y-105912920D01*
X120910571Y-105991048D01*
X120850104Y-106051409D01*
X120850104Y-103631176D01*
X120758952Y-103410571D01*
X120590317Y-103241641D01*
X120369871Y-103150104D01*
X120190094Y-103149947D01*
X120190094Y-90881176D01*
X120098942Y-90660571D01*
X119930307Y-90491641D01*
X119709861Y-90400104D01*
X119471166Y-90399896D01*
X119250561Y-90491048D01*
X119081631Y-90659683D01*
X118990094Y-90880129D01*
X118989886Y-91118824D01*
X119006871Y-91159931D01*
X118991195Y-91159918D01*
X118770590Y-91251070D01*
X118601660Y-91419705D01*
X118510123Y-91640151D01*
X118509915Y-91878846D01*
X118601067Y-92099451D01*
X118769702Y-92268381D01*
X118990148Y-92359918D01*
X119228843Y-92360126D01*
X119449448Y-92268974D01*
X119618378Y-92100339D01*
X119709915Y-91879893D01*
X119710123Y-91641198D01*
X119693137Y-91600090D01*
X119708814Y-91600104D01*
X119929419Y-91508952D01*
X120098349Y-91340317D01*
X120189886Y-91119871D01*
X120190094Y-90881176D01*
X120190094Y-103149947D01*
X120131176Y-103149896D01*
X120100104Y-103162734D01*
X120100104Y-99631176D01*
X120008952Y-99410571D01*
X119840317Y-99241641D01*
X119619871Y-99150104D01*
X119566146Y-99150057D01*
X119566146Y-97845682D01*
X119474994Y-97625077D01*
X119306359Y-97456147D01*
X119085913Y-97364610D01*
X118850104Y-97364404D01*
X118850104Y-92891194D01*
X118758952Y-92670589D01*
X118590317Y-92501659D01*
X118369871Y-92410122D01*
X118131176Y-92409914D01*
X117910571Y-92501066D01*
X117850104Y-92561427D01*
X117850104Y-89631176D01*
X117758952Y-89410571D01*
X117590317Y-89241641D01*
X117369871Y-89150104D01*
X117131176Y-89149896D01*
X116910571Y-89241048D01*
X116741641Y-89409683D01*
X116650104Y-89630129D01*
X116649896Y-89868824D01*
X116741048Y-90089429D01*
X116909683Y-90258359D01*
X117130129Y-90349896D01*
X117368824Y-90350104D01*
X117589429Y-90258952D01*
X117758359Y-90090317D01*
X117849896Y-89869871D01*
X117850104Y-89631176D01*
X117850104Y-92561427D01*
X117741641Y-92669701D01*
X117650104Y-92890147D01*
X117649896Y-93128842D01*
X117741048Y-93349447D01*
X117909683Y-93518377D01*
X118130129Y-93609914D01*
X118368824Y-93610122D01*
X118589429Y-93518970D01*
X118758359Y-93350335D01*
X118849896Y-93129889D01*
X118850104Y-92891194D01*
X118850104Y-97364404D01*
X118847218Y-97364402D01*
X118626613Y-97455554D01*
X118548568Y-97533462D01*
X118599896Y-97409851D01*
X118600104Y-97171156D01*
X118508952Y-96950551D01*
X118340317Y-96781621D01*
X118119871Y-96690084D01*
X117881176Y-96689876D01*
X117660571Y-96781028D01*
X117491641Y-96949663D01*
X117400104Y-97170109D01*
X117399896Y-97408804D01*
X117491048Y-97629409D01*
X117659683Y-97798339D01*
X117880129Y-97889876D01*
X118118824Y-97890084D01*
X118339429Y-97798932D01*
X118417473Y-97721023D01*
X118366146Y-97844635D01*
X118365938Y-98083330D01*
X118457090Y-98303935D01*
X118625725Y-98472865D01*
X118846171Y-98564402D01*
X119084866Y-98564610D01*
X119305471Y-98473458D01*
X119474401Y-98304823D01*
X119565938Y-98084377D01*
X119566146Y-97845682D01*
X119566146Y-99150057D01*
X119381176Y-99149896D01*
X119160571Y-99241048D01*
X118991641Y-99409683D01*
X118900104Y-99630129D01*
X118899896Y-99868824D01*
X118991048Y-100089429D01*
X119159683Y-100258359D01*
X119380129Y-100349896D01*
X119618824Y-100350104D01*
X119839429Y-100258952D01*
X120008359Y-100090317D01*
X120099896Y-99869871D01*
X120100104Y-99631176D01*
X120100104Y-103162734D01*
X119910571Y-103241048D01*
X119741641Y-103409683D01*
X119650104Y-103630129D01*
X119649896Y-103868824D01*
X119741048Y-104089429D01*
X119909683Y-104258359D01*
X120130129Y-104349896D01*
X120368824Y-104350104D01*
X120589429Y-104258952D01*
X120758359Y-104090317D01*
X120849896Y-103869871D01*
X120850104Y-103631176D01*
X120850104Y-106051409D01*
X120741641Y-106159683D01*
X120650104Y-106380129D01*
X120649896Y-106618824D01*
X120741048Y-106839429D01*
X120909683Y-107008359D01*
X121130129Y-107099896D01*
X121368824Y-107100104D01*
X121589429Y-107008952D01*
X121758359Y-106840317D01*
X121849896Y-106619871D01*
X121850104Y-106381176D01*
X121850104Y-111420105D01*
X121631176Y-111419915D01*
X121410571Y-111511067D01*
X121241641Y-111679702D01*
X121150104Y-111900148D01*
X121149896Y-112138843D01*
X121241048Y-112359448D01*
X121409683Y-112528378D01*
X121630129Y-112619915D01*
X121868824Y-112620123D01*
X122089429Y-112528971D01*
X122129924Y-112488546D01*
X122169686Y-112528378D01*
X122390132Y-112619915D01*
X122628827Y-112620123D01*
X122849432Y-112528971D01*
X122879906Y-112498549D01*
X122909683Y-112528378D01*
X123130129Y-112619915D01*
X123368824Y-112620123D01*
X123589429Y-112528971D01*
X123758359Y-112360336D01*
X123849896Y-112139890D01*
X123850104Y-111901195D01*
X123850104Y-119900000D01*
X122600104Y-119900000D01*
X122600104Y-117881176D01*
X122508952Y-117660571D01*
X122340317Y-117491641D01*
X122119871Y-117400104D01*
X121881176Y-117399896D01*
X121850104Y-117412734D01*
X121850104Y-116881176D01*
X121758952Y-116660571D01*
X121590317Y-116491641D01*
X121369871Y-116400104D01*
X121131176Y-116399896D01*
X120910571Y-116491048D01*
X120741641Y-116659683D01*
X120650104Y-116880129D01*
X120649896Y-117118824D01*
X120741048Y-117339429D01*
X120909683Y-117508359D01*
X121130129Y-117599896D01*
X121368824Y-117600104D01*
X121589429Y-117508952D01*
X121758359Y-117340317D01*
X121849896Y-117119871D01*
X121850104Y-116881176D01*
X121850104Y-117412734D01*
X121660571Y-117491048D01*
X121491641Y-117659683D01*
X121400104Y-117880129D01*
X121399896Y-118118824D01*
X121491048Y-118339429D01*
X121659683Y-118508359D01*
X121880129Y-118599896D01*
X122118824Y-118600104D01*
X122339429Y-118508952D01*
X122508359Y-118340317D01*
X122599896Y-118119871D01*
X122600104Y-117881176D01*
X122600104Y-119900000D01*
X119631349Y-119900000D01*
X119631349Y-110849931D01*
X119540197Y-110629326D01*
X119371562Y-110460396D01*
X119151116Y-110368859D01*
X118912421Y-110368651D01*
X118691816Y-110459803D01*
X118522886Y-110628438D01*
X118431349Y-110848884D01*
X118431141Y-111087579D01*
X118522293Y-111308184D01*
X118690928Y-111477114D01*
X118911374Y-111568651D01*
X119150069Y-111568859D01*
X119370674Y-111477707D01*
X119539604Y-111309072D01*
X119631141Y-111088626D01*
X119631349Y-110849931D01*
X119631349Y-119900000D01*
X119600104Y-119900000D01*
X119600104Y-112381176D01*
X119508952Y-112160571D01*
X119340317Y-111991641D01*
X119119871Y-111900104D01*
X118881176Y-111899896D01*
X118660571Y-111991048D01*
X118491641Y-112159683D01*
X118400104Y-112380129D01*
X118399896Y-112618824D01*
X118491048Y-112839429D01*
X118659683Y-113008359D01*
X118880129Y-113099896D01*
X119118824Y-113100104D01*
X119339429Y-113008952D01*
X119508359Y-112840317D01*
X119599896Y-112619871D01*
X119600104Y-112381176D01*
X119600104Y-119900000D01*
X118840084Y-119900000D01*
X118840084Y-115878562D01*
X118748932Y-115657957D01*
X118580297Y-115489027D01*
X118359851Y-115397490D01*
X118272672Y-115397414D01*
X118272672Y-99553744D01*
X118181520Y-99333139D01*
X118012885Y-99164209D01*
X117792439Y-99072672D01*
X117553744Y-99072464D01*
X117333139Y-99163616D01*
X117164209Y-99332251D01*
X117072672Y-99552697D01*
X117072464Y-99791392D01*
X117163616Y-100011997D01*
X117332251Y-100180927D01*
X117552697Y-100272464D01*
X117791392Y-100272672D01*
X118011997Y-100181520D01*
X118180927Y-100012885D01*
X118272464Y-99792439D01*
X118272672Y-99553744D01*
X118272672Y-115397414D01*
X118121156Y-115397282D01*
X117900551Y-115488434D01*
X117731621Y-115657069D01*
X117640084Y-115877515D01*
X117639876Y-116116210D01*
X117731028Y-116336815D01*
X117899663Y-116505745D01*
X118120109Y-116597282D01*
X118358804Y-116597490D01*
X118579409Y-116506338D01*
X118748339Y-116337703D01*
X118839876Y-116117257D01*
X118840084Y-115878562D01*
X118840084Y-119900000D01*
X116087385Y-119900000D01*
X116099896Y-119869871D01*
X116100104Y-119631176D01*
X116008952Y-119410571D01*
X115973529Y-119375086D01*
X116008359Y-119340317D01*
X116099896Y-119119871D01*
X116100104Y-118881176D01*
X116008952Y-118660571D01*
X115978534Y-118630099D01*
X116008359Y-118600327D01*
X116099896Y-118379881D01*
X116100104Y-118141186D01*
X116100104Y-102641179D01*
X116008952Y-102420574D01*
X115968527Y-102380078D01*
X116008359Y-102340317D01*
X116099896Y-102119871D01*
X116100104Y-101881176D01*
X116008952Y-101660571D01*
X115840317Y-101491641D01*
X115619871Y-101400104D01*
X115381176Y-101399896D01*
X115160571Y-101491048D01*
X114991641Y-101659683D01*
X114900104Y-101880129D01*
X114899896Y-102118824D01*
X114991048Y-102339429D01*
X115031472Y-102379924D01*
X114991641Y-102419686D01*
X114900104Y-102640132D01*
X114899896Y-102878827D01*
X114991048Y-103099432D01*
X115159683Y-103268362D01*
X115380129Y-103359899D01*
X115618824Y-103360107D01*
X115839429Y-103268955D01*
X116008359Y-103100320D01*
X116099896Y-102879874D01*
X116100104Y-102641179D01*
X116100104Y-118141186D01*
X116008952Y-117920581D01*
X115840317Y-117751651D01*
X115619871Y-117660114D01*
X115381176Y-117659906D01*
X115160571Y-117751058D01*
X115004872Y-117906484D01*
X114973529Y-117875086D01*
X115008359Y-117840317D01*
X115099896Y-117619871D01*
X115100104Y-117381176D01*
X115008952Y-117160571D01*
X114840317Y-116991641D01*
X114619871Y-116900104D01*
X114381176Y-116899896D01*
X114160571Y-116991048D01*
X113999867Y-117151470D01*
X113840317Y-116991641D01*
X113840102Y-116991551D01*
X113840102Y-100881176D01*
X113748950Y-100660571D01*
X113580315Y-100491641D01*
X113359869Y-100400104D01*
X113121174Y-100399896D01*
X112900569Y-100491048D01*
X112731639Y-100659683D01*
X112640102Y-100880129D01*
X112639894Y-101118824D01*
X112731046Y-101339429D01*
X112899681Y-101508359D01*
X113120127Y-101599896D01*
X113358822Y-101600104D01*
X113579427Y-101508952D01*
X113748357Y-101340317D01*
X113839894Y-101119871D01*
X113840102Y-100881176D01*
X113840102Y-116991551D01*
X113619871Y-116900104D01*
X113381176Y-116899896D01*
X113160571Y-116991048D01*
X112999867Y-117151470D01*
X112840317Y-116991641D01*
X112619871Y-116900104D01*
X112381176Y-116899896D01*
X112160571Y-116991048D01*
X111991641Y-117159683D01*
X111900104Y-117380129D01*
X111899896Y-117618824D01*
X111991048Y-117839429D01*
X112026470Y-117874913D01*
X111991641Y-117909683D01*
X111900104Y-118130129D01*
X111899896Y-118368824D01*
X111991048Y-118589429D01*
X112026470Y-118624913D01*
X111991641Y-118659683D01*
X111900104Y-118880129D01*
X111899896Y-119118824D01*
X111991048Y-119339429D01*
X112026470Y-119374913D01*
X111991641Y-119409683D01*
X111900104Y-119630129D01*
X111899896Y-119868824D01*
X111912777Y-119900000D01*
X110600104Y-119900000D01*
X110600104Y-112881176D01*
X110600104Y-101131176D01*
X110508952Y-100910571D01*
X110340317Y-100741641D01*
X110119871Y-100650104D01*
X109881176Y-100649896D01*
X109660571Y-100741048D01*
X109491641Y-100909683D01*
X109400104Y-101130129D01*
X109399896Y-101368824D01*
X109491048Y-101589429D01*
X109659683Y-101758359D01*
X109880129Y-101849896D01*
X110118824Y-101850104D01*
X110339429Y-101758952D01*
X110508359Y-101590317D01*
X110599896Y-101369871D01*
X110600104Y-101131176D01*
X110600104Y-112881176D01*
X110508952Y-112660571D01*
X110340317Y-112491641D01*
X110119871Y-112400104D01*
X109881176Y-112399896D01*
X109660571Y-112491048D01*
X109499867Y-112651470D01*
X109340317Y-112491641D01*
X109119871Y-112400104D01*
X108881176Y-112399896D01*
X108660571Y-112491048D01*
X108491641Y-112659683D01*
X108400104Y-112880129D01*
X108399896Y-113118824D01*
X108491048Y-113339429D01*
X108659683Y-113508359D01*
X108880129Y-113599896D01*
X109118824Y-113600104D01*
X109339429Y-113508952D01*
X109500132Y-113348529D01*
X109659683Y-113508359D01*
X109880129Y-113599896D01*
X110118824Y-113600104D01*
X110339429Y-113508952D01*
X110508359Y-113340317D01*
X110599896Y-113119871D01*
X110600104Y-112881176D01*
X110600104Y-119900000D01*
X108350104Y-119900000D01*
X108350104Y-88881176D01*
X108258952Y-88660571D01*
X108090317Y-88491641D01*
X107869871Y-88400104D01*
X107631176Y-88399896D01*
X107410571Y-88491048D01*
X107241641Y-88659683D01*
X107150104Y-88880129D01*
X107149896Y-89118824D01*
X107241048Y-89339429D01*
X107409683Y-89508359D01*
X107630129Y-89599896D01*
X107868824Y-89600104D01*
X108089429Y-89508952D01*
X108258359Y-89340317D01*
X108349896Y-89119871D01*
X108350104Y-88881176D01*
X108350104Y-119900000D01*
X107350104Y-119900000D01*
X107350104Y-98881176D01*
X107350104Y-91631178D01*
X107258952Y-91410573D01*
X107218521Y-91370071D01*
X107258359Y-91330304D01*
X107349896Y-91109858D01*
X107350104Y-90871163D01*
X107258952Y-90650558D01*
X107090317Y-90481628D01*
X106869871Y-90390091D01*
X106631176Y-90389883D01*
X106410571Y-90481035D01*
X106241641Y-90649670D01*
X106150104Y-90870116D01*
X106149896Y-91108811D01*
X106241048Y-91329416D01*
X106281478Y-91369917D01*
X106241641Y-91409685D01*
X106150104Y-91630131D01*
X106149896Y-91868826D01*
X106241048Y-92089431D01*
X106409683Y-92258361D01*
X106630129Y-92349898D01*
X106868824Y-92350106D01*
X107089429Y-92258954D01*
X107258359Y-92090319D01*
X107349896Y-91869873D01*
X107350104Y-91631178D01*
X107350104Y-98881176D01*
X107258952Y-98660571D01*
X107090317Y-98491641D01*
X106869871Y-98400104D01*
X106858423Y-98400094D01*
X106858423Y-93131730D01*
X106767271Y-92911125D01*
X106598636Y-92742195D01*
X106378190Y-92650658D01*
X106139495Y-92650450D01*
X105918890Y-92741602D01*
X105904515Y-92755951D01*
X105840317Y-92691641D01*
X105619871Y-92600104D01*
X105381176Y-92599896D01*
X105160571Y-92691048D01*
X104991641Y-92859683D01*
X104900104Y-93080129D01*
X104899896Y-93318824D01*
X104991048Y-93539429D01*
X105159683Y-93708359D01*
X105380129Y-93799896D01*
X105618824Y-93800104D01*
X105839429Y-93708952D01*
X105853803Y-93694602D01*
X105918002Y-93758913D01*
X106138448Y-93850450D01*
X106377143Y-93850658D01*
X106597748Y-93759506D01*
X106766678Y-93590871D01*
X106858215Y-93370425D01*
X106858423Y-93131730D01*
X106858423Y-98400094D01*
X106631176Y-98399896D01*
X106410571Y-98491048D01*
X106241641Y-98659683D01*
X106150104Y-98880129D01*
X106149896Y-99118824D01*
X106241048Y-99339429D01*
X106409683Y-99508359D01*
X106630129Y-99599896D01*
X106868824Y-99600104D01*
X107089429Y-99508952D01*
X107258359Y-99340317D01*
X107349896Y-99119871D01*
X107350104Y-98881176D01*
X107350104Y-119900000D01*
X106850104Y-119900000D01*
X106850104Y-115131176D01*
X106758952Y-114910571D01*
X106590317Y-114741641D01*
X106369871Y-114650104D01*
X106131176Y-114649896D01*
X106100104Y-114662734D01*
X106100104Y-95781176D01*
X106008952Y-95560571D01*
X105840317Y-95391641D01*
X105619871Y-95300104D01*
X105381176Y-95299896D01*
X105160571Y-95391048D01*
X104991641Y-95559683D01*
X104900104Y-95780129D01*
X104899988Y-95912609D01*
X104869871Y-95900104D01*
X104631176Y-95899896D01*
X104410571Y-95991048D01*
X104250304Y-96151035D01*
X104250304Y-89653431D01*
X103984443Y-89009999D01*
X103492590Y-88517287D01*
X102849624Y-88250304D01*
X102153431Y-88249696D01*
X101509999Y-88515557D01*
X101017287Y-89007410D01*
X100750304Y-89650376D01*
X100749696Y-90346569D01*
X101015557Y-90990001D01*
X101507410Y-91482713D01*
X102150376Y-91749696D01*
X102846569Y-91750304D01*
X103490001Y-91484443D01*
X103982713Y-90992590D01*
X104249696Y-90349624D01*
X104250304Y-89653431D01*
X104250304Y-96151035D01*
X104241641Y-96159683D01*
X104150104Y-96380129D01*
X104149896Y-96618824D01*
X104241048Y-96839429D01*
X104409683Y-97008359D01*
X104630129Y-97099896D01*
X104868824Y-97100104D01*
X105089429Y-97008952D01*
X105258359Y-96840317D01*
X105349896Y-96619871D01*
X105350011Y-96487390D01*
X105380129Y-96499896D01*
X105618824Y-96500104D01*
X105839429Y-96408952D01*
X106008359Y-96240317D01*
X106099896Y-96019871D01*
X106100104Y-95781176D01*
X106100104Y-114662734D01*
X105910571Y-114741048D01*
X105741641Y-114909683D01*
X105650104Y-115130129D01*
X105649896Y-115368824D01*
X105741048Y-115589429D01*
X105909683Y-115758359D01*
X106130129Y-115849896D01*
X106368824Y-115850104D01*
X106589429Y-115758952D01*
X106758359Y-115590317D01*
X106849896Y-115369871D01*
X106850104Y-115131176D01*
X106850104Y-119900000D01*
X105025000Y-119900000D01*
X105025000Y-112770081D01*
X105025000Y-112729919D01*
X105025000Y-107770081D01*
X105025000Y-107729919D01*
X104946977Y-107337668D01*
X104850104Y-107192688D01*
X104850104Y-98131176D01*
X104758952Y-97910571D01*
X104590317Y-97741641D01*
X104369871Y-97650104D01*
X104131176Y-97649896D01*
X103910571Y-97741048D01*
X103741641Y-97909683D01*
X103650104Y-98130129D01*
X103649896Y-98368824D01*
X103741048Y-98589429D01*
X103909683Y-98758359D01*
X104130129Y-98849896D01*
X104368824Y-98850104D01*
X104589429Y-98758952D01*
X104758359Y-98590317D01*
X104849896Y-98369871D01*
X104850104Y-98131176D01*
X104850104Y-107192688D01*
X104724784Y-107005135D01*
X104392251Y-106782942D01*
X104000000Y-106704919D01*
X103607749Y-106782942D01*
X103275216Y-107005135D01*
X103053023Y-107337668D01*
X102975000Y-107729919D01*
X102975000Y-107770081D01*
X103053023Y-108162332D01*
X103275216Y-108494865D01*
X103607749Y-108717058D01*
X104000000Y-108795081D01*
X104392251Y-108717058D01*
X104724784Y-108494865D01*
X104946977Y-108162332D01*
X105025000Y-107770081D01*
X105025000Y-112729919D01*
X104946977Y-112337668D01*
X104724784Y-112005135D01*
X104392251Y-111782942D01*
X104000000Y-111704919D01*
X103607749Y-111782942D01*
X103275216Y-112005135D01*
X103053023Y-112337668D01*
X102975000Y-112729919D01*
X102975000Y-112770081D01*
X103053023Y-113162332D01*
X103275216Y-113494865D01*
X103607749Y-113717058D01*
X104000000Y-113795081D01*
X104392251Y-113717058D01*
X104724784Y-113494865D01*
X104946977Y-113162332D01*
X105025000Y-112770081D01*
X105025000Y-119900000D01*
X104250304Y-119900000D01*
X104250304Y-117653431D01*
X103984443Y-117009999D01*
X103492590Y-116517287D01*
X102849624Y-116250304D01*
X102153431Y-116249696D01*
X101509999Y-116515557D01*
X101017287Y-117007410D01*
X100750304Y-117650376D01*
X100749696Y-118346569D01*
X101015557Y-118990001D01*
X101507410Y-119482713D01*
X102150376Y-119749696D01*
X102846569Y-119750304D01*
X103490001Y-119484443D01*
X103982713Y-118992590D01*
X104249696Y-118349624D01*
X104250304Y-117653431D01*
X104250304Y-119900000D01*
X100600000Y-119900000D01*
X100600000Y-114691301D01*
X100850347Y-114858578D01*
X101300000Y-114948020D01*
X101749653Y-114858578D01*
X102130850Y-114603870D01*
X102385558Y-114222673D01*
X102475000Y-113773020D01*
X102475000Y-113726980D01*
X102385558Y-113277327D01*
X102130850Y-112896130D01*
X101749653Y-112641422D01*
X101300000Y-112551980D01*
X100850347Y-112641422D01*
X100600000Y-112808698D01*
X100600000Y-107691301D01*
X100850347Y-107858578D01*
X101300000Y-107948020D01*
X101749653Y-107858578D01*
X102130850Y-107603870D01*
X102385558Y-107222673D01*
X102475000Y-106773020D01*
X102475000Y-106726980D01*
X102385558Y-106277327D01*
X102130850Y-105896130D01*
X101749653Y-105641422D01*
X101300000Y-105551980D01*
X100850347Y-105641422D01*
X100600000Y-105808698D01*
X100600000Y-88100000D01*
X113249994Y-88100000D01*
X113096927Y-88130448D01*
X112967157Y-88217157D01*
X112967154Y-88217160D01*
X112534284Y-88650029D01*
X112381176Y-88649896D01*
X112160571Y-88741048D01*
X111991641Y-88909683D01*
X111986608Y-88921801D01*
X111895859Y-88884119D01*
X111828353Y-88884060D01*
X111840011Y-88855986D01*
X111840219Y-88617291D01*
X111749067Y-88396686D01*
X111580432Y-88227756D01*
X111359986Y-88136219D01*
X111121291Y-88136011D01*
X110900686Y-88227163D01*
X110731756Y-88395798D01*
X110640219Y-88616244D01*
X110640011Y-88854939D01*
X110691046Y-88978455D01*
X110660571Y-88991048D01*
X110491641Y-89159683D01*
X110400104Y-89380129D01*
X110399896Y-89618824D01*
X110491048Y-89839429D01*
X110659683Y-90008359D01*
X110880129Y-90099896D01*
X111118824Y-90100104D01*
X111339429Y-90008952D01*
X111395923Y-89952556D01*
X111435671Y-89992374D01*
X111656117Y-90083911D01*
X111894812Y-90084119D01*
X112115417Y-89992967D01*
X112284347Y-89824332D01*
X112289379Y-89812213D01*
X112380129Y-89849896D01*
X112618824Y-89850104D01*
X112839429Y-89758952D01*
X113008359Y-89590317D01*
X113099896Y-89369871D01*
X113099933Y-89326440D01*
X113146444Y-89439004D01*
X113315079Y-89607934D01*
X113460069Y-89668139D01*
X113459901Y-89861746D01*
X113551053Y-90082351D01*
X113719688Y-90251281D01*
X113940134Y-90342818D01*
X114178829Y-90343026D01*
X114399434Y-90251874D01*
X114568364Y-90083239D01*
X114659901Y-89862793D01*
X114660109Y-89624098D01*
X114568957Y-89403493D01*
X114400322Y-89234563D01*
X114255331Y-89174357D01*
X114255500Y-88980751D01*
X114222134Y-88900000D01*
X117412777Y-88900000D01*
X117491048Y-89089429D01*
X117659683Y-89258359D01*
X117880129Y-89349896D01*
X118118824Y-89350104D01*
X118339429Y-89258952D01*
X118508359Y-89090317D01*
X118599896Y-88869871D01*
X118600104Y-88631176D01*
X118508952Y-88410571D01*
X118340317Y-88241641D01*
X118119871Y-88150104D01*
X117932246Y-88149940D01*
X117932245Y-88149940D01*
X117903074Y-88130448D01*
X117750000Y-88100000D01*
X148400000Y-88100000D01*
X148400000Y-92141994D01*
X148184217Y-91819053D01*
X147839680Y-91588840D01*
X147433270Y-91508000D01*
X146932988Y-91508000D01*
X146990001Y-91484443D01*
X147482713Y-90992590D01*
X147749696Y-90349624D01*
X147750304Y-89653431D01*
X147484443Y-89009999D01*
X146992590Y-88517287D01*
X146349624Y-88250304D01*
X145653431Y-88249696D01*
X145009999Y-88515557D01*
X144517287Y-89007410D01*
X144250304Y-89650376D01*
X144249696Y-90346569D01*
X144515557Y-90990001D01*
X145007410Y-91482713D01*
X145054154Y-91502123D01*
X142833000Y-91502123D01*
X142718611Y-91524317D01*
X142618074Y-91590359D01*
X142600104Y-91616980D01*
X142600104Y-90631176D01*
X142508952Y-90410571D01*
X142340317Y-90241641D01*
X142119871Y-90150104D01*
X141881176Y-90149896D01*
X141660571Y-90241048D01*
X141491641Y-90409683D01*
X141400104Y-90630129D01*
X141399896Y-90868824D01*
X141491048Y-91089429D01*
X141659683Y-91258359D01*
X141880129Y-91349896D01*
X142118824Y-91350104D01*
X142339429Y-91258952D01*
X142508359Y-91090317D01*
X142599896Y-90869871D01*
X142600104Y-90631176D01*
X142600104Y-91616980D01*
X142550775Y-91690060D01*
X142527123Y-91808000D01*
X142527123Y-93332000D01*
X142549317Y-93446389D01*
X142574814Y-93485203D01*
X142369871Y-93400104D01*
X142131176Y-93399896D01*
X141910571Y-93491048D01*
X141741641Y-93659683D01*
X141650104Y-93880129D01*
X141649896Y-94118824D01*
X141741048Y-94339429D01*
X141909683Y-94508359D01*
X142130129Y-94599896D01*
X142368824Y-94600104D01*
X142589429Y-94508952D01*
X142758359Y-94340317D01*
X142849896Y-94119871D01*
X142850104Y-93881176D01*
X142758952Y-93660571D01*
X142707784Y-93609313D01*
X142715060Y-93614225D01*
X142833000Y-93637877D01*
X145119000Y-93637877D01*
X145233389Y-93615683D01*
X145333926Y-93549641D01*
X145401225Y-93449940D01*
X145424877Y-93332000D01*
X145424877Y-91808000D01*
X145402683Y-91693611D01*
X145360440Y-91629304D01*
X145650376Y-91749696D01*
X145967168Y-91749972D01*
X145863783Y-91819053D01*
X145633570Y-92163590D01*
X145552730Y-92570000D01*
X145633570Y-92976410D01*
X145863783Y-93320947D01*
X146208320Y-93551160D01*
X146614730Y-93632000D01*
X147433270Y-93632000D01*
X147839680Y-93551160D01*
X148184217Y-93320947D01*
X148400000Y-92998005D01*
X148400000Y-94550769D01*
X148262013Y-94323697D01*
X147895872Y-94055586D01*
X147455000Y-93948000D01*
X147074000Y-93948000D01*
X147074000Y-95060000D01*
X147094000Y-95060000D01*
X147094000Y-95160000D01*
X147074000Y-95160000D01*
X147074000Y-96272000D01*
X147455000Y-96272000D01*
X147895872Y-96164414D01*
X148262013Y-95896303D01*
X148400000Y-95669230D01*
X148400000Y-97090769D01*
X148262013Y-96863697D01*
X147895872Y-96595586D01*
X147455000Y-96488000D01*
X147074000Y-96488000D01*
X147074000Y-97600000D01*
X147094000Y-97600000D01*
X147094000Y-97700000D01*
X147074000Y-97700000D01*
X147074000Y-98812000D01*
X147455000Y-98812000D01*
X147895872Y-98704414D01*
X148262013Y-98436303D01*
X148400000Y-98209230D01*
X148400000Y-99630769D01*
X148262013Y-99403697D01*
X147895872Y-99135586D01*
X147455000Y-99028000D01*
X147074000Y-99028000D01*
X147074000Y-100140000D01*
X147094000Y-100140000D01*
X147094000Y-100240000D01*
X147074000Y-100240000D01*
X147074000Y-101352000D01*
X147455000Y-101352000D01*
X147895872Y-101244414D01*
X148262013Y-100976303D01*
X148400000Y-100749230D01*
X148400000Y-102170769D01*
X148262013Y-101943697D01*
X147895872Y-101675586D01*
X147455000Y-101568000D01*
X147074000Y-101568000D01*
X147074000Y-102680000D01*
X147094000Y-102680000D01*
X147094000Y-102780000D01*
X147074000Y-102780000D01*
X147074000Y-103892000D01*
X147455000Y-103892000D01*
X147895872Y-103784414D01*
X148262013Y-103516303D01*
X148400000Y-103289230D01*
X148400000Y-104710769D01*
X148262013Y-104483697D01*
X147895872Y-104215586D01*
X147455000Y-104108000D01*
X147074000Y-104108000D01*
X147074000Y-105220000D01*
X147094000Y-105220000D01*
X147094000Y-105320000D01*
X147074000Y-105320000D01*
X147074000Y-106432000D01*
X147455000Y-106432000D01*
X147895872Y-106324414D01*
X148262013Y-106056303D01*
X148400000Y-105829230D01*
X148400000Y-107250769D01*
X148262013Y-107023697D01*
X147895872Y-106755586D01*
X147455000Y-106648000D01*
X147074000Y-106648000D01*
X147074000Y-107760000D01*
X147094000Y-107760000D01*
X147094000Y-107860000D01*
X147074000Y-107860000D01*
X147074000Y-108972000D01*
X147455000Y-108972000D01*
X147895872Y-108864414D01*
X148262013Y-108596303D01*
X148400000Y-108369230D01*
X148400000Y-109790769D01*
X148262013Y-109563697D01*
X147895872Y-109295586D01*
X147455000Y-109188000D01*
X147074000Y-109188000D01*
X147074000Y-110300000D01*
X147094000Y-110300000D01*
X147094000Y-110400000D01*
X147074000Y-110400000D01*
X147074000Y-111512000D01*
X147455000Y-111512000D01*
X147895872Y-111404414D01*
X148262013Y-111136303D01*
X148400000Y-110909230D01*
X148400000Y-112330769D01*
X148262013Y-112103697D01*
X147895872Y-111835586D01*
X147455000Y-111728000D01*
X147074000Y-111728000D01*
X147074000Y-112840000D01*
X147094000Y-112840000D01*
X147094000Y-112940000D01*
X147074000Y-112940000D01*
X147074000Y-114052000D01*
X147455000Y-114052000D01*
X147895872Y-113944414D01*
X148262013Y-113676303D01*
X148400000Y-113449230D01*
X148400000Y-114870769D01*
X148262013Y-114643697D01*
X147895872Y-114375586D01*
X147455000Y-114268000D01*
X147074000Y-114268000D01*
X147074000Y-115380000D01*
X147094000Y-115380000D01*
X147094000Y-115480000D01*
X147074000Y-115480000D01*
X147074000Y-115500000D01*
X146974000Y-115500000D01*
X146974000Y-115480000D01*
X146974000Y-115380000D01*
X146974000Y-114268000D01*
X146974000Y-114052000D01*
X146974000Y-112940000D01*
X146974000Y-112840000D01*
X146974000Y-111728000D01*
X146974000Y-111512000D01*
X146974000Y-110400000D01*
X146974000Y-110300000D01*
X146974000Y-109188000D01*
X146974000Y-108972000D01*
X146974000Y-107860000D01*
X146974000Y-107760000D01*
X146974000Y-106648000D01*
X146974000Y-106432000D01*
X146974000Y-105320000D01*
X146974000Y-105220000D01*
X146974000Y-104108000D01*
X146974000Y-103892000D01*
X146974000Y-102780000D01*
X146974000Y-102680000D01*
X146974000Y-101568000D01*
X146974000Y-101352000D01*
X146974000Y-100240000D01*
X146974000Y-100140000D01*
X146974000Y-99028000D01*
X146974000Y-98812000D01*
X146974000Y-97700000D01*
X146974000Y-97600000D01*
X146974000Y-96488000D01*
X146974000Y-96272000D01*
X146974000Y-95160000D01*
X146974000Y-95060000D01*
X146974000Y-93948000D01*
X146593000Y-93948000D01*
X146152128Y-94055586D01*
X145785987Y-94323697D01*
X145550318Y-94711515D01*
X145504191Y-94879007D01*
X145582178Y-95060000D01*
X146974000Y-95060000D01*
X146974000Y-95160000D01*
X145582178Y-95160000D01*
X145504191Y-95340993D01*
X145550318Y-95508485D01*
X145785987Y-95896303D01*
X146152128Y-96164414D01*
X146593000Y-96272000D01*
X146974000Y-96272000D01*
X146974000Y-96488000D01*
X146593000Y-96488000D01*
X146152128Y-96595586D01*
X145785987Y-96863697D01*
X145550318Y-97251515D01*
X145504191Y-97419007D01*
X145582178Y-97600000D01*
X146974000Y-97600000D01*
X146974000Y-97700000D01*
X145582178Y-97700000D01*
X145504191Y-97880993D01*
X145550318Y-98048485D01*
X145785987Y-98436303D01*
X146152128Y-98704414D01*
X146593000Y-98812000D01*
X146974000Y-98812000D01*
X146974000Y-99028000D01*
X146593000Y-99028000D01*
X146152128Y-99135586D01*
X145785987Y-99403697D01*
X145550318Y-99791515D01*
X145504191Y-99959007D01*
X145582178Y-100140000D01*
X146974000Y-100140000D01*
X146974000Y-100240000D01*
X145582178Y-100240000D01*
X145504191Y-100420993D01*
X145550318Y-100588485D01*
X145785987Y-100976303D01*
X146152128Y-101244414D01*
X146593000Y-101352000D01*
X146974000Y-101352000D01*
X146974000Y-101568000D01*
X146593000Y-101568000D01*
X146152128Y-101675586D01*
X145785987Y-101943697D01*
X145550318Y-102331515D01*
X145504191Y-102499007D01*
X145582178Y-102680000D01*
X146974000Y-102680000D01*
X146974000Y-102780000D01*
X145582178Y-102780000D01*
X145504191Y-102960993D01*
X145550318Y-103128485D01*
X145785987Y-103516303D01*
X146152128Y-103784414D01*
X146593000Y-103892000D01*
X146974000Y-103892000D01*
X146974000Y-104108000D01*
X146593000Y-104108000D01*
X146152128Y-104215586D01*
X145785987Y-104483697D01*
X145550318Y-104871515D01*
X145504191Y-105039007D01*
X145582178Y-105220000D01*
X146974000Y-105220000D01*
X146974000Y-105320000D01*
X145582178Y-105320000D01*
X145504191Y-105500993D01*
X145550318Y-105668485D01*
X145785987Y-106056303D01*
X146152128Y-106324414D01*
X146593000Y-106432000D01*
X146974000Y-106432000D01*
X146974000Y-106648000D01*
X146593000Y-106648000D01*
X146152128Y-106755586D01*
X145785987Y-107023697D01*
X145550318Y-107411515D01*
X145504191Y-107579007D01*
X145582178Y-107760000D01*
X146974000Y-107760000D01*
X146974000Y-107860000D01*
X145582178Y-107860000D01*
X145504191Y-108040993D01*
X145550318Y-108208485D01*
X145785987Y-108596303D01*
X146152128Y-108864414D01*
X146593000Y-108972000D01*
X146974000Y-108972000D01*
X146974000Y-109188000D01*
X146593000Y-109188000D01*
X146152128Y-109295586D01*
X145785987Y-109563697D01*
X145550318Y-109951515D01*
X145504191Y-110119007D01*
X145582178Y-110300000D01*
X146974000Y-110300000D01*
X146974000Y-110400000D01*
X145582178Y-110400000D01*
X145504191Y-110580993D01*
X145550318Y-110748485D01*
X145785987Y-111136303D01*
X146152128Y-111404414D01*
X146593000Y-111512000D01*
X146974000Y-111512000D01*
X146974000Y-111728000D01*
X146593000Y-111728000D01*
X146152128Y-111835586D01*
X145785987Y-112103697D01*
X145550318Y-112491515D01*
X145504191Y-112659007D01*
X145582178Y-112840000D01*
X146974000Y-112840000D01*
X146974000Y-112940000D01*
X145582178Y-112940000D01*
X145504191Y-113120993D01*
X145550318Y-113288485D01*
X145785987Y-113676303D01*
X146152128Y-113944414D01*
X146593000Y-114052000D01*
X146974000Y-114052000D01*
X146974000Y-114268000D01*
X146593000Y-114268000D01*
X146152128Y-114375586D01*
X145785987Y-114643697D01*
X145550318Y-115031515D01*
X145504191Y-115199007D01*
X145582178Y-115380000D01*
X146974000Y-115380000D01*
X146974000Y-115480000D01*
X145582178Y-115480000D01*
X145504191Y-115660993D01*
X145550318Y-115828485D01*
X145785987Y-116216303D01*
X145831802Y-116249851D01*
X145653431Y-116249696D01*
X145447270Y-116334880D01*
X145447270Y-115430000D01*
X145447270Y-112890000D01*
X145447270Y-110350000D01*
X145447270Y-107810000D01*
X145447270Y-105270000D01*
X145447270Y-102730000D01*
X145447270Y-100190000D01*
X145447270Y-97650000D01*
X145447270Y-95110000D01*
X145366430Y-94703590D01*
X145136217Y-94359053D01*
X144791680Y-94128840D01*
X144385270Y-94048000D01*
X143566730Y-94048000D01*
X143160320Y-94128840D01*
X142815783Y-94359053D01*
X142585570Y-94703590D01*
X142504730Y-95110000D01*
X142585570Y-95516410D01*
X142815783Y-95860947D01*
X143160320Y-96091160D01*
X143566730Y-96172000D01*
X144385270Y-96172000D01*
X144791680Y-96091160D01*
X145136217Y-95860947D01*
X145366430Y-95516410D01*
X145447270Y-95110000D01*
X145447270Y-97650000D01*
X145366430Y-97243590D01*
X145136217Y-96899053D01*
X144791680Y-96668840D01*
X144385270Y-96588000D01*
X143566730Y-96588000D01*
X143160320Y-96668840D01*
X142815783Y-96899053D01*
X142585570Y-97243590D01*
X142504730Y-97650000D01*
X142585570Y-98056410D01*
X142815783Y-98400947D01*
X143160320Y-98631160D01*
X143566730Y-98712000D01*
X144385270Y-98712000D01*
X144791680Y-98631160D01*
X145136217Y-98400947D01*
X145366430Y-98056410D01*
X145447270Y-97650000D01*
X145447270Y-100190000D01*
X145366430Y-99783590D01*
X145136217Y-99439053D01*
X144791680Y-99208840D01*
X144385270Y-99128000D01*
X143566730Y-99128000D01*
X143160320Y-99208840D01*
X142815783Y-99439053D01*
X142585570Y-99783590D01*
X142504730Y-100190000D01*
X142585570Y-100596410D01*
X142815783Y-100940947D01*
X143160320Y-101171160D01*
X143566730Y-101252000D01*
X144385270Y-101252000D01*
X144791680Y-101171160D01*
X145136217Y-100940947D01*
X145366430Y-100596410D01*
X145447270Y-100190000D01*
X145447270Y-102730000D01*
X145366430Y-102323590D01*
X145136217Y-101979053D01*
X144791680Y-101748840D01*
X144385270Y-101668000D01*
X143566730Y-101668000D01*
X143160320Y-101748840D01*
X142815783Y-101979053D01*
X142585570Y-102323590D01*
X142504730Y-102730000D01*
X142585570Y-103136410D01*
X142815783Y-103480947D01*
X143160320Y-103711160D01*
X143566730Y-103792000D01*
X144385270Y-103792000D01*
X144791680Y-103711160D01*
X145136217Y-103480947D01*
X145366430Y-103136410D01*
X145447270Y-102730000D01*
X145447270Y-105270000D01*
X145366430Y-104863590D01*
X145136217Y-104519053D01*
X144791680Y-104288840D01*
X144385270Y-104208000D01*
X143566730Y-104208000D01*
X143160320Y-104288840D01*
X142815783Y-104519053D01*
X142585570Y-104863590D01*
X142504730Y-105270000D01*
X142585570Y-105676410D01*
X142815783Y-106020947D01*
X143160320Y-106251160D01*
X143566730Y-106332000D01*
X144385270Y-106332000D01*
X144791680Y-106251160D01*
X145136217Y-106020947D01*
X145366430Y-105676410D01*
X145447270Y-105270000D01*
X145447270Y-107810000D01*
X145366430Y-107403590D01*
X145136217Y-107059053D01*
X144791680Y-106828840D01*
X144385270Y-106748000D01*
X143566730Y-106748000D01*
X143160320Y-106828840D01*
X142815783Y-107059053D01*
X142585570Y-107403590D01*
X142504730Y-107810000D01*
X142585570Y-108216410D01*
X142815783Y-108560947D01*
X143160320Y-108791160D01*
X143566730Y-108872000D01*
X144385270Y-108872000D01*
X144791680Y-108791160D01*
X145136217Y-108560947D01*
X145366430Y-108216410D01*
X145447270Y-107810000D01*
X145447270Y-110350000D01*
X145366430Y-109943590D01*
X145136217Y-109599053D01*
X144791680Y-109368840D01*
X144385270Y-109288000D01*
X143566730Y-109288000D01*
X143160320Y-109368840D01*
X142815783Y-109599053D01*
X142585570Y-109943590D01*
X142504730Y-110350000D01*
X142585570Y-110756410D01*
X142815783Y-111100947D01*
X143160320Y-111331160D01*
X143566730Y-111412000D01*
X144385270Y-111412000D01*
X144791680Y-111331160D01*
X145136217Y-111100947D01*
X145366430Y-110756410D01*
X145447270Y-110350000D01*
X145447270Y-112890000D01*
X145366430Y-112483590D01*
X145136217Y-112139053D01*
X144791680Y-111908840D01*
X144385270Y-111828000D01*
X143566730Y-111828000D01*
X143160320Y-111908840D01*
X142815783Y-112139053D01*
X142585570Y-112483590D01*
X142504730Y-112890000D01*
X142585570Y-113296410D01*
X142815783Y-113640947D01*
X143160320Y-113871160D01*
X143566730Y-113952000D01*
X144385270Y-113952000D01*
X144791680Y-113871160D01*
X145136217Y-113640947D01*
X145366430Y-113296410D01*
X145447270Y-112890000D01*
X145447270Y-115430000D01*
X145366430Y-115023590D01*
X145136217Y-114679053D01*
X144791680Y-114448840D01*
X144385270Y-114368000D01*
X143566730Y-114368000D01*
X143160320Y-114448840D01*
X142815783Y-114679053D01*
X142585570Y-115023590D01*
X142504730Y-115430000D01*
X142585570Y-115836410D01*
X142815783Y-116180947D01*
X143160320Y-116411160D01*
X143566730Y-116492000D01*
X144385270Y-116492000D01*
X144791680Y-116411160D01*
X145136217Y-116180947D01*
X145366430Y-115836410D01*
X145447270Y-115430000D01*
X145447270Y-116334880D01*
X145009999Y-116515557D01*
X144517287Y-117007410D01*
X144250304Y-117650376D01*
X144249696Y-118346569D01*
X144515557Y-118990001D01*
X145007410Y-119482713D01*
X145650376Y-119749696D01*
X146346569Y-119750304D01*
X146990001Y-119484443D01*
X147482713Y-118992590D01*
X147749696Y-118349624D01*
X147750304Y-117653431D01*
X147484443Y-117009999D01*
X147067172Y-116592000D01*
X147074000Y-116592000D01*
X147074002Y-116592000D01*
X147455000Y-116592000D01*
X147895872Y-116484414D01*
X148262013Y-116216303D01*
X148400000Y-115989230D01*
X148400000Y-119900000D01*
M02*
