G04 #@! TF.FileFunction,Legend,Bot*
%FSLAX46Y46*%
G04 Gerber Fmt 4.6, Leading zero omitted, Abs format (unit mm)*
G04 Created by KiCad (PCBNEW (after 2015-mar-04 BZR unknown)-product) date Thu 09 Apr 2015 03:29:38 PM EDT*
%MOMM*%
G01*
G04 APERTURE LIST*
%ADD10C,0.100000*%
%ADD11C,0.350000*%
%ADD12C,0.150000*%
G04 APERTURE END LIST*
D10*
G36*
X106048126Y-118360746D02*
X106141552Y-118359024D01*
X106247575Y-118350665D01*
X106364465Y-118336038D01*
X106380194Y-118333477D01*
X106151827Y-118333477D01*
X106139374Y-118332355D01*
X106137633Y-118327374D01*
X106140346Y-118318490D01*
X106147242Y-118295532D01*
X106157961Y-118259713D01*
X106172141Y-118212247D01*
X106189418Y-118154347D01*
X106209432Y-118087228D01*
X106231820Y-118012102D01*
X106256221Y-117930183D01*
X106282271Y-117842685D01*
X106309131Y-117752434D01*
X106342365Y-117640503D01*
X106371185Y-117542895D01*
X106395846Y-117458682D01*
X106416603Y-117386936D01*
X106433712Y-117326730D01*
X106447429Y-117277134D01*
X106458009Y-117237223D01*
X106465709Y-117206068D01*
X106470783Y-117182740D01*
X106473488Y-117166313D01*
X106474080Y-117155858D01*
X106473957Y-117154318D01*
X106469708Y-117137596D01*
X106459906Y-117109014D01*
X106445578Y-117071244D01*
X106427748Y-117026955D01*
X106407439Y-116978821D01*
X106400675Y-116963248D01*
X106322209Y-116779841D01*
X106242009Y-116584683D01*
X106161566Y-116381644D01*
X106082371Y-116174594D01*
X106005914Y-115967401D01*
X105933687Y-115763936D01*
X105893612Y-115647065D01*
X105757976Y-115229221D01*
X105636043Y-114818380D01*
X105527632Y-114413692D01*
X105432562Y-114014306D01*
X105350654Y-113619372D01*
X105281727Y-113228040D01*
X105225602Y-112839458D01*
X105182098Y-112452776D01*
X105158704Y-112177991D01*
X105155903Y-112129511D01*
X105153558Y-112067787D01*
X105151668Y-111995198D01*
X105150235Y-111914126D01*
X105149258Y-111826953D01*
X105148737Y-111736060D01*
X105148673Y-111643828D01*
X105149066Y-111552638D01*
X105149915Y-111464872D01*
X105151221Y-111382911D01*
X105152985Y-111309136D01*
X105155205Y-111245929D01*
X105157883Y-111195671D01*
X105158647Y-111185118D01*
X105176139Y-110992881D01*
X105198878Y-110801193D01*
X105227215Y-110608353D01*
X105261504Y-110412659D01*
X105302099Y-110212411D01*
X105349352Y-110005905D01*
X105403617Y-109791441D01*
X105465247Y-109567317D01*
X105534595Y-109331832D01*
X105561739Y-109243234D01*
X105580011Y-109184837D01*
X105602963Y-109112592D01*
X105630177Y-109027767D01*
X105661234Y-108931626D01*
X105695713Y-108825434D01*
X105733196Y-108710459D01*
X105773264Y-108587965D01*
X105815498Y-108459218D01*
X105859479Y-108325484D01*
X105904788Y-108188028D01*
X105951004Y-108048116D01*
X105997711Y-107907014D01*
X106044487Y-107765987D01*
X106090915Y-107626301D01*
X106136575Y-107489222D01*
X106181048Y-107356015D01*
X106223914Y-107227946D01*
X106264756Y-107106281D01*
X106303153Y-106992285D01*
X106338687Y-106887225D01*
X106370938Y-106792364D01*
X106399487Y-106708970D01*
X106423916Y-106638308D01*
X106431873Y-106615511D01*
X106528236Y-106342446D01*
X106624645Y-106073478D01*
X106720478Y-105810279D01*
X106815111Y-105554523D01*
X106907922Y-105307883D01*
X106998286Y-105072032D01*
X107085583Y-104848645D01*
X107148952Y-104689577D01*
X107216273Y-104522104D01*
X107127289Y-104515531D01*
X107038304Y-104508958D01*
X106830957Y-104715228D01*
X106664627Y-104877230D01*
X106503441Y-105026952D01*
X106345173Y-105166260D01*
X106187596Y-105297017D01*
X106028482Y-105421087D01*
X105865605Y-105540335D01*
X105746373Y-105623153D01*
X105533159Y-105762841D01*
X105324203Y-105889062D01*
X105119812Y-106001678D01*
X104920290Y-106100552D01*
X104725944Y-106185549D01*
X104537078Y-106256531D01*
X104354000Y-106313363D01*
X104177013Y-106355907D01*
X104059717Y-106376694D01*
X103885817Y-106395016D01*
X103713709Y-106397625D01*
X103544066Y-106384718D01*
X103377560Y-106356493D01*
X103214866Y-106313147D01*
X103056654Y-106254878D01*
X102903599Y-106181884D01*
X102756373Y-106094361D01*
X102615648Y-105992507D01*
X102542270Y-105931331D01*
X102422421Y-105816173D01*
X102310599Y-105687679D01*
X102207079Y-105546453D01*
X102112139Y-105393098D01*
X102026055Y-105228220D01*
X101949105Y-105052422D01*
X101881565Y-104866309D01*
X101823712Y-104670485D01*
X101775823Y-104465554D01*
X101738176Y-104252121D01*
X101723540Y-104144530D01*
X101701699Y-103921518D01*
X101692303Y-103708392D01*
X101695354Y-103505174D01*
X101710849Y-103311888D01*
X101735529Y-103145936D01*
X101741635Y-103114950D01*
X101747063Y-103091425D01*
X101751019Y-103078616D01*
X101752262Y-103077297D01*
X101752879Y-103086037D01*
X101752292Y-103107859D01*
X101750636Y-103139948D01*
X101748045Y-103179492D01*
X101746275Y-103203324D01*
X101739767Y-103369496D01*
X101744854Y-103543016D01*
X101761026Y-103720846D01*
X101787773Y-103899948D01*
X101824586Y-104077284D01*
X101870953Y-104249815D01*
X101926367Y-104414504D01*
X101966233Y-104514129D01*
X102042969Y-104678306D01*
X102126806Y-104828452D01*
X102218081Y-104964984D01*
X102317132Y-105088317D01*
X102424298Y-105198866D01*
X102539917Y-105297046D01*
X102664328Y-105383274D01*
X102683488Y-105395033D01*
X102819229Y-105468064D01*
X102966047Y-105529952D01*
X103123443Y-105580532D01*
X103290923Y-105619635D01*
X103413720Y-105640066D01*
X103475867Y-105646770D01*
X103550291Y-105651494D01*
X103633446Y-105654261D01*
X103721784Y-105655091D01*
X103811759Y-105654006D01*
X103899824Y-105651026D01*
X103982433Y-105646173D01*
X104056039Y-105639467D01*
X104083610Y-105636077D01*
X104317508Y-105596801D01*
X104545560Y-105542893D01*
X104767394Y-105474510D01*
X104982640Y-105391809D01*
X105190927Y-105294948D01*
X105391882Y-105184083D01*
X105585134Y-105059373D01*
X105768056Y-104922783D01*
X105831296Y-104871067D01*
X105893418Y-104817921D01*
X105955861Y-104761942D01*
X106020066Y-104701730D01*
X106087474Y-104635883D01*
X106159525Y-104563000D01*
X106237659Y-104481680D01*
X106323316Y-104390521D01*
X106397121Y-104310770D01*
X106481189Y-104218075D01*
X106573036Y-104114325D01*
X106671090Y-104001384D01*
X106773778Y-103881117D01*
X106879524Y-103755387D01*
X106986758Y-103626060D01*
X107093904Y-103494999D01*
X107199390Y-103364070D01*
X107255193Y-103293972D01*
X107299559Y-103237996D01*
X107351638Y-103172296D01*
X107409230Y-103099645D01*
X107470138Y-103022814D01*
X107532164Y-102944578D01*
X107593110Y-102867708D01*
X107650776Y-102794978D01*
X107669299Y-102771617D01*
X107743703Y-102677597D01*
X107809144Y-102594459D01*
X107866739Y-102520724D01*
X107917604Y-102454911D01*
X107962856Y-102395541D01*
X108003611Y-102341135D01*
X108040985Y-102290212D01*
X108076095Y-102241293D01*
X108110057Y-102192899D01*
X108143988Y-102143549D01*
X108151571Y-102132400D01*
X108219005Y-102038118D01*
X108284369Y-101957594D01*
X108349462Y-101889117D01*
X108416086Y-101830971D01*
X108486039Y-101781443D01*
X108561123Y-101738819D01*
X108569482Y-101734623D01*
X108631987Y-101705805D01*
X108683925Y-101686873D01*
X108726899Y-101677400D01*
X108762508Y-101676959D01*
X108776239Y-101679513D01*
X108862426Y-101708196D01*
X108947148Y-101750079D01*
X109030787Y-101805527D01*
X109113722Y-101874905D01*
X109196336Y-101958578D01*
X109279009Y-102056912D01*
X109362123Y-102170270D01*
X109446057Y-102299018D01*
X109478057Y-102351734D01*
X109549915Y-102478489D01*
X109619264Y-102613629D01*
X109686499Y-102758160D01*
X109752019Y-102913089D01*
X109816220Y-103079422D01*
X109879499Y-103258166D01*
X109942253Y-103450326D01*
X110004880Y-103656910D01*
X110036896Y-103768136D01*
X110188309Y-104315912D01*
X110329328Y-104853072D01*
X110460204Y-105380878D01*
X110581191Y-105900589D01*
X110692540Y-106413465D01*
X110794504Y-106920768D01*
X110887336Y-107423757D01*
X110971287Y-107923693D01*
X111046612Y-108421836D01*
X111113561Y-108919447D01*
X111172388Y-109417785D01*
X111176841Y-109458556D01*
X111213920Y-109819586D01*
X111245185Y-110166243D01*
X111270658Y-110498994D01*
X111290364Y-110818309D01*
X111304327Y-111124657D01*
X111312568Y-111418506D01*
X111315112Y-111700327D01*
X111311983Y-111970587D01*
X111308674Y-112090267D01*
X111296463Y-112375860D01*
X111278923Y-112648560D01*
X111255818Y-112910587D01*
X111226913Y-113164163D01*
X111191972Y-113411510D01*
X111150759Y-113654848D01*
X111132178Y-113753030D01*
X111075805Y-114018738D01*
X111012741Y-114270910D01*
X110942469Y-114510717D01*
X110864474Y-114739328D01*
X110778239Y-114957915D01*
X110683248Y-115167646D01*
X110578985Y-115369692D01*
X110464934Y-115565224D01*
X110340579Y-115755412D01*
X110205404Y-115941425D01*
X110117998Y-116052620D01*
X109921179Y-116284278D01*
X109714488Y-116504469D01*
X109497543Y-116713484D01*
X109269960Y-116911612D01*
X109031359Y-117099141D01*
X108781357Y-117276362D01*
X108519571Y-117443563D01*
X108245619Y-117601035D01*
X107959119Y-117749066D01*
X107742519Y-117851022D01*
X107480359Y-117963660D01*
X107222595Y-118062174D01*
X106967393Y-118147121D01*
X106712914Y-118219059D01*
X106457322Y-118278546D01*
X106198779Y-118326137D01*
X106151827Y-118333477D01*
X106380194Y-118333477D01*
X106490495Y-118315518D01*
X106623933Y-118289475D01*
X106763052Y-118258283D01*
X106906122Y-118222312D01*
X107051414Y-118181935D01*
X107197198Y-118137525D01*
X107341746Y-118089453D01*
X107393186Y-118071308D01*
X107694389Y-117956148D01*
X107987025Y-117829699D01*
X108270630Y-117692309D01*
X108544739Y-117544323D01*
X108808890Y-117386091D01*
X109062616Y-117217960D01*
X109305454Y-117040276D01*
X109536939Y-116853388D01*
X109756607Y-116657643D01*
X109963993Y-116453389D01*
X110158634Y-116240973D01*
X110340065Y-116020742D01*
X110507821Y-115793045D01*
X110579580Y-115686939D01*
X110687955Y-115514966D01*
X110786964Y-115342301D01*
X110877366Y-115167077D01*
X110959919Y-114987428D01*
X111035382Y-114801487D01*
X111104511Y-114607387D01*
X111168066Y-114403262D01*
X111226805Y-114187245D01*
X111280836Y-113960377D01*
X111331893Y-113713494D01*
X111376087Y-113460358D01*
X111413626Y-113199329D01*
X111444715Y-112928763D01*
X111469560Y-112647020D01*
X111488368Y-112352457D01*
X111492101Y-112277677D01*
X111493410Y-112240998D01*
X111494587Y-112190431D01*
X111495626Y-112128039D01*
X111496522Y-112055885D01*
X111497269Y-111976029D01*
X111497862Y-111890535D01*
X111498295Y-111801464D01*
X111498563Y-111710878D01*
X111498660Y-111620840D01*
X111498581Y-111533412D01*
X111498320Y-111450655D01*
X111497872Y-111374632D01*
X111497231Y-111307404D01*
X111496392Y-111251035D01*
X111495349Y-111207586D01*
X111494984Y-111197080D01*
X111469955Y-110689209D01*
X111433554Y-110171471D01*
X111385939Y-109645016D01*
X111327272Y-109110996D01*
X111257712Y-108570560D01*
X111177418Y-108024859D01*
X111086552Y-107475045D01*
X110985272Y-106922267D01*
X110873739Y-106367677D01*
X110752113Y-105812424D01*
X110737867Y-105750236D01*
X110707380Y-105619176D01*
X110674445Y-105480235D01*
X110639485Y-105335065D01*
X110602924Y-105185324D01*
X110565185Y-105032665D01*
X110526692Y-104878745D01*
X110487868Y-104725217D01*
X110449137Y-104573736D01*
X110410923Y-104425959D01*
X110373648Y-104283539D01*
X110337737Y-104148132D01*
X110303613Y-104021393D01*
X110271700Y-103904976D01*
X110242420Y-103800538D01*
X110216198Y-103709732D01*
X110212352Y-103696704D01*
X110138609Y-103459144D01*
X110061609Y-103233118D01*
X109981630Y-103019276D01*
X109898947Y-102818269D01*
X109813837Y-102630746D01*
X109726578Y-102457358D01*
X109637445Y-102298756D01*
X109574441Y-102197426D01*
X109490746Y-102077222D01*
X109405937Y-101972686D01*
X109319686Y-101883555D01*
X109231663Y-101809566D01*
X109141542Y-101750456D01*
X109048993Y-101705963D01*
X108953689Y-101675823D01*
X108912455Y-101667328D01*
X108870857Y-101660893D01*
X108827524Y-101655580D01*
X108785324Y-101651574D01*
X108747125Y-101649059D01*
X108715794Y-101648218D01*
X108694201Y-101649235D01*
X108685213Y-101652293D01*
X108685117Y-101652765D01*
X108677812Y-101657257D01*
X108658529Y-101661730D01*
X108631216Y-101665304D01*
X108627061Y-101665676D01*
X108542029Y-101679359D01*
X108453611Y-101705418D01*
X108365927Y-101742155D01*
X108283093Y-101787870D01*
X108216353Y-101835080D01*
X108178592Y-101867143D01*
X108141054Y-101903092D01*
X108102147Y-101944745D01*
X108060279Y-101993923D01*
X108013857Y-102052445D01*
X107961289Y-102122130D01*
X107941083Y-102149577D01*
X107777939Y-102369836D01*
X107606027Y-102597035D01*
X107424871Y-102831775D01*
X107233997Y-103074660D01*
X107032930Y-103326291D01*
X106821196Y-103587270D01*
X106598320Y-103858201D01*
X106520577Y-103951900D01*
X106399117Y-104096604D01*
X106285529Y-104228937D01*
X106178878Y-104349824D01*
X106078223Y-104460190D01*
X105982629Y-104560959D01*
X105891157Y-104653055D01*
X105802870Y-104737405D01*
X105716829Y-104814931D01*
X105632098Y-104886559D01*
X105547737Y-104953213D01*
X105462811Y-105015818D01*
X105391491Y-105065184D01*
X105193203Y-105190197D01*
X104991621Y-105300611D01*
X104787340Y-105396182D01*
X104580958Y-105476670D01*
X104373069Y-105541831D01*
X104164270Y-105591425D01*
X104043836Y-105612827D01*
X103983165Y-105620291D01*
X103911650Y-105625840D01*
X103833019Y-105629450D01*
X103751005Y-105631099D01*
X103669336Y-105630763D01*
X103591742Y-105628418D01*
X103521955Y-105624042D01*
X103463703Y-105617611D01*
X103456351Y-105616493D01*
X103322237Y-105589333D01*
X103190004Y-105551203D01*
X103063547Y-105503439D01*
X102946759Y-105447376D01*
X102920476Y-105432763D01*
X102794090Y-105351333D01*
X102674796Y-105256110D01*
X102562962Y-105147767D01*
X102458959Y-105026974D01*
X102363154Y-104894401D01*
X102275916Y-104750721D01*
X102197615Y-104596604D01*
X102128618Y-104432722D01*
X102069296Y-104259746D01*
X102020016Y-104078346D01*
X101981147Y-103889194D01*
X101953059Y-103692962D01*
X101950235Y-103667129D01*
X101945511Y-103610842D01*
X101941893Y-103544276D01*
X101939405Y-103470976D01*
X101938072Y-103394487D01*
X101937917Y-103318354D01*
X101938965Y-103246123D01*
X101941239Y-103181338D01*
X101944765Y-103127544D01*
X101946457Y-103110550D01*
X101953523Y-103064528D01*
X101758101Y-103064528D01*
X101756198Y-103053855D01*
X101757472Y-103049243D01*
X101761013Y-103046222D01*
X101762290Y-103054061D01*
X101760824Y-103064405D01*
X101758101Y-103064528D01*
X101953523Y-103064528D01*
X101971119Y-102949927D01*
X102007726Y-102799064D01*
X102056124Y-102658217D01*
X102116161Y-102527641D01*
X102187683Y-102407593D01*
X102270536Y-102298328D01*
X102364568Y-102200101D01*
X102469624Y-102113168D01*
X102585553Y-102037784D01*
X102592040Y-102034092D01*
X102691659Y-101983411D01*
X102801591Y-101937460D01*
X102918213Y-101897244D01*
X103037900Y-101863767D01*
X103157029Y-101838034D01*
X103271976Y-101821051D01*
X103379118Y-101813821D01*
X103386832Y-101813699D01*
X103421510Y-101812888D01*
X103456099Y-101811399D01*
X103488354Y-101809440D01*
X103516029Y-101807222D01*
X103536880Y-101804954D01*
X103548660Y-101802845D01*
X103549124Y-101801104D01*
X103536028Y-101799941D01*
X103534868Y-101799898D01*
X103500506Y-101798682D01*
X103537114Y-101748839D01*
X103559240Y-101717846D01*
X103588210Y-101675970D01*
X103622316Y-101625791D01*
X103659850Y-101569887D01*
X103699106Y-101510840D01*
X103738374Y-101451229D01*
X103775948Y-101393634D01*
X103810120Y-101340634D01*
X103839182Y-101294811D01*
X103860441Y-101260377D01*
X103936744Y-101128851D01*
X104004760Y-101000842D01*
X104063803Y-100877853D01*
X104113191Y-100761388D01*
X104152238Y-100652949D01*
X104178192Y-100562575D01*
X104184391Y-100533885D01*
X104192042Y-100492944D01*
X104200539Y-100443318D01*
X104209277Y-100388572D01*
X104217651Y-100332271D01*
X104219481Y-100319341D01*
X104233590Y-100223062D01*
X104247149Y-100140687D01*
X104260658Y-100070203D01*
X104274619Y-100009599D01*
X104289532Y-99956863D01*
X104305899Y-99909984D01*
X104324221Y-99866949D01*
X104340112Y-99834905D01*
X104356144Y-99808890D01*
X104377635Y-99780033D01*
X104401911Y-99751256D01*
X104426297Y-99725478D01*
X104448120Y-99705622D01*
X104464705Y-99694607D01*
X104469769Y-99693313D01*
X104484382Y-99700141D01*
X104502323Y-99718329D01*
X104520989Y-99744431D01*
X104537777Y-99775001D01*
X104545820Y-99793939D01*
X104560714Y-99837963D01*
X104572799Y-99884058D01*
X104582812Y-99935898D01*
X104591486Y-99997157D01*
X104597778Y-100053657D01*
X104602680Y-100102405D01*
X104607045Y-100147826D01*
X104610904Y-100191125D01*
X104614290Y-100233508D01*
X104617236Y-100276178D01*
X104619775Y-100320342D01*
X104621939Y-100367203D01*
X104623761Y-100417966D01*
X104625274Y-100473837D01*
X104626509Y-100536020D01*
X104627500Y-100605720D01*
X104628279Y-100684141D01*
X104628880Y-100772490D01*
X104629333Y-100871970D01*
X104629673Y-100983786D01*
X104629932Y-101109143D01*
X104630142Y-101249115D01*
X104631250Y-102083191D01*
X104578733Y-102051285D01*
X104436921Y-101973858D01*
X104290275Y-101910724D01*
X104140158Y-101862360D01*
X103987934Y-101829244D01*
X103916138Y-101819094D01*
X103879456Y-101815256D01*
X103836718Y-101811511D01*
X103790478Y-101807997D01*
X103743293Y-101804857D01*
X103697717Y-101802229D01*
X103656307Y-101800254D01*
X103621617Y-101799073D01*
X103596203Y-101798826D01*
X103582620Y-101799653D01*
X103581193Y-101800703D01*
X103590235Y-101803000D01*
X103611927Y-101806291D01*
X103643032Y-101810139D01*
X103680315Y-101814106D01*
X103680879Y-101814162D01*
X103840667Y-101836854D01*
X103993576Y-101872532D01*
X104138884Y-101920794D01*
X104275870Y-101981238D01*
X104403811Y-102053461D01*
X104521986Y-102137060D01*
X104629673Y-102231635D01*
X104726149Y-102336782D01*
X104801999Y-102438927D01*
X104869853Y-102554568D01*
X104923422Y-102677116D01*
X104962683Y-102806339D01*
X104987612Y-102942003D01*
X104998188Y-103083875D01*
X104994386Y-103231722D01*
X104976184Y-103385311D01*
X104943559Y-103544408D01*
X104919828Y-103632905D01*
X104872008Y-103778139D01*
X104811541Y-103928642D01*
X104739713Y-104081919D01*
X104657811Y-104235475D01*
X104567119Y-104386815D01*
X104468924Y-104533445D01*
X104422912Y-104596850D01*
X104400194Y-104627520D01*
X104381402Y-104653166D01*
X104368338Y-104671307D01*
X104362804Y-104679465D01*
X104362731Y-104679658D01*
X104369718Y-104681209D01*
X104386732Y-104682376D01*
X104388650Y-104682443D01*
X104409122Y-104683620D01*
X104439440Y-104685958D01*
X104473583Y-104688986D01*
X104478923Y-104689496D01*
X104543279Y-104695706D01*
X104614496Y-104599319D01*
X104724939Y-104440147D01*
X104824872Y-104276231D01*
X104913672Y-104109065D01*
X104990713Y-103940141D01*
X105055370Y-103770952D01*
X105107019Y-103602990D01*
X105145033Y-103437749D01*
X105168789Y-103276719D01*
X105168933Y-103275325D01*
X105173192Y-103214309D01*
X105174796Y-103144107D01*
X105173893Y-103069555D01*
X105170633Y-102995489D01*
X105165164Y-102926746D01*
X105157635Y-102868161D01*
X105156122Y-102859341D01*
X105128487Y-102743050D01*
X105088177Y-102627512D01*
X105037024Y-102517266D01*
X104979249Y-102420385D01*
X104950220Y-102380272D01*
X104915333Y-102336492D01*
X104878287Y-102293362D01*
X104842783Y-102255199D01*
X104814057Y-102227656D01*
X104789387Y-102206049D01*
X104812344Y-102205725D01*
X104835301Y-102205401D01*
X104828748Y-102115683D01*
X104827820Y-102095107D01*
X104826914Y-102059803D01*
X104826040Y-102010994D01*
X104825208Y-101949901D01*
X104824428Y-101877747D01*
X104823710Y-101795754D01*
X104823064Y-101705143D01*
X104822501Y-101607138D01*
X104822031Y-101502959D01*
X104821662Y-101393829D01*
X104821407Y-101280971D01*
X104821317Y-101216515D01*
X104821133Y-101076242D01*
X104820881Y-100950739D01*
X104820528Y-100838828D01*
X104820040Y-100739331D01*
X104819384Y-100651067D01*
X104818527Y-100572859D01*
X104817436Y-100503528D01*
X104816078Y-100441894D01*
X104814420Y-100386779D01*
X104812429Y-100337004D01*
X104810071Y-100291390D01*
X104807313Y-100248759D01*
X104804123Y-100207931D01*
X104800467Y-100167727D01*
X104796312Y-100126969D01*
X104791625Y-100084478D01*
X104788834Y-100060157D01*
X104775712Y-99963361D01*
X104760368Y-99881487D01*
X104742461Y-99813623D01*
X104721648Y-99758851D01*
X104697590Y-99716257D01*
X104669946Y-99684927D01*
X104641852Y-99665673D01*
X104613429Y-99656500D01*
X104573365Y-99650838D01*
X104525548Y-99648556D01*
X104473866Y-99649525D01*
X104422206Y-99653613D01*
X104374457Y-99660692D01*
X104334505Y-99670630D01*
X104318991Y-99676488D01*
X104269252Y-99706859D01*
X104222873Y-99752069D01*
X104180401Y-99811257D01*
X104142378Y-99883563D01*
X104109351Y-99968127D01*
X104087356Y-100042244D01*
X104080109Y-100073063D01*
X104071147Y-100115899D01*
X104061197Y-100167008D01*
X104050983Y-100222647D01*
X104041230Y-100279069D01*
X104039688Y-100288363D01*
X104026525Y-100366597D01*
X104014822Y-100431892D01*
X104003890Y-100487111D01*
X103993037Y-100535119D01*
X103981574Y-100578780D01*
X103968811Y-100620959D01*
X103954058Y-100664519D01*
X103939247Y-100705286D01*
X103883871Y-100841829D01*
X103816595Y-100985899D01*
X103738433Y-101135669D01*
X103650401Y-101289309D01*
X103553516Y-101444991D01*
X103448794Y-101600887D01*
X103414863Y-101649021D01*
X103314034Y-101790443D01*
X103217500Y-101790575D01*
X103037067Y-101796773D01*
X102867240Y-101814859D01*
X102708025Y-101844830D01*
X102559428Y-101886684D01*
X102421458Y-101940419D01*
X102294120Y-102006033D01*
X102177421Y-102083524D01*
X102135797Y-102116141D01*
X102097616Y-102149416D01*
X102053747Y-102190838D01*
X102007710Y-102236799D01*
X101963023Y-102283689D01*
X101923205Y-102327897D01*
X101891776Y-102365816D01*
X101889411Y-102368886D01*
X101829266Y-102453681D01*
X101769604Y-102549120D01*
X101713137Y-102650272D01*
X101662576Y-102752205D01*
X101620632Y-102849986D01*
X101611042Y-102875291D01*
X101590456Y-102935619D01*
X101569812Y-103003645D01*
X101550511Y-103074159D01*
X101533957Y-103141951D01*
X101521551Y-103201814D01*
X101518724Y-103218211D01*
X101511217Y-103278548D01*
X101505752Y-103352325D01*
X101502295Y-103437167D01*
X101500810Y-103530701D01*
X101501263Y-103630551D01*
X101503620Y-103734345D01*
X101507844Y-103839706D01*
X101513901Y-103944262D01*
X101521757Y-104045639D01*
X101531376Y-104141460D01*
X101532407Y-104150412D01*
X101564104Y-104372261D01*
X101606303Y-104584777D01*
X101658799Y-104787560D01*
X101721387Y-104980216D01*
X101793861Y-105162346D01*
X101876017Y-105333555D01*
X101967649Y-105493445D01*
X102068551Y-105641619D01*
X102178520Y-105777682D01*
X102297349Y-105901235D01*
X102424834Y-106011882D01*
X102537079Y-106093638D01*
X102636748Y-106154335D01*
X102748093Y-106211348D01*
X102866943Y-106262789D01*
X102989125Y-106306768D01*
X103046702Y-106324377D01*
X103234503Y-106370218D01*
X103427948Y-106401346D01*
X103626428Y-106417720D01*
X103829335Y-106419301D01*
X104036060Y-106406048D01*
X104127102Y-106395633D01*
X104316571Y-106364246D01*
X104512401Y-106318350D01*
X104714433Y-106257991D01*
X104922512Y-106183216D01*
X105136481Y-106094074D01*
X105164545Y-106081512D01*
X105368863Y-105982833D01*
X105576018Y-105870140D01*
X105784202Y-105744679D01*
X105991608Y-105607696D01*
X106196430Y-105460436D01*
X106396862Y-105304144D01*
X106591097Y-105140067D01*
X106776798Y-104969955D01*
X106809161Y-104939274D01*
X106837466Y-104912860D01*
X106859738Y-104892522D01*
X106874004Y-104880067D01*
X106878280Y-104876986D01*
X106878964Y-104883247D01*
X106875416Y-104894930D01*
X106814663Y-105051565D01*
X106757146Y-105201006D01*
X106702182Y-105345133D01*
X106649084Y-105485827D01*
X106597167Y-105624967D01*
X106545746Y-105764436D01*
X106494135Y-105906112D01*
X106441648Y-106051876D01*
X106387600Y-106203610D01*
X106331305Y-106363193D01*
X106272079Y-106532506D01*
X106209236Y-106713430D01*
X106149391Y-106886657D01*
X106019408Y-107266833D01*
X105895774Y-107634911D01*
X105777787Y-107993098D01*
X105664744Y-108343603D01*
X105555943Y-108688632D01*
X105450680Y-109030394D01*
X105348254Y-109371096D01*
X105247962Y-109712946D01*
X105228130Y-109781539D01*
X105179449Y-109955388D01*
X105137138Y-110117979D01*
X105100599Y-110272402D01*
X105069232Y-110421745D01*
X105042438Y-110569097D01*
X105019618Y-110717546D01*
X105000173Y-110870183D01*
X104983504Y-111030095D01*
X104981242Y-111054506D01*
X104963691Y-111306579D01*
X104955864Y-111570181D01*
X104957641Y-111844292D01*
X104968905Y-112127891D01*
X104989536Y-112419956D01*
X105019416Y-112719468D01*
X105058424Y-113025404D01*
X105106444Y-113336744D01*
X105163355Y-113652467D01*
X105229038Y-113971553D01*
X105303376Y-114292979D01*
X105386248Y-114615726D01*
X105403224Y-114678117D01*
X105466448Y-114900628D01*
X105536365Y-115132588D01*
X105611925Y-115370979D01*
X105692078Y-115612786D01*
X105775772Y-115854992D01*
X105861959Y-116094579D01*
X105949587Y-116328532D01*
X106037607Y-116553833D01*
X106124968Y-116767467D01*
X106157202Y-116843624D01*
X106178952Y-116893594D01*
X106201925Y-116944827D01*
X106224117Y-116992952D01*
X106243522Y-117033601D01*
X106253836Y-117054223D01*
X106269974Y-117087083D01*
X106282831Y-117116179D01*
X106290815Y-117137731D01*
X106292653Y-117146404D01*
X106290420Y-117156554D01*
X106283955Y-117180781D01*
X106273604Y-117217885D01*
X106259716Y-117266668D01*
X106242638Y-117325928D01*
X106222718Y-117394466D01*
X106200304Y-117471081D01*
X106175744Y-117554574D01*
X106149384Y-117643745D01*
X106121574Y-117737393D01*
X106114580Y-117760879D01*
X105936508Y-118358525D01*
X106048126Y-118360746D01*
X106048126Y-118360746D01*
X106048126Y-118360746D01*
G37*
X106048126Y-118360746D02*
X106141552Y-118359024D01*
X106247575Y-118350665D01*
X106364465Y-118336038D01*
X106380194Y-118333477D01*
X106151827Y-118333477D01*
X106139374Y-118332355D01*
X106137633Y-118327374D01*
X106140346Y-118318490D01*
X106147242Y-118295532D01*
X106157961Y-118259713D01*
X106172141Y-118212247D01*
X106189418Y-118154347D01*
X106209432Y-118087228D01*
X106231820Y-118012102D01*
X106256221Y-117930183D01*
X106282271Y-117842685D01*
X106309131Y-117752434D01*
X106342365Y-117640503D01*
X106371185Y-117542895D01*
X106395846Y-117458682D01*
X106416603Y-117386936D01*
X106433712Y-117326730D01*
X106447429Y-117277134D01*
X106458009Y-117237223D01*
X106465709Y-117206068D01*
X106470783Y-117182740D01*
X106473488Y-117166313D01*
X106474080Y-117155858D01*
X106473957Y-117154318D01*
X106469708Y-117137596D01*
X106459906Y-117109014D01*
X106445578Y-117071244D01*
X106427748Y-117026955D01*
X106407439Y-116978821D01*
X106400675Y-116963248D01*
X106322209Y-116779841D01*
X106242009Y-116584683D01*
X106161566Y-116381644D01*
X106082371Y-116174594D01*
X106005914Y-115967401D01*
X105933687Y-115763936D01*
X105893612Y-115647065D01*
X105757976Y-115229221D01*
X105636043Y-114818380D01*
X105527632Y-114413692D01*
X105432562Y-114014306D01*
X105350654Y-113619372D01*
X105281727Y-113228040D01*
X105225602Y-112839458D01*
X105182098Y-112452776D01*
X105158704Y-112177991D01*
X105155903Y-112129511D01*
X105153558Y-112067787D01*
X105151668Y-111995198D01*
X105150235Y-111914126D01*
X105149258Y-111826953D01*
X105148737Y-111736060D01*
X105148673Y-111643828D01*
X105149066Y-111552638D01*
X105149915Y-111464872D01*
X105151221Y-111382911D01*
X105152985Y-111309136D01*
X105155205Y-111245929D01*
X105157883Y-111195671D01*
X105158647Y-111185118D01*
X105176139Y-110992881D01*
X105198878Y-110801193D01*
X105227215Y-110608353D01*
X105261504Y-110412659D01*
X105302099Y-110212411D01*
X105349352Y-110005905D01*
X105403617Y-109791441D01*
X105465247Y-109567317D01*
X105534595Y-109331832D01*
X105561739Y-109243234D01*
X105580011Y-109184837D01*
X105602963Y-109112592D01*
X105630177Y-109027767D01*
X105661234Y-108931626D01*
X105695713Y-108825434D01*
X105733196Y-108710459D01*
X105773264Y-108587965D01*
X105815498Y-108459218D01*
X105859479Y-108325484D01*
X105904788Y-108188028D01*
X105951004Y-108048116D01*
X105997711Y-107907014D01*
X106044487Y-107765987D01*
X106090915Y-107626301D01*
X106136575Y-107489222D01*
X106181048Y-107356015D01*
X106223914Y-107227946D01*
X106264756Y-107106281D01*
X106303153Y-106992285D01*
X106338687Y-106887225D01*
X106370938Y-106792364D01*
X106399487Y-106708970D01*
X106423916Y-106638308D01*
X106431873Y-106615511D01*
X106528236Y-106342446D01*
X106624645Y-106073478D01*
X106720478Y-105810279D01*
X106815111Y-105554523D01*
X106907922Y-105307883D01*
X106998286Y-105072032D01*
X107085583Y-104848645D01*
X107148952Y-104689577D01*
X107216273Y-104522104D01*
X107127289Y-104515531D01*
X107038304Y-104508958D01*
X106830957Y-104715228D01*
X106664627Y-104877230D01*
X106503441Y-105026952D01*
X106345173Y-105166260D01*
X106187596Y-105297017D01*
X106028482Y-105421087D01*
X105865605Y-105540335D01*
X105746373Y-105623153D01*
X105533159Y-105762841D01*
X105324203Y-105889062D01*
X105119812Y-106001678D01*
X104920290Y-106100552D01*
X104725944Y-106185549D01*
X104537078Y-106256531D01*
X104354000Y-106313363D01*
X104177013Y-106355907D01*
X104059717Y-106376694D01*
X103885817Y-106395016D01*
X103713709Y-106397625D01*
X103544066Y-106384718D01*
X103377560Y-106356493D01*
X103214866Y-106313147D01*
X103056654Y-106254878D01*
X102903599Y-106181884D01*
X102756373Y-106094361D01*
X102615648Y-105992507D01*
X102542270Y-105931331D01*
X102422421Y-105816173D01*
X102310599Y-105687679D01*
X102207079Y-105546453D01*
X102112139Y-105393098D01*
X102026055Y-105228220D01*
X101949105Y-105052422D01*
X101881565Y-104866309D01*
X101823712Y-104670485D01*
X101775823Y-104465554D01*
X101738176Y-104252121D01*
X101723540Y-104144530D01*
X101701699Y-103921518D01*
X101692303Y-103708392D01*
X101695354Y-103505174D01*
X101710849Y-103311888D01*
X101735529Y-103145936D01*
X101741635Y-103114950D01*
X101747063Y-103091425D01*
X101751019Y-103078616D01*
X101752262Y-103077297D01*
X101752879Y-103086037D01*
X101752292Y-103107859D01*
X101750636Y-103139948D01*
X101748045Y-103179492D01*
X101746275Y-103203324D01*
X101739767Y-103369496D01*
X101744854Y-103543016D01*
X101761026Y-103720846D01*
X101787773Y-103899948D01*
X101824586Y-104077284D01*
X101870953Y-104249815D01*
X101926367Y-104414504D01*
X101966233Y-104514129D01*
X102042969Y-104678306D01*
X102126806Y-104828452D01*
X102218081Y-104964984D01*
X102317132Y-105088317D01*
X102424298Y-105198866D01*
X102539917Y-105297046D01*
X102664328Y-105383274D01*
X102683488Y-105395033D01*
X102819229Y-105468064D01*
X102966047Y-105529952D01*
X103123443Y-105580532D01*
X103290923Y-105619635D01*
X103413720Y-105640066D01*
X103475867Y-105646770D01*
X103550291Y-105651494D01*
X103633446Y-105654261D01*
X103721784Y-105655091D01*
X103811759Y-105654006D01*
X103899824Y-105651026D01*
X103982433Y-105646173D01*
X104056039Y-105639467D01*
X104083610Y-105636077D01*
X104317508Y-105596801D01*
X104545560Y-105542893D01*
X104767394Y-105474510D01*
X104982640Y-105391809D01*
X105190927Y-105294948D01*
X105391882Y-105184083D01*
X105585134Y-105059373D01*
X105768056Y-104922783D01*
X105831296Y-104871067D01*
X105893418Y-104817921D01*
X105955861Y-104761942D01*
X106020066Y-104701730D01*
X106087474Y-104635883D01*
X106159525Y-104563000D01*
X106237659Y-104481680D01*
X106323316Y-104390521D01*
X106397121Y-104310770D01*
X106481189Y-104218075D01*
X106573036Y-104114325D01*
X106671090Y-104001384D01*
X106773778Y-103881117D01*
X106879524Y-103755387D01*
X106986758Y-103626060D01*
X107093904Y-103494999D01*
X107199390Y-103364070D01*
X107255193Y-103293972D01*
X107299559Y-103237996D01*
X107351638Y-103172296D01*
X107409230Y-103099645D01*
X107470138Y-103022814D01*
X107532164Y-102944578D01*
X107593110Y-102867708D01*
X107650776Y-102794978D01*
X107669299Y-102771617D01*
X107743703Y-102677597D01*
X107809144Y-102594459D01*
X107866739Y-102520724D01*
X107917604Y-102454911D01*
X107962856Y-102395541D01*
X108003611Y-102341135D01*
X108040985Y-102290212D01*
X108076095Y-102241293D01*
X108110057Y-102192899D01*
X108143988Y-102143549D01*
X108151571Y-102132400D01*
X108219005Y-102038118D01*
X108284369Y-101957594D01*
X108349462Y-101889117D01*
X108416086Y-101830971D01*
X108486039Y-101781443D01*
X108561123Y-101738819D01*
X108569482Y-101734623D01*
X108631987Y-101705805D01*
X108683925Y-101686873D01*
X108726899Y-101677400D01*
X108762508Y-101676959D01*
X108776239Y-101679513D01*
X108862426Y-101708196D01*
X108947148Y-101750079D01*
X109030787Y-101805527D01*
X109113722Y-101874905D01*
X109196336Y-101958578D01*
X109279009Y-102056912D01*
X109362123Y-102170270D01*
X109446057Y-102299018D01*
X109478057Y-102351734D01*
X109549915Y-102478489D01*
X109619264Y-102613629D01*
X109686499Y-102758160D01*
X109752019Y-102913089D01*
X109816220Y-103079422D01*
X109879499Y-103258166D01*
X109942253Y-103450326D01*
X110004880Y-103656910D01*
X110036896Y-103768136D01*
X110188309Y-104315912D01*
X110329328Y-104853072D01*
X110460204Y-105380878D01*
X110581191Y-105900589D01*
X110692540Y-106413465D01*
X110794504Y-106920768D01*
X110887336Y-107423757D01*
X110971287Y-107923693D01*
X111046612Y-108421836D01*
X111113561Y-108919447D01*
X111172388Y-109417785D01*
X111176841Y-109458556D01*
X111213920Y-109819586D01*
X111245185Y-110166243D01*
X111270658Y-110498994D01*
X111290364Y-110818309D01*
X111304327Y-111124657D01*
X111312568Y-111418506D01*
X111315112Y-111700327D01*
X111311983Y-111970587D01*
X111308674Y-112090267D01*
X111296463Y-112375860D01*
X111278923Y-112648560D01*
X111255818Y-112910587D01*
X111226913Y-113164163D01*
X111191972Y-113411510D01*
X111150759Y-113654848D01*
X111132178Y-113753030D01*
X111075805Y-114018738D01*
X111012741Y-114270910D01*
X110942469Y-114510717D01*
X110864474Y-114739328D01*
X110778239Y-114957915D01*
X110683248Y-115167646D01*
X110578985Y-115369692D01*
X110464934Y-115565224D01*
X110340579Y-115755412D01*
X110205404Y-115941425D01*
X110117998Y-116052620D01*
X109921179Y-116284278D01*
X109714488Y-116504469D01*
X109497543Y-116713484D01*
X109269960Y-116911612D01*
X109031359Y-117099141D01*
X108781357Y-117276362D01*
X108519571Y-117443563D01*
X108245619Y-117601035D01*
X107959119Y-117749066D01*
X107742519Y-117851022D01*
X107480359Y-117963660D01*
X107222595Y-118062174D01*
X106967393Y-118147121D01*
X106712914Y-118219059D01*
X106457322Y-118278546D01*
X106198779Y-118326137D01*
X106151827Y-118333477D01*
X106380194Y-118333477D01*
X106490495Y-118315518D01*
X106623933Y-118289475D01*
X106763052Y-118258283D01*
X106906122Y-118222312D01*
X107051414Y-118181935D01*
X107197198Y-118137525D01*
X107341746Y-118089453D01*
X107393186Y-118071308D01*
X107694389Y-117956148D01*
X107987025Y-117829699D01*
X108270630Y-117692309D01*
X108544739Y-117544323D01*
X108808890Y-117386091D01*
X109062616Y-117217960D01*
X109305454Y-117040276D01*
X109536939Y-116853388D01*
X109756607Y-116657643D01*
X109963993Y-116453389D01*
X110158634Y-116240973D01*
X110340065Y-116020742D01*
X110507821Y-115793045D01*
X110579580Y-115686939D01*
X110687955Y-115514966D01*
X110786964Y-115342301D01*
X110877366Y-115167077D01*
X110959919Y-114987428D01*
X111035382Y-114801487D01*
X111104511Y-114607387D01*
X111168066Y-114403262D01*
X111226805Y-114187245D01*
X111280836Y-113960377D01*
X111331893Y-113713494D01*
X111376087Y-113460358D01*
X111413626Y-113199329D01*
X111444715Y-112928763D01*
X111469560Y-112647020D01*
X111488368Y-112352457D01*
X111492101Y-112277677D01*
X111493410Y-112240998D01*
X111494587Y-112190431D01*
X111495626Y-112128039D01*
X111496522Y-112055885D01*
X111497269Y-111976029D01*
X111497862Y-111890535D01*
X111498295Y-111801464D01*
X111498563Y-111710878D01*
X111498660Y-111620840D01*
X111498581Y-111533412D01*
X111498320Y-111450655D01*
X111497872Y-111374632D01*
X111497231Y-111307404D01*
X111496392Y-111251035D01*
X111495349Y-111207586D01*
X111494984Y-111197080D01*
X111469955Y-110689209D01*
X111433554Y-110171471D01*
X111385939Y-109645016D01*
X111327272Y-109110996D01*
X111257712Y-108570560D01*
X111177418Y-108024859D01*
X111086552Y-107475045D01*
X110985272Y-106922267D01*
X110873739Y-106367677D01*
X110752113Y-105812424D01*
X110737867Y-105750236D01*
X110707380Y-105619176D01*
X110674445Y-105480235D01*
X110639485Y-105335065D01*
X110602924Y-105185324D01*
X110565185Y-105032665D01*
X110526692Y-104878745D01*
X110487868Y-104725217D01*
X110449137Y-104573736D01*
X110410923Y-104425959D01*
X110373648Y-104283539D01*
X110337737Y-104148132D01*
X110303613Y-104021393D01*
X110271700Y-103904976D01*
X110242420Y-103800538D01*
X110216198Y-103709732D01*
X110212352Y-103696704D01*
X110138609Y-103459144D01*
X110061609Y-103233118D01*
X109981630Y-103019276D01*
X109898947Y-102818269D01*
X109813837Y-102630746D01*
X109726578Y-102457358D01*
X109637445Y-102298756D01*
X109574441Y-102197426D01*
X109490746Y-102077222D01*
X109405937Y-101972686D01*
X109319686Y-101883555D01*
X109231663Y-101809566D01*
X109141542Y-101750456D01*
X109048993Y-101705963D01*
X108953689Y-101675823D01*
X108912455Y-101667328D01*
X108870857Y-101660893D01*
X108827524Y-101655580D01*
X108785324Y-101651574D01*
X108747125Y-101649059D01*
X108715794Y-101648218D01*
X108694201Y-101649235D01*
X108685213Y-101652293D01*
X108685117Y-101652765D01*
X108677812Y-101657257D01*
X108658529Y-101661730D01*
X108631216Y-101665304D01*
X108627061Y-101665676D01*
X108542029Y-101679359D01*
X108453611Y-101705418D01*
X108365927Y-101742155D01*
X108283093Y-101787870D01*
X108216353Y-101835080D01*
X108178592Y-101867143D01*
X108141054Y-101903092D01*
X108102147Y-101944745D01*
X108060279Y-101993923D01*
X108013857Y-102052445D01*
X107961289Y-102122130D01*
X107941083Y-102149577D01*
X107777939Y-102369836D01*
X107606027Y-102597035D01*
X107424871Y-102831775D01*
X107233997Y-103074660D01*
X107032930Y-103326291D01*
X106821196Y-103587270D01*
X106598320Y-103858201D01*
X106520577Y-103951900D01*
X106399117Y-104096604D01*
X106285529Y-104228937D01*
X106178878Y-104349824D01*
X106078223Y-104460190D01*
X105982629Y-104560959D01*
X105891157Y-104653055D01*
X105802870Y-104737405D01*
X105716829Y-104814931D01*
X105632098Y-104886559D01*
X105547737Y-104953213D01*
X105462811Y-105015818D01*
X105391491Y-105065184D01*
X105193203Y-105190197D01*
X104991621Y-105300611D01*
X104787340Y-105396182D01*
X104580958Y-105476670D01*
X104373069Y-105541831D01*
X104164270Y-105591425D01*
X104043836Y-105612827D01*
X103983165Y-105620291D01*
X103911650Y-105625840D01*
X103833019Y-105629450D01*
X103751005Y-105631099D01*
X103669336Y-105630763D01*
X103591742Y-105628418D01*
X103521955Y-105624042D01*
X103463703Y-105617611D01*
X103456351Y-105616493D01*
X103322237Y-105589333D01*
X103190004Y-105551203D01*
X103063547Y-105503439D01*
X102946759Y-105447376D01*
X102920476Y-105432763D01*
X102794090Y-105351333D01*
X102674796Y-105256110D01*
X102562962Y-105147767D01*
X102458959Y-105026974D01*
X102363154Y-104894401D01*
X102275916Y-104750721D01*
X102197615Y-104596604D01*
X102128618Y-104432722D01*
X102069296Y-104259746D01*
X102020016Y-104078346D01*
X101981147Y-103889194D01*
X101953059Y-103692962D01*
X101950235Y-103667129D01*
X101945511Y-103610842D01*
X101941893Y-103544276D01*
X101939405Y-103470976D01*
X101938072Y-103394487D01*
X101937917Y-103318354D01*
X101938965Y-103246123D01*
X101941239Y-103181338D01*
X101944765Y-103127544D01*
X101946457Y-103110550D01*
X101953523Y-103064528D01*
X101758101Y-103064528D01*
X101756198Y-103053855D01*
X101757472Y-103049243D01*
X101761013Y-103046222D01*
X101762290Y-103054061D01*
X101760824Y-103064405D01*
X101758101Y-103064528D01*
X101953523Y-103064528D01*
X101971119Y-102949927D01*
X102007726Y-102799064D01*
X102056124Y-102658217D01*
X102116161Y-102527641D01*
X102187683Y-102407593D01*
X102270536Y-102298328D01*
X102364568Y-102200101D01*
X102469624Y-102113168D01*
X102585553Y-102037784D01*
X102592040Y-102034092D01*
X102691659Y-101983411D01*
X102801591Y-101937460D01*
X102918213Y-101897244D01*
X103037900Y-101863767D01*
X103157029Y-101838034D01*
X103271976Y-101821051D01*
X103379118Y-101813821D01*
X103386832Y-101813699D01*
X103421510Y-101812888D01*
X103456099Y-101811399D01*
X103488354Y-101809440D01*
X103516029Y-101807222D01*
X103536880Y-101804954D01*
X103548660Y-101802845D01*
X103549124Y-101801104D01*
X103536028Y-101799941D01*
X103534868Y-101799898D01*
X103500506Y-101798682D01*
X103537114Y-101748839D01*
X103559240Y-101717846D01*
X103588210Y-101675970D01*
X103622316Y-101625791D01*
X103659850Y-101569887D01*
X103699106Y-101510840D01*
X103738374Y-101451229D01*
X103775948Y-101393634D01*
X103810120Y-101340634D01*
X103839182Y-101294811D01*
X103860441Y-101260377D01*
X103936744Y-101128851D01*
X104004760Y-101000842D01*
X104063803Y-100877853D01*
X104113191Y-100761388D01*
X104152238Y-100652949D01*
X104178192Y-100562575D01*
X104184391Y-100533885D01*
X104192042Y-100492944D01*
X104200539Y-100443318D01*
X104209277Y-100388572D01*
X104217651Y-100332271D01*
X104219481Y-100319341D01*
X104233590Y-100223062D01*
X104247149Y-100140687D01*
X104260658Y-100070203D01*
X104274619Y-100009599D01*
X104289532Y-99956863D01*
X104305899Y-99909984D01*
X104324221Y-99866949D01*
X104340112Y-99834905D01*
X104356144Y-99808890D01*
X104377635Y-99780033D01*
X104401911Y-99751256D01*
X104426297Y-99725478D01*
X104448120Y-99705622D01*
X104464705Y-99694607D01*
X104469769Y-99693313D01*
X104484382Y-99700141D01*
X104502323Y-99718329D01*
X104520989Y-99744431D01*
X104537777Y-99775001D01*
X104545820Y-99793939D01*
X104560714Y-99837963D01*
X104572799Y-99884058D01*
X104582812Y-99935898D01*
X104591486Y-99997157D01*
X104597778Y-100053657D01*
X104602680Y-100102405D01*
X104607045Y-100147826D01*
X104610904Y-100191125D01*
X104614290Y-100233508D01*
X104617236Y-100276178D01*
X104619775Y-100320342D01*
X104621939Y-100367203D01*
X104623761Y-100417966D01*
X104625274Y-100473837D01*
X104626509Y-100536020D01*
X104627500Y-100605720D01*
X104628279Y-100684141D01*
X104628880Y-100772490D01*
X104629333Y-100871970D01*
X104629673Y-100983786D01*
X104629932Y-101109143D01*
X104630142Y-101249115D01*
X104631250Y-102083191D01*
X104578733Y-102051285D01*
X104436921Y-101973858D01*
X104290275Y-101910724D01*
X104140158Y-101862360D01*
X103987934Y-101829244D01*
X103916138Y-101819094D01*
X103879456Y-101815256D01*
X103836718Y-101811511D01*
X103790478Y-101807997D01*
X103743293Y-101804857D01*
X103697717Y-101802229D01*
X103656307Y-101800254D01*
X103621617Y-101799073D01*
X103596203Y-101798826D01*
X103582620Y-101799653D01*
X103581193Y-101800703D01*
X103590235Y-101803000D01*
X103611927Y-101806291D01*
X103643032Y-101810139D01*
X103680315Y-101814106D01*
X103680879Y-101814162D01*
X103840667Y-101836854D01*
X103993576Y-101872532D01*
X104138884Y-101920794D01*
X104275870Y-101981238D01*
X104403811Y-102053461D01*
X104521986Y-102137060D01*
X104629673Y-102231635D01*
X104726149Y-102336782D01*
X104801999Y-102438927D01*
X104869853Y-102554568D01*
X104923422Y-102677116D01*
X104962683Y-102806339D01*
X104987612Y-102942003D01*
X104998188Y-103083875D01*
X104994386Y-103231722D01*
X104976184Y-103385311D01*
X104943559Y-103544408D01*
X104919828Y-103632905D01*
X104872008Y-103778139D01*
X104811541Y-103928642D01*
X104739713Y-104081919D01*
X104657811Y-104235475D01*
X104567119Y-104386815D01*
X104468924Y-104533445D01*
X104422912Y-104596850D01*
X104400194Y-104627520D01*
X104381402Y-104653166D01*
X104368338Y-104671307D01*
X104362804Y-104679465D01*
X104362731Y-104679658D01*
X104369718Y-104681209D01*
X104386732Y-104682376D01*
X104388650Y-104682443D01*
X104409122Y-104683620D01*
X104439440Y-104685958D01*
X104473583Y-104688986D01*
X104478923Y-104689496D01*
X104543279Y-104695706D01*
X104614496Y-104599319D01*
X104724939Y-104440147D01*
X104824872Y-104276231D01*
X104913672Y-104109065D01*
X104990713Y-103940141D01*
X105055370Y-103770952D01*
X105107019Y-103602990D01*
X105145033Y-103437749D01*
X105168789Y-103276719D01*
X105168933Y-103275325D01*
X105173192Y-103214309D01*
X105174796Y-103144107D01*
X105173893Y-103069555D01*
X105170633Y-102995489D01*
X105165164Y-102926746D01*
X105157635Y-102868161D01*
X105156122Y-102859341D01*
X105128487Y-102743050D01*
X105088177Y-102627512D01*
X105037024Y-102517266D01*
X104979249Y-102420385D01*
X104950220Y-102380272D01*
X104915333Y-102336492D01*
X104878287Y-102293362D01*
X104842783Y-102255199D01*
X104814057Y-102227656D01*
X104789387Y-102206049D01*
X104812344Y-102205725D01*
X104835301Y-102205401D01*
X104828748Y-102115683D01*
X104827820Y-102095107D01*
X104826914Y-102059803D01*
X104826040Y-102010994D01*
X104825208Y-101949901D01*
X104824428Y-101877747D01*
X104823710Y-101795754D01*
X104823064Y-101705143D01*
X104822501Y-101607138D01*
X104822031Y-101502959D01*
X104821662Y-101393829D01*
X104821407Y-101280971D01*
X104821317Y-101216515D01*
X104821133Y-101076242D01*
X104820881Y-100950739D01*
X104820528Y-100838828D01*
X104820040Y-100739331D01*
X104819384Y-100651067D01*
X104818527Y-100572859D01*
X104817436Y-100503528D01*
X104816078Y-100441894D01*
X104814420Y-100386779D01*
X104812429Y-100337004D01*
X104810071Y-100291390D01*
X104807313Y-100248759D01*
X104804123Y-100207931D01*
X104800467Y-100167727D01*
X104796312Y-100126969D01*
X104791625Y-100084478D01*
X104788834Y-100060157D01*
X104775712Y-99963361D01*
X104760368Y-99881487D01*
X104742461Y-99813623D01*
X104721648Y-99758851D01*
X104697590Y-99716257D01*
X104669946Y-99684927D01*
X104641852Y-99665673D01*
X104613429Y-99656500D01*
X104573365Y-99650838D01*
X104525548Y-99648556D01*
X104473866Y-99649525D01*
X104422206Y-99653613D01*
X104374457Y-99660692D01*
X104334505Y-99670630D01*
X104318991Y-99676488D01*
X104269252Y-99706859D01*
X104222873Y-99752069D01*
X104180401Y-99811257D01*
X104142378Y-99883563D01*
X104109351Y-99968127D01*
X104087356Y-100042244D01*
X104080109Y-100073063D01*
X104071147Y-100115899D01*
X104061197Y-100167008D01*
X104050983Y-100222647D01*
X104041230Y-100279069D01*
X104039688Y-100288363D01*
X104026525Y-100366597D01*
X104014822Y-100431892D01*
X104003890Y-100487111D01*
X103993037Y-100535119D01*
X103981574Y-100578780D01*
X103968811Y-100620959D01*
X103954058Y-100664519D01*
X103939247Y-100705286D01*
X103883871Y-100841829D01*
X103816595Y-100985899D01*
X103738433Y-101135669D01*
X103650401Y-101289309D01*
X103553516Y-101444991D01*
X103448794Y-101600887D01*
X103414863Y-101649021D01*
X103314034Y-101790443D01*
X103217500Y-101790575D01*
X103037067Y-101796773D01*
X102867240Y-101814859D01*
X102708025Y-101844830D01*
X102559428Y-101886684D01*
X102421458Y-101940419D01*
X102294120Y-102006033D01*
X102177421Y-102083524D01*
X102135797Y-102116141D01*
X102097616Y-102149416D01*
X102053747Y-102190838D01*
X102007710Y-102236799D01*
X101963023Y-102283689D01*
X101923205Y-102327897D01*
X101891776Y-102365816D01*
X101889411Y-102368886D01*
X101829266Y-102453681D01*
X101769604Y-102549120D01*
X101713137Y-102650272D01*
X101662576Y-102752205D01*
X101620632Y-102849986D01*
X101611042Y-102875291D01*
X101590456Y-102935619D01*
X101569812Y-103003645D01*
X101550511Y-103074159D01*
X101533957Y-103141951D01*
X101521551Y-103201814D01*
X101518724Y-103218211D01*
X101511217Y-103278548D01*
X101505752Y-103352325D01*
X101502295Y-103437167D01*
X101500810Y-103530701D01*
X101501263Y-103630551D01*
X101503620Y-103734345D01*
X101507844Y-103839706D01*
X101513901Y-103944262D01*
X101521757Y-104045639D01*
X101531376Y-104141460D01*
X101532407Y-104150412D01*
X101564104Y-104372261D01*
X101606303Y-104584777D01*
X101658799Y-104787560D01*
X101721387Y-104980216D01*
X101793861Y-105162346D01*
X101876017Y-105333555D01*
X101967649Y-105493445D01*
X102068551Y-105641619D01*
X102178520Y-105777682D01*
X102297349Y-105901235D01*
X102424834Y-106011882D01*
X102537079Y-106093638D01*
X102636748Y-106154335D01*
X102748093Y-106211348D01*
X102866943Y-106262789D01*
X102989125Y-106306768D01*
X103046702Y-106324377D01*
X103234503Y-106370218D01*
X103427948Y-106401346D01*
X103626428Y-106417720D01*
X103829335Y-106419301D01*
X104036060Y-106406048D01*
X104127102Y-106395633D01*
X104316571Y-106364246D01*
X104512401Y-106318350D01*
X104714433Y-106257991D01*
X104922512Y-106183216D01*
X105136481Y-106094074D01*
X105164545Y-106081512D01*
X105368863Y-105982833D01*
X105576018Y-105870140D01*
X105784202Y-105744679D01*
X105991608Y-105607696D01*
X106196430Y-105460436D01*
X106396862Y-105304144D01*
X106591097Y-105140067D01*
X106776798Y-104969955D01*
X106809161Y-104939274D01*
X106837466Y-104912860D01*
X106859738Y-104892522D01*
X106874004Y-104880067D01*
X106878280Y-104876986D01*
X106878964Y-104883247D01*
X106875416Y-104894930D01*
X106814663Y-105051565D01*
X106757146Y-105201006D01*
X106702182Y-105345133D01*
X106649084Y-105485827D01*
X106597167Y-105624967D01*
X106545746Y-105764436D01*
X106494135Y-105906112D01*
X106441648Y-106051876D01*
X106387600Y-106203610D01*
X106331305Y-106363193D01*
X106272079Y-106532506D01*
X106209236Y-106713430D01*
X106149391Y-106886657D01*
X106019408Y-107266833D01*
X105895774Y-107634911D01*
X105777787Y-107993098D01*
X105664744Y-108343603D01*
X105555943Y-108688632D01*
X105450680Y-109030394D01*
X105348254Y-109371096D01*
X105247962Y-109712946D01*
X105228130Y-109781539D01*
X105179449Y-109955388D01*
X105137138Y-110117979D01*
X105100599Y-110272402D01*
X105069232Y-110421745D01*
X105042438Y-110569097D01*
X105019618Y-110717546D01*
X105000173Y-110870183D01*
X104983504Y-111030095D01*
X104981242Y-111054506D01*
X104963691Y-111306579D01*
X104955864Y-111570181D01*
X104957641Y-111844292D01*
X104968905Y-112127891D01*
X104989536Y-112419956D01*
X105019416Y-112719468D01*
X105058424Y-113025404D01*
X105106444Y-113336744D01*
X105163355Y-113652467D01*
X105229038Y-113971553D01*
X105303376Y-114292979D01*
X105386248Y-114615726D01*
X105403224Y-114678117D01*
X105466448Y-114900628D01*
X105536365Y-115132588D01*
X105611925Y-115370979D01*
X105692078Y-115612786D01*
X105775772Y-115854992D01*
X105861959Y-116094579D01*
X105949587Y-116328532D01*
X106037607Y-116553833D01*
X106124968Y-116767467D01*
X106157202Y-116843624D01*
X106178952Y-116893594D01*
X106201925Y-116944827D01*
X106224117Y-116992952D01*
X106243522Y-117033601D01*
X106253836Y-117054223D01*
X106269974Y-117087083D01*
X106282831Y-117116179D01*
X106290815Y-117137731D01*
X106292653Y-117146404D01*
X106290420Y-117156554D01*
X106283955Y-117180781D01*
X106273604Y-117217885D01*
X106259716Y-117266668D01*
X106242638Y-117325928D01*
X106222718Y-117394466D01*
X106200304Y-117471081D01*
X106175744Y-117554574D01*
X106149384Y-117643745D01*
X106121574Y-117737393D01*
X106114580Y-117760879D01*
X105936508Y-118358525D01*
X106048126Y-118360746D01*
X106048126Y-118360746D01*
G36*
X103529476Y-103243463D02*
X103585500Y-103241472D01*
X103636217Y-103237080D01*
X103677492Y-103230305D01*
X103694182Y-103225734D01*
X103711497Y-103218133D01*
X103515718Y-103218133D01*
X103496036Y-103213304D01*
X103468416Y-103200650D01*
X103437141Y-103182597D01*
X103406494Y-103161567D01*
X103385509Y-103144414D01*
X103340307Y-103093646D01*
X103309372Y-103036651D01*
X103292961Y-102974829D01*
X103291331Y-102909581D01*
X103304741Y-102842304D01*
X103321729Y-102797965D01*
X103344110Y-102760405D01*
X103374946Y-102724126D01*
X103410966Y-102691746D01*
X103448896Y-102665886D01*
X103485463Y-102649166D01*
X103513930Y-102644094D01*
X103545482Y-102650863D01*
X103581173Y-102669266D01*
X103617913Y-102696717D01*
X103652612Y-102730633D01*
X103682182Y-102768428D01*
X103700140Y-102799874D01*
X103718820Y-102850455D01*
X103726900Y-102902420D01*
X103724664Y-102959744D01*
X103715384Y-103013298D01*
X103703137Y-103048054D01*
X103682289Y-103087164D01*
X103656541Y-103124831D01*
X103629592Y-103155256D01*
X103619017Y-103164320D01*
X103594853Y-103180818D01*
X103567410Y-103196771D01*
X103541410Y-103209719D01*
X103521575Y-103217203D01*
X103515718Y-103218133D01*
X103711497Y-103218133D01*
X103762347Y-103195811D01*
X103820556Y-103156011D01*
X103867610Y-103107776D01*
X103902309Y-103052543D01*
X103923453Y-102991753D01*
X103929706Y-102943077D01*
X103929247Y-102908912D01*
X103925910Y-102876285D01*
X103921306Y-102855354D01*
X103891098Y-102786485D01*
X103849722Y-102728981D01*
X103797384Y-102683024D01*
X103734289Y-102648798D01*
X103664929Y-102627392D01*
X103631261Y-102622467D01*
X103586508Y-102619196D01*
X103535447Y-102617604D01*
X103482861Y-102617712D01*
X103433528Y-102619543D01*
X103392227Y-102623121D01*
X103373846Y-102626004D01*
X103298823Y-102646266D01*
X103236896Y-102674728D01*
X103187132Y-102712003D01*
X103148598Y-102758704D01*
X103134599Y-102783103D01*
X103122059Y-102808577D01*
X103113977Y-102829030D01*
X103109383Y-102849326D01*
X103107302Y-102874329D01*
X103106764Y-102908904D01*
X103106758Y-102922363D01*
X103107250Y-102962503D01*
X103109169Y-102991478D01*
X103113294Y-103014061D01*
X103120405Y-103035022D01*
X103127974Y-103052135D01*
X103164837Y-103112962D01*
X103213422Y-103163087D01*
X103273319Y-103202165D01*
X103334967Y-103227111D01*
X103370889Y-103234878D01*
X103418036Y-103240182D01*
X103472276Y-103243038D01*
X103529476Y-103243463D01*
X103529476Y-103243463D01*
X103529476Y-103243463D01*
G37*
X103529476Y-103243463D02*
X103585500Y-103241472D01*
X103636217Y-103237080D01*
X103677492Y-103230305D01*
X103694182Y-103225734D01*
X103711497Y-103218133D01*
X103515718Y-103218133D01*
X103496036Y-103213304D01*
X103468416Y-103200650D01*
X103437141Y-103182597D01*
X103406494Y-103161567D01*
X103385509Y-103144414D01*
X103340307Y-103093646D01*
X103309372Y-103036651D01*
X103292961Y-102974829D01*
X103291331Y-102909581D01*
X103304741Y-102842304D01*
X103321729Y-102797965D01*
X103344110Y-102760405D01*
X103374946Y-102724126D01*
X103410966Y-102691746D01*
X103448896Y-102665886D01*
X103485463Y-102649166D01*
X103513930Y-102644094D01*
X103545482Y-102650863D01*
X103581173Y-102669266D01*
X103617913Y-102696717D01*
X103652612Y-102730633D01*
X103682182Y-102768428D01*
X103700140Y-102799874D01*
X103718820Y-102850455D01*
X103726900Y-102902420D01*
X103724664Y-102959744D01*
X103715384Y-103013298D01*
X103703137Y-103048054D01*
X103682289Y-103087164D01*
X103656541Y-103124831D01*
X103629592Y-103155256D01*
X103619017Y-103164320D01*
X103594853Y-103180818D01*
X103567410Y-103196771D01*
X103541410Y-103209719D01*
X103521575Y-103217203D01*
X103515718Y-103218133D01*
X103711497Y-103218133D01*
X103762347Y-103195811D01*
X103820556Y-103156011D01*
X103867610Y-103107776D01*
X103902309Y-103052543D01*
X103923453Y-102991753D01*
X103929706Y-102943077D01*
X103929247Y-102908912D01*
X103925910Y-102876285D01*
X103921306Y-102855354D01*
X103891098Y-102786485D01*
X103849722Y-102728981D01*
X103797384Y-102683024D01*
X103734289Y-102648798D01*
X103664929Y-102627392D01*
X103631261Y-102622467D01*
X103586508Y-102619196D01*
X103535447Y-102617604D01*
X103482861Y-102617712D01*
X103433528Y-102619543D01*
X103392227Y-102623121D01*
X103373846Y-102626004D01*
X103298823Y-102646266D01*
X103236896Y-102674728D01*
X103187132Y-102712003D01*
X103148598Y-102758704D01*
X103134599Y-102783103D01*
X103122059Y-102808577D01*
X103113977Y-102829030D01*
X103109383Y-102849326D01*
X103107302Y-102874329D01*
X103106764Y-102908904D01*
X103106758Y-102922363D01*
X103107250Y-102962503D01*
X103109169Y-102991478D01*
X103113294Y-103014061D01*
X103120405Y-103035022D01*
X103127974Y-103052135D01*
X103164837Y-103112962D01*
X103213422Y-103163087D01*
X103273319Y-103202165D01*
X103334967Y-103227111D01*
X103370889Y-103234878D01*
X103418036Y-103240182D01*
X103472276Y-103243038D01*
X103529476Y-103243463D01*
X103529476Y-103243463D01*
G36*
X106757035Y-113616903D02*
X106817987Y-113615364D01*
X106874025Y-113611958D01*
X106919967Y-113606738D01*
X106922668Y-113606307D01*
X106975761Y-113593533D01*
X106753593Y-113593533D01*
X106721977Y-113585751D01*
X106692216Y-113563169D01*
X106665726Y-113526930D01*
X106661425Y-113519065D01*
X106649859Y-113494222D01*
X106643247Y-113470799D01*
X106640298Y-113442539D01*
X106639714Y-113413684D01*
X106640289Y-113380515D01*
X106643223Y-113355323D01*
X106650048Y-113331822D01*
X106662296Y-113303727D01*
X106670754Y-113286355D01*
X106707692Y-113226441D01*
X106759942Y-113164789D01*
X106827010Y-113101791D01*
X106908403Y-113037838D01*
X107003625Y-112973324D01*
X107112182Y-112908641D01*
X107217739Y-112852204D01*
X107252956Y-112834608D01*
X107292320Y-112815525D01*
X107333084Y-112796215D01*
X107372501Y-112777943D01*
X107407822Y-112761971D01*
X107436302Y-112749563D01*
X107455192Y-112741982D01*
X107461331Y-112740220D01*
X107463950Y-112742107D01*
X107464030Y-112749058D01*
X107461059Y-112763012D01*
X107454528Y-112785906D01*
X107443925Y-112819679D01*
X107428740Y-112866267D01*
X107425644Y-112875670D01*
X107376373Y-113007545D01*
X107319562Y-113127624D01*
X107255624Y-113235419D01*
X107184974Y-113330441D01*
X107108024Y-113412202D01*
X107025189Y-113480213D01*
X106936881Y-113533986D01*
X106843515Y-113573032D01*
X106832111Y-113576667D01*
X106801016Y-113585233D01*
X106772627Y-113591304D01*
X106753593Y-113593533D01*
X106975761Y-113593533D01*
X107024794Y-113581736D01*
X107120821Y-113542499D01*
X107210662Y-113488704D01*
X107294227Y-113420458D01*
X107371429Y-113337870D01*
X107442179Y-113241048D01*
X107506389Y-113130099D01*
X107563969Y-113005131D01*
X107614833Y-112866253D01*
X107658890Y-112713572D01*
X107661037Y-112705085D01*
X107668386Y-112678097D01*
X107675792Y-112662016D01*
X107686908Y-112652212D01*
X107705382Y-112644051D01*
X107710721Y-112642045D01*
X107724360Y-112637252D01*
X107751830Y-112627861D01*
X107791826Y-112614307D01*
X107843045Y-112597030D01*
X107904184Y-112576467D01*
X107973940Y-112553056D01*
X108051009Y-112527235D01*
X108134087Y-112499442D01*
X108221873Y-112470115D01*
X108294348Y-112445931D01*
X108388516Y-112414443D01*
X108481687Y-112383129D01*
X108572211Y-112352554D01*
X108658440Y-112323282D01*
X108738725Y-112295876D01*
X108811416Y-112270900D01*
X108874864Y-112248919D01*
X108927420Y-112230496D01*
X108967435Y-112216195D01*
X108984176Y-112210038D01*
X109191309Y-112128480D01*
X109386272Y-112043430D01*
X109568357Y-111955253D01*
X109736857Y-111864317D01*
X109891064Y-111770987D01*
X110030272Y-111675628D01*
X110060553Y-111653100D01*
X110163238Y-111572756D01*
X110251580Y-111497805D01*
X110326068Y-111427779D01*
X110387195Y-111362211D01*
X110435450Y-111300633D01*
X110444641Y-111287194D01*
X110469461Y-111245253D01*
X110490998Y-111200213D01*
X110507514Y-111156451D01*
X110517275Y-111118343D01*
X110519172Y-111099388D01*
X110519340Y-111073470D01*
X110424753Y-111073470D01*
X110330165Y-111073470D01*
X110325240Y-111115056D01*
X110315416Y-111156533D01*
X110295846Y-111205342D01*
X110268377Y-111257857D01*
X110234858Y-111310456D01*
X110206191Y-111348603D01*
X110146158Y-111415600D01*
X110072305Y-111485999D01*
X109986123Y-111558740D01*
X109889104Y-111632760D01*
X109782741Y-111706999D01*
X109668526Y-111780395D01*
X109547950Y-111851887D01*
X109422505Y-111920413D01*
X109351020Y-111956930D01*
X109286542Y-111988664D01*
X109223749Y-112018687D01*
X109161348Y-112047496D01*
X109098047Y-112075587D01*
X109032553Y-112103457D01*
X108963573Y-112131603D01*
X108889814Y-112160521D01*
X108809986Y-112190709D01*
X108722793Y-112222663D01*
X108626945Y-112256880D01*
X108521149Y-112293857D01*
X108404112Y-112334090D01*
X108274541Y-112378076D01*
X108131144Y-112426312D01*
X108119812Y-112430109D01*
X108041100Y-112456474D01*
X107967064Y-112481259D01*
X107899057Y-112504012D01*
X107838434Y-112524282D01*
X107786547Y-112541616D01*
X107744752Y-112555561D01*
X107714402Y-112565665D01*
X107696852Y-112571476D01*
X107692902Y-112572748D01*
X107693719Y-112565365D01*
X107696773Y-112545132D01*
X107701611Y-112514917D01*
X107707780Y-112477593D01*
X107709546Y-112467080D01*
X107730092Y-112330251D01*
X107746713Y-112186004D01*
X107759861Y-112030358D01*
X107760691Y-112018533D01*
X107764453Y-111946027D01*
X107766775Y-111859500D01*
X107767695Y-111760814D01*
X107767252Y-111651829D01*
X107765483Y-111534405D01*
X107762427Y-111410405D01*
X107758121Y-111281688D01*
X107752604Y-111150115D01*
X107745913Y-111017547D01*
X107738086Y-110885845D01*
X107737327Y-110874098D01*
X107729508Y-110753462D01*
X107722701Y-110647076D01*
X107716845Y-110553276D01*
X107711879Y-110470396D01*
X107707742Y-110396774D01*
X107704373Y-110330744D01*
X107701712Y-110270644D01*
X107699696Y-110214807D01*
X107698266Y-110161572D01*
X107697359Y-110109272D01*
X107696917Y-110056245D01*
X107696876Y-110000825D01*
X107697177Y-109941350D01*
X107697759Y-109876154D01*
X107698453Y-109812807D01*
X107700748Y-109671283D01*
X107704366Y-109542845D01*
X107709542Y-109424668D01*
X107716514Y-109313925D01*
X107725519Y-109207790D01*
X107736791Y-109103436D01*
X107750570Y-108998037D01*
X107767089Y-108888768D01*
X107784515Y-108784679D01*
X107838218Y-108517453D01*
X107905370Y-108255308D01*
X107985568Y-107999355D01*
X108078406Y-107750705D01*
X108183481Y-107510470D01*
X108300388Y-107279761D01*
X108388223Y-107125903D01*
X108486395Y-106970047D01*
X108586308Y-106828117D01*
X108689807Y-106698092D01*
X108798739Y-106577948D01*
X108914948Y-106465662D01*
X109040280Y-106359213D01*
X109176580Y-106256577D01*
X109190138Y-106246971D01*
X109197742Y-106240351D01*
X109193949Y-106237238D01*
X109176585Y-106236155D01*
X109174188Y-106236104D01*
X109150317Y-106234870D01*
X109117929Y-106232236D01*
X109086529Y-106229040D01*
X109029385Y-106222576D01*
X108950956Y-106276771D01*
X108828572Y-106369598D01*
X108707964Y-106477369D01*
X108589775Y-106599121D01*
X108474648Y-106733888D01*
X108363226Y-106880705D01*
X108256152Y-107038607D01*
X108154070Y-107206630D01*
X108057622Y-107383809D01*
X107967453Y-107569179D01*
X107884204Y-107761776D01*
X107808519Y-107960634D01*
X107786803Y-108023077D01*
X107715004Y-108253958D01*
X107652993Y-108494671D01*
X107601402Y-108741991D01*
X107560863Y-108992693D01*
X107532007Y-109243550D01*
X107521449Y-109378807D01*
X107516514Y-109461875D01*
X107512658Y-109543086D01*
X107509906Y-109623976D01*
X107508288Y-109706081D01*
X107507831Y-109790938D01*
X107508561Y-109880081D01*
X107510506Y-109975048D01*
X107513694Y-110077373D01*
X107518153Y-110188594D01*
X107523909Y-110310246D01*
X107530990Y-110443865D01*
X107539423Y-110590988D01*
X107544678Y-110678713D01*
X107554469Y-110843953D01*
X107562858Y-110994675D01*
X107569858Y-111132249D01*
X107575477Y-111258046D01*
X107579726Y-111373434D01*
X107582616Y-111479784D01*
X107584156Y-111578465D01*
X107584358Y-111670847D01*
X107583230Y-111758300D01*
X107580784Y-111842194D01*
X107577030Y-111923899D01*
X107571978Y-112004783D01*
X107565638Y-112086217D01*
X107558021Y-112169571D01*
X107556010Y-112189953D01*
X107550305Y-112243086D01*
X107543461Y-112300480D01*
X107535808Y-112359928D01*
X107527678Y-112419229D01*
X107519401Y-112476176D01*
X107511310Y-112528567D01*
X107503734Y-112574198D01*
X107497006Y-112610863D01*
X107491456Y-112636359D01*
X107487415Y-112648482D01*
X107487052Y-112648929D01*
X107479235Y-112652375D01*
X107459260Y-112660406D01*
X107429880Y-112671937D01*
X107393843Y-112685882D01*
X107381224Y-112690726D01*
X107229306Y-112751703D01*
X107092357Y-112812593D01*
X106969411Y-112873947D01*
X106859500Y-112936320D01*
X106761656Y-113000264D01*
X106674914Y-113066332D01*
X106598305Y-113135077D01*
X106590831Y-113142450D01*
X106543011Y-113191996D01*
X106506697Y-113234760D01*
X106480501Y-113273348D01*
X106463037Y-113310369D01*
X106452916Y-113348429D01*
X106448752Y-113390135D01*
X106448447Y-113409968D01*
X106449493Y-113447631D01*
X106452981Y-113475165D01*
X106459997Y-113498335D01*
X106468610Y-113517075D01*
X106496388Y-113559524D01*
X106530829Y-113588406D01*
X106574473Y-113605560D01*
X106596511Y-113609761D01*
X106641115Y-113614156D01*
X106696350Y-113616518D01*
X106757035Y-113616903D01*
X106757035Y-113616903D01*
X106757035Y-113616903D01*
G37*
X106757035Y-113616903D02*
X106817987Y-113615364D01*
X106874025Y-113611958D01*
X106919967Y-113606738D01*
X106922668Y-113606307D01*
X106975761Y-113593533D01*
X106753593Y-113593533D01*
X106721977Y-113585751D01*
X106692216Y-113563169D01*
X106665726Y-113526930D01*
X106661425Y-113519065D01*
X106649859Y-113494222D01*
X106643247Y-113470799D01*
X106640298Y-113442539D01*
X106639714Y-113413684D01*
X106640289Y-113380515D01*
X106643223Y-113355323D01*
X106650048Y-113331822D01*
X106662296Y-113303727D01*
X106670754Y-113286355D01*
X106707692Y-113226441D01*
X106759942Y-113164789D01*
X106827010Y-113101791D01*
X106908403Y-113037838D01*
X107003625Y-112973324D01*
X107112182Y-112908641D01*
X107217739Y-112852204D01*
X107252956Y-112834608D01*
X107292320Y-112815525D01*
X107333084Y-112796215D01*
X107372501Y-112777943D01*
X107407822Y-112761971D01*
X107436302Y-112749563D01*
X107455192Y-112741982D01*
X107461331Y-112740220D01*
X107463950Y-112742107D01*
X107464030Y-112749058D01*
X107461059Y-112763012D01*
X107454528Y-112785906D01*
X107443925Y-112819679D01*
X107428740Y-112866267D01*
X107425644Y-112875670D01*
X107376373Y-113007545D01*
X107319562Y-113127624D01*
X107255624Y-113235419D01*
X107184974Y-113330441D01*
X107108024Y-113412202D01*
X107025189Y-113480213D01*
X106936881Y-113533986D01*
X106843515Y-113573032D01*
X106832111Y-113576667D01*
X106801016Y-113585233D01*
X106772627Y-113591304D01*
X106753593Y-113593533D01*
X106975761Y-113593533D01*
X107024794Y-113581736D01*
X107120821Y-113542499D01*
X107210662Y-113488704D01*
X107294227Y-113420458D01*
X107371429Y-113337870D01*
X107442179Y-113241048D01*
X107506389Y-113130099D01*
X107563969Y-113005131D01*
X107614833Y-112866253D01*
X107658890Y-112713572D01*
X107661037Y-112705085D01*
X107668386Y-112678097D01*
X107675792Y-112662016D01*
X107686908Y-112652212D01*
X107705382Y-112644051D01*
X107710721Y-112642045D01*
X107724360Y-112637252D01*
X107751830Y-112627861D01*
X107791826Y-112614307D01*
X107843045Y-112597030D01*
X107904184Y-112576467D01*
X107973940Y-112553056D01*
X108051009Y-112527235D01*
X108134087Y-112499442D01*
X108221873Y-112470115D01*
X108294348Y-112445931D01*
X108388516Y-112414443D01*
X108481687Y-112383129D01*
X108572211Y-112352554D01*
X108658440Y-112323282D01*
X108738725Y-112295876D01*
X108811416Y-112270900D01*
X108874864Y-112248919D01*
X108927420Y-112230496D01*
X108967435Y-112216195D01*
X108984176Y-112210038D01*
X109191309Y-112128480D01*
X109386272Y-112043430D01*
X109568357Y-111955253D01*
X109736857Y-111864317D01*
X109891064Y-111770987D01*
X110030272Y-111675628D01*
X110060553Y-111653100D01*
X110163238Y-111572756D01*
X110251580Y-111497805D01*
X110326068Y-111427779D01*
X110387195Y-111362211D01*
X110435450Y-111300633D01*
X110444641Y-111287194D01*
X110469461Y-111245253D01*
X110490998Y-111200213D01*
X110507514Y-111156451D01*
X110517275Y-111118343D01*
X110519172Y-111099388D01*
X110519340Y-111073470D01*
X110424753Y-111073470D01*
X110330165Y-111073470D01*
X110325240Y-111115056D01*
X110315416Y-111156533D01*
X110295846Y-111205342D01*
X110268377Y-111257857D01*
X110234858Y-111310456D01*
X110206191Y-111348603D01*
X110146158Y-111415600D01*
X110072305Y-111485999D01*
X109986123Y-111558740D01*
X109889104Y-111632760D01*
X109782741Y-111706999D01*
X109668526Y-111780395D01*
X109547950Y-111851887D01*
X109422505Y-111920413D01*
X109351020Y-111956930D01*
X109286542Y-111988664D01*
X109223749Y-112018687D01*
X109161348Y-112047496D01*
X109098047Y-112075587D01*
X109032553Y-112103457D01*
X108963573Y-112131603D01*
X108889814Y-112160521D01*
X108809986Y-112190709D01*
X108722793Y-112222663D01*
X108626945Y-112256880D01*
X108521149Y-112293857D01*
X108404112Y-112334090D01*
X108274541Y-112378076D01*
X108131144Y-112426312D01*
X108119812Y-112430109D01*
X108041100Y-112456474D01*
X107967064Y-112481259D01*
X107899057Y-112504012D01*
X107838434Y-112524282D01*
X107786547Y-112541616D01*
X107744752Y-112555561D01*
X107714402Y-112565665D01*
X107696852Y-112571476D01*
X107692902Y-112572748D01*
X107693719Y-112565365D01*
X107696773Y-112545132D01*
X107701611Y-112514917D01*
X107707780Y-112477593D01*
X107709546Y-112467080D01*
X107730092Y-112330251D01*
X107746713Y-112186004D01*
X107759861Y-112030358D01*
X107760691Y-112018533D01*
X107764453Y-111946027D01*
X107766775Y-111859500D01*
X107767695Y-111760814D01*
X107767252Y-111651829D01*
X107765483Y-111534405D01*
X107762427Y-111410405D01*
X107758121Y-111281688D01*
X107752604Y-111150115D01*
X107745913Y-111017547D01*
X107738086Y-110885845D01*
X107737327Y-110874098D01*
X107729508Y-110753462D01*
X107722701Y-110647076D01*
X107716845Y-110553276D01*
X107711879Y-110470396D01*
X107707742Y-110396774D01*
X107704373Y-110330744D01*
X107701712Y-110270644D01*
X107699696Y-110214807D01*
X107698266Y-110161572D01*
X107697359Y-110109272D01*
X107696917Y-110056245D01*
X107696876Y-110000825D01*
X107697177Y-109941350D01*
X107697759Y-109876154D01*
X107698453Y-109812807D01*
X107700748Y-109671283D01*
X107704366Y-109542845D01*
X107709542Y-109424668D01*
X107716514Y-109313925D01*
X107725519Y-109207790D01*
X107736791Y-109103436D01*
X107750570Y-108998037D01*
X107767089Y-108888768D01*
X107784515Y-108784679D01*
X107838218Y-108517453D01*
X107905370Y-108255308D01*
X107985568Y-107999355D01*
X108078406Y-107750705D01*
X108183481Y-107510470D01*
X108300388Y-107279761D01*
X108388223Y-107125903D01*
X108486395Y-106970047D01*
X108586308Y-106828117D01*
X108689807Y-106698092D01*
X108798739Y-106577948D01*
X108914948Y-106465662D01*
X109040280Y-106359213D01*
X109176580Y-106256577D01*
X109190138Y-106246971D01*
X109197742Y-106240351D01*
X109193949Y-106237238D01*
X109176585Y-106236155D01*
X109174188Y-106236104D01*
X109150317Y-106234870D01*
X109117929Y-106232236D01*
X109086529Y-106229040D01*
X109029385Y-106222576D01*
X108950956Y-106276771D01*
X108828572Y-106369598D01*
X108707964Y-106477369D01*
X108589775Y-106599121D01*
X108474648Y-106733888D01*
X108363226Y-106880705D01*
X108256152Y-107038607D01*
X108154070Y-107206630D01*
X108057622Y-107383809D01*
X107967453Y-107569179D01*
X107884204Y-107761776D01*
X107808519Y-107960634D01*
X107786803Y-108023077D01*
X107715004Y-108253958D01*
X107652993Y-108494671D01*
X107601402Y-108741991D01*
X107560863Y-108992693D01*
X107532007Y-109243550D01*
X107521449Y-109378807D01*
X107516514Y-109461875D01*
X107512658Y-109543086D01*
X107509906Y-109623976D01*
X107508288Y-109706081D01*
X107507831Y-109790938D01*
X107508561Y-109880081D01*
X107510506Y-109975048D01*
X107513694Y-110077373D01*
X107518153Y-110188594D01*
X107523909Y-110310246D01*
X107530990Y-110443865D01*
X107539423Y-110590988D01*
X107544678Y-110678713D01*
X107554469Y-110843953D01*
X107562858Y-110994675D01*
X107569858Y-111132249D01*
X107575477Y-111258046D01*
X107579726Y-111373434D01*
X107582616Y-111479784D01*
X107584156Y-111578465D01*
X107584358Y-111670847D01*
X107583230Y-111758300D01*
X107580784Y-111842194D01*
X107577030Y-111923899D01*
X107571978Y-112004783D01*
X107565638Y-112086217D01*
X107558021Y-112169571D01*
X107556010Y-112189953D01*
X107550305Y-112243086D01*
X107543461Y-112300480D01*
X107535808Y-112359928D01*
X107527678Y-112419229D01*
X107519401Y-112476176D01*
X107511310Y-112528567D01*
X107503734Y-112574198D01*
X107497006Y-112610863D01*
X107491456Y-112636359D01*
X107487415Y-112648482D01*
X107487052Y-112648929D01*
X107479235Y-112652375D01*
X107459260Y-112660406D01*
X107429880Y-112671937D01*
X107393843Y-112685882D01*
X107381224Y-112690726D01*
X107229306Y-112751703D01*
X107092357Y-112812593D01*
X106969411Y-112873947D01*
X106859500Y-112936320D01*
X106761656Y-113000264D01*
X106674914Y-113066332D01*
X106598305Y-113135077D01*
X106590831Y-113142450D01*
X106543011Y-113191996D01*
X106506697Y-113234760D01*
X106480501Y-113273348D01*
X106463037Y-113310369D01*
X106452916Y-113348429D01*
X106448752Y-113390135D01*
X106448447Y-113409968D01*
X106449493Y-113447631D01*
X106452981Y-113475165D01*
X106459997Y-113498335D01*
X106468610Y-113517075D01*
X106496388Y-113559524D01*
X106530829Y-113588406D01*
X106574473Y-113605560D01*
X106596511Y-113609761D01*
X106641115Y-113614156D01*
X106696350Y-113616518D01*
X106757035Y-113616903D01*
X106757035Y-113616903D01*
D11*
X140429000Y-99529000D02*
X140571000Y-99529000D01*
X140571000Y-99529000D02*
X140429000Y-99529000D01*
X140429000Y-100471000D02*
X140571000Y-100471000D01*
X140571000Y-100471000D02*
X140429000Y-100471000D01*
D12*
X139900000Y-93300000D02*
X139000000Y-93300000D01*
X139000000Y-93300000D02*
X139000000Y-94300000D01*
X142000000Y-94300000D02*
X142000000Y-93300000D01*
X142000000Y-93300000D02*
X141100000Y-93300000D01*
D11*
X127583000Y-91000000D02*
X130417000Y-91000000D01*
X130417000Y-91000000D02*
X130417000Y-96000000D01*
X130417000Y-96000000D02*
X127583000Y-96000000D01*
X127583000Y-96000000D02*
X127583000Y-91000000D01*
X132348000Y-90741000D02*
X132221000Y-90614000D01*
X132221000Y-90614000D02*
X132094000Y-90741000D01*
X132094000Y-90741000D02*
X132221000Y-90868000D01*
X132221000Y-90868000D02*
X132348000Y-90741000D01*
X130290000Y-91508000D02*
X129909000Y-91127000D01*
X129909000Y-91127000D02*
X129528000Y-91508000D01*
X129528000Y-91508000D02*
X129909000Y-91889000D01*
X129909000Y-91889000D02*
X130290000Y-91508000D01*
X140771000Y-97971000D02*
X140229000Y-97971000D01*
X140229000Y-97971000D02*
X140771000Y-97971000D01*
X140771000Y-97029000D02*
X140229000Y-97029000D01*
X140229000Y-97029000D02*
X140771000Y-97029000D01*
D12*
X124000000Y-109500000D02*
X132000000Y-109500000D01*
X132000000Y-109500000D02*
X132000000Y-108500000D01*
X132000000Y-108500000D02*
X124000000Y-108500000D01*
X124000000Y-109500000D02*
X124000000Y-108500000D01*
X122500000Y-109000000D02*
X122500000Y-107500000D01*
X124500000Y-110500000D02*
X124000000Y-110500000D01*
X122500000Y-109000000D02*
X124000000Y-110500000D01*
X123500000Y-107500000D02*
X122500000Y-107500000D01*
X132500000Y-110500000D02*
X133500000Y-110500000D01*
X133500000Y-110500000D02*
X133500000Y-107500000D01*
X133500000Y-107500000D02*
X131500000Y-107500000D01*
X124000000Y-100500000D02*
X132000000Y-100500000D01*
X132000000Y-100500000D02*
X132000000Y-99500000D01*
X132000000Y-99500000D02*
X124000000Y-99500000D01*
X124000000Y-100500000D02*
X124000000Y-99500000D01*
X122500000Y-100000000D02*
X122500000Y-98500000D01*
X124500000Y-101500000D02*
X124000000Y-101500000D01*
X122500000Y-100000000D02*
X124000000Y-101500000D01*
X123500000Y-98500000D02*
X122500000Y-98500000D01*
X132500000Y-101500000D02*
X133500000Y-101500000D01*
X133500000Y-101500000D02*
X133500000Y-98500000D01*
X133500000Y-98500000D02*
X131500000Y-98500000D01*
D11*
X137221000Y-105954000D02*
X137221000Y-106046000D01*
X137221000Y-106046000D02*
X137221000Y-105954000D01*
X136779000Y-105954000D02*
X136779000Y-106046000D01*
X136779000Y-106046000D02*
X136779000Y-105954000D01*
X138500000Y-106250000D02*
X138500000Y-106750000D01*
X138500000Y-106750000D02*
X141500000Y-106750000D01*
X141500000Y-106750000D02*
X141500000Y-106250000D01*
X141500000Y-106250000D02*
X138500000Y-106250000D01*
X138296000Y-109721000D02*
X138204000Y-109721000D01*
X138204000Y-109721000D02*
X138296000Y-109721000D01*
X138296000Y-109279000D02*
X138204000Y-109279000D01*
X138204000Y-109279000D02*
X138296000Y-109279000D01*
D12*
X116714286Y-94614285D02*
X116742857Y-94585714D01*
X116771429Y-94500000D01*
X116771429Y-94442857D01*
X116742857Y-94357142D01*
X116685714Y-94300000D01*
X116628571Y-94271428D01*
X116514286Y-94242857D01*
X116428571Y-94242857D01*
X116314286Y-94271428D01*
X116257143Y-94300000D01*
X116200000Y-94357142D01*
X116171429Y-94442857D01*
X116171429Y-94500000D01*
X116200000Y-94585714D01*
X116228571Y-94614285D01*
X116771429Y-95185714D02*
X116771429Y-94842857D01*
X116771429Y-95014285D02*
X116171429Y-95014285D01*
X116257143Y-94957142D01*
X116314286Y-94900000D01*
X116342857Y-94842857D01*
X116171429Y-95728571D02*
X116171429Y-95442857D01*
X116457143Y-95414286D01*
X116428571Y-95442857D01*
X116400000Y-95500000D01*
X116400000Y-95642857D01*
X116428571Y-95700000D01*
X116457143Y-95728571D01*
X116514286Y-95757143D01*
X116657143Y-95757143D01*
X116714286Y-95728571D01*
X116742857Y-95700000D01*
X116771429Y-95642857D01*
X116771429Y-95500000D01*
X116742857Y-95442857D01*
X116714286Y-95414286D01*
X139135715Y-103021429D02*
X139335715Y-102735714D01*
X139478572Y-103021429D02*
X139478572Y-102421429D01*
X139250000Y-102421429D01*
X139192858Y-102450000D01*
X139164286Y-102478571D01*
X139135715Y-102535714D01*
X139135715Y-102621429D01*
X139164286Y-102678571D01*
X139192858Y-102707143D01*
X139250000Y-102735714D01*
X139478572Y-102735714D01*
X138564286Y-103021429D02*
X138907143Y-103021429D01*
X138735715Y-103021429D02*
X138735715Y-102421429D01*
X138792858Y-102507143D01*
X138850000Y-102564286D01*
X138907143Y-102592857D01*
X138335714Y-102478571D02*
X138307143Y-102450000D01*
X138250000Y-102421429D01*
X138107143Y-102421429D01*
X138050000Y-102450000D01*
X138021429Y-102478571D01*
X137992857Y-102535714D01*
X137992857Y-102592857D01*
X138021429Y-102678571D01*
X138364286Y-103021429D01*
X137992857Y-103021429D01*
X135714286Y-91614285D02*
X135742857Y-91585714D01*
X135771429Y-91500000D01*
X135771429Y-91442857D01*
X135742857Y-91357142D01*
X135685714Y-91300000D01*
X135628571Y-91271428D01*
X135514286Y-91242857D01*
X135428571Y-91242857D01*
X135314286Y-91271428D01*
X135257143Y-91300000D01*
X135200000Y-91357142D01*
X135171429Y-91442857D01*
X135171429Y-91500000D01*
X135200000Y-91585714D01*
X135228571Y-91614285D01*
X135228571Y-91842857D02*
X135200000Y-91871428D01*
X135171429Y-91928571D01*
X135171429Y-92071428D01*
X135200000Y-92128571D01*
X135228571Y-92157142D01*
X135285714Y-92185714D01*
X135342857Y-92185714D01*
X135428571Y-92157142D01*
X135771429Y-91814285D01*
X135771429Y-92185714D01*
X135228571Y-92414286D02*
X135200000Y-92442857D01*
X135171429Y-92500000D01*
X135171429Y-92642857D01*
X135200000Y-92700000D01*
X135228571Y-92728571D01*
X135285714Y-92757143D01*
X135342857Y-92757143D01*
X135428571Y-92728571D01*
X135771429Y-92385714D01*
X135771429Y-92757143D01*
X124385715Y-92964286D02*
X124414286Y-92992857D01*
X124500000Y-93021429D01*
X124557143Y-93021429D01*
X124642858Y-92992857D01*
X124700000Y-92935714D01*
X124728572Y-92878571D01*
X124757143Y-92764286D01*
X124757143Y-92678571D01*
X124728572Y-92564286D01*
X124700000Y-92507143D01*
X124642858Y-92450000D01*
X124557143Y-92421429D01*
X124500000Y-92421429D01*
X124414286Y-92450000D01*
X124385715Y-92478571D01*
X124157143Y-92478571D02*
X124128572Y-92450000D01*
X124071429Y-92421429D01*
X123928572Y-92421429D01*
X123871429Y-92450000D01*
X123842858Y-92478571D01*
X123814286Y-92535714D01*
X123814286Y-92592857D01*
X123842858Y-92678571D01*
X124185715Y-93021429D01*
X123814286Y-93021429D01*
X123614286Y-92421429D02*
X123242857Y-92421429D01*
X123442857Y-92650000D01*
X123357143Y-92650000D01*
X123300000Y-92678571D01*
X123271429Y-92707143D01*
X123242857Y-92764286D01*
X123242857Y-92907143D01*
X123271429Y-92964286D01*
X123300000Y-92992857D01*
X123357143Y-93021429D01*
X123528571Y-93021429D01*
X123585714Y-92992857D01*
X123614286Y-92964286D01*
X135214286Y-106114285D02*
X135242857Y-106085714D01*
X135271429Y-106000000D01*
X135271429Y-105942857D01*
X135242857Y-105857142D01*
X135185714Y-105800000D01*
X135128571Y-105771428D01*
X135014286Y-105742857D01*
X134928571Y-105742857D01*
X134814286Y-105771428D01*
X134757143Y-105800000D01*
X134700000Y-105857142D01*
X134671429Y-105942857D01*
X134671429Y-106000000D01*
X134700000Y-106085714D01*
X134728571Y-106114285D01*
X134728571Y-106342857D02*
X134700000Y-106371428D01*
X134671429Y-106428571D01*
X134671429Y-106571428D01*
X134700000Y-106628571D01*
X134728571Y-106657142D01*
X134785714Y-106685714D01*
X134842857Y-106685714D01*
X134928571Y-106657142D01*
X135271429Y-106314285D01*
X135271429Y-106685714D01*
X135271429Y-106971429D02*
X135271429Y-107085714D01*
X135242857Y-107142857D01*
X135214286Y-107171429D01*
X135128571Y-107228571D01*
X135014286Y-107257143D01*
X134785714Y-107257143D01*
X134728571Y-107228571D01*
X134700000Y-107200000D01*
X134671429Y-107142857D01*
X134671429Y-107028571D01*
X134700000Y-106971429D01*
X134728571Y-106942857D01*
X134785714Y-106914286D01*
X134928571Y-106914286D01*
X134985714Y-106942857D01*
X135014286Y-106971429D01*
X135042857Y-107028571D01*
X135042857Y-107142857D01*
X135014286Y-107200000D01*
X134985714Y-107228571D01*
X134928571Y-107257143D01*
X120214286Y-96114285D02*
X120242857Y-96085714D01*
X120271429Y-96000000D01*
X120271429Y-95942857D01*
X120242857Y-95857142D01*
X120185714Y-95800000D01*
X120128571Y-95771428D01*
X120014286Y-95742857D01*
X119928571Y-95742857D01*
X119814286Y-95771428D01*
X119757143Y-95800000D01*
X119700000Y-95857142D01*
X119671429Y-95942857D01*
X119671429Y-96000000D01*
X119700000Y-96085714D01*
X119728571Y-96114285D01*
X119671429Y-96314285D02*
X119671429Y-96685714D01*
X119900000Y-96485714D01*
X119900000Y-96571428D01*
X119928571Y-96628571D01*
X119957143Y-96657142D01*
X120014286Y-96685714D01*
X120157143Y-96685714D01*
X120214286Y-96657142D01*
X120242857Y-96628571D01*
X120271429Y-96571428D01*
X120271429Y-96400000D01*
X120242857Y-96342857D01*
X120214286Y-96314285D01*
X119671429Y-97057143D02*
X119671429Y-97114286D01*
X119700000Y-97171429D01*
X119728571Y-97200000D01*
X119785714Y-97228571D01*
X119900000Y-97257143D01*
X120042857Y-97257143D01*
X120157143Y-97228571D01*
X120214286Y-97200000D01*
X120242857Y-97171429D01*
X120271429Y-97114286D01*
X120271429Y-97057143D01*
X120242857Y-97000000D01*
X120214286Y-96971429D01*
X120157143Y-96942857D01*
X120042857Y-96914286D01*
X119900000Y-96914286D01*
X119785714Y-96942857D01*
X119728571Y-96971429D01*
X119700000Y-97000000D01*
X119671429Y-97057143D01*
X120214286Y-93614285D02*
X120242857Y-93585714D01*
X120271429Y-93500000D01*
X120271429Y-93442857D01*
X120242857Y-93357142D01*
X120185714Y-93300000D01*
X120128571Y-93271428D01*
X120014286Y-93242857D01*
X119928571Y-93242857D01*
X119814286Y-93271428D01*
X119757143Y-93300000D01*
X119700000Y-93357142D01*
X119671429Y-93442857D01*
X119671429Y-93500000D01*
X119700000Y-93585714D01*
X119728571Y-93614285D01*
X119671429Y-93814285D02*
X119671429Y-94185714D01*
X119900000Y-93985714D01*
X119900000Y-94071428D01*
X119928571Y-94128571D01*
X119957143Y-94157142D01*
X120014286Y-94185714D01*
X120157143Y-94185714D01*
X120214286Y-94157142D01*
X120242857Y-94128571D01*
X120271429Y-94071428D01*
X120271429Y-93900000D01*
X120242857Y-93842857D01*
X120214286Y-93814285D01*
X120271429Y-94757143D02*
X120271429Y-94414286D01*
X120271429Y-94585714D02*
X119671429Y-94585714D01*
X119757143Y-94528571D01*
X119814286Y-94471429D01*
X119842857Y-94414286D01*
X127385715Y-103464286D02*
X127414286Y-103492857D01*
X127500000Y-103521429D01*
X127557143Y-103521429D01*
X127642858Y-103492857D01*
X127700000Y-103435714D01*
X127728572Y-103378571D01*
X127757143Y-103264286D01*
X127757143Y-103178571D01*
X127728572Y-103064286D01*
X127700000Y-103007143D01*
X127642858Y-102950000D01*
X127557143Y-102921429D01*
X127500000Y-102921429D01*
X127414286Y-102950000D01*
X127385715Y-102978571D01*
X127185715Y-102921429D02*
X126814286Y-102921429D01*
X127014286Y-103150000D01*
X126928572Y-103150000D01*
X126871429Y-103178571D01*
X126842858Y-103207143D01*
X126814286Y-103264286D01*
X126814286Y-103407143D01*
X126842858Y-103464286D01*
X126871429Y-103492857D01*
X126928572Y-103521429D01*
X127100000Y-103521429D01*
X127157143Y-103492857D01*
X127185715Y-103464286D01*
X126585714Y-102978571D02*
X126557143Y-102950000D01*
X126500000Y-102921429D01*
X126357143Y-102921429D01*
X126300000Y-102950000D01*
X126271429Y-102978571D01*
X126242857Y-103035714D01*
X126242857Y-103092857D01*
X126271429Y-103178571D01*
X126614286Y-103521429D01*
X126242857Y-103521429D01*
X121214286Y-98614285D02*
X121242857Y-98585714D01*
X121271429Y-98500000D01*
X121271429Y-98442857D01*
X121242857Y-98357142D01*
X121185714Y-98300000D01*
X121128571Y-98271428D01*
X121014286Y-98242857D01*
X120928571Y-98242857D01*
X120814286Y-98271428D01*
X120757143Y-98300000D01*
X120700000Y-98357142D01*
X120671429Y-98442857D01*
X120671429Y-98500000D01*
X120700000Y-98585714D01*
X120728571Y-98614285D01*
X120671429Y-98814285D02*
X120671429Y-99185714D01*
X120900000Y-98985714D01*
X120900000Y-99071428D01*
X120928571Y-99128571D01*
X120957143Y-99157142D01*
X121014286Y-99185714D01*
X121157143Y-99185714D01*
X121214286Y-99157142D01*
X121242857Y-99128571D01*
X121271429Y-99071428D01*
X121271429Y-98900000D01*
X121242857Y-98842857D01*
X121214286Y-98814285D01*
X120671429Y-99728571D02*
X120671429Y-99442857D01*
X120957143Y-99414286D01*
X120928571Y-99442857D01*
X120900000Y-99500000D01*
X120900000Y-99642857D01*
X120928571Y-99700000D01*
X120957143Y-99728571D01*
X121014286Y-99757143D01*
X121157143Y-99757143D01*
X121214286Y-99728571D01*
X121242857Y-99700000D01*
X121271429Y-99642857D01*
X121271429Y-99500000D01*
X121242857Y-99442857D01*
X121214286Y-99414286D01*
X123885715Y-103714286D02*
X123914286Y-103742857D01*
X124000000Y-103771429D01*
X124057143Y-103771429D01*
X124142858Y-103742857D01*
X124200000Y-103685714D01*
X124228572Y-103628571D01*
X124257143Y-103514286D01*
X124257143Y-103428571D01*
X124228572Y-103314286D01*
X124200000Y-103257143D01*
X124142858Y-103200000D01*
X124057143Y-103171429D01*
X124000000Y-103171429D01*
X123914286Y-103200000D01*
X123885715Y-103228571D01*
X123685715Y-103171429D02*
X123314286Y-103171429D01*
X123514286Y-103400000D01*
X123428572Y-103400000D01*
X123371429Y-103428571D01*
X123342858Y-103457143D01*
X123314286Y-103514286D01*
X123314286Y-103657143D01*
X123342858Y-103714286D01*
X123371429Y-103742857D01*
X123428572Y-103771429D01*
X123600000Y-103771429D01*
X123657143Y-103742857D01*
X123685715Y-103714286D01*
X122800000Y-103171429D02*
X122914286Y-103171429D01*
X122971429Y-103200000D01*
X123000000Y-103228571D01*
X123057143Y-103314286D01*
X123085714Y-103428571D01*
X123085714Y-103657143D01*
X123057143Y-103714286D01*
X123028571Y-103742857D01*
X122971429Y-103771429D01*
X122857143Y-103771429D01*
X122800000Y-103742857D01*
X122771429Y-103714286D01*
X122742857Y-103657143D01*
X122742857Y-103514286D01*
X122771429Y-103457143D01*
X122800000Y-103428571D01*
X122857143Y-103400000D01*
X122971429Y-103400000D01*
X123028571Y-103428571D01*
X123057143Y-103457143D01*
X123085714Y-103514286D01*
X135214286Y-100614285D02*
X135242857Y-100585714D01*
X135271429Y-100500000D01*
X135271429Y-100442857D01*
X135242857Y-100357142D01*
X135185714Y-100300000D01*
X135128571Y-100271428D01*
X135014286Y-100242857D01*
X134928571Y-100242857D01*
X134814286Y-100271428D01*
X134757143Y-100300000D01*
X134700000Y-100357142D01*
X134671429Y-100442857D01*
X134671429Y-100500000D01*
X134700000Y-100585714D01*
X134728571Y-100614285D01*
X134671429Y-100814285D02*
X134671429Y-101185714D01*
X134900000Y-100985714D01*
X134900000Y-101071428D01*
X134928571Y-101128571D01*
X134957143Y-101157142D01*
X135014286Y-101185714D01*
X135157143Y-101185714D01*
X135214286Y-101157142D01*
X135242857Y-101128571D01*
X135271429Y-101071428D01*
X135271429Y-100900000D01*
X135242857Y-100842857D01*
X135214286Y-100814285D01*
X134928571Y-101528571D02*
X134900000Y-101471429D01*
X134871429Y-101442857D01*
X134814286Y-101414286D01*
X134785714Y-101414286D01*
X134728571Y-101442857D01*
X134700000Y-101471429D01*
X134671429Y-101528571D01*
X134671429Y-101642857D01*
X134700000Y-101700000D01*
X134728571Y-101728571D01*
X134785714Y-101757143D01*
X134814286Y-101757143D01*
X134871429Y-101728571D01*
X134900000Y-101700000D01*
X134928571Y-101642857D01*
X134928571Y-101528571D01*
X134957143Y-101471429D01*
X134985714Y-101442857D01*
X135042857Y-101414286D01*
X135157143Y-101414286D01*
X135214286Y-101442857D01*
X135242857Y-101471429D01*
X135271429Y-101528571D01*
X135271429Y-101642857D01*
X135242857Y-101700000D01*
X135214286Y-101728571D01*
X135157143Y-101757143D01*
X135042857Y-101757143D01*
X134985714Y-101728571D01*
X134957143Y-101700000D01*
X134928571Y-101642857D01*
X133385715Y-105714286D02*
X133414286Y-105742857D01*
X133500000Y-105771429D01*
X133557143Y-105771429D01*
X133642858Y-105742857D01*
X133700000Y-105685714D01*
X133728572Y-105628571D01*
X133757143Y-105514286D01*
X133757143Y-105428571D01*
X133728572Y-105314286D01*
X133700000Y-105257143D01*
X133642858Y-105200000D01*
X133557143Y-105171429D01*
X133500000Y-105171429D01*
X133414286Y-105200000D01*
X133385715Y-105228571D01*
X132871429Y-105371429D02*
X132871429Y-105771429D01*
X133014286Y-105142857D02*
X133157143Y-105571429D01*
X132785715Y-105571429D01*
X132442857Y-105171429D02*
X132385714Y-105171429D01*
X132328571Y-105200000D01*
X132300000Y-105228571D01*
X132271429Y-105285714D01*
X132242857Y-105400000D01*
X132242857Y-105542857D01*
X132271429Y-105657143D01*
X132300000Y-105714286D01*
X132328571Y-105742857D01*
X132385714Y-105771429D01*
X132442857Y-105771429D01*
X132500000Y-105742857D01*
X132528571Y-105714286D01*
X132557143Y-105657143D01*
X132585714Y-105542857D01*
X132585714Y-105400000D01*
X132557143Y-105285714D01*
X132528571Y-105228571D01*
X132500000Y-105200000D01*
X132442857Y-105171429D01*
X138385715Y-100214286D02*
X138414286Y-100242857D01*
X138500000Y-100271429D01*
X138557143Y-100271429D01*
X138642858Y-100242857D01*
X138700000Y-100185714D01*
X138728572Y-100128571D01*
X138757143Y-100014286D01*
X138757143Y-99928571D01*
X138728572Y-99814286D01*
X138700000Y-99757143D01*
X138642858Y-99700000D01*
X138557143Y-99671429D01*
X138500000Y-99671429D01*
X138414286Y-99700000D01*
X138385715Y-99728571D01*
X137814286Y-100271429D02*
X138157143Y-100271429D01*
X137985715Y-100271429D02*
X137985715Y-99671429D01*
X138042858Y-99757143D01*
X138100000Y-99814286D01*
X138157143Y-99842857D01*
X137300000Y-99671429D02*
X137414286Y-99671429D01*
X137471429Y-99700000D01*
X137500000Y-99728571D01*
X137557143Y-99814286D01*
X137585714Y-99928571D01*
X137585714Y-100157143D01*
X137557143Y-100214286D01*
X137528571Y-100242857D01*
X137471429Y-100271429D01*
X137357143Y-100271429D01*
X137300000Y-100242857D01*
X137271429Y-100214286D01*
X137242857Y-100157143D01*
X137242857Y-100014286D01*
X137271429Y-99957143D01*
X137300000Y-99928571D01*
X137357143Y-99900000D01*
X137471429Y-99900000D01*
X137528571Y-99928571D01*
X137557143Y-99957143D01*
X137585714Y-100014286D01*
X139307143Y-93078571D02*
X139364286Y-93050000D01*
X139421429Y-92992857D01*
X139507143Y-92907143D01*
X139564286Y-92878571D01*
X139621429Y-92878571D01*
X139592857Y-93021429D02*
X139650000Y-92992857D01*
X139707143Y-92935714D01*
X139735714Y-92821429D01*
X139735714Y-92621429D01*
X139707143Y-92507143D01*
X139650000Y-92450000D01*
X139592857Y-92421429D01*
X139478571Y-92421429D01*
X139421429Y-92450000D01*
X139364286Y-92507143D01*
X139335714Y-92621429D01*
X139335714Y-92821429D01*
X139364286Y-92935714D01*
X139421429Y-92992857D01*
X139478571Y-93021429D01*
X139592857Y-93021429D01*
X139107143Y-92478571D02*
X139078572Y-92450000D01*
X139021429Y-92421429D01*
X138878572Y-92421429D01*
X138821429Y-92450000D01*
X138792858Y-92478571D01*
X138764286Y-92535714D01*
X138764286Y-92592857D01*
X138792858Y-92678571D01*
X139135715Y-93021429D01*
X138764286Y-93021429D01*
X122135715Y-90271429D02*
X122335715Y-89985714D01*
X122478572Y-90271429D02*
X122478572Y-89671429D01*
X122250000Y-89671429D01*
X122192858Y-89700000D01*
X122164286Y-89728571D01*
X122135715Y-89785714D01*
X122135715Y-89871429D01*
X122164286Y-89928571D01*
X122192858Y-89957143D01*
X122250000Y-89985714D01*
X122478572Y-89985714D01*
X121935715Y-89671429D02*
X121564286Y-89671429D01*
X121764286Y-89900000D01*
X121678572Y-89900000D01*
X121621429Y-89928571D01*
X121592858Y-89957143D01*
X121564286Y-90014286D01*
X121564286Y-90157143D01*
X121592858Y-90214286D01*
X121621429Y-90242857D01*
X121678572Y-90271429D01*
X121850000Y-90271429D01*
X121907143Y-90242857D01*
X121935715Y-90214286D01*
X121192857Y-89671429D02*
X121135714Y-89671429D01*
X121078571Y-89700000D01*
X121050000Y-89728571D01*
X121021429Y-89785714D01*
X120992857Y-89900000D01*
X120992857Y-90042857D01*
X121021429Y-90157143D01*
X121050000Y-90214286D01*
X121078571Y-90242857D01*
X121135714Y-90271429D01*
X121192857Y-90271429D01*
X121250000Y-90242857D01*
X121278571Y-90214286D01*
X121307143Y-90157143D01*
X121335714Y-90042857D01*
X121335714Y-89900000D01*
X121307143Y-89785714D01*
X121278571Y-89728571D01*
X121250000Y-89700000D01*
X121192857Y-89671429D01*
X121271429Y-104614285D02*
X120985714Y-104414285D01*
X121271429Y-104271428D02*
X120671429Y-104271428D01*
X120671429Y-104500000D01*
X120700000Y-104557142D01*
X120728571Y-104585714D01*
X120785714Y-104614285D01*
X120871429Y-104614285D01*
X120928571Y-104585714D01*
X120957143Y-104557142D01*
X120985714Y-104500000D01*
X120985714Y-104271428D01*
X120671429Y-104814285D02*
X120671429Y-105185714D01*
X120900000Y-104985714D01*
X120900000Y-105071428D01*
X120928571Y-105128571D01*
X120957143Y-105157142D01*
X121014286Y-105185714D01*
X121157143Y-105185714D01*
X121214286Y-105157142D01*
X121242857Y-105128571D01*
X121271429Y-105071428D01*
X121271429Y-104900000D01*
X121242857Y-104842857D01*
X121214286Y-104814285D01*
X121271429Y-105757143D02*
X121271429Y-105414286D01*
X121271429Y-105585714D02*
X120671429Y-105585714D01*
X120757143Y-105528571D01*
X120814286Y-105471429D01*
X120842857Y-105414286D01*
X132457143Y-89421429D02*
X132457143Y-89907143D01*
X132428571Y-89964286D01*
X132400000Y-89992857D01*
X132342857Y-90021429D01*
X132228571Y-90021429D01*
X132171429Y-89992857D01*
X132142857Y-89964286D01*
X132114286Y-89907143D01*
X132114286Y-89421429D01*
X131571429Y-89621429D02*
X131571429Y-90021429D01*
X131714286Y-89392857D02*
X131857143Y-89821429D01*
X131485715Y-89821429D01*
X139135715Y-102271429D02*
X139335715Y-101985714D01*
X139478572Y-102271429D02*
X139478572Y-101671429D01*
X139250000Y-101671429D01*
X139192858Y-101700000D01*
X139164286Y-101728571D01*
X139135715Y-101785714D01*
X139135715Y-101871429D01*
X139164286Y-101928571D01*
X139192858Y-101957143D01*
X139250000Y-101985714D01*
X139478572Y-101985714D01*
X138935715Y-101671429D02*
X138564286Y-101671429D01*
X138764286Y-101900000D01*
X138678572Y-101900000D01*
X138621429Y-101928571D01*
X138592858Y-101957143D01*
X138564286Y-102014286D01*
X138564286Y-102157143D01*
X138592858Y-102214286D01*
X138621429Y-102242857D01*
X138678572Y-102271429D01*
X138850000Y-102271429D01*
X138907143Y-102242857D01*
X138935715Y-102214286D01*
X138021429Y-101671429D02*
X138307143Y-101671429D01*
X138335714Y-101957143D01*
X138307143Y-101928571D01*
X138250000Y-101900000D01*
X138107143Y-101900000D01*
X138050000Y-101928571D01*
X138021429Y-101957143D01*
X137992857Y-102014286D01*
X137992857Y-102157143D01*
X138021429Y-102214286D01*
X138050000Y-102242857D01*
X138107143Y-102271429D01*
X138250000Y-102271429D01*
X138307143Y-102242857D01*
X138335714Y-102214286D01*
X138385715Y-97771429D02*
X138585715Y-97485714D01*
X138728572Y-97771429D02*
X138728572Y-97171429D01*
X138500000Y-97171429D01*
X138442858Y-97200000D01*
X138414286Y-97228571D01*
X138385715Y-97285714D01*
X138385715Y-97371429D01*
X138414286Y-97428571D01*
X138442858Y-97457143D01*
X138500000Y-97485714D01*
X138728572Y-97485714D01*
X138157143Y-97228571D02*
X138128572Y-97200000D01*
X138071429Y-97171429D01*
X137928572Y-97171429D01*
X137871429Y-97200000D01*
X137842858Y-97228571D01*
X137814286Y-97285714D01*
X137814286Y-97342857D01*
X137842858Y-97428571D01*
X138185715Y-97771429D01*
X137814286Y-97771429D01*
X137271429Y-97171429D02*
X137557143Y-97171429D01*
X137585714Y-97457143D01*
X137557143Y-97428571D01*
X137500000Y-97400000D01*
X137357143Y-97400000D01*
X137300000Y-97428571D01*
X137271429Y-97457143D01*
X137242857Y-97514286D01*
X137242857Y-97657143D01*
X137271429Y-97714286D01*
X137300000Y-97742857D01*
X137357143Y-97771429D01*
X137500000Y-97771429D01*
X137557143Y-97742857D01*
X137585714Y-97714286D01*
X116350000Y-91271429D02*
X116550000Y-90985714D01*
X116692857Y-91271429D02*
X116692857Y-90671429D01*
X116464285Y-90671429D01*
X116407143Y-90700000D01*
X116378571Y-90728571D01*
X116350000Y-90785714D01*
X116350000Y-90871429D01*
X116378571Y-90928571D01*
X116407143Y-90957143D01*
X116464285Y-90985714D01*
X116692857Y-90985714D01*
X116007143Y-90928571D02*
X116064285Y-90900000D01*
X116092857Y-90871429D01*
X116121428Y-90814286D01*
X116121428Y-90785714D01*
X116092857Y-90728571D01*
X116064285Y-90700000D01*
X116007143Y-90671429D01*
X115892857Y-90671429D01*
X115835714Y-90700000D01*
X115807143Y-90728571D01*
X115778571Y-90785714D01*
X115778571Y-90814286D01*
X115807143Y-90871429D01*
X115835714Y-90900000D01*
X115892857Y-90928571D01*
X116007143Y-90928571D01*
X116064285Y-90957143D01*
X116092857Y-90985714D01*
X116121428Y-91042857D01*
X116121428Y-91157143D01*
X116092857Y-91214286D01*
X116064285Y-91242857D01*
X116007143Y-91271429D01*
X115892857Y-91271429D01*
X115835714Y-91242857D01*
X115807143Y-91214286D01*
X115778571Y-91157143D01*
X115778571Y-91042857D01*
X115807143Y-90985714D01*
X115835714Y-90957143D01*
X115892857Y-90928571D01*
X119135715Y-104271429D02*
X119335715Y-103985714D01*
X119478572Y-104271429D02*
X119478572Y-103671429D01*
X119250000Y-103671429D01*
X119192858Y-103700000D01*
X119164286Y-103728571D01*
X119135715Y-103785714D01*
X119135715Y-103871429D01*
X119164286Y-103928571D01*
X119192858Y-103957143D01*
X119250000Y-103985714D01*
X119478572Y-103985714D01*
X118907143Y-103728571D02*
X118878572Y-103700000D01*
X118821429Y-103671429D01*
X118678572Y-103671429D01*
X118621429Y-103700000D01*
X118592858Y-103728571D01*
X118564286Y-103785714D01*
X118564286Y-103842857D01*
X118592858Y-103928571D01*
X118935715Y-104271429D01*
X118564286Y-104271429D01*
X118050000Y-103871429D02*
X118050000Y-104271429D01*
X118192857Y-103642857D02*
X118335714Y-104071429D01*
X117964286Y-104071429D01*
X116385715Y-90271429D02*
X116585715Y-89985714D01*
X116728572Y-90271429D02*
X116728572Y-89671429D01*
X116500000Y-89671429D01*
X116442858Y-89700000D01*
X116414286Y-89728571D01*
X116385715Y-89785714D01*
X116385715Y-89871429D01*
X116414286Y-89928571D01*
X116442858Y-89957143D01*
X116500000Y-89985714D01*
X116728572Y-89985714D01*
X116157143Y-89728571D02*
X116128572Y-89700000D01*
X116071429Y-89671429D01*
X115928572Y-89671429D01*
X115871429Y-89700000D01*
X115842858Y-89728571D01*
X115814286Y-89785714D01*
X115814286Y-89842857D01*
X115842858Y-89928571D01*
X116185715Y-90271429D01*
X115814286Y-90271429D01*
X115300000Y-89671429D02*
X115414286Y-89671429D01*
X115471429Y-89700000D01*
X115500000Y-89728571D01*
X115557143Y-89814286D01*
X115585714Y-89928571D01*
X115585714Y-90157143D01*
X115557143Y-90214286D01*
X115528571Y-90242857D01*
X115471429Y-90271429D01*
X115357143Y-90271429D01*
X115300000Y-90242857D01*
X115271429Y-90214286D01*
X115242857Y-90157143D01*
X115242857Y-90014286D01*
X115271429Y-89957143D01*
X115300000Y-89928571D01*
X115357143Y-89900000D01*
X115471429Y-89900000D01*
X115528571Y-89928571D01*
X115557143Y-89957143D01*
X115585714Y-90014286D01*
X116635715Y-92521429D02*
X116835715Y-92235714D01*
X116978572Y-92521429D02*
X116978572Y-91921429D01*
X116750000Y-91921429D01*
X116692858Y-91950000D01*
X116664286Y-91978571D01*
X116635715Y-92035714D01*
X116635715Y-92121429D01*
X116664286Y-92178571D01*
X116692858Y-92207143D01*
X116750000Y-92235714D01*
X116978572Y-92235714D01*
X116407143Y-91978571D02*
X116378572Y-91950000D01*
X116321429Y-91921429D01*
X116178572Y-91921429D01*
X116121429Y-91950000D01*
X116092858Y-91978571D01*
X116064286Y-92035714D01*
X116064286Y-92092857D01*
X116092858Y-92178571D01*
X116435715Y-92521429D01*
X116064286Y-92521429D01*
X115864286Y-91921429D02*
X115464286Y-91921429D01*
X115721429Y-92521429D01*
X122135715Y-89271429D02*
X122335715Y-88985714D01*
X122478572Y-89271429D02*
X122478572Y-88671429D01*
X122250000Y-88671429D01*
X122192858Y-88700000D01*
X122164286Y-88728571D01*
X122135715Y-88785714D01*
X122135715Y-88871429D01*
X122164286Y-88928571D01*
X122192858Y-88957143D01*
X122250000Y-88985714D01*
X122478572Y-88985714D01*
X121907143Y-88728571D02*
X121878572Y-88700000D01*
X121821429Y-88671429D01*
X121678572Y-88671429D01*
X121621429Y-88700000D01*
X121592858Y-88728571D01*
X121564286Y-88785714D01*
X121564286Y-88842857D01*
X121592858Y-88928571D01*
X121935715Y-89271429D01*
X121564286Y-89271429D01*
X121221429Y-88928571D02*
X121278571Y-88900000D01*
X121307143Y-88871429D01*
X121335714Y-88814286D01*
X121335714Y-88785714D01*
X121307143Y-88728571D01*
X121278571Y-88700000D01*
X121221429Y-88671429D01*
X121107143Y-88671429D01*
X121050000Y-88700000D01*
X121021429Y-88728571D01*
X120992857Y-88785714D01*
X120992857Y-88814286D01*
X121021429Y-88871429D01*
X121050000Y-88900000D01*
X121107143Y-88928571D01*
X121221429Y-88928571D01*
X121278571Y-88957143D01*
X121307143Y-88985714D01*
X121335714Y-89042857D01*
X121335714Y-89157143D01*
X121307143Y-89214286D01*
X121278571Y-89242857D01*
X121221429Y-89271429D01*
X121107143Y-89271429D01*
X121050000Y-89242857D01*
X121021429Y-89214286D01*
X120992857Y-89157143D01*
X120992857Y-89042857D01*
X121021429Y-88985714D01*
X121050000Y-88957143D01*
X121107143Y-88928571D01*
X123450000Y-106671429D02*
X123450000Y-107100000D01*
X123478572Y-107185714D01*
X123535715Y-107242857D01*
X123621429Y-107271429D01*
X123678572Y-107271429D01*
X122907143Y-106871429D02*
X122907143Y-107271429D01*
X123050000Y-106642857D02*
X123192857Y-107071429D01*
X122821429Y-107071429D01*
X123200000Y-97671429D02*
X123200000Y-98100000D01*
X123228572Y-98185714D01*
X123285715Y-98242857D01*
X123371429Y-98271429D01*
X123428572Y-98271429D01*
X122971429Y-97671429D02*
X122600000Y-97671429D01*
X122800000Y-97900000D01*
X122714286Y-97900000D01*
X122657143Y-97928571D01*
X122628572Y-97957143D01*
X122600000Y-98014286D01*
X122600000Y-98157143D01*
X122628572Y-98214286D01*
X122657143Y-98242857D01*
X122714286Y-98271429D01*
X122885714Y-98271429D01*
X122942857Y-98242857D01*
X122971429Y-98214286D01*
X135214286Y-98614285D02*
X135242857Y-98585714D01*
X135271429Y-98500000D01*
X135271429Y-98442857D01*
X135242857Y-98357142D01*
X135185714Y-98300000D01*
X135128571Y-98271428D01*
X135014286Y-98242857D01*
X134928571Y-98242857D01*
X134814286Y-98271428D01*
X134757143Y-98300000D01*
X134700000Y-98357142D01*
X134671429Y-98442857D01*
X134671429Y-98500000D01*
X134700000Y-98585714D01*
X134728571Y-98614285D01*
X134728571Y-98842857D02*
X134700000Y-98871428D01*
X134671429Y-98928571D01*
X134671429Y-99071428D01*
X134700000Y-99128571D01*
X134728571Y-99157142D01*
X134785714Y-99185714D01*
X134842857Y-99185714D01*
X134928571Y-99157142D01*
X135271429Y-98814285D01*
X135271429Y-99185714D01*
X134671429Y-99728571D02*
X134671429Y-99442857D01*
X134957143Y-99414286D01*
X134928571Y-99442857D01*
X134900000Y-99500000D01*
X134900000Y-99642857D01*
X134928571Y-99700000D01*
X134957143Y-99728571D01*
X135014286Y-99757143D01*
X135157143Y-99757143D01*
X135214286Y-99728571D01*
X135242857Y-99700000D01*
X135271429Y-99642857D01*
X135271429Y-99500000D01*
X135242857Y-99442857D01*
X135214286Y-99414286D01*
X129885715Y-88964286D02*
X129914286Y-88992857D01*
X130000000Y-89021429D01*
X130057143Y-89021429D01*
X130142858Y-88992857D01*
X130200000Y-88935714D01*
X130228572Y-88878571D01*
X130257143Y-88764286D01*
X130257143Y-88678571D01*
X130228572Y-88564286D01*
X130200000Y-88507143D01*
X130142858Y-88450000D01*
X130057143Y-88421429D01*
X130000000Y-88421429D01*
X129914286Y-88450000D01*
X129885715Y-88478571D01*
X129657143Y-88478571D02*
X129628572Y-88450000D01*
X129571429Y-88421429D01*
X129428572Y-88421429D01*
X129371429Y-88450000D01*
X129342858Y-88478571D01*
X129314286Y-88535714D01*
X129314286Y-88592857D01*
X129342858Y-88678571D01*
X129685715Y-89021429D01*
X129314286Y-89021429D01*
X128800000Y-88421429D02*
X128914286Y-88421429D01*
X128971429Y-88450000D01*
X129000000Y-88478571D01*
X129057143Y-88564286D01*
X129085714Y-88678571D01*
X129085714Y-88907143D01*
X129057143Y-88964286D01*
X129028571Y-88992857D01*
X128971429Y-89021429D01*
X128857143Y-89021429D01*
X128800000Y-88992857D01*
X128771429Y-88964286D01*
X128742857Y-88907143D01*
X128742857Y-88764286D01*
X128771429Y-88707143D01*
X128800000Y-88678571D01*
X128857143Y-88650000D01*
X128971429Y-88650000D01*
X129028571Y-88678571D01*
X129057143Y-88707143D01*
X129085714Y-88764286D01*
X118214286Y-100614285D02*
X118242857Y-100585714D01*
X118271429Y-100500000D01*
X118271429Y-100442857D01*
X118242857Y-100357142D01*
X118185714Y-100300000D01*
X118128571Y-100271428D01*
X118014286Y-100242857D01*
X117928571Y-100242857D01*
X117814286Y-100271428D01*
X117757143Y-100300000D01*
X117700000Y-100357142D01*
X117671429Y-100442857D01*
X117671429Y-100500000D01*
X117700000Y-100585714D01*
X117728571Y-100614285D01*
X117728571Y-100842857D02*
X117700000Y-100871428D01*
X117671429Y-100928571D01*
X117671429Y-101071428D01*
X117700000Y-101128571D01*
X117728571Y-101157142D01*
X117785714Y-101185714D01*
X117842857Y-101185714D01*
X117928571Y-101157142D01*
X118271429Y-100814285D01*
X118271429Y-101185714D01*
X117671429Y-101385714D02*
X117671429Y-101785714D01*
X118271429Y-101528571D01*
X130385715Y-105714286D02*
X130414286Y-105742857D01*
X130500000Y-105771429D01*
X130557143Y-105771429D01*
X130642858Y-105742857D01*
X130700000Y-105685714D01*
X130728572Y-105628571D01*
X130757143Y-105514286D01*
X130757143Y-105428571D01*
X130728572Y-105314286D01*
X130700000Y-105257143D01*
X130642858Y-105200000D01*
X130557143Y-105171429D01*
X130500000Y-105171429D01*
X130414286Y-105200000D01*
X130385715Y-105228571D01*
X130157143Y-105228571D02*
X130128572Y-105200000D01*
X130071429Y-105171429D01*
X129928572Y-105171429D01*
X129871429Y-105200000D01*
X129842858Y-105228571D01*
X129814286Y-105285714D01*
X129814286Y-105342857D01*
X129842858Y-105428571D01*
X130185715Y-105771429D01*
X129814286Y-105771429D01*
X129471429Y-105428571D02*
X129528571Y-105400000D01*
X129557143Y-105371429D01*
X129585714Y-105314286D01*
X129585714Y-105285714D01*
X129557143Y-105228571D01*
X129528571Y-105200000D01*
X129471429Y-105171429D01*
X129357143Y-105171429D01*
X129300000Y-105200000D01*
X129271429Y-105228571D01*
X129242857Y-105285714D01*
X129242857Y-105314286D01*
X129271429Y-105371429D01*
X129300000Y-105400000D01*
X129357143Y-105428571D01*
X129471429Y-105428571D01*
X129528571Y-105457143D01*
X129557143Y-105485714D01*
X129585714Y-105542857D01*
X129585714Y-105657143D01*
X129557143Y-105714286D01*
X129528571Y-105742857D01*
X129471429Y-105771429D01*
X129357143Y-105771429D01*
X129300000Y-105742857D01*
X129271429Y-105714286D01*
X129242857Y-105657143D01*
X129242857Y-105542857D01*
X129271429Y-105485714D01*
X129300000Y-105457143D01*
X129357143Y-105428571D01*
X135714286Y-94614285D02*
X135742857Y-94585714D01*
X135771429Y-94500000D01*
X135771429Y-94442857D01*
X135742857Y-94357142D01*
X135685714Y-94300000D01*
X135628571Y-94271428D01*
X135514286Y-94242857D01*
X135428571Y-94242857D01*
X135314286Y-94271428D01*
X135257143Y-94300000D01*
X135200000Y-94357142D01*
X135171429Y-94442857D01*
X135171429Y-94500000D01*
X135200000Y-94585714D01*
X135228571Y-94614285D01*
X135371429Y-95128571D02*
X135771429Y-95128571D01*
X135142857Y-94985714D02*
X135571429Y-94842857D01*
X135571429Y-95214285D01*
X135228571Y-95414286D02*
X135200000Y-95442857D01*
X135171429Y-95500000D01*
X135171429Y-95642857D01*
X135200000Y-95700000D01*
X135228571Y-95728571D01*
X135285714Y-95757143D01*
X135342857Y-95757143D01*
X135428571Y-95728571D01*
X135771429Y-95385714D01*
X135771429Y-95757143D01*
X127385715Y-88964286D02*
X127414286Y-88992857D01*
X127500000Y-89021429D01*
X127557143Y-89021429D01*
X127642858Y-88992857D01*
X127700000Y-88935714D01*
X127728572Y-88878571D01*
X127757143Y-88764286D01*
X127757143Y-88678571D01*
X127728572Y-88564286D01*
X127700000Y-88507143D01*
X127642858Y-88450000D01*
X127557143Y-88421429D01*
X127500000Y-88421429D01*
X127414286Y-88450000D01*
X127385715Y-88478571D01*
X126871429Y-88621429D02*
X126871429Y-89021429D01*
X127014286Y-88392857D02*
X127157143Y-88821429D01*
X126785715Y-88821429D01*
X126614286Y-88421429D02*
X126242857Y-88421429D01*
X126442857Y-88650000D01*
X126357143Y-88650000D01*
X126300000Y-88678571D01*
X126271429Y-88707143D01*
X126242857Y-88764286D01*
X126242857Y-88907143D01*
X126271429Y-88964286D01*
X126300000Y-88992857D01*
X126357143Y-89021429D01*
X126528571Y-89021429D01*
X126585714Y-88992857D01*
X126614286Y-88964286D01*
X124385715Y-89464286D02*
X124414286Y-89492857D01*
X124500000Y-89521429D01*
X124557143Y-89521429D01*
X124642858Y-89492857D01*
X124700000Y-89435714D01*
X124728572Y-89378571D01*
X124757143Y-89264286D01*
X124757143Y-89178571D01*
X124728572Y-89064286D01*
X124700000Y-89007143D01*
X124642858Y-88950000D01*
X124557143Y-88921429D01*
X124500000Y-88921429D01*
X124414286Y-88950000D01*
X124385715Y-88978571D01*
X123814286Y-89521429D02*
X124157143Y-89521429D01*
X123985715Y-89521429D02*
X123985715Y-88921429D01*
X124042858Y-89007143D01*
X124100000Y-89064286D01*
X124157143Y-89092857D01*
X123614286Y-88921429D02*
X123214286Y-88921429D01*
X123471429Y-89521429D01*
X137214286Y-103364285D02*
X137242857Y-103335714D01*
X137271429Y-103250000D01*
X137271429Y-103192857D01*
X137242857Y-103107142D01*
X137185714Y-103050000D01*
X137128571Y-103021428D01*
X137014286Y-102992857D01*
X136928571Y-102992857D01*
X136814286Y-103021428D01*
X136757143Y-103050000D01*
X136700000Y-103107142D01*
X136671429Y-103192857D01*
X136671429Y-103250000D01*
X136700000Y-103335714D01*
X136728571Y-103364285D01*
X136871429Y-103878571D02*
X137271429Y-103878571D01*
X136642857Y-103735714D02*
X137071429Y-103592857D01*
X137071429Y-103964285D01*
X136671429Y-104478571D02*
X136671429Y-104192857D01*
X136957143Y-104164286D01*
X136928571Y-104192857D01*
X136900000Y-104250000D01*
X136900000Y-104392857D01*
X136928571Y-104450000D01*
X136957143Y-104478571D01*
X137014286Y-104507143D01*
X137157143Y-104507143D01*
X137214286Y-104478571D01*
X137242857Y-104450000D01*
X137271429Y-104392857D01*
X137271429Y-104250000D01*
X137242857Y-104192857D01*
X137214286Y-104164286D01*
X141385715Y-110964286D02*
X141414286Y-110992857D01*
X141500000Y-111021429D01*
X141557143Y-111021429D01*
X141642858Y-110992857D01*
X141700000Y-110935714D01*
X141728572Y-110878571D01*
X141757143Y-110764286D01*
X141757143Y-110678571D01*
X141728572Y-110564286D01*
X141700000Y-110507143D01*
X141642858Y-110450000D01*
X141557143Y-110421429D01*
X141500000Y-110421429D01*
X141414286Y-110450000D01*
X141385715Y-110478571D01*
X140871429Y-110621429D02*
X140871429Y-111021429D01*
X141014286Y-110392857D02*
X141157143Y-110821429D01*
X140785715Y-110821429D01*
X140300000Y-110421429D02*
X140414286Y-110421429D01*
X140471429Y-110450000D01*
X140500000Y-110478571D01*
X140557143Y-110564286D01*
X140585714Y-110678571D01*
X140585714Y-110907143D01*
X140557143Y-110964286D01*
X140528571Y-110992857D01*
X140471429Y-111021429D01*
X140357143Y-111021429D01*
X140300000Y-110992857D01*
X140271429Y-110964286D01*
X140242857Y-110907143D01*
X140242857Y-110764286D01*
X140271429Y-110707143D01*
X140300000Y-110678571D01*
X140357143Y-110650000D01*
X140471429Y-110650000D01*
X140528571Y-110678571D01*
X140557143Y-110707143D01*
X140585714Y-110764286D01*
X138957143Y-103171429D02*
X138957143Y-103657143D01*
X138928571Y-103714286D01*
X138900000Y-103742857D01*
X138842857Y-103771429D01*
X138728571Y-103771429D01*
X138671429Y-103742857D01*
X138642857Y-103714286D01*
X138614286Y-103657143D01*
X138614286Y-103171429D01*
X138042858Y-103171429D02*
X138328572Y-103171429D01*
X138357143Y-103457143D01*
X138328572Y-103428571D01*
X138271429Y-103400000D01*
X138128572Y-103400000D01*
X138071429Y-103428571D01*
X138042858Y-103457143D01*
X138014286Y-103514286D01*
X138014286Y-103657143D01*
X138042858Y-103714286D01*
X138071429Y-103742857D01*
X138128572Y-103771429D01*
X138271429Y-103771429D01*
X138328572Y-103742857D01*
X138357143Y-103714286D01*
X138635715Y-110964286D02*
X138664286Y-110992857D01*
X138750000Y-111021429D01*
X138807143Y-111021429D01*
X138892858Y-110992857D01*
X138950000Y-110935714D01*
X138978572Y-110878571D01*
X139007143Y-110764286D01*
X139007143Y-110678571D01*
X138978572Y-110564286D01*
X138950000Y-110507143D01*
X138892858Y-110450000D01*
X138807143Y-110421429D01*
X138750000Y-110421429D01*
X138664286Y-110450000D01*
X138635715Y-110478571D01*
X138407143Y-110478571D02*
X138378572Y-110450000D01*
X138321429Y-110421429D01*
X138178572Y-110421429D01*
X138121429Y-110450000D01*
X138092858Y-110478571D01*
X138064286Y-110535714D01*
X138064286Y-110592857D01*
X138092858Y-110678571D01*
X138435715Y-111021429D01*
X138064286Y-111021429D01*
X137550000Y-110621429D02*
X137550000Y-111021429D01*
X137692857Y-110392857D02*
X137835714Y-110821429D01*
X137464286Y-110821429D01*
X129385715Y-112964286D02*
X129414286Y-112992857D01*
X129500000Y-113021429D01*
X129557143Y-113021429D01*
X129642858Y-112992857D01*
X129700000Y-112935714D01*
X129728572Y-112878571D01*
X129757143Y-112764286D01*
X129757143Y-112678571D01*
X129728572Y-112564286D01*
X129700000Y-112507143D01*
X129642858Y-112450000D01*
X129557143Y-112421429D01*
X129500000Y-112421429D01*
X129414286Y-112450000D01*
X129385715Y-112478571D01*
X128871429Y-112621429D02*
X128871429Y-113021429D01*
X129014286Y-112392857D02*
X129157143Y-112821429D01*
X128785715Y-112821429D01*
X128614286Y-112421429D02*
X128214286Y-112421429D01*
X128471429Y-113021429D01*
M02*
