M48
;DRILL file {kicad (after 2015-mar-04 BZR unknown)-product} date Thu 09 Apr 2015 03:29:39 PM EDT
;FORMAT={-:-/ absolute / inch / decimal}
FMAT,2
INCH,TZ
T1C0.012
T2C0.016
T3C0.033
T4C0.039
T5C0.045
T6C0.114
%
G90
G05
M72
T1
X3.9961Y-3.7008
X3.9961Y-3.7992
X4.1043Y-3.8681
X4.124Y-3.7992
X4.1535Y-3.6693
X4.1535Y-3.7756
X4.1535Y-3.9961
X4.1628Y-3.8198
X4.1634Y-4.3602
X4.1634Y-4.3898
X4.1822Y-3.759
X4.1831Y-4.5374
X4.1834Y-3.6713
X4.1929Y-4.3602
X4.1929Y-4.3898
X4.2028Y-3.5823
X4.2028Y-3.6122
X4.2028Y-3.6421
X4.2028Y-3.8976
X4.2126Y-4.1831
X4.2421Y-3.5039
X4.2421Y-3.9173
X4.252Y-4.0118
X4.2618Y-4.5669
X4.2815Y-3.5039
X4.2815Y-4.6752
X4.2913Y-4.4488
X4.3307Y-3.9862
X4.3307Y-4.4488
X4.3528Y-3.9595
X4.3701Y-3.5236
X4.3795Y-3.4935
X4.3898Y-4.0551
X4.4006Y-3.523
X4.4291Y-3.5138
X4.4291Y-4.626
X4.4291Y-4.6555
X4.4291Y-4.685
X4.4291Y-4.7146
X4.4488Y-4.5079
X4.4488Y-4.5472
X4.4583Y-3.9764
X4.4587Y-4.0157
X4.4587Y-3.9465
X4.4685Y-4.626
X4.4685Y-4.6555
X4.4685Y-4.685
X4.4746Y-3.5079
X4.4882Y-4.5079
X4.4882Y-4.5472
X4.4906Y-3.5332
X4.5078Y-3.9469
X4.5079Y-3.7992
X4.5079Y-4.626
X4.5079Y-4.6555
X4.5079Y-4.685
X4.5176Y-4.0257
X4.5276Y-4.4685
X4.5374Y-4.3898
X4.5472Y-4.0157
X4.5472Y-4.0457
X4.5472Y-4.311
X4.5472Y-4.6559
X4.5472Y-4.685
X4.5472Y-4.7146
X4.5669Y-3.9567
X4.5768Y-3.5161
X4.5965Y-4.498
X4.6161Y-3.5335
X4.6328Y-3.9241
X4.6335Y-3.7205
X4.6358Y-4.1043
X4.6457Y-3.4941
X4.6457Y-3.8303
X4.6551Y-4.5668
X4.6555Y-3.6618
X4.6748Y-3.9567
X4.6837Y-3.8569
X4.685Y-4.4291
X4.6863Y-4.3688
X4.6894Y-3.6126
X4.7047Y-3.9272
X4.7083Y-3.5827
X4.7244Y-4.4488
X4.7244Y-4.4783
X4.7244Y-4.5079
X4.7244Y-4.5374
X4.7244Y-4.5669
X4.7244Y-4.5965
X4.7343Y-4.0846
X4.7343Y-4.311
X4.7441Y-3.5334
X4.7638Y-4.6457
X4.7736Y-4.1929
X4.7736Y-4.6063
X4.7795Y-4.4921
X4.7795Y-4.5236
X4.7933Y-4.4102
X4.8031Y-4.0452
X4.8031Y-3.7504
X4.8031Y-4.5965
X4.8031Y-4.6457
X4.8032Y-3.7205
X4.8035Y-3.9587
X4.8035Y-3.6811
X4.8035Y-3.8189
X4.8106Y-3.5827
X4.8106Y-3.6319
X4.813Y-4.0059
X4.8232Y-4.4102
X4.8268Y-4.4921
X4.8268Y-4.5236
X4.8303Y-3.9764
X4.8332Y-4.1709
X4.8524Y-4.4102
X4.8575Y-3.5827
X4.8622Y-4.1634
X4.8744Y-3.9862
X4.8917Y-4.2913
X4.9016Y-3.5823
X4.9114Y-4.0157
X4.9189Y-4.1634
X4.937Y-3.8189
X4.9386Y-3.5798
X4.9386Y-3.6319
X4.9701Y-4.0748
X4.9803Y-4.1732
X4.9803Y-4.3996
X4.9902Y-4.0157
X5.Y-4.0748
X5.0113Y-3.6319
X5.0197Y-3.8346
X5.0315Y-3.7756
X5.0492Y-4.3996
X5.0512Y-3.7244
X5.0591Y-4.1732
X5.0713Y-3.5728
X5.0866Y-3.689
X5.0886Y-4.5866
X5.0984Y-4.0744
X5.1024Y-3.8504
X5.1059Y-4.2815
X5.15Y-4.0059
X5.1518Y-3.5589
X5.1575Y-4.0748
X5.1673Y-4.1732
X5.1811Y-3.8543
X5.1816Y-3.5606
X5.1969Y-4.5665
X5.1969Y-4.5965
X5.1991Y-4.6447
X5.2047Y-3.8071
X5.2067Y-4.0748
X5.2362Y-3.7106
X5.2362Y-3.75
X5.2362Y-4.2421
X5.2657Y-3.6811
X5.2756Y-3.5827
X5.2756Y-3.7795
X5.2756Y-4.0748
X5.2854Y-4.2717
X5.2854Y-4.4783
X5.2929Y-3.9589
X5.295Y-3.8687
X5.2952Y-3.899
X5.2953Y-3.8386
X5.2953Y-4.0354
X5.2953Y-4.4094
X5.2953Y-3.929
X5.315Y-4.1437
X5.3478Y-4.1971
X5.3543Y-4.0846
X5.3642Y-4.2421
X5.374Y-4.311
X5.3937Y-4.5669
X5.4035Y-3.9173
X5.4035Y-3.9567
X5.4035Y-3.9961
X5.4098Y-3.6024
X5.4098Y-3.878
X5.4134Y-3.6614
X5.4134Y-3.7008
X5.4134Y-3.7697
X5.4134Y-4.0256
X5.4134Y-4.252
X5.4232Y-3.8091
X5.4528Y-4.0059
X5.4528Y-4.1043
X5.4553Y-3.9074
X5.4626Y-4.6157
X5.4626Y-4.6457
X5.502Y-4.2028
X5.5142Y-4.6063
X5.5709Y-4.3996
X5.5807Y-4.0157
X5.5906Y-3.5728
X5.6004Y-3.7008
T2
X4.3602Y-3.6811
X4.3602Y-3.7992
X4.4783Y-3.6811
X4.4783Y-3.7992
T3
X4.0945Y-4.2421
X4.0945Y-4.439
T4
X5.6783Y-3.6445
X5.6783Y-3.7445
X5.6783Y-3.8445
X5.6783Y-3.9445
X5.6783Y-4.0445
X5.6783Y-4.1445
X5.6783Y-4.2445
X5.6783Y-4.3445
X5.6783Y-4.4445
X5.6783Y-4.5445
X5.7783Y-3.6445
X5.7783Y-3.7445
X5.7783Y-3.8445
X5.7783Y-3.9445
X5.7783Y-4.0445
X5.7783Y-4.1445
X5.7783Y-4.2445
X5.7783Y-4.3445
X5.7783Y-4.4445
X5.7783Y-4.5445
T5
X3.9882Y-4.2028
X3.9882Y-4.4783
T6
X4.0354Y-3.5433
X4.0354Y-4.6457
X5.748Y-3.5433
X5.748Y-4.6457
T0
M30
