G04 #@! TF.FileFunction,Legend,Bot*
%FSLAX46Y46*%
G04 Gerber Fmt 4.6, Leading zero omitted, Abs format (unit mm)*
G04 Created by KiCad (PCBNEW (after 2015-mar-04 BZR unknown)-product) date Tue 07 Apr 2015 10:15:23 PM EDT*
%MOMM*%
G01*
G04 APERTURE LIST*
%ADD10C,0.100000*%
%ADD11C,0.200000*%
%ADD12C,0.250000*%
%ADD13C,0.300000*%
%ADD14C,0.350000*%
%ADD15C,0.150000*%
%ADD16C,0.254000*%
G04 APERTURE END LIST*
D10*
D11*
X154800000Y-114200000D02*
X151400000Y-114200000D01*
X133750000Y-101500000D02*
X133750000Y-105250000D01*
X142250000Y-101500000D02*
X133750000Y-101500000D01*
X142250000Y-105250000D02*
X142250000Y-101500000D01*
X141328571Y-102271428D02*
X141861905Y-102271428D01*
X141023810Y-102080952D02*
X141595238Y-101890476D01*
X141595238Y-102385714D01*
X141061905Y-102842857D02*
X141061905Y-102919048D01*
X141100000Y-102995238D01*
X141138095Y-103033333D01*
X141214286Y-103071429D01*
X141366667Y-103109524D01*
X141557143Y-103109524D01*
X141709524Y-103071429D01*
X141785714Y-103033333D01*
X141823810Y-102995238D01*
X141861905Y-102919048D01*
X141861905Y-102842857D01*
X141823810Y-102766667D01*
X141785714Y-102728571D01*
X141709524Y-102690476D01*
X141557143Y-102652381D01*
X141366667Y-102652381D01*
X141214286Y-102690476D01*
X141138095Y-102728571D01*
X141100000Y-102766667D01*
X141061905Y-102842857D01*
X134061905Y-101852381D02*
X134061905Y-102347619D01*
X134366667Y-102080952D01*
X134366667Y-102195238D01*
X134404762Y-102271428D01*
X134442857Y-102309524D01*
X134519048Y-102347619D01*
X134709524Y-102347619D01*
X134785714Y-102309524D01*
X134823810Y-102271428D01*
X134861905Y-102195238D01*
X134861905Y-101966666D01*
X134823810Y-101890476D01*
X134785714Y-101852381D01*
X134061905Y-102614286D02*
X134061905Y-103109524D01*
X134366667Y-102842857D01*
X134366667Y-102957143D01*
X134404762Y-103033333D01*
X134442857Y-103071429D01*
X134519048Y-103109524D01*
X134709524Y-103109524D01*
X134785714Y-103071429D01*
X134823810Y-103033333D01*
X134861905Y-102957143D01*
X134861905Y-102728571D01*
X134823810Y-102652381D01*
X134785714Y-102614286D01*
X156961905Y-88628571D02*
X157761905Y-88895238D01*
X156961905Y-89161905D01*
X156961905Y-89314285D02*
X156961905Y-89771428D01*
X157761905Y-89542857D02*
X156961905Y-89542857D01*
X157761905Y-90495238D02*
X157380952Y-90228571D01*
X157761905Y-90038095D02*
X156961905Y-90038095D01*
X156961905Y-90342857D01*
X157000000Y-90419048D01*
X157038095Y-90457143D01*
X157114286Y-90495238D01*
X157228571Y-90495238D01*
X157304762Y-90457143D01*
X157342857Y-90419048D01*
X157380952Y-90342857D01*
X157380952Y-90038095D01*
X157000000Y-91257143D02*
X156961905Y-91180952D01*
X156961905Y-91066667D01*
X157000000Y-90952381D01*
X157076190Y-90876190D01*
X157152381Y-90838095D01*
X157304762Y-90800000D01*
X157419048Y-90800000D01*
X157571429Y-90838095D01*
X157647619Y-90876190D01*
X157723810Y-90952381D01*
X157761905Y-91066667D01*
X157761905Y-91142857D01*
X157723810Y-91257143D01*
X157685714Y-91295238D01*
X157419048Y-91295238D01*
X157419048Y-91142857D01*
X156352381Y-115961905D02*
X156352381Y-115161905D01*
X156161905Y-115161905D01*
X156047619Y-115200000D01*
X155971428Y-115276190D01*
X155933333Y-115352381D01*
X155895238Y-115504762D01*
X155895238Y-115619048D01*
X155933333Y-115771429D01*
X155971428Y-115847619D01*
X156047619Y-115923810D01*
X156161905Y-115961905D01*
X156352381Y-115961905D01*
X155285714Y-115542857D02*
X155171428Y-115580952D01*
X155133333Y-115619048D01*
X155095238Y-115695238D01*
X155095238Y-115809524D01*
X155133333Y-115885714D01*
X155171428Y-115923810D01*
X155247619Y-115961905D01*
X155552381Y-115961905D01*
X155552381Y-115161905D01*
X155285714Y-115161905D01*
X155209524Y-115200000D01*
X155171428Y-115238095D01*
X155133333Y-115314286D01*
X155133333Y-115390476D01*
X155171428Y-115466667D01*
X155209524Y-115504762D01*
X155285714Y-115542857D01*
X155552381Y-115542857D01*
X154333333Y-115200000D02*
X154409524Y-115161905D01*
X154523809Y-115161905D01*
X154638095Y-115200000D01*
X154714286Y-115276190D01*
X154752381Y-115352381D01*
X154790476Y-115504762D01*
X154790476Y-115619048D01*
X154752381Y-115771429D01*
X154714286Y-115847619D01*
X154638095Y-115923810D01*
X154523809Y-115961905D01*
X154447619Y-115961905D01*
X154333333Y-115923810D01*
X154295238Y-115885714D01*
X154295238Y-115619048D01*
X154447619Y-115619048D01*
X153990476Y-115733333D02*
X153609524Y-115733333D01*
X154066667Y-115961905D02*
X153800000Y-115161905D01*
X153533333Y-115961905D01*
X152809524Y-115885714D02*
X152847619Y-115923810D01*
X152961905Y-115961905D01*
X153038095Y-115961905D01*
X153152381Y-115923810D01*
X153228572Y-115847619D01*
X153266667Y-115771429D01*
X153304762Y-115619048D01*
X153304762Y-115504762D01*
X153266667Y-115352381D01*
X153228572Y-115276190D01*
X153152381Y-115200000D01*
X153038095Y-115161905D01*
X152961905Y-115161905D01*
X152847619Y-115200000D01*
X152809524Y-115238095D01*
X152466667Y-115961905D02*
X152466667Y-115161905D01*
X152009524Y-115961905D02*
X152352381Y-115504762D01*
X152009524Y-115161905D02*
X152466667Y-115619048D01*
X156390476Y-113161905D02*
X156390476Y-112361905D01*
X156200000Y-112361905D01*
X156085714Y-112400000D01*
X156009523Y-112476190D01*
X155971428Y-112552381D01*
X155933333Y-112704762D01*
X155933333Y-112819048D01*
X155971428Y-112971429D01*
X156009523Y-113047619D01*
X156085714Y-113123810D01*
X156200000Y-113161905D01*
X156390476Y-113161905D01*
X155323809Y-112742857D02*
X155209523Y-112780952D01*
X155171428Y-112819048D01*
X155133333Y-112895238D01*
X155133333Y-113009524D01*
X155171428Y-113085714D01*
X155209523Y-113123810D01*
X155285714Y-113161905D01*
X155590476Y-113161905D01*
X155590476Y-112361905D01*
X155323809Y-112361905D01*
X155247619Y-112400000D01*
X155209523Y-112438095D01*
X155171428Y-112514286D01*
X155171428Y-112590476D01*
X155209523Y-112666667D01*
X155247619Y-112704762D01*
X155323809Y-112742857D01*
X155590476Y-112742857D01*
X154371428Y-112400000D02*
X154447619Y-112361905D01*
X154561904Y-112361905D01*
X154676190Y-112400000D01*
X154752381Y-112476190D01*
X154790476Y-112552381D01*
X154828571Y-112704762D01*
X154828571Y-112819048D01*
X154790476Y-112971429D01*
X154752381Y-113047619D01*
X154676190Y-113123810D01*
X154561904Y-113161905D01*
X154485714Y-113161905D01*
X154371428Y-113123810D01*
X154333333Y-113085714D01*
X154333333Y-112819048D01*
X154485714Y-112819048D01*
X153533333Y-113161905D02*
X153800000Y-112780952D01*
X153990476Y-113161905D02*
X153990476Y-112361905D01*
X153685714Y-112361905D01*
X153609523Y-112400000D01*
X153571428Y-112438095D01*
X153533333Y-112514286D01*
X153533333Y-112628571D01*
X153571428Y-112704762D01*
X153609523Y-112742857D01*
X153685714Y-112780952D01*
X153990476Y-112780952D01*
X153190476Y-112742857D02*
X152923809Y-112742857D01*
X152809523Y-113161905D02*
X153190476Y-113161905D01*
X153190476Y-112361905D01*
X152809523Y-112361905D01*
X151933332Y-113238095D02*
X152009523Y-113200000D01*
X152085713Y-113123810D01*
X152199999Y-113009524D01*
X152276190Y-112971429D01*
X152352380Y-112971429D01*
X152314285Y-113161905D02*
X152390475Y-113123810D01*
X152466666Y-113047619D01*
X152504761Y-112895238D01*
X152504761Y-112628571D01*
X152466666Y-112476190D01*
X152390475Y-112400000D01*
X152314285Y-112361905D01*
X152161904Y-112361905D01*
X152085713Y-112400000D01*
X152009523Y-112476190D01*
X151971428Y-112628571D01*
X151971428Y-112895238D01*
X152009523Y-113047619D01*
X152085713Y-113123810D01*
X152161904Y-113161905D01*
X152314285Y-113161905D01*
X156314286Y-110723810D02*
X156200000Y-110761905D01*
X156009524Y-110761905D01*
X155933334Y-110723810D01*
X155895238Y-110685714D01*
X155857143Y-110609524D01*
X155857143Y-110533333D01*
X155895238Y-110457143D01*
X155933334Y-110419048D01*
X156009524Y-110380952D01*
X156161905Y-110342857D01*
X156238096Y-110304762D01*
X156276191Y-110266667D01*
X156314286Y-110190476D01*
X156314286Y-110114286D01*
X156276191Y-110038095D01*
X156238096Y-110000000D01*
X156161905Y-109961905D01*
X155971429Y-109961905D01*
X155857143Y-110000000D01*
X155057143Y-110761905D02*
X155323810Y-110380952D01*
X155514286Y-110761905D02*
X155514286Y-109961905D01*
X155209524Y-109961905D01*
X155133333Y-110000000D01*
X155095238Y-110038095D01*
X155057143Y-110114286D01*
X155057143Y-110228571D01*
X155095238Y-110304762D01*
X155133333Y-110342857D01*
X155209524Y-110380952D01*
X155514286Y-110380952D01*
X154752381Y-110723810D02*
X154638095Y-110761905D01*
X154447619Y-110761905D01*
X154371429Y-110723810D01*
X154333333Y-110685714D01*
X154295238Y-110609524D01*
X154295238Y-110533333D01*
X154333333Y-110457143D01*
X154371429Y-110419048D01*
X154447619Y-110380952D01*
X154600000Y-110342857D01*
X154676191Y-110304762D01*
X154714286Y-110266667D01*
X154752381Y-110190476D01*
X154752381Y-110114286D01*
X154714286Y-110038095D01*
X154676191Y-110000000D01*
X154600000Y-109961905D01*
X154409524Y-109961905D01*
X154295238Y-110000000D01*
X154066667Y-109961905D02*
X153609524Y-109961905D01*
X153838095Y-110761905D02*
X153838095Y-109961905D01*
X156466667Y-109824000D02*
X153533333Y-109824000D01*
X156047619Y-107361905D02*
X155590476Y-107361905D01*
X155819047Y-108161905D02*
X155819047Y-107361905D01*
X155323809Y-108161905D02*
X155323809Y-107361905D01*
X155133333Y-107361905D01*
X155019047Y-107400000D01*
X154942856Y-107476190D01*
X154904761Y-107552381D01*
X154866666Y-107704762D01*
X154866666Y-107819048D01*
X154904761Y-107971429D01*
X154942856Y-108047619D01*
X155019047Y-108123810D01*
X155133333Y-108161905D01*
X155323809Y-108161905D01*
X154371428Y-107361905D02*
X154219047Y-107361905D01*
X154142856Y-107400000D01*
X154066666Y-107476190D01*
X154028571Y-107628571D01*
X154028571Y-107895238D01*
X154066666Y-108047619D01*
X154142856Y-108123810D01*
X154219047Y-108161905D01*
X154371428Y-108161905D01*
X154447618Y-108123810D01*
X154523809Y-108047619D01*
X154561904Y-107895238D01*
X154561904Y-107628571D01*
X154523809Y-107476190D01*
X154447618Y-107400000D01*
X154371428Y-107361905D01*
X155857143Y-105761905D02*
X156123810Y-105380952D01*
X156314286Y-105761905D02*
X156314286Y-104961905D01*
X156009524Y-104961905D01*
X155933333Y-105000000D01*
X155895238Y-105038095D01*
X155857143Y-105114286D01*
X155857143Y-105228571D01*
X155895238Y-105304762D01*
X155933333Y-105342857D01*
X156009524Y-105380952D01*
X156314286Y-105380952D01*
X155628572Y-104961905D02*
X155171429Y-104961905D01*
X155400000Y-105761905D02*
X155400000Y-104961905D01*
X154447619Y-105685714D02*
X154485714Y-105723810D01*
X154600000Y-105761905D01*
X154676190Y-105761905D01*
X154790476Y-105723810D01*
X154866667Y-105647619D01*
X154904762Y-105571429D01*
X154942857Y-105419048D01*
X154942857Y-105304762D01*
X154904762Y-105152381D01*
X154866667Y-105076190D01*
X154790476Y-105000000D01*
X154676190Y-104961905D01*
X154600000Y-104961905D01*
X154485714Y-105000000D01*
X154447619Y-105038095D01*
X154104762Y-105761905D02*
X154104762Y-104961905D01*
X153647619Y-105761905D02*
X153990476Y-105304762D01*
X153647619Y-104961905D02*
X154104762Y-105419048D01*
X156028572Y-102361905D02*
X155571429Y-102361905D01*
X155800000Y-103161905D02*
X155800000Y-102361905D01*
X154847619Y-103085714D02*
X154885714Y-103123810D01*
X155000000Y-103161905D01*
X155076190Y-103161905D01*
X155190476Y-103123810D01*
X155266667Y-103047619D01*
X155304762Y-102971429D01*
X155342857Y-102819048D01*
X155342857Y-102704762D01*
X155304762Y-102552381D01*
X155266667Y-102476190D01*
X155190476Y-102400000D01*
X155076190Y-102361905D01*
X155000000Y-102361905D01*
X154885714Y-102400000D01*
X154847619Y-102438095D01*
X154504762Y-103161905D02*
X154504762Y-102361905D01*
X154047619Y-103161905D02*
X154390476Y-102704762D01*
X154047619Y-102361905D02*
X154504762Y-102819048D01*
X156066667Y-99761905D02*
X155609524Y-99761905D01*
X155838095Y-100561905D02*
X155838095Y-99761905D01*
X155342857Y-100561905D02*
X155342857Y-99761905D01*
X155076190Y-100333333D01*
X154809523Y-99761905D01*
X154809523Y-100561905D01*
X154466666Y-100523810D02*
X154352380Y-100561905D01*
X154161904Y-100561905D01*
X154085714Y-100523810D01*
X154047618Y-100485714D01*
X154009523Y-100409524D01*
X154009523Y-100333333D01*
X154047618Y-100257143D01*
X154085714Y-100219048D01*
X154161904Y-100180952D01*
X154314285Y-100142857D01*
X154390476Y-100104762D01*
X154428571Y-100066667D01*
X154466666Y-99990476D01*
X154466666Y-99914286D01*
X154428571Y-99838095D01*
X154390476Y-99800000D01*
X154314285Y-99761905D01*
X154123809Y-99761905D01*
X154009523Y-99800000D01*
X155819048Y-97311905D02*
X155361905Y-97311905D01*
X155590476Y-98111905D02*
X155590476Y-97311905D01*
X155095238Y-98111905D02*
X155095238Y-97311905D01*
X154904762Y-97311905D01*
X154790476Y-97350000D01*
X154714285Y-97426190D01*
X154676190Y-97502381D01*
X154638095Y-97654762D01*
X154638095Y-97769048D01*
X154676190Y-97921429D01*
X154714285Y-97997619D01*
X154790476Y-98073810D01*
X154904762Y-98111905D01*
X155095238Y-98111905D01*
X154295238Y-98111905D02*
X154295238Y-97311905D01*
X155561905Y-93685714D02*
X155561905Y-94142857D01*
X156361905Y-93914286D02*
X155561905Y-93914286D01*
X156361905Y-94866667D02*
X155980952Y-94600000D01*
X156361905Y-94409524D02*
X155561905Y-94409524D01*
X155561905Y-94714286D01*
X155600000Y-94790477D01*
X155638095Y-94828572D01*
X155714286Y-94866667D01*
X155828571Y-94866667D01*
X155904762Y-94828572D01*
X155942857Y-94790477D01*
X155980952Y-94714286D01*
X155980952Y-94409524D01*
X156323810Y-95171429D02*
X156361905Y-95285715D01*
X156361905Y-95476191D01*
X156323810Y-95552381D01*
X156285714Y-95590477D01*
X156209524Y-95628572D01*
X156133333Y-95628572D01*
X156057143Y-95590477D01*
X156019048Y-95552381D01*
X155980952Y-95476191D01*
X155942857Y-95323810D01*
X155904762Y-95247619D01*
X155866667Y-95209524D01*
X155790476Y-95171429D01*
X155714286Y-95171429D01*
X155638095Y-95209524D01*
X155600000Y-95247619D01*
X155561905Y-95323810D01*
X155561905Y-95514286D01*
X155600000Y-95628572D01*
X155561905Y-95857143D02*
X155561905Y-96314286D01*
X156361905Y-96085715D02*
X155561905Y-96085715D01*
X155424000Y-93609524D02*
X155424000Y-96390477D01*
D12*
X137880953Y-119042857D02*
X137880953Y-117842857D01*
X137452382Y-118985714D02*
X137309525Y-119042857D01*
X137071429Y-119042857D01*
X136976191Y-118985714D01*
X136928572Y-118928571D01*
X136880953Y-118814286D01*
X136880953Y-118700000D01*
X136928572Y-118585714D01*
X136976191Y-118528571D01*
X137071429Y-118471429D01*
X137261906Y-118414286D01*
X137357144Y-118357143D01*
X137404763Y-118300000D01*
X137452382Y-118185714D01*
X137452382Y-118071429D01*
X137404763Y-117957143D01*
X137357144Y-117900000D01*
X137261906Y-117842857D01*
X137023810Y-117842857D01*
X136880953Y-117900000D01*
X136261906Y-117842857D02*
X136071429Y-117842857D01*
X135976191Y-117900000D01*
X135880953Y-118014286D01*
X135833334Y-118242857D01*
X135833334Y-118642857D01*
X135880953Y-118871429D01*
X135976191Y-118985714D01*
X136071429Y-119042857D01*
X136261906Y-119042857D01*
X136357144Y-118985714D01*
X136452382Y-118871429D01*
X136500001Y-118642857D01*
X136500001Y-118242857D01*
X136452382Y-118014286D01*
X136357144Y-117900000D01*
X136261906Y-117842857D01*
X134928572Y-119042857D02*
X135404763Y-119042857D01*
X135404763Y-117842857D01*
X134642858Y-118700000D02*
X134166667Y-118700000D01*
X134738096Y-119042857D02*
X134404763Y-117842857D01*
X134071429Y-119042857D01*
X133880953Y-117842857D02*
X133309524Y-117842857D01*
X133595239Y-119042857D02*
X133595239Y-117842857D01*
X132976191Y-118414286D02*
X132642857Y-118414286D01*
X132500000Y-119042857D02*
X132976191Y-119042857D01*
X132976191Y-117842857D01*
X132500000Y-117842857D01*
X132071429Y-119042857D02*
X132071429Y-117842857D01*
X131833334Y-117842857D01*
X131690476Y-117900000D01*
X131595238Y-118014286D01*
X131547619Y-118128571D01*
X131500000Y-118357143D01*
X131500000Y-118528571D01*
X131547619Y-118757143D01*
X131595238Y-118871429D01*
X131690476Y-118985714D01*
X131833334Y-119042857D01*
X132071429Y-119042857D01*
X130309524Y-119042857D02*
X130309524Y-117842857D01*
X129928571Y-117842857D01*
X129833333Y-117900000D01*
X129785714Y-117957143D01*
X129738095Y-118071429D01*
X129738095Y-118242857D01*
X129785714Y-118357143D01*
X129833333Y-118414286D01*
X129928571Y-118471429D01*
X130309524Y-118471429D01*
X129119048Y-117842857D02*
X128928571Y-117842857D01*
X128833333Y-117900000D01*
X128738095Y-118014286D01*
X128690476Y-118242857D01*
X128690476Y-118642857D01*
X128738095Y-118871429D01*
X128833333Y-118985714D01*
X128928571Y-119042857D01*
X129119048Y-119042857D01*
X129214286Y-118985714D01*
X129309524Y-118871429D01*
X129357143Y-118642857D01*
X129357143Y-118242857D01*
X129309524Y-118014286D01*
X129214286Y-117900000D01*
X129119048Y-117842857D01*
X127690476Y-119042857D02*
X128023810Y-118471429D01*
X128261905Y-119042857D02*
X128261905Y-117842857D01*
X127880952Y-117842857D01*
X127785714Y-117900000D01*
X127738095Y-117957143D01*
X127690476Y-118071429D01*
X127690476Y-118242857D01*
X127738095Y-118357143D01*
X127785714Y-118414286D01*
X127880952Y-118471429D01*
X128261905Y-118471429D01*
X127404762Y-117842857D02*
X126833333Y-117842857D01*
X127119048Y-119042857D02*
X127119048Y-117842857D01*
X126500000Y-118928571D02*
X126452381Y-118985714D01*
X126500000Y-119042857D01*
X126547619Y-118985714D01*
X126500000Y-118928571D01*
X126500000Y-119042857D01*
X126500000Y-118300000D02*
X126452381Y-118357143D01*
X126500000Y-118414286D01*
X126547619Y-118357143D01*
X126500000Y-118300000D01*
X126500000Y-118414286D01*
X125261905Y-117842857D02*
X125261905Y-118814286D01*
X125214286Y-118928571D01*
X125166667Y-118985714D01*
X125071429Y-119042857D01*
X124880952Y-119042857D01*
X124785714Y-118985714D01*
X124738095Y-118928571D01*
X124690476Y-118814286D01*
X124690476Y-117842857D01*
X124214286Y-119042857D02*
X124214286Y-117842857D01*
X123833333Y-117842857D01*
X123738095Y-117900000D01*
X123690476Y-117957143D01*
X123642857Y-118071429D01*
X123642857Y-118242857D01*
X123690476Y-118357143D01*
X123738095Y-118414286D01*
X123833333Y-118471429D01*
X124214286Y-118471429D01*
X122595238Y-117842857D02*
X122023809Y-117842857D01*
X122309524Y-119042857D02*
X122309524Y-117842857D01*
X121500000Y-117842857D02*
X121309523Y-117842857D01*
X121214285Y-117900000D01*
X121119047Y-118014286D01*
X121071428Y-118242857D01*
X121071428Y-118642857D01*
X121119047Y-118871429D01*
X121214285Y-118985714D01*
X121309523Y-119042857D01*
X121500000Y-119042857D01*
X121595238Y-118985714D01*
X121690476Y-118871429D01*
X121738095Y-118642857D01*
X121738095Y-118242857D01*
X121690476Y-118014286D01*
X121595238Y-117900000D01*
X121500000Y-117842857D01*
X119452380Y-118242857D02*
X119452380Y-119042857D01*
X119690476Y-117785714D02*
X119928571Y-118642857D01*
X119309523Y-118642857D01*
X118738095Y-117842857D02*
X118642856Y-117842857D01*
X118547618Y-117900000D01*
X118499999Y-117957143D01*
X118452380Y-118071429D01*
X118404761Y-118300000D01*
X118404761Y-118585714D01*
X118452380Y-118814286D01*
X118499999Y-118928571D01*
X118547618Y-118985714D01*
X118642856Y-119042857D01*
X118738095Y-119042857D01*
X118833333Y-118985714D01*
X118880952Y-118928571D01*
X118928571Y-118814286D01*
X118976190Y-118585714D01*
X118976190Y-118300000D01*
X118928571Y-118071429D01*
X118880952Y-117957143D01*
X118833333Y-117900000D01*
X118738095Y-117842857D01*
X118119047Y-117842857D02*
X117785714Y-119042857D01*
X117452380Y-117842857D01*
X116023808Y-118414286D02*
X115880951Y-118471429D01*
X115833332Y-118528571D01*
X115785713Y-118642857D01*
X115785713Y-118814286D01*
X115833332Y-118928571D01*
X115880951Y-118985714D01*
X115976189Y-119042857D01*
X116357142Y-119042857D01*
X116357142Y-117842857D01*
X116023808Y-117842857D01*
X115928570Y-117900000D01*
X115880951Y-117957143D01*
X115833332Y-118071429D01*
X115833332Y-118185714D01*
X115880951Y-118300000D01*
X115928570Y-118357143D01*
X116023808Y-118414286D01*
X116357142Y-118414286D01*
X115357142Y-118414286D02*
X115023808Y-118414286D01*
X114880951Y-119042857D02*
X115357142Y-119042857D01*
X115357142Y-117842857D01*
X114880951Y-117842857D01*
X114595237Y-117842857D02*
X114023808Y-117842857D01*
X114309523Y-119042857D02*
X114309523Y-117842857D01*
X113785713Y-117842857D02*
X113547618Y-119042857D01*
X113357141Y-118185714D01*
X113166665Y-119042857D01*
X112928570Y-117842857D01*
X112547618Y-118414286D02*
X112214284Y-118414286D01*
X112071427Y-119042857D02*
X112547618Y-119042857D01*
X112547618Y-117842857D01*
X112071427Y-117842857D01*
X111642856Y-118414286D02*
X111309522Y-118414286D01*
X111166665Y-119042857D02*
X111642856Y-119042857D01*
X111642856Y-117842857D01*
X111166665Y-117842857D01*
X110738094Y-119042857D02*
X110738094Y-117842857D01*
X110166665Y-119042857D01*
X110166665Y-117842857D01*
X108976189Y-118985714D02*
X108833332Y-119042857D01*
X108595236Y-119042857D01*
X108499998Y-118985714D01*
X108452379Y-118928571D01*
X108404760Y-118814286D01*
X108404760Y-118700000D01*
X108452379Y-118585714D01*
X108499998Y-118528571D01*
X108595236Y-118471429D01*
X108785713Y-118414286D01*
X108880951Y-118357143D01*
X108928570Y-118300000D01*
X108976189Y-118185714D01*
X108976189Y-118071429D01*
X108928570Y-117957143D01*
X108880951Y-117900000D01*
X108785713Y-117842857D01*
X108547617Y-117842857D01*
X108404760Y-117900000D01*
X107976189Y-119042857D02*
X107976189Y-117842857D01*
X107499999Y-119042857D02*
X107499999Y-117842857D01*
X107261904Y-117842857D01*
X107119046Y-117900000D01*
X107023808Y-118014286D01*
X106976189Y-118128571D01*
X106928570Y-118357143D01*
X106928570Y-118528571D01*
X106976189Y-118757143D01*
X107023808Y-118871429D01*
X107119046Y-118985714D01*
X107261904Y-119042857D01*
X107499999Y-119042857D01*
X106499999Y-118414286D02*
X106166665Y-118414286D01*
X106023808Y-119042857D02*
X106499999Y-119042857D01*
X106499999Y-117842857D01*
X106023808Y-117842857D01*
X105642856Y-118985714D02*
X105499999Y-119042857D01*
X105261903Y-119042857D01*
X105166665Y-118985714D01*
X105119046Y-118928571D01*
X105071427Y-118814286D01*
X105071427Y-118700000D01*
X105119046Y-118585714D01*
X105166665Y-118528571D01*
X105261903Y-118471429D01*
X105452380Y-118414286D01*
X105547618Y-118357143D01*
X105595237Y-118300000D01*
X105642856Y-118185714D01*
X105642856Y-118071429D01*
X105595237Y-117957143D01*
X105547618Y-117900000D01*
X105452380Y-117842857D01*
X105214284Y-117842857D01*
X105071427Y-117900000D01*
D13*
X150314285Y-113600000D02*
X150428571Y-113542857D01*
X150600000Y-113542857D01*
X150771428Y-113600000D01*
X150885714Y-113714286D01*
X150942857Y-113828571D01*
X151000000Y-114057143D01*
X151000000Y-114228571D01*
X150942857Y-114457143D01*
X150885714Y-114571429D01*
X150771428Y-114685714D01*
X150600000Y-114742857D01*
X150485714Y-114742857D01*
X150314285Y-114685714D01*
X150257142Y-114628571D01*
X150257142Y-114228571D01*
X150485714Y-114228571D01*
X149742857Y-114742857D02*
X149742857Y-113542857D01*
X149057142Y-114742857D01*
X149057142Y-113542857D01*
X148485714Y-114742857D02*
X148485714Y-113542857D01*
X148199999Y-113542857D01*
X148028571Y-113600000D01*
X147914285Y-113714286D01*
X147857142Y-113828571D01*
X147799999Y-114057143D01*
X147799999Y-114228571D01*
X147857142Y-114457143D01*
X147914285Y-114571429D01*
X148028571Y-114685714D01*
X148199999Y-114742857D01*
X148485714Y-114742857D01*
D11*
X155400000Y-114200000D02*
X154800000Y-114200000D01*
X159800000Y-114200000D02*
X155400000Y-114200000D01*
D14*
X154571000Y-90471000D02*
X154429000Y-90471000D01*
X154429000Y-90471000D02*
X154571000Y-90471000D01*
X154571000Y-89529000D02*
X154429000Y-89529000D01*
X154429000Y-89529000D02*
X154571000Y-89529000D01*
X150429000Y-89529000D02*
X150571000Y-89529000D01*
X150571000Y-89529000D02*
X150429000Y-89529000D01*
X150429000Y-90471000D02*
X150571000Y-90471000D01*
X150571000Y-90471000D02*
X150429000Y-90471000D01*
D15*
X148400000Y-92800000D02*
X147500000Y-92800000D01*
X147500000Y-92800000D02*
X147500000Y-93800000D01*
X150500000Y-93800000D02*
X150500000Y-92800000D01*
X150500000Y-92800000D02*
X149600000Y-92800000D01*
X149700000Y-96900000D02*
X149700000Y-96000000D01*
X149700000Y-96000000D02*
X148700000Y-96000000D01*
X148700000Y-99000000D02*
X149700000Y-99000000D01*
X149700000Y-99000000D02*
X149700000Y-98100000D01*
X148300000Y-101850000D02*
X148300000Y-102750000D01*
X148300000Y-102750000D02*
X149300000Y-102750000D01*
X149300000Y-99750000D02*
X148300000Y-99750000D01*
X148300000Y-99750000D02*
X148300000Y-100650000D01*
D14*
X153250000Y-92000000D02*
X152750000Y-92000000D01*
X152750000Y-92000000D02*
X152750000Y-95000000D01*
X152750000Y-95000000D02*
X153250000Y-95000000D01*
X153250000Y-95000000D02*
X153250000Y-92000000D01*
D15*
X142671429Y-104050000D02*
X143100000Y-104050000D01*
X143185714Y-104021428D01*
X143242857Y-103964285D01*
X143271429Y-103878571D01*
X143271429Y-103821428D01*
X142671429Y-104278571D02*
X142671429Y-104650000D01*
X142900000Y-104450000D01*
X142900000Y-104535714D01*
X142928571Y-104592857D01*
X142957143Y-104621428D01*
X143014286Y-104650000D01*
X143157143Y-104650000D01*
X143214286Y-104621428D01*
X143242857Y-104592857D01*
X143271429Y-104535714D01*
X143271429Y-104364286D01*
X143242857Y-104307143D01*
X143214286Y-104278571D01*
X143214286Y-99364285D02*
X143242857Y-99335714D01*
X143271429Y-99250000D01*
X143271429Y-99192857D01*
X143242857Y-99107142D01*
X143185714Y-99050000D01*
X143128571Y-99021428D01*
X143014286Y-98992857D01*
X142928571Y-98992857D01*
X142814286Y-99021428D01*
X142757143Y-99050000D01*
X142700000Y-99107142D01*
X142671429Y-99192857D01*
X142671429Y-99250000D01*
X142700000Y-99335714D01*
X142728571Y-99364285D01*
X142671429Y-99564285D02*
X142671429Y-99935714D01*
X142900000Y-99735714D01*
X142900000Y-99821428D01*
X142928571Y-99878571D01*
X142957143Y-99907142D01*
X143014286Y-99935714D01*
X143157143Y-99935714D01*
X143214286Y-99907142D01*
X143242857Y-99878571D01*
X143271429Y-99821428D01*
X143271429Y-99650000D01*
X143242857Y-99592857D01*
X143214286Y-99564285D01*
X143271429Y-100507143D02*
X143271429Y-100164286D01*
X143271429Y-100335714D02*
X142671429Y-100335714D01*
X142757143Y-100278571D01*
X142814286Y-100221429D01*
X142842857Y-100164286D01*
X143214286Y-101864285D02*
X143242857Y-101835714D01*
X143271429Y-101750000D01*
X143271429Y-101692857D01*
X143242857Y-101607142D01*
X143185714Y-101550000D01*
X143128571Y-101521428D01*
X143014286Y-101492857D01*
X142928571Y-101492857D01*
X142814286Y-101521428D01*
X142757143Y-101550000D01*
X142700000Y-101607142D01*
X142671429Y-101692857D01*
X142671429Y-101750000D01*
X142700000Y-101835714D01*
X142728571Y-101864285D01*
X142671429Y-102064285D02*
X142671429Y-102435714D01*
X142900000Y-102235714D01*
X142900000Y-102321428D01*
X142928571Y-102378571D01*
X142957143Y-102407142D01*
X143014286Y-102435714D01*
X143157143Y-102435714D01*
X143214286Y-102407142D01*
X143242857Y-102378571D01*
X143271429Y-102321428D01*
X143271429Y-102150000D01*
X143242857Y-102092857D01*
X143214286Y-102064285D01*
X142728571Y-102664286D02*
X142700000Y-102692857D01*
X142671429Y-102750000D01*
X142671429Y-102892857D01*
X142700000Y-102950000D01*
X142728571Y-102978571D01*
X142785714Y-103007143D01*
X142842857Y-103007143D01*
X142928571Y-102978571D01*
X143271429Y-102635714D01*
X143271429Y-103007143D01*
X134964286Y-99614285D02*
X134992857Y-99585714D01*
X135021429Y-99500000D01*
X135021429Y-99442857D01*
X134992857Y-99357142D01*
X134935714Y-99300000D01*
X134878571Y-99271428D01*
X134764286Y-99242857D01*
X134678571Y-99242857D01*
X134564286Y-99271428D01*
X134507143Y-99300000D01*
X134450000Y-99357142D01*
X134421429Y-99442857D01*
X134421429Y-99500000D01*
X134450000Y-99585714D01*
X134478571Y-99614285D01*
X134421429Y-99814285D02*
X134421429Y-100185714D01*
X134650000Y-99985714D01*
X134650000Y-100071428D01*
X134678571Y-100128571D01*
X134707143Y-100157142D01*
X134764286Y-100185714D01*
X134907143Y-100185714D01*
X134964286Y-100157142D01*
X134992857Y-100128571D01*
X135021429Y-100071428D01*
X135021429Y-99900000D01*
X134992857Y-99842857D01*
X134964286Y-99814285D01*
X134421429Y-100385714D02*
X134421429Y-100785714D01*
X135021429Y-100528571D01*
X134964286Y-97364285D02*
X134992857Y-97335714D01*
X135021429Y-97250000D01*
X135021429Y-97192857D01*
X134992857Y-97107142D01*
X134935714Y-97050000D01*
X134878571Y-97021428D01*
X134764286Y-96992857D01*
X134678571Y-96992857D01*
X134564286Y-97021428D01*
X134507143Y-97050000D01*
X134450000Y-97107142D01*
X134421429Y-97192857D01*
X134421429Y-97250000D01*
X134450000Y-97335714D01*
X134478571Y-97364285D01*
X134421429Y-97564285D02*
X134421429Y-97935714D01*
X134650000Y-97735714D01*
X134650000Y-97821428D01*
X134678571Y-97878571D01*
X134707143Y-97907142D01*
X134764286Y-97935714D01*
X134907143Y-97935714D01*
X134964286Y-97907142D01*
X134992857Y-97878571D01*
X135021429Y-97821428D01*
X135021429Y-97650000D01*
X134992857Y-97592857D01*
X134964286Y-97564285D01*
X134678571Y-98278571D02*
X134650000Y-98221429D01*
X134621429Y-98192857D01*
X134564286Y-98164286D01*
X134535714Y-98164286D01*
X134478571Y-98192857D01*
X134450000Y-98221429D01*
X134421429Y-98278571D01*
X134421429Y-98392857D01*
X134450000Y-98450000D01*
X134478571Y-98478571D01*
X134535714Y-98507143D01*
X134564286Y-98507143D01*
X134621429Y-98478571D01*
X134650000Y-98450000D01*
X134678571Y-98392857D01*
X134678571Y-98278571D01*
X134707143Y-98221429D01*
X134735714Y-98192857D01*
X134792857Y-98164286D01*
X134907143Y-98164286D01*
X134964286Y-98192857D01*
X134992857Y-98221429D01*
X135021429Y-98278571D01*
X135021429Y-98392857D01*
X134992857Y-98450000D01*
X134964286Y-98478571D01*
X134907143Y-98507143D01*
X134792857Y-98507143D01*
X134735714Y-98478571D01*
X134707143Y-98450000D01*
X134678571Y-98392857D01*
X148214286Y-89614285D02*
X148242857Y-89585714D01*
X148271429Y-89500000D01*
X148271429Y-89442857D01*
X148242857Y-89357142D01*
X148185714Y-89300000D01*
X148128571Y-89271428D01*
X148014286Y-89242857D01*
X147928571Y-89242857D01*
X147814286Y-89271428D01*
X147757143Y-89300000D01*
X147700000Y-89357142D01*
X147671429Y-89442857D01*
X147671429Y-89500000D01*
X147700000Y-89585714D01*
X147728571Y-89614285D01*
X148271429Y-90185714D02*
X148271429Y-89842857D01*
X148271429Y-90014285D02*
X147671429Y-90014285D01*
X147757143Y-89957142D01*
X147814286Y-89900000D01*
X147842857Y-89842857D01*
X147671429Y-90700000D02*
X147671429Y-90585714D01*
X147700000Y-90528571D01*
X147728571Y-90500000D01*
X147814286Y-90442857D01*
X147928571Y-90414286D01*
X148157143Y-90414286D01*
X148214286Y-90442857D01*
X148242857Y-90471429D01*
X148271429Y-90528571D01*
X148271429Y-90642857D01*
X148242857Y-90700000D01*
X148214286Y-90728571D01*
X148157143Y-90757143D01*
X148014286Y-90757143D01*
X147957143Y-90728571D01*
X147928571Y-90700000D01*
X147900000Y-90642857D01*
X147900000Y-90528571D01*
X147928571Y-90471429D01*
X147957143Y-90442857D01*
X148014286Y-90414286D01*
X147464286Y-89614285D02*
X147492857Y-89585714D01*
X147521429Y-89500000D01*
X147521429Y-89442857D01*
X147492857Y-89357142D01*
X147435714Y-89300000D01*
X147378571Y-89271428D01*
X147264286Y-89242857D01*
X147178571Y-89242857D01*
X147064286Y-89271428D01*
X147007143Y-89300000D01*
X146950000Y-89357142D01*
X146921429Y-89442857D01*
X146921429Y-89500000D01*
X146950000Y-89585714D01*
X146978571Y-89614285D01*
X146978571Y-89842857D02*
X146950000Y-89871428D01*
X146921429Y-89928571D01*
X146921429Y-90071428D01*
X146950000Y-90128571D01*
X146978571Y-90157142D01*
X147035714Y-90185714D01*
X147092857Y-90185714D01*
X147178571Y-90157142D01*
X147521429Y-89814285D01*
X147521429Y-90185714D01*
X146921429Y-90385714D02*
X146921429Y-90785714D01*
X147521429Y-90528571D01*
X152635715Y-99214286D02*
X152664286Y-99242857D01*
X152750000Y-99271429D01*
X152807143Y-99271429D01*
X152892858Y-99242857D01*
X152950000Y-99185714D01*
X152978572Y-99128571D01*
X153007143Y-99014286D01*
X153007143Y-98928571D01*
X152978572Y-98814286D01*
X152950000Y-98757143D01*
X152892858Y-98700000D01*
X152807143Y-98671429D01*
X152750000Y-98671429D01*
X152664286Y-98700000D01*
X152635715Y-98728571D01*
X152407143Y-98728571D02*
X152378572Y-98700000D01*
X152321429Y-98671429D01*
X152178572Y-98671429D01*
X152121429Y-98700000D01*
X152092858Y-98728571D01*
X152064286Y-98785714D01*
X152064286Y-98842857D01*
X152092858Y-98928571D01*
X152435715Y-99271429D01*
X152064286Y-99271429D01*
X151721429Y-98928571D02*
X151778571Y-98900000D01*
X151807143Y-98871429D01*
X151835714Y-98814286D01*
X151835714Y-98785714D01*
X151807143Y-98728571D01*
X151778571Y-98700000D01*
X151721429Y-98671429D01*
X151607143Y-98671429D01*
X151550000Y-98700000D01*
X151521429Y-98728571D01*
X151492857Y-98785714D01*
X151492857Y-98814286D01*
X151521429Y-98871429D01*
X151550000Y-98900000D01*
X151607143Y-98928571D01*
X151721429Y-98928571D01*
X151778571Y-98957143D01*
X151807143Y-98985714D01*
X151835714Y-99042857D01*
X151835714Y-99157143D01*
X151807143Y-99214286D01*
X151778571Y-99242857D01*
X151721429Y-99271429D01*
X151607143Y-99271429D01*
X151550000Y-99242857D01*
X151521429Y-99214286D01*
X151492857Y-99157143D01*
X151492857Y-99042857D01*
X151521429Y-98985714D01*
X151550000Y-98957143D01*
X151607143Y-98928571D01*
X147807143Y-92578571D02*
X147864286Y-92550000D01*
X147921429Y-92492857D01*
X148007143Y-92407143D01*
X148064286Y-92378571D01*
X148121429Y-92378571D01*
X148092857Y-92521429D02*
X148150000Y-92492857D01*
X148207143Y-92435714D01*
X148235714Y-92321429D01*
X148235714Y-92121429D01*
X148207143Y-92007143D01*
X148150000Y-91950000D01*
X148092857Y-91921429D01*
X147978571Y-91921429D01*
X147921429Y-91950000D01*
X147864286Y-92007143D01*
X147835714Y-92121429D01*
X147835714Y-92321429D01*
X147864286Y-92435714D01*
X147921429Y-92492857D01*
X147978571Y-92521429D01*
X148092857Y-92521429D01*
X147607143Y-91978571D02*
X147578572Y-91950000D01*
X147521429Y-91921429D01*
X147378572Y-91921429D01*
X147321429Y-91950000D01*
X147292858Y-91978571D01*
X147264286Y-92035714D01*
X147264286Y-92092857D01*
X147292858Y-92178571D01*
X147635715Y-92521429D01*
X147264286Y-92521429D01*
X150557143Y-96828571D02*
X150614286Y-96800000D01*
X150671429Y-96742857D01*
X150757143Y-96657143D01*
X150814286Y-96628571D01*
X150871429Y-96628571D01*
X150842857Y-96771429D02*
X150900000Y-96742857D01*
X150957143Y-96685714D01*
X150985714Y-96571429D01*
X150985714Y-96371429D01*
X150957143Y-96257143D01*
X150900000Y-96200000D01*
X150842857Y-96171429D01*
X150728571Y-96171429D01*
X150671429Y-96200000D01*
X150614286Y-96257143D01*
X150585714Y-96371429D01*
X150585714Y-96571429D01*
X150614286Y-96685714D01*
X150671429Y-96742857D01*
X150728571Y-96771429D01*
X150842857Y-96771429D01*
X150385715Y-96171429D02*
X150014286Y-96171429D01*
X150214286Y-96400000D01*
X150128572Y-96400000D01*
X150071429Y-96428571D01*
X150042858Y-96457143D01*
X150014286Y-96514286D01*
X150014286Y-96657143D01*
X150042858Y-96714286D01*
X150071429Y-96742857D01*
X150128572Y-96771429D01*
X150300000Y-96771429D01*
X150357143Y-96742857D01*
X150385715Y-96714286D01*
X147557143Y-102828571D02*
X147614286Y-102800000D01*
X147671429Y-102742857D01*
X147757143Y-102657143D01*
X147814286Y-102628571D01*
X147871429Y-102628571D01*
X147842857Y-102771429D02*
X147900000Y-102742857D01*
X147957143Y-102685714D01*
X147985714Y-102571429D01*
X147985714Y-102371429D01*
X147957143Y-102257143D01*
X147900000Y-102200000D01*
X147842857Y-102171429D01*
X147728571Y-102171429D01*
X147671429Y-102200000D01*
X147614286Y-102257143D01*
X147585714Y-102371429D01*
X147585714Y-102571429D01*
X147614286Y-102685714D01*
X147671429Y-102742857D01*
X147728571Y-102771429D01*
X147842857Y-102771429D01*
X147071429Y-102371429D02*
X147071429Y-102771429D01*
X147214286Y-102142857D02*
X147357143Y-102571429D01*
X146985715Y-102571429D01*
X145021429Y-96364285D02*
X144735714Y-96164285D01*
X145021429Y-96021428D02*
X144421429Y-96021428D01*
X144421429Y-96250000D01*
X144450000Y-96307142D01*
X144478571Y-96335714D01*
X144535714Y-96364285D01*
X144621429Y-96364285D01*
X144678571Y-96335714D01*
X144707143Y-96307142D01*
X144735714Y-96250000D01*
X144735714Y-96021428D01*
X144478571Y-96592857D02*
X144450000Y-96621428D01*
X144421429Y-96678571D01*
X144421429Y-96821428D01*
X144450000Y-96878571D01*
X144478571Y-96907142D01*
X144535714Y-96935714D01*
X144592857Y-96935714D01*
X144678571Y-96907142D01*
X145021429Y-96564285D01*
X145021429Y-96935714D01*
X144421429Y-97450000D02*
X144421429Y-97335714D01*
X144450000Y-97278571D01*
X144478571Y-97250000D01*
X144564286Y-97192857D01*
X144678571Y-97164286D01*
X144907143Y-97164286D01*
X144964286Y-97192857D01*
X144992857Y-97221429D01*
X145021429Y-97278571D01*
X145021429Y-97392857D01*
X144992857Y-97450000D01*
X144964286Y-97478571D01*
X144907143Y-97507143D01*
X144764286Y-97507143D01*
X144707143Y-97478571D01*
X144678571Y-97450000D01*
X144650000Y-97392857D01*
X144650000Y-97278571D01*
X144678571Y-97221429D01*
X144707143Y-97192857D01*
X144764286Y-97164286D01*
X146271429Y-100614285D02*
X145985714Y-100414285D01*
X146271429Y-100271428D02*
X145671429Y-100271428D01*
X145671429Y-100500000D01*
X145700000Y-100557142D01*
X145728571Y-100585714D01*
X145785714Y-100614285D01*
X145871429Y-100614285D01*
X145928571Y-100585714D01*
X145957143Y-100557142D01*
X145985714Y-100500000D01*
X145985714Y-100271428D01*
X145728571Y-100842857D02*
X145700000Y-100871428D01*
X145671429Y-100928571D01*
X145671429Y-101071428D01*
X145700000Y-101128571D01*
X145728571Y-101157142D01*
X145785714Y-101185714D01*
X145842857Y-101185714D01*
X145928571Y-101157142D01*
X146271429Y-100814285D01*
X146271429Y-101185714D01*
X145671429Y-101385714D02*
X145671429Y-101785714D01*
X146271429Y-101528571D01*
X152635715Y-100021429D02*
X152835715Y-99735714D01*
X152978572Y-100021429D02*
X152978572Y-99421429D01*
X152750000Y-99421429D01*
X152692858Y-99450000D01*
X152664286Y-99478571D01*
X152635715Y-99535714D01*
X152635715Y-99621429D01*
X152664286Y-99678571D01*
X152692858Y-99707143D01*
X152750000Y-99735714D01*
X152978572Y-99735714D01*
X152407143Y-99478571D02*
X152378572Y-99450000D01*
X152321429Y-99421429D01*
X152178572Y-99421429D01*
X152121429Y-99450000D01*
X152092858Y-99478571D01*
X152064286Y-99535714D01*
X152064286Y-99592857D01*
X152092858Y-99678571D01*
X152435715Y-100021429D01*
X152064286Y-100021429D01*
X151721429Y-99678571D02*
X151778571Y-99650000D01*
X151807143Y-99621429D01*
X151835714Y-99564286D01*
X151835714Y-99535714D01*
X151807143Y-99478571D01*
X151778571Y-99450000D01*
X151721429Y-99421429D01*
X151607143Y-99421429D01*
X151550000Y-99450000D01*
X151521429Y-99478571D01*
X151492857Y-99535714D01*
X151492857Y-99564286D01*
X151521429Y-99621429D01*
X151550000Y-99650000D01*
X151607143Y-99678571D01*
X151721429Y-99678571D01*
X151778571Y-99707143D01*
X151807143Y-99735714D01*
X151835714Y-99792857D01*
X151835714Y-99907143D01*
X151807143Y-99964286D01*
X151778571Y-99992857D01*
X151721429Y-100021429D01*
X151607143Y-100021429D01*
X151550000Y-99992857D01*
X151521429Y-99964286D01*
X151492857Y-99907143D01*
X151492857Y-99792857D01*
X151521429Y-99735714D01*
X151550000Y-99707143D01*
X151607143Y-99678571D01*
X152271429Y-102864285D02*
X151985714Y-102664285D01*
X152271429Y-102521428D02*
X151671429Y-102521428D01*
X151671429Y-102750000D01*
X151700000Y-102807142D01*
X151728571Y-102835714D01*
X151785714Y-102864285D01*
X151871429Y-102864285D01*
X151928571Y-102835714D01*
X151957143Y-102807142D01*
X151985714Y-102750000D01*
X151985714Y-102521428D01*
X151728571Y-103092857D02*
X151700000Y-103121428D01*
X151671429Y-103178571D01*
X151671429Y-103321428D01*
X151700000Y-103378571D01*
X151728571Y-103407142D01*
X151785714Y-103435714D01*
X151842857Y-103435714D01*
X151928571Y-103407142D01*
X152271429Y-103064285D01*
X152271429Y-103435714D01*
X152271429Y-103721429D02*
X152271429Y-103835714D01*
X152242857Y-103892857D01*
X152214286Y-103921429D01*
X152128571Y-103978571D01*
X152014286Y-104007143D01*
X151785714Y-104007143D01*
X151728571Y-103978571D01*
X151700000Y-103950000D01*
X151671429Y-103892857D01*
X151671429Y-103778571D01*
X151700000Y-103721429D01*
X151728571Y-103692857D01*
X151785714Y-103664286D01*
X151928571Y-103664286D01*
X151985714Y-103692857D01*
X152014286Y-103721429D01*
X152042857Y-103778571D01*
X152042857Y-103892857D01*
X152014286Y-103950000D01*
X151985714Y-103978571D01*
X151928571Y-104007143D01*
X155957143Y-91671429D02*
X155957143Y-92157143D01*
X155928571Y-92214286D01*
X155900000Y-92242857D01*
X155842857Y-92271429D01*
X155728571Y-92271429D01*
X155671429Y-92242857D01*
X155642857Y-92214286D01*
X155614286Y-92157143D01*
X155614286Y-91671429D01*
X155242858Y-91928571D02*
X155300000Y-91900000D01*
X155328572Y-91871429D01*
X155357143Y-91814286D01*
X155357143Y-91785714D01*
X155328572Y-91728571D01*
X155300000Y-91700000D01*
X155242858Y-91671429D01*
X155128572Y-91671429D01*
X155071429Y-91700000D01*
X155042858Y-91728571D01*
X155014286Y-91785714D01*
X155014286Y-91814286D01*
X155042858Y-91871429D01*
X155071429Y-91900000D01*
X155128572Y-91928571D01*
X155242858Y-91928571D01*
X155300000Y-91957143D01*
X155328572Y-91985714D01*
X155357143Y-92042857D01*
X155357143Y-92157143D01*
X155328572Y-92214286D01*
X155300000Y-92242857D01*
X155242858Y-92271429D01*
X155128572Y-92271429D01*
X155071429Y-92242857D01*
X155042858Y-92214286D01*
X155014286Y-92157143D01*
X155014286Y-92042857D01*
X155042858Y-91985714D01*
X155071429Y-91957143D01*
X155128572Y-91928571D01*
X118350000Y-116271429D02*
X118550000Y-115985714D01*
X118692857Y-116271429D02*
X118692857Y-115671429D01*
X118464285Y-115671429D01*
X118407143Y-115700000D01*
X118378571Y-115728571D01*
X118350000Y-115785714D01*
X118350000Y-115871429D01*
X118378571Y-115928571D01*
X118407143Y-115957143D01*
X118464285Y-115985714D01*
X118692857Y-115985714D01*
X118007143Y-115928571D02*
X118064285Y-115900000D01*
X118092857Y-115871429D01*
X118121428Y-115814286D01*
X118121428Y-115785714D01*
X118092857Y-115728571D01*
X118064285Y-115700000D01*
X118007143Y-115671429D01*
X117892857Y-115671429D01*
X117835714Y-115700000D01*
X117807143Y-115728571D01*
X117778571Y-115785714D01*
X117778571Y-115814286D01*
X117807143Y-115871429D01*
X117835714Y-115900000D01*
X117892857Y-115928571D01*
X118007143Y-115928571D01*
X118064285Y-115957143D01*
X118092857Y-115985714D01*
X118121428Y-116042857D01*
X118121428Y-116157143D01*
X118092857Y-116214286D01*
X118064285Y-116242857D01*
X118007143Y-116271429D01*
X117892857Y-116271429D01*
X117835714Y-116242857D01*
X117807143Y-116214286D01*
X117778571Y-116157143D01*
X117778571Y-116042857D01*
X117807143Y-115985714D01*
X117835714Y-115957143D01*
X117892857Y-115928571D01*
X126385715Y-116271429D02*
X126585715Y-115985714D01*
X126728572Y-116271429D02*
X126728572Y-115671429D01*
X126500000Y-115671429D01*
X126442858Y-115700000D01*
X126414286Y-115728571D01*
X126385715Y-115785714D01*
X126385715Y-115871429D01*
X126414286Y-115928571D01*
X126442858Y-115957143D01*
X126500000Y-115985714D01*
X126728572Y-115985714D01*
X126157143Y-115728571D02*
X126128572Y-115700000D01*
X126071429Y-115671429D01*
X125928572Y-115671429D01*
X125871429Y-115700000D01*
X125842858Y-115728571D01*
X125814286Y-115785714D01*
X125814286Y-115842857D01*
X125842858Y-115928571D01*
X126185715Y-116271429D01*
X125814286Y-116271429D01*
X125300000Y-115871429D02*
X125300000Y-116271429D01*
X125442857Y-115642857D02*
X125585714Y-116071429D01*
X125214286Y-116071429D01*
D16*
G36*
X162373000Y-116373000D02*
X159627000Y-116373000D01*
X159627000Y-94127000D01*
X162373000Y-94127000D01*
X162373000Y-116373000D01*
X162373000Y-116373000D01*
G37*
X162373000Y-116373000D02*
X159627000Y-116373000D01*
X159627000Y-94127000D01*
X162373000Y-94127000D01*
X162373000Y-116373000D01*
M02*
