G04 #@! TF.FileFunction,Copper,L2,Inr,Signal*
%FSLAX46Y46*%
G04 Gerber Fmt 4.6, Leading zero omitted, Abs format (unit mm)*
G04 Created by KiCad (PCBNEW (after 2015-mar-04 BZR unknown)-product) date Tue 07 Apr 2015 10:15:23 PM EDT*
%MOMM*%
G01*
G04 APERTURE LIST*
%ADD10C,0.100000*%
%ADD11R,2.286000X1.524000*%
%ADD12O,2.286000X1.524000*%
%ADD13C,2.000000*%
%ADD14C,0.800000*%
%ADD15O,1.550000X1.550000*%
%ADD16O,1.250000X1.250000*%
%ADD17C,0.600000*%
%ADD18C,0.500000*%
%ADD19C,0.300000*%
G04 APERTURE END LIST*
D10*
D11*
X157976000Y-92570000D03*
D12*
X157976000Y-95110000D03*
X157976000Y-97650000D03*
X157976000Y-100190000D03*
X157976000Y-102730000D03*
X157976000Y-105270000D03*
X157976000Y-107810000D03*
X157976000Y-110350000D03*
X157976000Y-112890000D03*
X157976000Y-115430000D03*
X161024000Y-92570000D03*
X161024000Y-95110000D03*
X161024000Y-97650000D03*
X161024000Y-100190000D03*
X161024000Y-102730000D03*
X161024000Y-105270000D03*
X161024000Y-107810000D03*
X161024000Y-110350000D03*
X161024000Y-112890000D03*
X161024000Y-115430000D03*
D13*
X116880000Y-113500000D03*
X119420000Y-113500000D03*
X124500000Y-113500000D03*
X129580000Y-113500000D03*
D14*
X110750000Y-96500000D03*
X110750000Y-93500000D03*
X113750000Y-93500000D03*
X113750000Y-96500000D03*
D15*
X101300000Y-106750000D03*
X101300000Y-113750000D03*
D16*
X104000000Y-107750000D03*
X104000000Y-112750000D03*
D17*
X114000000Y-107000000D03*
X114000000Y-103000000D03*
X105500000Y-101500000D03*
X108000000Y-99500000D03*
X110424008Y-100784018D03*
X113750000Y-102250000D03*
X116250000Y-102250000D03*
X117250000Y-107500000D03*
X117250000Y-108250000D03*
X117250000Y-109000000D03*
X114750000Y-110500000D03*
X106500000Y-111750000D03*
X107500000Y-111750000D03*
X106500000Y-112750000D03*
X107500000Y-112750000D03*
X108000000Y-107000000D03*
X112250000Y-104000000D03*
X107750000Y-103500000D03*
X123000000Y-93250000D03*
X122939990Y-96750000D03*
X120250000Y-100250000D03*
X123000000Y-103250000D03*
X101750000Y-96500000D03*
X101750000Y-94250000D03*
X105222546Y-89472546D03*
X106810010Y-92500000D03*
X116500000Y-89500000D03*
X119728503Y-95230155D03*
X106000000Y-96000000D03*
X106250000Y-93250000D03*
X118000444Y-91750889D03*
X109750000Y-101250000D03*
X106750000Y-90000000D03*
X112750000Y-102250000D03*
X118750000Y-102250000D03*
X120250000Y-109750000D03*
X119500000Y-109750000D03*
X118750000Y-109750000D03*
X118000000Y-109750000D03*
X121250000Y-91750000D03*
X123000000Y-98500000D03*
X120500000Y-102750000D03*
X117592303Y-97026372D03*
X114500000Y-89500000D03*
X106500000Y-90750000D03*
X115250000Y-102250000D03*
X106750000Y-99250000D03*
X113620011Y-89288591D03*
X120250000Y-94000000D03*
X122939990Y-95000000D03*
X123000000Y-92000000D03*
X118250000Y-98750000D03*
X120500000Y-101500000D03*
X132500000Y-101750000D03*
X126000000Y-101500000D03*
X144750000Y-117500000D03*
X146750000Y-108000000D03*
D14*
X153500000Y-104750000D03*
X153465631Y-100251636D03*
D17*
X150560010Y-108500000D03*
D14*
X154000000Y-111000000D03*
X147750000Y-111250000D03*
X145500000Y-118000000D03*
D17*
X106750000Y-95739997D03*
X104250000Y-94250000D03*
X106750000Y-96500000D03*
X104770986Y-99229014D03*
X142250000Y-109750000D03*
X142250000Y-110500000D03*
X142250000Y-111250000D03*
X132250000Y-100510003D03*
X132249210Y-98214195D03*
X136750000Y-111000000D03*
X145250000Y-100500000D03*
X128500000Y-108250000D03*
X145239990Y-94750000D03*
X144500000Y-94750000D03*
X129260003Y-97000000D03*
X128439990Y-103500000D03*
X129000000Y-91250000D03*
X152500000Y-112000000D03*
X150750000Y-107250000D03*
X135439980Y-106750000D03*
X155250000Y-117000000D03*
X137750000Y-112000000D03*
X138500000Y-112000000D03*
X134000000Y-118000000D03*
X134750000Y-118000000D03*
X135500000Y-118000000D03*
X154500000Y-91500000D03*
X153750000Y-91500000D03*
X152970698Y-91470698D03*
X126000000Y-99750000D03*
X132265985Y-98974012D03*
X132250050Y-97454194D03*
X138750000Y-110000000D03*
X145250000Y-101739997D03*
X145000000Y-99250000D03*
X143500000Y-91000000D03*
X136500000Y-91250000D03*
X126000000Y-93250000D03*
X128500000Y-97000000D03*
X126000000Y-103500000D03*
X128250000Y-105500000D03*
X128750000Y-106500000D03*
X142750000Y-106500000D03*
X139750000Y-110000000D03*
X145500000Y-114500000D03*
X145407697Y-116973628D03*
X148000000Y-108250000D03*
X143500000Y-112500000D03*
X143500000Y-113500000D03*
X143500000Y-114500000D03*
X143500000Y-115500000D03*
X143500000Y-116500000D03*
X144500000Y-90000000D03*
X145172430Y-90000000D03*
X145250000Y-102500000D03*
X142500000Y-91000000D03*
X135500000Y-91250000D03*
X127250000Y-98250000D03*
X132250000Y-99750000D03*
X123500000Y-100750000D03*
X113037403Y-88712597D03*
X123250000Y-101750000D03*
X112500000Y-89250000D03*
X123250000Y-99750000D03*
X111962597Y-88712597D03*
X145770986Y-109560010D03*
X146439990Y-109560010D03*
X134500000Y-106000000D03*
X135500000Y-105439990D03*
X136500000Y-105500000D03*
X137500000Y-105500000D03*
X138500000Y-105500000D03*
X139500000Y-105500000D03*
X140500000Y-105500000D03*
X141500000Y-105500000D03*
D18*
X160770000Y-96370343D02*
X156129657Y-96370343D01*
X160770000Y-97650000D02*
X160770000Y-96370343D01*
X160770000Y-96370343D02*
X160770000Y-95110000D01*
X160770000Y-98971303D02*
X156028697Y-98971303D01*
X160770000Y-100190000D02*
X160770000Y-98971303D01*
X160770000Y-98971303D02*
X160770000Y-97650000D01*
X160770000Y-101450343D02*
X155799657Y-101450343D01*
X160770000Y-102730000D02*
X160770000Y-101450343D01*
X160770000Y-101450343D02*
X160770000Y-100190000D01*
X160770000Y-104010663D02*
X155989337Y-104010663D01*
X160770000Y-105270000D02*
X160770000Y-104010663D01*
X160770000Y-104010663D02*
X160770000Y-102730000D01*
X160770000Y-106591303D02*
X156158697Y-106591303D01*
X160770000Y-107810000D02*
X160770000Y-106591303D01*
X160770000Y-106591303D02*
X160770000Y-105270000D01*
X160770000Y-110350000D02*
X160770000Y-109029703D01*
X160770000Y-109029703D02*
X156220297Y-109029703D01*
X160770000Y-109029703D02*
X160770000Y-107810000D01*
X160770000Y-111671303D02*
X156328697Y-111671303D01*
X160770000Y-112890000D02*
X160770000Y-111671303D01*
X160770000Y-111671303D02*
X160770000Y-110350000D01*
X160770000Y-114190983D02*
X156309017Y-114190983D01*
X160770000Y-115430000D02*
X160770000Y-114190983D01*
X160770000Y-114190983D02*
X160770000Y-112890000D01*
D19*
G36*
X123850000Y-99289461D02*
X123675395Y-99114552D01*
X123513360Y-99047269D01*
X123635448Y-98925395D01*
X123749869Y-98649839D01*
X123750130Y-98351470D01*
X123750130Y-91851470D01*
X123636189Y-91575714D01*
X123425395Y-91364552D01*
X123149839Y-91250131D01*
X122851470Y-91249870D01*
X122575714Y-91363811D01*
X122364552Y-91574605D01*
X122250131Y-91850161D01*
X122249870Y-92148530D01*
X122363811Y-92424286D01*
X122574605Y-92635448D01*
X122850161Y-92749869D01*
X123148530Y-92750130D01*
X123424286Y-92636189D01*
X123635448Y-92425395D01*
X123749869Y-92149839D01*
X123750130Y-91851470D01*
X123750130Y-98351470D01*
X123690120Y-98206235D01*
X123690120Y-94851470D01*
X123576179Y-94575714D01*
X123365385Y-94364552D01*
X123089829Y-94250131D01*
X122791460Y-94249870D01*
X122515704Y-94363811D01*
X122304542Y-94574605D01*
X122190121Y-94850161D01*
X122189860Y-95148530D01*
X122303801Y-95424286D01*
X122514595Y-95635448D01*
X122790151Y-95749869D01*
X123088520Y-95750130D01*
X123364276Y-95636189D01*
X123575438Y-95425395D01*
X123689859Y-95149839D01*
X123690120Y-94851470D01*
X123690120Y-98206235D01*
X123636189Y-98075714D01*
X123425395Y-97864552D01*
X123149839Y-97750131D01*
X122851470Y-97749870D01*
X122575714Y-97863811D01*
X122364552Y-98074605D01*
X122250131Y-98350161D01*
X122249870Y-98648530D01*
X122363811Y-98924286D01*
X122574605Y-99135448D01*
X122736639Y-99202730D01*
X122614552Y-99324605D01*
X122500131Y-99600161D01*
X122499870Y-99898530D01*
X122613811Y-100174286D01*
X122824605Y-100385448D01*
X122837128Y-100390648D01*
X122750131Y-100600161D01*
X122749870Y-100898530D01*
X122836911Y-101109184D01*
X122825714Y-101113811D01*
X122614552Y-101324605D01*
X122500131Y-101600161D01*
X122499870Y-101898530D01*
X122613811Y-102174286D01*
X122824605Y-102385448D01*
X123100161Y-102499869D01*
X123398530Y-102500130D01*
X123670651Y-102387690D01*
X122000130Y-106285573D01*
X122000130Y-91601470D01*
X121886189Y-91325714D01*
X121675395Y-91114552D01*
X121399839Y-91000131D01*
X121101470Y-90999870D01*
X120825714Y-91113811D01*
X120614552Y-91324605D01*
X120500131Y-91600161D01*
X120499870Y-91898530D01*
X120613811Y-92174286D01*
X120824605Y-92385448D01*
X121100161Y-92499869D01*
X121398530Y-92500130D01*
X121674286Y-92386189D01*
X121885448Y-92175395D01*
X121999869Y-91899839D01*
X122000130Y-91601470D01*
X122000130Y-106285573D01*
X121250130Y-108035574D01*
X121250130Y-102601470D01*
X121136189Y-102325714D01*
X120935659Y-102124834D01*
X121135448Y-101925395D01*
X121249869Y-101649839D01*
X121250130Y-101351470D01*
X121136189Y-101075714D01*
X121000130Y-100939417D01*
X121000130Y-93851470D01*
X120886189Y-93575714D01*
X120675395Y-93364552D01*
X120399839Y-93250131D01*
X120101470Y-93249870D01*
X119825714Y-93363811D01*
X119614552Y-93574605D01*
X119500131Y-93850161D01*
X119499870Y-94148530D01*
X119613811Y-94424286D01*
X119824605Y-94635448D01*
X120100161Y-94749869D01*
X120398530Y-94750130D01*
X120674286Y-94636189D01*
X120885448Y-94425395D01*
X120999869Y-94149839D01*
X121000130Y-93851470D01*
X121000130Y-100939417D01*
X120925395Y-100864552D01*
X120649839Y-100750131D01*
X120351470Y-100749870D01*
X120075714Y-100863811D01*
X119864552Y-101074605D01*
X119750131Y-101350161D01*
X119749870Y-101648530D01*
X119863811Y-101924286D01*
X120064340Y-102125165D01*
X119864552Y-102324605D01*
X119750131Y-102600161D01*
X119749870Y-102898530D01*
X119863811Y-103174286D01*
X120074605Y-103385448D01*
X120350161Y-103499869D01*
X120648530Y-103500130D01*
X120924286Y-103386189D01*
X121135448Y-103175395D01*
X121249869Y-102899839D01*
X121250130Y-102601470D01*
X121250130Y-108035574D01*
X120850000Y-108969211D01*
X120850000Y-109289461D01*
X120675395Y-109114552D01*
X120399839Y-109000131D01*
X120101470Y-108999870D01*
X119874782Y-109093535D01*
X119649839Y-109000131D01*
X119500130Y-109000000D01*
X119500130Y-102101470D01*
X119386189Y-101825714D01*
X119175395Y-101614552D01*
X119000130Y-101541775D01*
X119000130Y-98601470D01*
X118886189Y-98325714D01*
X118750574Y-98189862D01*
X118750574Y-91602359D01*
X118636633Y-91326603D01*
X118425839Y-91115441D01*
X118150283Y-91001020D01*
X117851914Y-91000759D01*
X117576158Y-91114700D01*
X117364996Y-91325494D01*
X117250575Y-91601050D01*
X117250314Y-91899419D01*
X117364255Y-92175175D01*
X117575049Y-92386337D01*
X117850605Y-92500758D01*
X118148974Y-92501019D01*
X118424730Y-92387078D01*
X118635892Y-92176284D01*
X118750313Y-91900728D01*
X118750574Y-91602359D01*
X118750574Y-98189862D01*
X118675395Y-98114552D01*
X118399839Y-98000131D01*
X118342433Y-98000080D01*
X118342433Y-96877842D01*
X118228492Y-96602086D01*
X118017698Y-96390924D01*
X117742142Y-96276503D01*
X117443773Y-96276242D01*
X117168017Y-96390183D01*
X116956855Y-96600977D01*
X116842434Y-96876533D01*
X116842173Y-97174902D01*
X116956114Y-97450658D01*
X117166908Y-97661820D01*
X117442464Y-97776241D01*
X117740833Y-97776502D01*
X118016589Y-97662561D01*
X118227751Y-97451767D01*
X118342172Y-97176211D01*
X118342433Y-96877842D01*
X118342433Y-98000080D01*
X118101470Y-97999870D01*
X117825714Y-98113811D01*
X117614552Y-98324605D01*
X117500131Y-98600161D01*
X117499870Y-98898530D01*
X117613811Y-99174286D01*
X117824605Y-99385448D01*
X118100161Y-99499869D01*
X118398530Y-99500130D01*
X118674286Y-99386189D01*
X118885448Y-99175395D01*
X118999869Y-98899839D01*
X119000130Y-98601470D01*
X119000130Y-101541775D01*
X118899839Y-101500131D01*
X118601470Y-101499870D01*
X118325714Y-101613811D01*
X118114552Y-101824605D01*
X118000131Y-102100161D01*
X117999870Y-102398530D01*
X118113811Y-102674286D01*
X118324605Y-102885448D01*
X118600161Y-102999869D01*
X118898530Y-103000130D01*
X119174286Y-102886189D01*
X119385448Y-102675395D01*
X119499869Y-102399839D01*
X119500130Y-102101470D01*
X119500130Y-109000000D01*
X119351470Y-108999870D01*
X119124782Y-109093535D01*
X118899839Y-109000131D01*
X118601470Y-108999870D01*
X118374782Y-109093535D01*
X118149839Y-109000131D01*
X117851470Y-108999870D01*
X117575714Y-109113811D01*
X117364552Y-109324605D01*
X117250131Y-109600161D01*
X117249870Y-109898530D01*
X117363811Y-110174286D01*
X117574605Y-110385448D01*
X117850161Y-110499869D01*
X118148530Y-110500130D01*
X118375217Y-110406464D01*
X118600161Y-110499869D01*
X118898530Y-110500130D01*
X119125217Y-110406464D01*
X119350161Y-110499869D01*
X119648530Y-110500130D01*
X119875217Y-110406464D01*
X120100161Y-110499869D01*
X120398530Y-110500130D01*
X120674286Y-110386189D01*
X120850000Y-110210781D01*
X120850000Y-112765793D01*
X120713281Y-112701694D01*
X120218306Y-113196669D01*
X120218306Y-112206719D01*
X120104053Y-111963026D01*
X119463808Y-111818246D01*
X118816894Y-111929497D01*
X118735947Y-111963026D01*
X118621694Y-112206719D01*
X119420000Y-113005025D01*
X120218306Y-112206719D01*
X120218306Y-113196669D01*
X119914975Y-113500000D01*
X120713281Y-114298306D01*
X120850000Y-114234206D01*
X120850000Y-118850000D01*
X120218306Y-118850000D01*
X120218306Y-114793281D01*
X119420000Y-113994975D01*
X118925025Y-114489950D01*
X118925025Y-113500000D01*
X118126719Y-112701694D01*
X118120293Y-112704706D01*
X118109967Y-112679714D01*
X117702431Y-112271467D01*
X117169688Y-112050252D01*
X116592843Y-112049749D01*
X116059714Y-112270033D01*
X116000130Y-112329513D01*
X116000130Y-102101470D01*
X115886189Y-101825714D01*
X115675395Y-101614552D01*
X115399839Y-101500131D01*
X115101470Y-101499870D01*
X114825714Y-101613811D01*
X114614552Y-101824605D01*
X114500131Y-102100161D01*
X114499870Y-102398530D01*
X114528512Y-102467849D01*
X114425395Y-102364552D01*
X114149839Y-102250131D01*
X113851470Y-102249870D01*
X113575714Y-102363811D01*
X113471723Y-102467619D01*
X113499869Y-102399839D01*
X113500130Y-102101470D01*
X113386189Y-101825714D01*
X113175395Y-101614552D01*
X112899839Y-101500131D01*
X112601470Y-101499870D01*
X112325714Y-101613811D01*
X112114552Y-101824605D01*
X112000131Y-102100161D01*
X111999870Y-102398530D01*
X112113811Y-102674286D01*
X112324605Y-102885448D01*
X112600161Y-102999869D01*
X112898530Y-103000130D01*
X113174286Y-102886189D01*
X113278276Y-102782380D01*
X113250131Y-102850161D01*
X113249870Y-103148530D01*
X113363811Y-103424286D01*
X113574605Y-103635448D01*
X113850161Y-103749869D01*
X114148530Y-103750130D01*
X114424286Y-103636189D01*
X114635448Y-103425395D01*
X114749869Y-103149839D01*
X114750130Y-102851470D01*
X114721487Y-102782150D01*
X114824605Y-102885448D01*
X115100161Y-102999869D01*
X115398530Y-103000130D01*
X115674286Y-102886189D01*
X115885448Y-102675395D01*
X115999869Y-102399839D01*
X116000130Y-102101470D01*
X116000130Y-112329513D01*
X115651467Y-112677569D01*
X115430252Y-113210312D01*
X115429749Y-113787157D01*
X115650033Y-114320286D01*
X116057569Y-114728533D01*
X116590312Y-114949748D01*
X117167157Y-114950251D01*
X117700286Y-114729967D01*
X118108533Y-114322431D01*
X118119881Y-114295100D01*
X118126719Y-114298306D01*
X118925025Y-113500000D01*
X118925025Y-114489950D01*
X118621694Y-114793281D01*
X118735947Y-115036974D01*
X119376192Y-115181754D01*
X120023106Y-115070503D01*
X120104053Y-115036974D01*
X120218306Y-114793281D01*
X120218306Y-118850000D01*
X114750130Y-118850000D01*
X114750130Y-106851470D01*
X114636189Y-106575714D01*
X114425395Y-106364552D01*
X114149839Y-106250131D01*
X113851470Y-106249870D01*
X113575714Y-106363811D01*
X113364552Y-106574605D01*
X113250131Y-106850161D01*
X113249870Y-107148530D01*
X113363811Y-107424286D01*
X113574605Y-107635448D01*
X113850161Y-107749869D01*
X114148530Y-107750130D01*
X114424286Y-107636189D01*
X114635448Y-107425395D01*
X114749869Y-107149839D01*
X114750130Y-106851470D01*
X114750130Y-118850000D01*
X110500130Y-118850000D01*
X110500130Y-101101470D01*
X110386189Y-100825714D01*
X110175395Y-100614552D01*
X109899839Y-100500131D01*
X109601470Y-100499870D01*
X109325714Y-100613811D01*
X109114552Y-100824605D01*
X109000131Y-101100161D01*
X108999870Y-101398530D01*
X109113811Y-101674286D01*
X109324605Y-101885448D01*
X109600161Y-101999869D01*
X109898530Y-102000130D01*
X110174286Y-101886189D01*
X110385448Y-101675395D01*
X110499869Y-101399839D01*
X110500130Y-101101470D01*
X110500130Y-118850000D01*
X107500130Y-118850000D01*
X107500130Y-99101470D01*
X107500130Y-96351470D01*
X107404392Y-96119769D01*
X107499869Y-95889836D01*
X107500130Y-95591467D01*
X107500130Y-89851470D01*
X107386189Y-89575714D01*
X107175395Y-89364552D01*
X106899839Y-89250131D01*
X106601470Y-89249870D01*
X106325714Y-89363811D01*
X106114552Y-89574605D01*
X106000131Y-89850161D01*
X105999870Y-90148530D01*
X106011861Y-90177551D01*
X105864552Y-90324605D01*
X105750131Y-90600161D01*
X105749870Y-90898530D01*
X105863811Y-91174286D01*
X106074605Y-91385448D01*
X106350161Y-91499869D01*
X106648530Y-91500130D01*
X106924286Y-91386189D01*
X107135448Y-91175395D01*
X107249869Y-90899839D01*
X107250130Y-90601470D01*
X107238138Y-90572448D01*
X107385448Y-90425395D01*
X107499869Y-90149839D01*
X107500130Y-89851470D01*
X107500130Y-95591467D01*
X107386189Y-95315711D01*
X107175395Y-95104549D01*
X107000130Y-95031772D01*
X107000130Y-93101470D01*
X106886189Y-92825714D01*
X106675395Y-92614552D01*
X106399839Y-92500131D01*
X106101470Y-92499870D01*
X105825714Y-92613811D01*
X105614552Y-92824605D01*
X105500131Y-93100161D01*
X105499870Y-93398530D01*
X105613811Y-93674286D01*
X105824605Y-93885448D01*
X106100161Y-93999869D01*
X106398530Y-94000130D01*
X106674286Y-93886189D01*
X106885448Y-93675395D01*
X106999869Y-93399839D01*
X107000130Y-93101470D01*
X107000130Y-95031772D01*
X106899839Y-94990128D01*
X106601470Y-94989867D01*
X106325714Y-95103808D01*
X106114552Y-95314602D01*
X106000131Y-95590158D01*
X105999870Y-95888527D01*
X106095607Y-96120227D01*
X106000131Y-96350161D01*
X105999870Y-96648530D01*
X106113811Y-96924286D01*
X106324605Y-97135448D01*
X106600161Y-97249869D01*
X106898530Y-97250130D01*
X107174286Y-97136189D01*
X107385448Y-96925395D01*
X107499869Y-96649839D01*
X107500130Y-96351470D01*
X107500130Y-99101470D01*
X107386189Y-98825714D01*
X107175395Y-98614552D01*
X106899839Y-98500131D01*
X106601470Y-98499870D01*
X106325714Y-98613811D01*
X106114552Y-98824605D01*
X106000131Y-99100161D01*
X105999870Y-99398530D01*
X106113811Y-99674286D01*
X106324605Y-99885448D01*
X106600161Y-99999869D01*
X106898530Y-100000130D01*
X107174286Y-99886189D01*
X107385448Y-99675395D01*
X107499869Y-99399839D01*
X107500130Y-99101470D01*
X107500130Y-118850000D01*
X105521116Y-118850000D01*
X105521116Y-99080484D01*
X105407175Y-98804728D01*
X105196381Y-98593566D01*
X105000130Y-98512075D01*
X105000130Y-94101470D01*
X104886189Y-93825714D01*
X104675395Y-93614552D01*
X104399839Y-93500131D01*
X104101470Y-93499870D01*
X103825714Y-93613811D01*
X103614552Y-93824605D01*
X103500131Y-94100161D01*
X103499870Y-94398530D01*
X103613811Y-94674286D01*
X103824605Y-94885448D01*
X104100161Y-94999869D01*
X104398530Y-95000130D01*
X104674286Y-94886189D01*
X104885448Y-94675395D01*
X104999869Y-94399839D01*
X105000130Y-94101470D01*
X105000130Y-98512075D01*
X104920825Y-98479145D01*
X104622456Y-98478884D01*
X104346700Y-98592825D01*
X104135538Y-98803619D01*
X104021117Y-99079175D01*
X104020856Y-99377544D01*
X104134797Y-99653300D01*
X104345591Y-99864462D01*
X104621147Y-99978883D01*
X104919516Y-99979144D01*
X105195272Y-99865203D01*
X105406434Y-99654409D01*
X105520855Y-99378853D01*
X105521116Y-99080484D01*
X105521116Y-118850000D01*
X105075000Y-118850000D01*
X105075000Y-112771060D01*
X105075000Y-112728940D01*
X105075000Y-107771060D01*
X105075000Y-107728940D01*
X104993170Y-107317555D01*
X104760140Y-106968800D01*
X104411385Y-106735770D01*
X104000000Y-106653940D01*
X103588615Y-106735770D01*
X103239860Y-106968800D01*
X103006830Y-107317555D01*
X102925000Y-107728940D01*
X102925000Y-107771060D01*
X103006830Y-108182445D01*
X103239860Y-108531200D01*
X103588615Y-108764230D01*
X104000000Y-108846060D01*
X104411385Y-108764230D01*
X104760140Y-108531200D01*
X104993170Y-108182445D01*
X105075000Y-107771060D01*
X105075000Y-112728940D01*
X104993170Y-112317555D01*
X104760140Y-111968800D01*
X104411385Y-111735770D01*
X104000000Y-111653940D01*
X103588615Y-111735770D01*
X103239860Y-111968800D01*
X103006830Y-112317555D01*
X102925000Y-112728940D01*
X102925000Y-112771060D01*
X103006830Y-113182445D01*
X103239860Y-113531200D01*
X103588615Y-113764230D01*
X104000000Y-113846060D01*
X104411385Y-113764230D01*
X104760140Y-113531200D01*
X104993170Y-113182445D01*
X105075000Y-112771060D01*
X105075000Y-118850000D01*
X104204338Y-118850000D01*
X104399669Y-118379591D01*
X104400329Y-117623725D01*
X104111681Y-116925143D01*
X103577669Y-116390198D01*
X102879591Y-116100331D01*
X102123725Y-116099671D01*
X101425143Y-116388319D01*
X101150000Y-116662982D01*
X101150000Y-114969161D01*
X101300000Y-114998999D01*
X101768787Y-114905751D01*
X102166206Y-114640205D01*
X102431752Y-114242786D01*
X102525000Y-113773999D01*
X102525000Y-113726001D01*
X102431752Y-113257214D01*
X102166206Y-112859795D01*
X101768787Y-112594249D01*
X101300000Y-112501001D01*
X101150000Y-112530838D01*
X101150000Y-107969161D01*
X101300000Y-107998999D01*
X101768787Y-107905751D01*
X102166206Y-107640205D01*
X102431752Y-107242786D01*
X102525000Y-106773999D01*
X102525000Y-106726001D01*
X102431752Y-106257214D01*
X102166206Y-105859795D01*
X101768787Y-105594249D01*
X101300000Y-105501001D01*
X101150000Y-105530838D01*
X101150000Y-91336995D01*
X101422331Y-91609802D01*
X102120409Y-91899669D01*
X102876275Y-91900329D01*
X103574857Y-91611681D01*
X104109802Y-91077669D01*
X104399669Y-90379591D01*
X104400329Y-89623725D01*
X104204589Y-89150000D01*
X111339502Y-89150000D01*
X111537202Y-89348045D01*
X111768734Y-89444185D01*
X111863811Y-89674286D01*
X112074605Y-89885448D01*
X112350161Y-89999869D01*
X112648530Y-90000130D01*
X112924286Y-89886189D01*
X113040761Y-89769916D01*
X113194616Y-89924039D01*
X113470172Y-90038460D01*
X113768541Y-90038721D01*
X113916866Y-89977433D01*
X114074605Y-90135448D01*
X114350161Y-90249869D01*
X114648530Y-90250130D01*
X114924286Y-90136189D01*
X115135448Y-89925395D01*
X115249869Y-89649839D01*
X115250130Y-89351470D01*
X115166883Y-89150000D01*
X123850000Y-89150000D01*
X123850000Y-99289461D01*
X123850000Y-99289461D01*
G37*
X123850000Y-99289461D02*
X123675395Y-99114552D01*
X123513360Y-99047269D01*
X123635448Y-98925395D01*
X123749869Y-98649839D01*
X123750130Y-98351470D01*
X123750130Y-91851470D01*
X123636189Y-91575714D01*
X123425395Y-91364552D01*
X123149839Y-91250131D01*
X122851470Y-91249870D01*
X122575714Y-91363811D01*
X122364552Y-91574605D01*
X122250131Y-91850161D01*
X122249870Y-92148530D01*
X122363811Y-92424286D01*
X122574605Y-92635448D01*
X122850161Y-92749869D01*
X123148530Y-92750130D01*
X123424286Y-92636189D01*
X123635448Y-92425395D01*
X123749869Y-92149839D01*
X123750130Y-91851470D01*
X123750130Y-98351470D01*
X123690120Y-98206235D01*
X123690120Y-94851470D01*
X123576179Y-94575714D01*
X123365385Y-94364552D01*
X123089829Y-94250131D01*
X122791460Y-94249870D01*
X122515704Y-94363811D01*
X122304542Y-94574605D01*
X122190121Y-94850161D01*
X122189860Y-95148530D01*
X122303801Y-95424286D01*
X122514595Y-95635448D01*
X122790151Y-95749869D01*
X123088520Y-95750130D01*
X123364276Y-95636189D01*
X123575438Y-95425395D01*
X123689859Y-95149839D01*
X123690120Y-94851470D01*
X123690120Y-98206235D01*
X123636189Y-98075714D01*
X123425395Y-97864552D01*
X123149839Y-97750131D01*
X122851470Y-97749870D01*
X122575714Y-97863811D01*
X122364552Y-98074605D01*
X122250131Y-98350161D01*
X122249870Y-98648530D01*
X122363811Y-98924286D01*
X122574605Y-99135448D01*
X122736639Y-99202730D01*
X122614552Y-99324605D01*
X122500131Y-99600161D01*
X122499870Y-99898530D01*
X122613811Y-100174286D01*
X122824605Y-100385448D01*
X122837128Y-100390648D01*
X122750131Y-100600161D01*
X122749870Y-100898530D01*
X122836911Y-101109184D01*
X122825714Y-101113811D01*
X122614552Y-101324605D01*
X122500131Y-101600161D01*
X122499870Y-101898530D01*
X122613811Y-102174286D01*
X122824605Y-102385448D01*
X123100161Y-102499869D01*
X123398530Y-102500130D01*
X123670651Y-102387690D01*
X122000130Y-106285573D01*
X122000130Y-91601470D01*
X121886189Y-91325714D01*
X121675395Y-91114552D01*
X121399839Y-91000131D01*
X121101470Y-90999870D01*
X120825714Y-91113811D01*
X120614552Y-91324605D01*
X120500131Y-91600161D01*
X120499870Y-91898530D01*
X120613811Y-92174286D01*
X120824605Y-92385448D01*
X121100161Y-92499869D01*
X121398530Y-92500130D01*
X121674286Y-92386189D01*
X121885448Y-92175395D01*
X121999869Y-91899839D01*
X122000130Y-91601470D01*
X122000130Y-106285573D01*
X121250130Y-108035574D01*
X121250130Y-102601470D01*
X121136189Y-102325714D01*
X120935659Y-102124834D01*
X121135448Y-101925395D01*
X121249869Y-101649839D01*
X121250130Y-101351470D01*
X121136189Y-101075714D01*
X121000130Y-100939417D01*
X121000130Y-93851470D01*
X120886189Y-93575714D01*
X120675395Y-93364552D01*
X120399839Y-93250131D01*
X120101470Y-93249870D01*
X119825714Y-93363811D01*
X119614552Y-93574605D01*
X119500131Y-93850161D01*
X119499870Y-94148530D01*
X119613811Y-94424286D01*
X119824605Y-94635448D01*
X120100161Y-94749869D01*
X120398530Y-94750130D01*
X120674286Y-94636189D01*
X120885448Y-94425395D01*
X120999869Y-94149839D01*
X121000130Y-93851470D01*
X121000130Y-100939417D01*
X120925395Y-100864552D01*
X120649839Y-100750131D01*
X120351470Y-100749870D01*
X120075714Y-100863811D01*
X119864552Y-101074605D01*
X119750131Y-101350161D01*
X119749870Y-101648530D01*
X119863811Y-101924286D01*
X120064340Y-102125165D01*
X119864552Y-102324605D01*
X119750131Y-102600161D01*
X119749870Y-102898530D01*
X119863811Y-103174286D01*
X120074605Y-103385448D01*
X120350161Y-103499869D01*
X120648530Y-103500130D01*
X120924286Y-103386189D01*
X121135448Y-103175395D01*
X121249869Y-102899839D01*
X121250130Y-102601470D01*
X121250130Y-108035574D01*
X120850000Y-108969211D01*
X120850000Y-109289461D01*
X120675395Y-109114552D01*
X120399839Y-109000131D01*
X120101470Y-108999870D01*
X119874782Y-109093535D01*
X119649839Y-109000131D01*
X119500130Y-109000000D01*
X119500130Y-102101470D01*
X119386189Y-101825714D01*
X119175395Y-101614552D01*
X119000130Y-101541775D01*
X119000130Y-98601470D01*
X118886189Y-98325714D01*
X118750574Y-98189862D01*
X118750574Y-91602359D01*
X118636633Y-91326603D01*
X118425839Y-91115441D01*
X118150283Y-91001020D01*
X117851914Y-91000759D01*
X117576158Y-91114700D01*
X117364996Y-91325494D01*
X117250575Y-91601050D01*
X117250314Y-91899419D01*
X117364255Y-92175175D01*
X117575049Y-92386337D01*
X117850605Y-92500758D01*
X118148974Y-92501019D01*
X118424730Y-92387078D01*
X118635892Y-92176284D01*
X118750313Y-91900728D01*
X118750574Y-91602359D01*
X118750574Y-98189862D01*
X118675395Y-98114552D01*
X118399839Y-98000131D01*
X118342433Y-98000080D01*
X118342433Y-96877842D01*
X118228492Y-96602086D01*
X118017698Y-96390924D01*
X117742142Y-96276503D01*
X117443773Y-96276242D01*
X117168017Y-96390183D01*
X116956855Y-96600977D01*
X116842434Y-96876533D01*
X116842173Y-97174902D01*
X116956114Y-97450658D01*
X117166908Y-97661820D01*
X117442464Y-97776241D01*
X117740833Y-97776502D01*
X118016589Y-97662561D01*
X118227751Y-97451767D01*
X118342172Y-97176211D01*
X118342433Y-96877842D01*
X118342433Y-98000080D01*
X118101470Y-97999870D01*
X117825714Y-98113811D01*
X117614552Y-98324605D01*
X117500131Y-98600161D01*
X117499870Y-98898530D01*
X117613811Y-99174286D01*
X117824605Y-99385448D01*
X118100161Y-99499869D01*
X118398530Y-99500130D01*
X118674286Y-99386189D01*
X118885448Y-99175395D01*
X118999869Y-98899839D01*
X119000130Y-98601470D01*
X119000130Y-101541775D01*
X118899839Y-101500131D01*
X118601470Y-101499870D01*
X118325714Y-101613811D01*
X118114552Y-101824605D01*
X118000131Y-102100161D01*
X117999870Y-102398530D01*
X118113811Y-102674286D01*
X118324605Y-102885448D01*
X118600161Y-102999869D01*
X118898530Y-103000130D01*
X119174286Y-102886189D01*
X119385448Y-102675395D01*
X119499869Y-102399839D01*
X119500130Y-102101470D01*
X119500130Y-109000000D01*
X119351470Y-108999870D01*
X119124782Y-109093535D01*
X118899839Y-109000131D01*
X118601470Y-108999870D01*
X118374782Y-109093535D01*
X118149839Y-109000131D01*
X117851470Y-108999870D01*
X117575714Y-109113811D01*
X117364552Y-109324605D01*
X117250131Y-109600161D01*
X117249870Y-109898530D01*
X117363811Y-110174286D01*
X117574605Y-110385448D01*
X117850161Y-110499869D01*
X118148530Y-110500130D01*
X118375217Y-110406464D01*
X118600161Y-110499869D01*
X118898530Y-110500130D01*
X119125217Y-110406464D01*
X119350161Y-110499869D01*
X119648530Y-110500130D01*
X119875217Y-110406464D01*
X120100161Y-110499869D01*
X120398530Y-110500130D01*
X120674286Y-110386189D01*
X120850000Y-110210781D01*
X120850000Y-112765793D01*
X120713281Y-112701694D01*
X120218306Y-113196669D01*
X120218306Y-112206719D01*
X120104053Y-111963026D01*
X119463808Y-111818246D01*
X118816894Y-111929497D01*
X118735947Y-111963026D01*
X118621694Y-112206719D01*
X119420000Y-113005025D01*
X120218306Y-112206719D01*
X120218306Y-113196669D01*
X119914975Y-113500000D01*
X120713281Y-114298306D01*
X120850000Y-114234206D01*
X120850000Y-118850000D01*
X120218306Y-118850000D01*
X120218306Y-114793281D01*
X119420000Y-113994975D01*
X118925025Y-114489950D01*
X118925025Y-113500000D01*
X118126719Y-112701694D01*
X118120293Y-112704706D01*
X118109967Y-112679714D01*
X117702431Y-112271467D01*
X117169688Y-112050252D01*
X116592843Y-112049749D01*
X116059714Y-112270033D01*
X116000130Y-112329513D01*
X116000130Y-102101470D01*
X115886189Y-101825714D01*
X115675395Y-101614552D01*
X115399839Y-101500131D01*
X115101470Y-101499870D01*
X114825714Y-101613811D01*
X114614552Y-101824605D01*
X114500131Y-102100161D01*
X114499870Y-102398530D01*
X114528512Y-102467849D01*
X114425395Y-102364552D01*
X114149839Y-102250131D01*
X113851470Y-102249870D01*
X113575714Y-102363811D01*
X113471723Y-102467619D01*
X113499869Y-102399839D01*
X113500130Y-102101470D01*
X113386189Y-101825714D01*
X113175395Y-101614552D01*
X112899839Y-101500131D01*
X112601470Y-101499870D01*
X112325714Y-101613811D01*
X112114552Y-101824605D01*
X112000131Y-102100161D01*
X111999870Y-102398530D01*
X112113811Y-102674286D01*
X112324605Y-102885448D01*
X112600161Y-102999869D01*
X112898530Y-103000130D01*
X113174286Y-102886189D01*
X113278276Y-102782380D01*
X113250131Y-102850161D01*
X113249870Y-103148530D01*
X113363811Y-103424286D01*
X113574605Y-103635448D01*
X113850161Y-103749869D01*
X114148530Y-103750130D01*
X114424286Y-103636189D01*
X114635448Y-103425395D01*
X114749869Y-103149839D01*
X114750130Y-102851470D01*
X114721487Y-102782150D01*
X114824605Y-102885448D01*
X115100161Y-102999869D01*
X115398530Y-103000130D01*
X115674286Y-102886189D01*
X115885448Y-102675395D01*
X115999869Y-102399839D01*
X116000130Y-102101470D01*
X116000130Y-112329513D01*
X115651467Y-112677569D01*
X115430252Y-113210312D01*
X115429749Y-113787157D01*
X115650033Y-114320286D01*
X116057569Y-114728533D01*
X116590312Y-114949748D01*
X117167157Y-114950251D01*
X117700286Y-114729967D01*
X118108533Y-114322431D01*
X118119881Y-114295100D01*
X118126719Y-114298306D01*
X118925025Y-113500000D01*
X118925025Y-114489950D01*
X118621694Y-114793281D01*
X118735947Y-115036974D01*
X119376192Y-115181754D01*
X120023106Y-115070503D01*
X120104053Y-115036974D01*
X120218306Y-114793281D01*
X120218306Y-118850000D01*
X114750130Y-118850000D01*
X114750130Y-106851470D01*
X114636189Y-106575714D01*
X114425395Y-106364552D01*
X114149839Y-106250131D01*
X113851470Y-106249870D01*
X113575714Y-106363811D01*
X113364552Y-106574605D01*
X113250131Y-106850161D01*
X113249870Y-107148530D01*
X113363811Y-107424286D01*
X113574605Y-107635448D01*
X113850161Y-107749869D01*
X114148530Y-107750130D01*
X114424286Y-107636189D01*
X114635448Y-107425395D01*
X114749869Y-107149839D01*
X114750130Y-106851470D01*
X114750130Y-118850000D01*
X110500130Y-118850000D01*
X110500130Y-101101470D01*
X110386189Y-100825714D01*
X110175395Y-100614552D01*
X109899839Y-100500131D01*
X109601470Y-100499870D01*
X109325714Y-100613811D01*
X109114552Y-100824605D01*
X109000131Y-101100161D01*
X108999870Y-101398530D01*
X109113811Y-101674286D01*
X109324605Y-101885448D01*
X109600161Y-101999869D01*
X109898530Y-102000130D01*
X110174286Y-101886189D01*
X110385448Y-101675395D01*
X110499869Y-101399839D01*
X110500130Y-101101470D01*
X110500130Y-118850000D01*
X107500130Y-118850000D01*
X107500130Y-99101470D01*
X107500130Y-96351470D01*
X107404392Y-96119769D01*
X107499869Y-95889836D01*
X107500130Y-95591467D01*
X107500130Y-89851470D01*
X107386189Y-89575714D01*
X107175395Y-89364552D01*
X106899839Y-89250131D01*
X106601470Y-89249870D01*
X106325714Y-89363811D01*
X106114552Y-89574605D01*
X106000131Y-89850161D01*
X105999870Y-90148530D01*
X106011861Y-90177551D01*
X105864552Y-90324605D01*
X105750131Y-90600161D01*
X105749870Y-90898530D01*
X105863811Y-91174286D01*
X106074605Y-91385448D01*
X106350161Y-91499869D01*
X106648530Y-91500130D01*
X106924286Y-91386189D01*
X107135448Y-91175395D01*
X107249869Y-90899839D01*
X107250130Y-90601470D01*
X107238138Y-90572448D01*
X107385448Y-90425395D01*
X107499869Y-90149839D01*
X107500130Y-89851470D01*
X107500130Y-95591467D01*
X107386189Y-95315711D01*
X107175395Y-95104549D01*
X107000130Y-95031772D01*
X107000130Y-93101470D01*
X106886189Y-92825714D01*
X106675395Y-92614552D01*
X106399839Y-92500131D01*
X106101470Y-92499870D01*
X105825714Y-92613811D01*
X105614552Y-92824605D01*
X105500131Y-93100161D01*
X105499870Y-93398530D01*
X105613811Y-93674286D01*
X105824605Y-93885448D01*
X106100161Y-93999869D01*
X106398530Y-94000130D01*
X106674286Y-93886189D01*
X106885448Y-93675395D01*
X106999869Y-93399839D01*
X107000130Y-93101470D01*
X107000130Y-95031772D01*
X106899839Y-94990128D01*
X106601470Y-94989867D01*
X106325714Y-95103808D01*
X106114552Y-95314602D01*
X106000131Y-95590158D01*
X105999870Y-95888527D01*
X106095607Y-96120227D01*
X106000131Y-96350161D01*
X105999870Y-96648530D01*
X106113811Y-96924286D01*
X106324605Y-97135448D01*
X106600161Y-97249869D01*
X106898530Y-97250130D01*
X107174286Y-97136189D01*
X107385448Y-96925395D01*
X107499869Y-96649839D01*
X107500130Y-96351470D01*
X107500130Y-99101470D01*
X107386189Y-98825714D01*
X107175395Y-98614552D01*
X106899839Y-98500131D01*
X106601470Y-98499870D01*
X106325714Y-98613811D01*
X106114552Y-98824605D01*
X106000131Y-99100161D01*
X105999870Y-99398530D01*
X106113811Y-99674286D01*
X106324605Y-99885448D01*
X106600161Y-99999869D01*
X106898530Y-100000130D01*
X107174286Y-99886189D01*
X107385448Y-99675395D01*
X107499869Y-99399839D01*
X107500130Y-99101470D01*
X107500130Y-118850000D01*
X105521116Y-118850000D01*
X105521116Y-99080484D01*
X105407175Y-98804728D01*
X105196381Y-98593566D01*
X105000130Y-98512075D01*
X105000130Y-94101470D01*
X104886189Y-93825714D01*
X104675395Y-93614552D01*
X104399839Y-93500131D01*
X104101470Y-93499870D01*
X103825714Y-93613811D01*
X103614552Y-93824605D01*
X103500131Y-94100161D01*
X103499870Y-94398530D01*
X103613811Y-94674286D01*
X103824605Y-94885448D01*
X104100161Y-94999869D01*
X104398530Y-95000130D01*
X104674286Y-94886189D01*
X104885448Y-94675395D01*
X104999869Y-94399839D01*
X105000130Y-94101470D01*
X105000130Y-98512075D01*
X104920825Y-98479145D01*
X104622456Y-98478884D01*
X104346700Y-98592825D01*
X104135538Y-98803619D01*
X104021117Y-99079175D01*
X104020856Y-99377544D01*
X104134797Y-99653300D01*
X104345591Y-99864462D01*
X104621147Y-99978883D01*
X104919516Y-99979144D01*
X105195272Y-99865203D01*
X105406434Y-99654409D01*
X105520855Y-99378853D01*
X105521116Y-99080484D01*
X105521116Y-118850000D01*
X105075000Y-118850000D01*
X105075000Y-112771060D01*
X105075000Y-112728940D01*
X105075000Y-107771060D01*
X105075000Y-107728940D01*
X104993170Y-107317555D01*
X104760140Y-106968800D01*
X104411385Y-106735770D01*
X104000000Y-106653940D01*
X103588615Y-106735770D01*
X103239860Y-106968800D01*
X103006830Y-107317555D01*
X102925000Y-107728940D01*
X102925000Y-107771060D01*
X103006830Y-108182445D01*
X103239860Y-108531200D01*
X103588615Y-108764230D01*
X104000000Y-108846060D01*
X104411385Y-108764230D01*
X104760140Y-108531200D01*
X104993170Y-108182445D01*
X105075000Y-107771060D01*
X105075000Y-112728940D01*
X104993170Y-112317555D01*
X104760140Y-111968800D01*
X104411385Y-111735770D01*
X104000000Y-111653940D01*
X103588615Y-111735770D01*
X103239860Y-111968800D01*
X103006830Y-112317555D01*
X102925000Y-112728940D01*
X102925000Y-112771060D01*
X103006830Y-113182445D01*
X103239860Y-113531200D01*
X103588615Y-113764230D01*
X104000000Y-113846060D01*
X104411385Y-113764230D01*
X104760140Y-113531200D01*
X104993170Y-113182445D01*
X105075000Y-112771060D01*
X105075000Y-118850000D01*
X104204338Y-118850000D01*
X104399669Y-118379591D01*
X104400329Y-117623725D01*
X104111681Y-116925143D01*
X103577669Y-116390198D01*
X102879591Y-116100331D01*
X102123725Y-116099671D01*
X101425143Y-116388319D01*
X101150000Y-116662982D01*
X101150000Y-114969161D01*
X101300000Y-114998999D01*
X101768787Y-114905751D01*
X102166206Y-114640205D01*
X102431752Y-114242786D01*
X102525000Y-113773999D01*
X102525000Y-113726001D01*
X102431752Y-113257214D01*
X102166206Y-112859795D01*
X101768787Y-112594249D01*
X101300000Y-112501001D01*
X101150000Y-112530838D01*
X101150000Y-107969161D01*
X101300000Y-107998999D01*
X101768787Y-107905751D01*
X102166206Y-107640205D01*
X102431752Y-107242786D01*
X102525000Y-106773999D01*
X102525000Y-106726001D01*
X102431752Y-106257214D01*
X102166206Y-105859795D01*
X101768787Y-105594249D01*
X101300000Y-105501001D01*
X101150000Y-105530838D01*
X101150000Y-91336995D01*
X101422331Y-91609802D01*
X102120409Y-91899669D01*
X102876275Y-91900329D01*
X103574857Y-91611681D01*
X104109802Y-91077669D01*
X104399669Y-90379591D01*
X104400329Y-89623725D01*
X104204589Y-89150000D01*
X111339502Y-89150000D01*
X111537202Y-89348045D01*
X111768734Y-89444185D01*
X111863811Y-89674286D01*
X112074605Y-89885448D01*
X112350161Y-89999869D01*
X112648530Y-90000130D01*
X112924286Y-89886189D01*
X113040761Y-89769916D01*
X113194616Y-89924039D01*
X113470172Y-90038460D01*
X113768541Y-90038721D01*
X113916866Y-89977433D01*
X114074605Y-90135448D01*
X114350161Y-90249869D01*
X114648530Y-90250130D01*
X114924286Y-90136189D01*
X115135448Y-89925395D01*
X115249869Y-89649839D01*
X115250130Y-89351470D01*
X115166883Y-89150000D01*
X123850000Y-89150000D01*
X123850000Y-99289461D01*
G36*
X160394181Y-93738714D02*
X160010263Y-93843750D01*
X159573854Y-94182276D01*
X159400756Y-94485760D01*
X159245222Y-94252987D01*
X158852021Y-93990258D01*
X158388209Y-93898000D01*
X157563791Y-93898000D01*
X157099979Y-93990258D01*
X156706778Y-94252987D01*
X156444049Y-94646188D01*
X156351791Y-95110000D01*
X156444049Y-95573812D01*
X156706778Y-95967013D01*
X157099979Y-96229742D01*
X157563791Y-96322000D01*
X158388209Y-96322000D01*
X158852021Y-96229742D01*
X159245222Y-95967013D01*
X159400756Y-95734239D01*
X159573854Y-96037724D01*
X160010263Y-96376250D01*
X160023969Y-96380000D01*
X160010263Y-96383750D01*
X159573854Y-96722276D01*
X159400756Y-97025760D01*
X159245222Y-96792987D01*
X158852021Y-96530258D01*
X158388209Y-96438000D01*
X157563791Y-96438000D01*
X157099979Y-96530258D01*
X156706778Y-96792987D01*
X156444049Y-97186188D01*
X156351791Y-97650000D01*
X156444049Y-98113812D01*
X156706778Y-98507013D01*
X157099979Y-98769742D01*
X157563791Y-98862000D01*
X158388209Y-98862000D01*
X158852021Y-98769742D01*
X159245222Y-98507013D01*
X159400756Y-98274239D01*
X159573854Y-98577724D01*
X160010263Y-98916250D01*
X160023969Y-98920000D01*
X160010263Y-98923750D01*
X159573854Y-99262276D01*
X159400756Y-99565760D01*
X159245222Y-99332987D01*
X158852021Y-99070258D01*
X158388209Y-98978000D01*
X157563791Y-98978000D01*
X157099979Y-99070258D01*
X156706778Y-99332987D01*
X156444049Y-99726188D01*
X156351791Y-100190000D01*
X156444049Y-100653812D01*
X156706778Y-101047013D01*
X157099979Y-101309742D01*
X157563791Y-101402000D01*
X158388209Y-101402000D01*
X158852021Y-101309742D01*
X159245222Y-101047013D01*
X159400756Y-100814239D01*
X159573854Y-101117724D01*
X160010263Y-101456250D01*
X160023969Y-101460000D01*
X160010263Y-101463750D01*
X159573854Y-101802276D01*
X159400756Y-102105760D01*
X159245222Y-101872987D01*
X158852021Y-101610258D01*
X158388209Y-101518000D01*
X157563791Y-101518000D01*
X157099979Y-101610258D01*
X156706778Y-101872987D01*
X156444049Y-102266188D01*
X156351791Y-102730000D01*
X156444049Y-103193812D01*
X156706778Y-103587013D01*
X157099979Y-103849742D01*
X157563791Y-103942000D01*
X158388209Y-103942000D01*
X158852021Y-103849742D01*
X159245222Y-103587013D01*
X159400756Y-103354239D01*
X159573854Y-103657724D01*
X160010263Y-103996250D01*
X160023969Y-104000000D01*
X160010263Y-104003750D01*
X159573854Y-104342276D01*
X159400756Y-104645760D01*
X159245222Y-104412987D01*
X158852021Y-104150258D01*
X158388209Y-104058000D01*
X157563791Y-104058000D01*
X157099979Y-104150258D01*
X156706778Y-104412987D01*
X156444049Y-104806188D01*
X156351791Y-105270000D01*
X156444049Y-105733812D01*
X156706778Y-106127013D01*
X157099979Y-106389742D01*
X157563791Y-106482000D01*
X158388209Y-106482000D01*
X158852021Y-106389742D01*
X159245222Y-106127013D01*
X159400756Y-105894239D01*
X159573854Y-106197724D01*
X160010263Y-106536250D01*
X160023969Y-106540000D01*
X160010263Y-106543750D01*
X159573854Y-106882276D01*
X159400756Y-107185760D01*
X159245222Y-106952987D01*
X158852021Y-106690258D01*
X158388209Y-106598000D01*
X157563791Y-106598000D01*
X157099979Y-106690258D01*
X156706778Y-106952987D01*
X156444049Y-107346188D01*
X156351791Y-107810000D01*
X156444049Y-108273812D01*
X156706778Y-108667013D01*
X157099979Y-108929742D01*
X157563791Y-109022000D01*
X158388209Y-109022000D01*
X158852021Y-108929742D01*
X159245222Y-108667013D01*
X159400756Y-108434239D01*
X159573854Y-108737724D01*
X160010263Y-109076250D01*
X160023969Y-109080000D01*
X160010263Y-109083750D01*
X159573854Y-109422276D01*
X159400756Y-109725760D01*
X159245222Y-109492987D01*
X158852021Y-109230258D01*
X158388209Y-109138000D01*
X157563791Y-109138000D01*
X157099979Y-109230258D01*
X156706778Y-109492987D01*
X156444049Y-109886188D01*
X156351791Y-110350000D01*
X156444049Y-110813812D01*
X156706778Y-111207013D01*
X157099979Y-111469742D01*
X157563791Y-111562000D01*
X158388209Y-111562000D01*
X158852021Y-111469742D01*
X159245222Y-111207013D01*
X159400756Y-110974239D01*
X159573854Y-111277724D01*
X160010263Y-111616250D01*
X160023969Y-111620000D01*
X160010263Y-111623750D01*
X159573854Y-111962276D01*
X159400756Y-112265760D01*
X159245222Y-112032987D01*
X158852021Y-111770258D01*
X158388209Y-111678000D01*
X157563791Y-111678000D01*
X157099979Y-111770258D01*
X156706778Y-112032987D01*
X156444049Y-112426188D01*
X156351791Y-112890000D01*
X156444049Y-113353812D01*
X156706778Y-113747013D01*
X157099979Y-114009742D01*
X157563791Y-114102000D01*
X158388209Y-114102000D01*
X158852021Y-114009742D01*
X159245222Y-113747013D01*
X159400756Y-113514239D01*
X159573854Y-113817724D01*
X160010263Y-114156250D01*
X160023969Y-114160000D01*
X160010263Y-114163750D01*
X159573854Y-114502276D01*
X159400756Y-114805760D01*
X159245222Y-114572987D01*
X158852021Y-114310258D01*
X158388209Y-114218000D01*
X157563791Y-114218000D01*
X157099979Y-114310258D01*
X156706778Y-114572987D01*
X156444049Y-114966188D01*
X156351791Y-115430000D01*
X156444049Y-115893812D01*
X156706778Y-116287013D01*
X157099979Y-116549742D01*
X157563791Y-116642000D01*
X158388209Y-116642000D01*
X158741394Y-116571746D01*
X158390198Y-116922331D01*
X158100331Y-117620409D01*
X158099671Y-118376275D01*
X158295410Y-118850000D01*
X154850147Y-118850000D01*
X154850147Y-110831666D01*
X154721015Y-110519143D01*
X154482115Y-110279826D01*
X154350147Y-110225027D01*
X154350147Y-104581666D01*
X154315778Y-104498486D01*
X154315778Y-100083302D01*
X154186646Y-99770779D01*
X153947746Y-99531462D01*
X153635448Y-99401784D01*
X153297297Y-99401489D01*
X152984774Y-99530621D01*
X152745457Y-99769521D01*
X152615779Y-100081819D01*
X152615484Y-100419970D01*
X152744616Y-100732493D01*
X152983516Y-100971810D01*
X153295814Y-101101488D01*
X153633965Y-101101783D01*
X153946488Y-100972651D01*
X154185805Y-100733751D01*
X154315483Y-100421453D01*
X154315778Y-100083302D01*
X154315778Y-104498486D01*
X154221015Y-104269143D01*
X153982115Y-104029826D01*
X153669817Y-103900148D01*
X153331666Y-103899853D01*
X153019143Y-104028985D01*
X152779826Y-104267885D01*
X152650148Y-104580183D01*
X152649853Y-104918334D01*
X152778985Y-105230857D01*
X153017885Y-105470174D01*
X153330183Y-105599852D01*
X153668334Y-105600147D01*
X153980857Y-105471015D01*
X154220174Y-105232115D01*
X154349852Y-104919817D01*
X154350147Y-104581666D01*
X154350147Y-110225027D01*
X154169817Y-110150148D01*
X153831666Y-110149853D01*
X153519143Y-110278985D01*
X153279826Y-110517885D01*
X153150148Y-110830183D01*
X153149853Y-111168334D01*
X153278985Y-111480857D01*
X153517885Y-111720174D01*
X153830183Y-111849852D01*
X154168334Y-111850147D01*
X154480857Y-111721015D01*
X154720174Y-111482115D01*
X154849852Y-111169817D01*
X154850147Y-110831666D01*
X154850147Y-118850000D01*
X151310140Y-118850000D01*
X151310140Y-108351470D01*
X151196199Y-108075714D01*
X150985405Y-107864552D01*
X150709849Y-107750131D01*
X150411480Y-107749870D01*
X150135724Y-107863811D01*
X149924562Y-108074605D01*
X149810141Y-108350161D01*
X149809880Y-108648530D01*
X149923821Y-108924286D01*
X150134615Y-109135448D01*
X150410171Y-109249869D01*
X150708540Y-109250130D01*
X150984296Y-109136189D01*
X151195458Y-108925395D01*
X151309879Y-108649839D01*
X151310140Y-108351470D01*
X151310140Y-118850000D01*
X148600147Y-118850000D01*
X148600147Y-111081666D01*
X148471015Y-110769143D01*
X148232115Y-110529826D01*
X147919817Y-110400148D01*
X147581666Y-110399853D01*
X147500130Y-110433543D01*
X147500130Y-107851470D01*
X147386189Y-107575714D01*
X147175395Y-107364552D01*
X146899839Y-107250131D01*
X146601470Y-107249870D01*
X146325714Y-107363811D01*
X146114552Y-107574605D01*
X146000131Y-107850161D01*
X146000130Y-107851304D01*
X146000130Y-102351470D01*
X146000130Y-100351470D01*
X145990120Y-100327244D01*
X145990120Y-94601470D01*
X145922560Y-94437963D01*
X145922560Y-89851470D01*
X145808619Y-89575714D01*
X145597825Y-89364552D01*
X145322269Y-89250131D01*
X145023900Y-89249870D01*
X144836093Y-89327470D01*
X144649839Y-89250131D01*
X144351470Y-89249870D01*
X144075714Y-89363811D01*
X143864552Y-89574605D01*
X143750131Y-89850161D01*
X143749870Y-90148530D01*
X143863811Y-90424286D01*
X144074605Y-90635448D01*
X144350161Y-90749869D01*
X144648530Y-90750130D01*
X144836336Y-90672529D01*
X145022591Y-90749869D01*
X145320960Y-90750130D01*
X145596716Y-90636189D01*
X145807878Y-90425395D01*
X145922299Y-90149839D01*
X145922560Y-89851470D01*
X145922560Y-94437963D01*
X145876179Y-94325714D01*
X145665385Y-94114552D01*
X145389829Y-94000131D01*
X145091460Y-93999870D01*
X144869790Y-94091462D01*
X144649839Y-94000131D01*
X144351470Y-93999870D01*
X144075714Y-94113811D01*
X143864552Y-94324605D01*
X143750131Y-94600161D01*
X143749870Y-94898530D01*
X143863811Y-95174286D01*
X144074605Y-95385448D01*
X144350161Y-95499869D01*
X144648530Y-95500130D01*
X144870199Y-95408537D01*
X145090151Y-95499869D01*
X145388520Y-95500130D01*
X145664276Y-95386189D01*
X145875438Y-95175395D01*
X145989859Y-94899839D01*
X145990120Y-94601470D01*
X145990120Y-100327244D01*
X145886189Y-100075714D01*
X145675395Y-99864552D01*
X145399839Y-99750131D01*
X145101470Y-99749870D01*
X144825714Y-99863811D01*
X144614552Y-100074605D01*
X144500131Y-100350161D01*
X144499870Y-100648530D01*
X144613811Y-100924286D01*
X144824605Y-101135448D01*
X145100161Y-101249869D01*
X145398530Y-101250130D01*
X145674286Y-101136189D01*
X145885448Y-100925395D01*
X145999869Y-100649839D01*
X146000130Y-100351470D01*
X146000130Y-102351470D01*
X145886189Y-102075714D01*
X145675395Y-101864552D01*
X145399839Y-101750131D01*
X145101470Y-101749870D01*
X144825714Y-101863811D01*
X144614552Y-102074605D01*
X144500131Y-102350161D01*
X144499870Y-102648530D01*
X144613811Y-102924286D01*
X144824605Y-103135448D01*
X145100161Y-103249869D01*
X145398530Y-103250130D01*
X145674286Y-103136189D01*
X145885448Y-102925395D01*
X145999869Y-102649839D01*
X146000130Y-102351470D01*
X146000130Y-107851304D01*
X145999870Y-108148530D01*
X146113811Y-108424286D01*
X146324605Y-108635448D01*
X146600161Y-108749869D01*
X146898530Y-108750130D01*
X147174286Y-108636189D01*
X147385448Y-108425395D01*
X147499869Y-108149839D01*
X147500130Y-107851470D01*
X147500130Y-110433543D01*
X147269143Y-110528985D01*
X147190120Y-110607870D01*
X147190120Y-109411480D01*
X147076179Y-109135724D01*
X146865385Y-108924562D01*
X146589829Y-108810141D01*
X146291460Y-108809880D01*
X146105370Y-108886771D01*
X145920825Y-108810141D01*
X145622456Y-108809880D01*
X145346700Y-108923821D01*
X145135538Y-109134615D01*
X145021117Y-109410171D01*
X145020856Y-109708540D01*
X145134797Y-109984296D01*
X145345591Y-110195458D01*
X145621147Y-110309879D01*
X145919516Y-110310140D01*
X146105605Y-110233248D01*
X146290151Y-110309879D01*
X146588520Y-110310140D01*
X146864276Y-110196199D01*
X147075438Y-109985405D01*
X147189859Y-109709849D01*
X147190120Y-109411480D01*
X147190120Y-110607870D01*
X147029826Y-110767885D01*
X146900148Y-111080183D01*
X146899853Y-111418334D01*
X147028985Y-111730857D01*
X147267885Y-111970174D01*
X147580183Y-112099852D01*
X147918334Y-112100147D01*
X148230857Y-111971015D01*
X148470174Y-111732115D01*
X148599852Y-111419817D01*
X148600147Y-111081666D01*
X148600147Y-118850000D01*
X145668689Y-118850000D01*
X145980857Y-118721015D01*
X146220174Y-118482115D01*
X146349852Y-118169817D01*
X146350147Y-117831666D01*
X146221015Y-117519143D01*
X145982115Y-117279826D01*
X145669817Y-117150148D01*
X145416853Y-117149927D01*
X145386189Y-117075714D01*
X145175395Y-116864552D01*
X144899839Y-116750131D01*
X144601470Y-116749870D01*
X144325714Y-116863811D01*
X144114552Y-117074605D01*
X144000131Y-117350161D01*
X143999870Y-117648530D01*
X144113811Y-117924286D01*
X144324605Y-118135448D01*
X144600161Y-118249869D01*
X144683572Y-118249941D01*
X144778985Y-118480857D01*
X145017885Y-118720174D01*
X145330183Y-118849852D01*
X145499831Y-118850000D01*
X143250130Y-118850000D01*
X143250130Y-90851470D01*
X143136189Y-90575714D01*
X142925395Y-90364552D01*
X142649839Y-90250131D01*
X142351470Y-90249870D01*
X142075714Y-90363811D01*
X141864552Y-90574605D01*
X141750131Y-90850161D01*
X141749870Y-91148530D01*
X141863811Y-91424286D01*
X142074605Y-91635448D01*
X142350161Y-91749869D01*
X142648530Y-91750130D01*
X142924286Y-91636189D01*
X143135448Y-91425395D01*
X143249869Y-91149839D01*
X143250130Y-90851470D01*
X143250130Y-118850000D01*
X143000130Y-118850000D01*
X143000130Y-111101470D01*
X142906464Y-110874782D01*
X142999869Y-110649839D01*
X143000130Y-110351470D01*
X142906464Y-110124782D01*
X142999869Y-109899839D01*
X143000130Y-109601470D01*
X142886189Y-109325714D01*
X142675395Y-109114552D01*
X142399839Y-109000131D01*
X142250130Y-109000000D01*
X142250130Y-105351470D01*
X142136189Y-105075714D01*
X141925395Y-104864552D01*
X141649839Y-104750131D01*
X141351470Y-104749870D01*
X141075714Y-104863811D01*
X141000052Y-104939340D01*
X140925395Y-104864552D01*
X140649839Y-104750131D01*
X140351470Y-104749870D01*
X140075714Y-104863811D01*
X140000052Y-104939340D01*
X139925395Y-104864552D01*
X139649839Y-104750131D01*
X139351470Y-104749870D01*
X139075714Y-104863811D01*
X139000052Y-104939340D01*
X138925395Y-104864552D01*
X138649839Y-104750131D01*
X138351470Y-104749870D01*
X138075714Y-104863811D01*
X138000052Y-104939340D01*
X137925395Y-104864552D01*
X137649839Y-104750131D01*
X137351470Y-104749870D01*
X137075714Y-104863811D01*
X137000052Y-104939340D01*
X136925395Y-104864552D01*
X136649839Y-104750131D01*
X136351470Y-104749870D01*
X136250130Y-104791743D01*
X136250130Y-91101470D01*
X136136189Y-90825714D01*
X135925395Y-90614552D01*
X135649839Y-90500131D01*
X135351470Y-90499870D01*
X135075714Y-90613811D01*
X134864552Y-90824605D01*
X134750131Y-91100161D01*
X134749870Y-91398530D01*
X134863811Y-91674286D01*
X135074605Y-91885448D01*
X135350161Y-91999869D01*
X135648530Y-92000130D01*
X135924286Y-91886189D01*
X136135448Y-91675395D01*
X136249869Y-91399839D01*
X136250130Y-91101470D01*
X136250130Y-104791743D01*
X136075714Y-104863811D01*
X136030057Y-104909387D01*
X135925395Y-104804542D01*
X135649839Y-104690121D01*
X135351470Y-104689860D01*
X135075714Y-104803801D01*
X134864552Y-105014595D01*
X134750131Y-105290151D01*
X134750129Y-105291775D01*
X134649839Y-105250131D01*
X134351470Y-105249870D01*
X134075714Y-105363811D01*
X133864552Y-105574605D01*
X133750131Y-105850161D01*
X133749870Y-106148530D01*
X133863811Y-106424286D01*
X134074605Y-106635448D01*
X134350161Y-106749869D01*
X134648530Y-106750130D01*
X134924286Y-106636189D01*
X135135448Y-106425395D01*
X135249869Y-106149839D01*
X135249870Y-106148214D01*
X135350161Y-106189859D01*
X135648530Y-106190120D01*
X135924286Y-106076179D01*
X135969942Y-106030602D01*
X136074605Y-106135448D01*
X136350161Y-106249869D01*
X136648530Y-106250130D01*
X136924286Y-106136189D01*
X136999947Y-106060659D01*
X137074605Y-106135448D01*
X137350161Y-106249869D01*
X137648530Y-106250130D01*
X137924286Y-106136189D01*
X137999947Y-106060659D01*
X138074605Y-106135448D01*
X138350161Y-106249869D01*
X138648530Y-106250130D01*
X138924286Y-106136189D01*
X138999947Y-106060659D01*
X139074605Y-106135448D01*
X139350161Y-106249869D01*
X139648530Y-106250130D01*
X139924286Y-106136189D01*
X139999947Y-106060659D01*
X140074605Y-106135448D01*
X140350161Y-106249869D01*
X140648530Y-106250130D01*
X140924286Y-106136189D01*
X140999947Y-106060659D01*
X141074605Y-106135448D01*
X141350161Y-106249869D01*
X141648530Y-106250130D01*
X141924286Y-106136189D01*
X142135448Y-105925395D01*
X142249869Y-105649839D01*
X142250130Y-105351470D01*
X142250130Y-109000000D01*
X142101470Y-108999870D01*
X141825714Y-109113811D01*
X141614552Y-109324605D01*
X141500131Y-109600161D01*
X141499870Y-109898530D01*
X141593535Y-110125217D01*
X141500131Y-110350161D01*
X141499870Y-110648530D01*
X141593535Y-110875217D01*
X141500131Y-111100161D01*
X141499870Y-111398530D01*
X141613811Y-111674286D01*
X141824605Y-111885448D01*
X142100161Y-111999869D01*
X142398530Y-112000130D01*
X142674286Y-111886189D01*
X142885448Y-111675395D01*
X142999869Y-111399839D01*
X143000130Y-111101470D01*
X143000130Y-118850000D01*
X137500130Y-118850000D01*
X137500130Y-110851470D01*
X137386189Y-110575714D01*
X137175395Y-110364552D01*
X136899839Y-110250131D01*
X136601470Y-110249870D01*
X136325714Y-110363811D01*
X136114552Y-110574605D01*
X136000131Y-110850161D01*
X135999870Y-111148530D01*
X136113811Y-111424286D01*
X136324605Y-111635448D01*
X136600161Y-111749869D01*
X136898530Y-111750130D01*
X137174286Y-111636189D01*
X137385448Y-111425395D01*
X137499869Y-111149839D01*
X137500130Y-110851470D01*
X137500130Y-118850000D01*
X133250130Y-118850000D01*
X133250130Y-101601470D01*
X133136189Y-101325714D01*
X132925395Y-101114552D01*
X132770437Y-101050207D01*
X132885448Y-100935398D01*
X132999869Y-100659842D01*
X133000130Y-100361473D01*
X132904392Y-100129772D01*
X132999869Y-99899839D01*
X133000130Y-99601470D01*
X132999340Y-99599558D01*
X132999340Y-98065665D01*
X132885399Y-97789909D01*
X132674605Y-97578747D01*
X132399049Y-97464326D01*
X132100680Y-97464065D01*
X131824924Y-97578006D01*
X131613762Y-97788800D01*
X131499341Y-98064356D01*
X131499080Y-98362725D01*
X131613021Y-98638481D01*
X131823815Y-98849643D01*
X132099371Y-98964064D01*
X132397740Y-98964325D01*
X132673496Y-98850384D01*
X132884658Y-98639590D01*
X132999079Y-98364034D01*
X132999340Y-98065665D01*
X132999340Y-99599558D01*
X132886189Y-99325714D01*
X132675395Y-99114552D01*
X132399839Y-99000131D01*
X132101470Y-98999870D01*
X131825714Y-99113811D01*
X131614552Y-99324605D01*
X131500131Y-99600161D01*
X131499870Y-99898530D01*
X131595607Y-100130230D01*
X131500131Y-100360164D01*
X131499870Y-100658533D01*
X131613811Y-100934289D01*
X131824605Y-101145451D01*
X131979562Y-101209795D01*
X131864552Y-101324605D01*
X131750131Y-101600161D01*
X131749870Y-101898530D01*
X131863811Y-102174286D01*
X132074605Y-102385448D01*
X132350161Y-102499869D01*
X132648530Y-102500130D01*
X132924286Y-102386189D01*
X133135448Y-102175395D01*
X133249869Y-101899839D01*
X133250130Y-101601470D01*
X133250130Y-118850000D01*
X131030251Y-118850000D01*
X131030251Y-113212843D01*
X130809967Y-112679714D01*
X130402431Y-112271467D01*
X130010133Y-112108570D01*
X130010133Y-96851470D01*
X129896192Y-96575714D01*
X129750130Y-96429397D01*
X129750130Y-91101470D01*
X129636189Y-90825714D01*
X129425395Y-90614552D01*
X129149839Y-90500131D01*
X128851470Y-90499870D01*
X128575714Y-90613811D01*
X128364552Y-90824605D01*
X128250131Y-91100161D01*
X128249870Y-91398530D01*
X128363811Y-91674286D01*
X128574605Y-91885448D01*
X128850161Y-91999869D01*
X129148530Y-92000130D01*
X129424286Y-91886189D01*
X129635448Y-91675395D01*
X129749869Y-91399839D01*
X129750130Y-91101470D01*
X129750130Y-96429397D01*
X129685398Y-96364552D01*
X129409842Y-96250131D01*
X129111473Y-96249870D01*
X128835717Y-96363811D01*
X128624555Y-96574605D01*
X128510134Y-96850161D01*
X128509873Y-97148530D01*
X128623814Y-97424286D01*
X128834608Y-97635448D01*
X129110164Y-97749869D01*
X129408533Y-97750130D01*
X129684289Y-97636189D01*
X129895451Y-97425395D01*
X130009872Y-97149839D01*
X130010133Y-96851470D01*
X130010133Y-112108570D01*
X129869688Y-112050252D01*
X129292843Y-112049749D01*
X129250130Y-112067397D01*
X129250130Y-108101470D01*
X129190120Y-107956235D01*
X129190120Y-103351470D01*
X129076179Y-103075714D01*
X128865385Y-102864552D01*
X128589829Y-102750131D01*
X128291460Y-102749870D01*
X128015704Y-102863811D01*
X128000130Y-102879357D01*
X128000130Y-98101470D01*
X127886189Y-97825714D01*
X127675395Y-97614552D01*
X127399839Y-97500131D01*
X127101470Y-97499870D01*
X126825714Y-97613811D01*
X126614552Y-97824605D01*
X126500131Y-98100161D01*
X126499870Y-98398530D01*
X126613811Y-98674286D01*
X126824605Y-98885448D01*
X127100161Y-98999869D01*
X127398530Y-99000130D01*
X127674286Y-98886189D01*
X127885448Y-98675395D01*
X127999869Y-98399839D01*
X128000130Y-98101470D01*
X128000130Y-102879357D01*
X127804542Y-103074605D01*
X127690121Y-103350161D01*
X127689860Y-103648530D01*
X127803801Y-103924286D01*
X128014595Y-104135448D01*
X128290151Y-104249869D01*
X128588520Y-104250130D01*
X128864276Y-104136189D01*
X129075438Y-103925395D01*
X129189859Y-103649839D01*
X129190120Y-103351470D01*
X129190120Y-107956235D01*
X129136189Y-107825714D01*
X128925395Y-107614552D01*
X128649839Y-107500131D01*
X128351470Y-107499870D01*
X128075714Y-107613811D01*
X127864552Y-107824605D01*
X127750131Y-108100161D01*
X127749870Y-108398530D01*
X127863811Y-108674286D01*
X128074605Y-108885448D01*
X128350161Y-108999869D01*
X128648530Y-109000130D01*
X128924286Y-108886189D01*
X129135448Y-108675395D01*
X129249869Y-108399839D01*
X129250130Y-108101470D01*
X129250130Y-112067397D01*
X128759714Y-112270033D01*
X128351467Y-112677569D01*
X128130252Y-113210312D01*
X128129749Y-113787157D01*
X128350033Y-114320286D01*
X128757569Y-114728533D01*
X129290312Y-114949748D01*
X129867157Y-114950251D01*
X130400286Y-114729967D01*
X130808533Y-114322431D01*
X131029748Y-113789688D01*
X131030251Y-113212843D01*
X131030251Y-118850000D01*
X126750130Y-118850000D01*
X126750130Y-101351470D01*
X126636189Y-101075714D01*
X126425395Y-100864552D01*
X126149839Y-100750131D01*
X125851470Y-100749870D01*
X125575714Y-100863811D01*
X125364552Y-101074605D01*
X125250131Y-101350161D01*
X125249870Y-101648530D01*
X125363811Y-101924286D01*
X125574605Y-102135448D01*
X125850161Y-102249869D01*
X126148530Y-102250130D01*
X126424286Y-102136189D01*
X126635448Y-101925395D01*
X126749869Y-101649839D01*
X126750130Y-101351470D01*
X126750130Y-118850000D01*
X126156294Y-118850000D01*
X126156294Y-113794799D01*
X126143030Y-113138523D01*
X125917401Y-112593804D01*
X125643061Y-112498361D01*
X125501639Y-112639782D01*
X125501639Y-112356939D01*
X125406196Y-112082599D01*
X124794799Y-111843706D01*
X124138523Y-111856970D01*
X123593804Y-112082599D01*
X123498361Y-112356939D01*
X124500000Y-113358579D01*
X125501639Y-112356939D01*
X125501639Y-112639782D01*
X124641421Y-113500000D01*
X125643061Y-114501639D01*
X125917401Y-114406196D01*
X126156294Y-113794799D01*
X126156294Y-118850000D01*
X125501639Y-118850000D01*
X125501639Y-114643061D01*
X124500000Y-113641421D01*
X123498361Y-114643061D01*
X123593804Y-114917401D01*
X124205201Y-115156294D01*
X124861477Y-115143030D01*
X125406196Y-114917401D01*
X125501639Y-114643061D01*
X125501639Y-118850000D01*
X123150000Y-118850000D01*
X123150000Y-114429644D01*
X123356939Y-114501639D01*
X124358579Y-113500000D01*
X123356939Y-112498361D01*
X123150000Y-112570355D01*
X123150000Y-109024342D01*
X125150000Y-103024342D01*
X125150000Y-98000000D01*
X125150000Y-89150000D01*
X158295661Y-89150000D01*
X158100331Y-89620409D01*
X158099671Y-90376275D01*
X158388319Y-91074857D01*
X158662167Y-91349184D01*
X156833000Y-91349184D01*
X156661417Y-91382475D01*
X156510610Y-91481539D01*
X156409662Y-91631090D01*
X156374184Y-91808000D01*
X156374184Y-93332000D01*
X156407475Y-93503583D01*
X156506539Y-93654390D01*
X156656090Y-93755338D01*
X156833000Y-93790816D01*
X159119000Y-93790816D01*
X159290583Y-93757525D01*
X159441390Y-93658461D01*
X159542338Y-93508910D01*
X159577816Y-93332000D01*
X159577816Y-93162171D01*
X159754778Y-93427013D01*
X160147979Y-93689742D01*
X160394181Y-93738714D01*
X160394181Y-93738714D01*
G37*
X160394181Y-93738714D02*
X160010263Y-93843750D01*
X159573854Y-94182276D01*
X159400756Y-94485760D01*
X159245222Y-94252987D01*
X158852021Y-93990258D01*
X158388209Y-93898000D01*
X157563791Y-93898000D01*
X157099979Y-93990258D01*
X156706778Y-94252987D01*
X156444049Y-94646188D01*
X156351791Y-95110000D01*
X156444049Y-95573812D01*
X156706778Y-95967013D01*
X157099979Y-96229742D01*
X157563791Y-96322000D01*
X158388209Y-96322000D01*
X158852021Y-96229742D01*
X159245222Y-95967013D01*
X159400756Y-95734239D01*
X159573854Y-96037724D01*
X160010263Y-96376250D01*
X160023969Y-96380000D01*
X160010263Y-96383750D01*
X159573854Y-96722276D01*
X159400756Y-97025760D01*
X159245222Y-96792987D01*
X158852021Y-96530258D01*
X158388209Y-96438000D01*
X157563791Y-96438000D01*
X157099979Y-96530258D01*
X156706778Y-96792987D01*
X156444049Y-97186188D01*
X156351791Y-97650000D01*
X156444049Y-98113812D01*
X156706778Y-98507013D01*
X157099979Y-98769742D01*
X157563791Y-98862000D01*
X158388209Y-98862000D01*
X158852021Y-98769742D01*
X159245222Y-98507013D01*
X159400756Y-98274239D01*
X159573854Y-98577724D01*
X160010263Y-98916250D01*
X160023969Y-98920000D01*
X160010263Y-98923750D01*
X159573854Y-99262276D01*
X159400756Y-99565760D01*
X159245222Y-99332987D01*
X158852021Y-99070258D01*
X158388209Y-98978000D01*
X157563791Y-98978000D01*
X157099979Y-99070258D01*
X156706778Y-99332987D01*
X156444049Y-99726188D01*
X156351791Y-100190000D01*
X156444049Y-100653812D01*
X156706778Y-101047013D01*
X157099979Y-101309742D01*
X157563791Y-101402000D01*
X158388209Y-101402000D01*
X158852021Y-101309742D01*
X159245222Y-101047013D01*
X159400756Y-100814239D01*
X159573854Y-101117724D01*
X160010263Y-101456250D01*
X160023969Y-101460000D01*
X160010263Y-101463750D01*
X159573854Y-101802276D01*
X159400756Y-102105760D01*
X159245222Y-101872987D01*
X158852021Y-101610258D01*
X158388209Y-101518000D01*
X157563791Y-101518000D01*
X157099979Y-101610258D01*
X156706778Y-101872987D01*
X156444049Y-102266188D01*
X156351791Y-102730000D01*
X156444049Y-103193812D01*
X156706778Y-103587013D01*
X157099979Y-103849742D01*
X157563791Y-103942000D01*
X158388209Y-103942000D01*
X158852021Y-103849742D01*
X159245222Y-103587013D01*
X159400756Y-103354239D01*
X159573854Y-103657724D01*
X160010263Y-103996250D01*
X160023969Y-104000000D01*
X160010263Y-104003750D01*
X159573854Y-104342276D01*
X159400756Y-104645760D01*
X159245222Y-104412987D01*
X158852021Y-104150258D01*
X158388209Y-104058000D01*
X157563791Y-104058000D01*
X157099979Y-104150258D01*
X156706778Y-104412987D01*
X156444049Y-104806188D01*
X156351791Y-105270000D01*
X156444049Y-105733812D01*
X156706778Y-106127013D01*
X157099979Y-106389742D01*
X157563791Y-106482000D01*
X158388209Y-106482000D01*
X158852021Y-106389742D01*
X159245222Y-106127013D01*
X159400756Y-105894239D01*
X159573854Y-106197724D01*
X160010263Y-106536250D01*
X160023969Y-106540000D01*
X160010263Y-106543750D01*
X159573854Y-106882276D01*
X159400756Y-107185760D01*
X159245222Y-106952987D01*
X158852021Y-106690258D01*
X158388209Y-106598000D01*
X157563791Y-106598000D01*
X157099979Y-106690258D01*
X156706778Y-106952987D01*
X156444049Y-107346188D01*
X156351791Y-107810000D01*
X156444049Y-108273812D01*
X156706778Y-108667013D01*
X157099979Y-108929742D01*
X157563791Y-109022000D01*
X158388209Y-109022000D01*
X158852021Y-108929742D01*
X159245222Y-108667013D01*
X159400756Y-108434239D01*
X159573854Y-108737724D01*
X160010263Y-109076250D01*
X160023969Y-109080000D01*
X160010263Y-109083750D01*
X159573854Y-109422276D01*
X159400756Y-109725760D01*
X159245222Y-109492987D01*
X158852021Y-109230258D01*
X158388209Y-109138000D01*
X157563791Y-109138000D01*
X157099979Y-109230258D01*
X156706778Y-109492987D01*
X156444049Y-109886188D01*
X156351791Y-110350000D01*
X156444049Y-110813812D01*
X156706778Y-111207013D01*
X157099979Y-111469742D01*
X157563791Y-111562000D01*
X158388209Y-111562000D01*
X158852021Y-111469742D01*
X159245222Y-111207013D01*
X159400756Y-110974239D01*
X159573854Y-111277724D01*
X160010263Y-111616250D01*
X160023969Y-111620000D01*
X160010263Y-111623750D01*
X159573854Y-111962276D01*
X159400756Y-112265760D01*
X159245222Y-112032987D01*
X158852021Y-111770258D01*
X158388209Y-111678000D01*
X157563791Y-111678000D01*
X157099979Y-111770258D01*
X156706778Y-112032987D01*
X156444049Y-112426188D01*
X156351791Y-112890000D01*
X156444049Y-113353812D01*
X156706778Y-113747013D01*
X157099979Y-114009742D01*
X157563791Y-114102000D01*
X158388209Y-114102000D01*
X158852021Y-114009742D01*
X159245222Y-113747013D01*
X159400756Y-113514239D01*
X159573854Y-113817724D01*
X160010263Y-114156250D01*
X160023969Y-114160000D01*
X160010263Y-114163750D01*
X159573854Y-114502276D01*
X159400756Y-114805760D01*
X159245222Y-114572987D01*
X158852021Y-114310258D01*
X158388209Y-114218000D01*
X157563791Y-114218000D01*
X157099979Y-114310258D01*
X156706778Y-114572987D01*
X156444049Y-114966188D01*
X156351791Y-115430000D01*
X156444049Y-115893812D01*
X156706778Y-116287013D01*
X157099979Y-116549742D01*
X157563791Y-116642000D01*
X158388209Y-116642000D01*
X158741394Y-116571746D01*
X158390198Y-116922331D01*
X158100331Y-117620409D01*
X158099671Y-118376275D01*
X158295410Y-118850000D01*
X154850147Y-118850000D01*
X154850147Y-110831666D01*
X154721015Y-110519143D01*
X154482115Y-110279826D01*
X154350147Y-110225027D01*
X154350147Y-104581666D01*
X154315778Y-104498486D01*
X154315778Y-100083302D01*
X154186646Y-99770779D01*
X153947746Y-99531462D01*
X153635448Y-99401784D01*
X153297297Y-99401489D01*
X152984774Y-99530621D01*
X152745457Y-99769521D01*
X152615779Y-100081819D01*
X152615484Y-100419970D01*
X152744616Y-100732493D01*
X152983516Y-100971810D01*
X153295814Y-101101488D01*
X153633965Y-101101783D01*
X153946488Y-100972651D01*
X154185805Y-100733751D01*
X154315483Y-100421453D01*
X154315778Y-100083302D01*
X154315778Y-104498486D01*
X154221015Y-104269143D01*
X153982115Y-104029826D01*
X153669817Y-103900148D01*
X153331666Y-103899853D01*
X153019143Y-104028985D01*
X152779826Y-104267885D01*
X152650148Y-104580183D01*
X152649853Y-104918334D01*
X152778985Y-105230857D01*
X153017885Y-105470174D01*
X153330183Y-105599852D01*
X153668334Y-105600147D01*
X153980857Y-105471015D01*
X154220174Y-105232115D01*
X154349852Y-104919817D01*
X154350147Y-104581666D01*
X154350147Y-110225027D01*
X154169817Y-110150148D01*
X153831666Y-110149853D01*
X153519143Y-110278985D01*
X153279826Y-110517885D01*
X153150148Y-110830183D01*
X153149853Y-111168334D01*
X153278985Y-111480857D01*
X153517885Y-111720174D01*
X153830183Y-111849852D01*
X154168334Y-111850147D01*
X154480857Y-111721015D01*
X154720174Y-111482115D01*
X154849852Y-111169817D01*
X154850147Y-110831666D01*
X154850147Y-118850000D01*
X151310140Y-118850000D01*
X151310140Y-108351470D01*
X151196199Y-108075714D01*
X150985405Y-107864552D01*
X150709849Y-107750131D01*
X150411480Y-107749870D01*
X150135724Y-107863811D01*
X149924562Y-108074605D01*
X149810141Y-108350161D01*
X149809880Y-108648530D01*
X149923821Y-108924286D01*
X150134615Y-109135448D01*
X150410171Y-109249869D01*
X150708540Y-109250130D01*
X150984296Y-109136189D01*
X151195458Y-108925395D01*
X151309879Y-108649839D01*
X151310140Y-108351470D01*
X151310140Y-118850000D01*
X148600147Y-118850000D01*
X148600147Y-111081666D01*
X148471015Y-110769143D01*
X148232115Y-110529826D01*
X147919817Y-110400148D01*
X147581666Y-110399853D01*
X147500130Y-110433543D01*
X147500130Y-107851470D01*
X147386189Y-107575714D01*
X147175395Y-107364552D01*
X146899839Y-107250131D01*
X146601470Y-107249870D01*
X146325714Y-107363811D01*
X146114552Y-107574605D01*
X146000131Y-107850161D01*
X146000130Y-107851304D01*
X146000130Y-102351470D01*
X146000130Y-100351470D01*
X145990120Y-100327244D01*
X145990120Y-94601470D01*
X145922560Y-94437963D01*
X145922560Y-89851470D01*
X145808619Y-89575714D01*
X145597825Y-89364552D01*
X145322269Y-89250131D01*
X145023900Y-89249870D01*
X144836093Y-89327470D01*
X144649839Y-89250131D01*
X144351470Y-89249870D01*
X144075714Y-89363811D01*
X143864552Y-89574605D01*
X143750131Y-89850161D01*
X143749870Y-90148530D01*
X143863811Y-90424286D01*
X144074605Y-90635448D01*
X144350161Y-90749869D01*
X144648530Y-90750130D01*
X144836336Y-90672529D01*
X145022591Y-90749869D01*
X145320960Y-90750130D01*
X145596716Y-90636189D01*
X145807878Y-90425395D01*
X145922299Y-90149839D01*
X145922560Y-89851470D01*
X145922560Y-94437963D01*
X145876179Y-94325714D01*
X145665385Y-94114552D01*
X145389829Y-94000131D01*
X145091460Y-93999870D01*
X144869790Y-94091462D01*
X144649839Y-94000131D01*
X144351470Y-93999870D01*
X144075714Y-94113811D01*
X143864552Y-94324605D01*
X143750131Y-94600161D01*
X143749870Y-94898530D01*
X143863811Y-95174286D01*
X144074605Y-95385448D01*
X144350161Y-95499869D01*
X144648530Y-95500130D01*
X144870199Y-95408537D01*
X145090151Y-95499869D01*
X145388520Y-95500130D01*
X145664276Y-95386189D01*
X145875438Y-95175395D01*
X145989859Y-94899839D01*
X145990120Y-94601470D01*
X145990120Y-100327244D01*
X145886189Y-100075714D01*
X145675395Y-99864552D01*
X145399839Y-99750131D01*
X145101470Y-99749870D01*
X144825714Y-99863811D01*
X144614552Y-100074605D01*
X144500131Y-100350161D01*
X144499870Y-100648530D01*
X144613811Y-100924286D01*
X144824605Y-101135448D01*
X145100161Y-101249869D01*
X145398530Y-101250130D01*
X145674286Y-101136189D01*
X145885448Y-100925395D01*
X145999869Y-100649839D01*
X146000130Y-100351470D01*
X146000130Y-102351470D01*
X145886189Y-102075714D01*
X145675395Y-101864552D01*
X145399839Y-101750131D01*
X145101470Y-101749870D01*
X144825714Y-101863811D01*
X144614552Y-102074605D01*
X144500131Y-102350161D01*
X144499870Y-102648530D01*
X144613811Y-102924286D01*
X144824605Y-103135448D01*
X145100161Y-103249869D01*
X145398530Y-103250130D01*
X145674286Y-103136189D01*
X145885448Y-102925395D01*
X145999869Y-102649839D01*
X146000130Y-102351470D01*
X146000130Y-107851304D01*
X145999870Y-108148530D01*
X146113811Y-108424286D01*
X146324605Y-108635448D01*
X146600161Y-108749869D01*
X146898530Y-108750130D01*
X147174286Y-108636189D01*
X147385448Y-108425395D01*
X147499869Y-108149839D01*
X147500130Y-107851470D01*
X147500130Y-110433543D01*
X147269143Y-110528985D01*
X147190120Y-110607870D01*
X147190120Y-109411480D01*
X147076179Y-109135724D01*
X146865385Y-108924562D01*
X146589829Y-108810141D01*
X146291460Y-108809880D01*
X146105370Y-108886771D01*
X145920825Y-108810141D01*
X145622456Y-108809880D01*
X145346700Y-108923821D01*
X145135538Y-109134615D01*
X145021117Y-109410171D01*
X145020856Y-109708540D01*
X145134797Y-109984296D01*
X145345591Y-110195458D01*
X145621147Y-110309879D01*
X145919516Y-110310140D01*
X146105605Y-110233248D01*
X146290151Y-110309879D01*
X146588520Y-110310140D01*
X146864276Y-110196199D01*
X147075438Y-109985405D01*
X147189859Y-109709849D01*
X147190120Y-109411480D01*
X147190120Y-110607870D01*
X147029826Y-110767885D01*
X146900148Y-111080183D01*
X146899853Y-111418334D01*
X147028985Y-111730857D01*
X147267885Y-111970174D01*
X147580183Y-112099852D01*
X147918334Y-112100147D01*
X148230857Y-111971015D01*
X148470174Y-111732115D01*
X148599852Y-111419817D01*
X148600147Y-111081666D01*
X148600147Y-118850000D01*
X145668689Y-118850000D01*
X145980857Y-118721015D01*
X146220174Y-118482115D01*
X146349852Y-118169817D01*
X146350147Y-117831666D01*
X146221015Y-117519143D01*
X145982115Y-117279826D01*
X145669817Y-117150148D01*
X145416853Y-117149927D01*
X145386189Y-117075714D01*
X145175395Y-116864552D01*
X144899839Y-116750131D01*
X144601470Y-116749870D01*
X144325714Y-116863811D01*
X144114552Y-117074605D01*
X144000131Y-117350161D01*
X143999870Y-117648530D01*
X144113811Y-117924286D01*
X144324605Y-118135448D01*
X144600161Y-118249869D01*
X144683572Y-118249941D01*
X144778985Y-118480857D01*
X145017885Y-118720174D01*
X145330183Y-118849852D01*
X145499831Y-118850000D01*
X143250130Y-118850000D01*
X143250130Y-90851470D01*
X143136189Y-90575714D01*
X142925395Y-90364552D01*
X142649839Y-90250131D01*
X142351470Y-90249870D01*
X142075714Y-90363811D01*
X141864552Y-90574605D01*
X141750131Y-90850161D01*
X141749870Y-91148530D01*
X141863811Y-91424286D01*
X142074605Y-91635448D01*
X142350161Y-91749869D01*
X142648530Y-91750130D01*
X142924286Y-91636189D01*
X143135448Y-91425395D01*
X143249869Y-91149839D01*
X143250130Y-90851470D01*
X143250130Y-118850000D01*
X143000130Y-118850000D01*
X143000130Y-111101470D01*
X142906464Y-110874782D01*
X142999869Y-110649839D01*
X143000130Y-110351470D01*
X142906464Y-110124782D01*
X142999869Y-109899839D01*
X143000130Y-109601470D01*
X142886189Y-109325714D01*
X142675395Y-109114552D01*
X142399839Y-109000131D01*
X142250130Y-109000000D01*
X142250130Y-105351470D01*
X142136189Y-105075714D01*
X141925395Y-104864552D01*
X141649839Y-104750131D01*
X141351470Y-104749870D01*
X141075714Y-104863811D01*
X141000052Y-104939340D01*
X140925395Y-104864552D01*
X140649839Y-104750131D01*
X140351470Y-104749870D01*
X140075714Y-104863811D01*
X140000052Y-104939340D01*
X139925395Y-104864552D01*
X139649839Y-104750131D01*
X139351470Y-104749870D01*
X139075714Y-104863811D01*
X139000052Y-104939340D01*
X138925395Y-104864552D01*
X138649839Y-104750131D01*
X138351470Y-104749870D01*
X138075714Y-104863811D01*
X138000052Y-104939340D01*
X137925395Y-104864552D01*
X137649839Y-104750131D01*
X137351470Y-104749870D01*
X137075714Y-104863811D01*
X137000052Y-104939340D01*
X136925395Y-104864552D01*
X136649839Y-104750131D01*
X136351470Y-104749870D01*
X136250130Y-104791743D01*
X136250130Y-91101470D01*
X136136189Y-90825714D01*
X135925395Y-90614552D01*
X135649839Y-90500131D01*
X135351470Y-90499870D01*
X135075714Y-90613811D01*
X134864552Y-90824605D01*
X134750131Y-91100161D01*
X134749870Y-91398530D01*
X134863811Y-91674286D01*
X135074605Y-91885448D01*
X135350161Y-91999869D01*
X135648530Y-92000130D01*
X135924286Y-91886189D01*
X136135448Y-91675395D01*
X136249869Y-91399839D01*
X136250130Y-91101470D01*
X136250130Y-104791743D01*
X136075714Y-104863811D01*
X136030057Y-104909387D01*
X135925395Y-104804542D01*
X135649839Y-104690121D01*
X135351470Y-104689860D01*
X135075714Y-104803801D01*
X134864552Y-105014595D01*
X134750131Y-105290151D01*
X134750129Y-105291775D01*
X134649839Y-105250131D01*
X134351470Y-105249870D01*
X134075714Y-105363811D01*
X133864552Y-105574605D01*
X133750131Y-105850161D01*
X133749870Y-106148530D01*
X133863811Y-106424286D01*
X134074605Y-106635448D01*
X134350161Y-106749869D01*
X134648530Y-106750130D01*
X134924286Y-106636189D01*
X135135448Y-106425395D01*
X135249869Y-106149839D01*
X135249870Y-106148214D01*
X135350161Y-106189859D01*
X135648530Y-106190120D01*
X135924286Y-106076179D01*
X135969942Y-106030602D01*
X136074605Y-106135448D01*
X136350161Y-106249869D01*
X136648530Y-106250130D01*
X136924286Y-106136189D01*
X136999947Y-106060659D01*
X137074605Y-106135448D01*
X137350161Y-106249869D01*
X137648530Y-106250130D01*
X137924286Y-106136189D01*
X137999947Y-106060659D01*
X138074605Y-106135448D01*
X138350161Y-106249869D01*
X138648530Y-106250130D01*
X138924286Y-106136189D01*
X138999947Y-106060659D01*
X139074605Y-106135448D01*
X139350161Y-106249869D01*
X139648530Y-106250130D01*
X139924286Y-106136189D01*
X139999947Y-106060659D01*
X140074605Y-106135448D01*
X140350161Y-106249869D01*
X140648530Y-106250130D01*
X140924286Y-106136189D01*
X140999947Y-106060659D01*
X141074605Y-106135448D01*
X141350161Y-106249869D01*
X141648530Y-106250130D01*
X141924286Y-106136189D01*
X142135448Y-105925395D01*
X142249869Y-105649839D01*
X142250130Y-105351470D01*
X142250130Y-109000000D01*
X142101470Y-108999870D01*
X141825714Y-109113811D01*
X141614552Y-109324605D01*
X141500131Y-109600161D01*
X141499870Y-109898530D01*
X141593535Y-110125217D01*
X141500131Y-110350161D01*
X141499870Y-110648530D01*
X141593535Y-110875217D01*
X141500131Y-111100161D01*
X141499870Y-111398530D01*
X141613811Y-111674286D01*
X141824605Y-111885448D01*
X142100161Y-111999869D01*
X142398530Y-112000130D01*
X142674286Y-111886189D01*
X142885448Y-111675395D01*
X142999869Y-111399839D01*
X143000130Y-111101470D01*
X143000130Y-118850000D01*
X137500130Y-118850000D01*
X137500130Y-110851470D01*
X137386189Y-110575714D01*
X137175395Y-110364552D01*
X136899839Y-110250131D01*
X136601470Y-110249870D01*
X136325714Y-110363811D01*
X136114552Y-110574605D01*
X136000131Y-110850161D01*
X135999870Y-111148530D01*
X136113811Y-111424286D01*
X136324605Y-111635448D01*
X136600161Y-111749869D01*
X136898530Y-111750130D01*
X137174286Y-111636189D01*
X137385448Y-111425395D01*
X137499869Y-111149839D01*
X137500130Y-110851470D01*
X137500130Y-118850000D01*
X133250130Y-118850000D01*
X133250130Y-101601470D01*
X133136189Y-101325714D01*
X132925395Y-101114552D01*
X132770437Y-101050207D01*
X132885448Y-100935398D01*
X132999869Y-100659842D01*
X133000130Y-100361473D01*
X132904392Y-100129772D01*
X132999869Y-99899839D01*
X133000130Y-99601470D01*
X132999340Y-99599558D01*
X132999340Y-98065665D01*
X132885399Y-97789909D01*
X132674605Y-97578747D01*
X132399049Y-97464326D01*
X132100680Y-97464065D01*
X131824924Y-97578006D01*
X131613762Y-97788800D01*
X131499341Y-98064356D01*
X131499080Y-98362725D01*
X131613021Y-98638481D01*
X131823815Y-98849643D01*
X132099371Y-98964064D01*
X132397740Y-98964325D01*
X132673496Y-98850384D01*
X132884658Y-98639590D01*
X132999079Y-98364034D01*
X132999340Y-98065665D01*
X132999340Y-99599558D01*
X132886189Y-99325714D01*
X132675395Y-99114552D01*
X132399839Y-99000131D01*
X132101470Y-98999870D01*
X131825714Y-99113811D01*
X131614552Y-99324605D01*
X131500131Y-99600161D01*
X131499870Y-99898530D01*
X131595607Y-100130230D01*
X131500131Y-100360164D01*
X131499870Y-100658533D01*
X131613811Y-100934289D01*
X131824605Y-101145451D01*
X131979562Y-101209795D01*
X131864552Y-101324605D01*
X131750131Y-101600161D01*
X131749870Y-101898530D01*
X131863811Y-102174286D01*
X132074605Y-102385448D01*
X132350161Y-102499869D01*
X132648530Y-102500130D01*
X132924286Y-102386189D01*
X133135448Y-102175395D01*
X133249869Y-101899839D01*
X133250130Y-101601470D01*
X133250130Y-118850000D01*
X131030251Y-118850000D01*
X131030251Y-113212843D01*
X130809967Y-112679714D01*
X130402431Y-112271467D01*
X130010133Y-112108570D01*
X130010133Y-96851470D01*
X129896192Y-96575714D01*
X129750130Y-96429397D01*
X129750130Y-91101470D01*
X129636189Y-90825714D01*
X129425395Y-90614552D01*
X129149839Y-90500131D01*
X128851470Y-90499870D01*
X128575714Y-90613811D01*
X128364552Y-90824605D01*
X128250131Y-91100161D01*
X128249870Y-91398530D01*
X128363811Y-91674286D01*
X128574605Y-91885448D01*
X128850161Y-91999869D01*
X129148530Y-92000130D01*
X129424286Y-91886189D01*
X129635448Y-91675395D01*
X129749869Y-91399839D01*
X129750130Y-91101470D01*
X129750130Y-96429397D01*
X129685398Y-96364552D01*
X129409842Y-96250131D01*
X129111473Y-96249870D01*
X128835717Y-96363811D01*
X128624555Y-96574605D01*
X128510134Y-96850161D01*
X128509873Y-97148530D01*
X128623814Y-97424286D01*
X128834608Y-97635448D01*
X129110164Y-97749869D01*
X129408533Y-97750130D01*
X129684289Y-97636189D01*
X129895451Y-97425395D01*
X130009872Y-97149839D01*
X130010133Y-96851470D01*
X130010133Y-112108570D01*
X129869688Y-112050252D01*
X129292843Y-112049749D01*
X129250130Y-112067397D01*
X129250130Y-108101470D01*
X129190120Y-107956235D01*
X129190120Y-103351470D01*
X129076179Y-103075714D01*
X128865385Y-102864552D01*
X128589829Y-102750131D01*
X128291460Y-102749870D01*
X128015704Y-102863811D01*
X128000130Y-102879357D01*
X128000130Y-98101470D01*
X127886189Y-97825714D01*
X127675395Y-97614552D01*
X127399839Y-97500131D01*
X127101470Y-97499870D01*
X126825714Y-97613811D01*
X126614552Y-97824605D01*
X126500131Y-98100161D01*
X126499870Y-98398530D01*
X126613811Y-98674286D01*
X126824605Y-98885448D01*
X127100161Y-98999869D01*
X127398530Y-99000130D01*
X127674286Y-98886189D01*
X127885448Y-98675395D01*
X127999869Y-98399839D01*
X128000130Y-98101470D01*
X128000130Y-102879357D01*
X127804542Y-103074605D01*
X127690121Y-103350161D01*
X127689860Y-103648530D01*
X127803801Y-103924286D01*
X128014595Y-104135448D01*
X128290151Y-104249869D01*
X128588520Y-104250130D01*
X128864276Y-104136189D01*
X129075438Y-103925395D01*
X129189859Y-103649839D01*
X129190120Y-103351470D01*
X129190120Y-107956235D01*
X129136189Y-107825714D01*
X128925395Y-107614552D01*
X128649839Y-107500131D01*
X128351470Y-107499870D01*
X128075714Y-107613811D01*
X127864552Y-107824605D01*
X127750131Y-108100161D01*
X127749870Y-108398530D01*
X127863811Y-108674286D01*
X128074605Y-108885448D01*
X128350161Y-108999869D01*
X128648530Y-109000130D01*
X128924286Y-108886189D01*
X129135448Y-108675395D01*
X129249869Y-108399839D01*
X129250130Y-108101470D01*
X129250130Y-112067397D01*
X128759714Y-112270033D01*
X128351467Y-112677569D01*
X128130252Y-113210312D01*
X128129749Y-113787157D01*
X128350033Y-114320286D01*
X128757569Y-114728533D01*
X129290312Y-114949748D01*
X129867157Y-114950251D01*
X130400286Y-114729967D01*
X130808533Y-114322431D01*
X131029748Y-113789688D01*
X131030251Y-113212843D01*
X131030251Y-118850000D01*
X126750130Y-118850000D01*
X126750130Y-101351470D01*
X126636189Y-101075714D01*
X126425395Y-100864552D01*
X126149839Y-100750131D01*
X125851470Y-100749870D01*
X125575714Y-100863811D01*
X125364552Y-101074605D01*
X125250131Y-101350161D01*
X125249870Y-101648530D01*
X125363811Y-101924286D01*
X125574605Y-102135448D01*
X125850161Y-102249869D01*
X126148530Y-102250130D01*
X126424286Y-102136189D01*
X126635448Y-101925395D01*
X126749869Y-101649839D01*
X126750130Y-101351470D01*
X126750130Y-118850000D01*
X126156294Y-118850000D01*
X126156294Y-113794799D01*
X126143030Y-113138523D01*
X125917401Y-112593804D01*
X125643061Y-112498361D01*
X125501639Y-112639782D01*
X125501639Y-112356939D01*
X125406196Y-112082599D01*
X124794799Y-111843706D01*
X124138523Y-111856970D01*
X123593804Y-112082599D01*
X123498361Y-112356939D01*
X124500000Y-113358579D01*
X125501639Y-112356939D01*
X125501639Y-112639782D01*
X124641421Y-113500000D01*
X125643061Y-114501639D01*
X125917401Y-114406196D01*
X126156294Y-113794799D01*
X126156294Y-118850000D01*
X125501639Y-118850000D01*
X125501639Y-114643061D01*
X124500000Y-113641421D01*
X123498361Y-114643061D01*
X123593804Y-114917401D01*
X124205201Y-115156294D01*
X124861477Y-115143030D01*
X125406196Y-114917401D01*
X125501639Y-114643061D01*
X125501639Y-118850000D01*
X123150000Y-118850000D01*
X123150000Y-114429644D01*
X123356939Y-114501639D01*
X124358579Y-113500000D01*
X123356939Y-112498361D01*
X123150000Y-112570355D01*
X123150000Y-109024342D01*
X125150000Y-103024342D01*
X125150000Y-98000000D01*
X125150000Y-89150000D01*
X158295661Y-89150000D01*
X158100331Y-89620409D01*
X158099671Y-90376275D01*
X158388319Y-91074857D01*
X158662167Y-91349184D01*
X156833000Y-91349184D01*
X156661417Y-91382475D01*
X156510610Y-91481539D01*
X156409662Y-91631090D01*
X156374184Y-91808000D01*
X156374184Y-93332000D01*
X156407475Y-93503583D01*
X156506539Y-93654390D01*
X156656090Y-93755338D01*
X156833000Y-93790816D01*
X159119000Y-93790816D01*
X159290583Y-93757525D01*
X159441390Y-93658461D01*
X159542338Y-93508910D01*
X159577816Y-93332000D01*
X159577816Y-93162171D01*
X159754778Y-93427013D01*
X160147979Y-93689742D01*
X160394181Y-93738714D01*
M02*
