M48
;DRILL file {kicad (after 2015-mar-04 BZR unknown)-product} date Tue 07 Apr 2015 10:15:24 PM EDT
;FORMAT={-:-/ absolute / inch / decimal}
FMAT,2
INCH,TZ
T1C0.012
T2C0.016
T3C0.020
T4C0.022
T5C0.039
T6C0.114
%
G90
G05
M72
T1
X4.0059Y-3.7106
X4.0059Y-3.7992
X4.1043Y-3.7106
X4.1248Y-3.9067
X4.1426Y-3.5225
X4.1535Y-3.9961
X4.1732Y-3.7795
X4.1831Y-3.6713
X4.1929Y-3.5728
X4.1929Y-4.3996
X4.1929Y-4.439
X4.2028Y-3.5433
X4.2028Y-3.7693
X4.2028Y-3.7992
X4.2028Y-3.9075
X4.2051Y-3.6417
X4.2323Y-4.3996
X4.2323Y-4.439
X4.2421Y-4.0748
X4.252Y-3.9173
X4.252Y-4.2126
X4.3209Y-3.9862
X4.3474Y-3.9679
X4.408Y-3.4926
X4.4193Y-4.0945
X4.4291Y-3.5138
X4.439Y-4.0256
X4.4503Y-3.4926
X4.4732Y-3.5153
X4.4783Y-4.0256
X4.4882Y-4.0551
X4.4882Y-4.2126
X4.5079Y-3.5236
X4.5177Y-4.3504
X4.5374Y-4.0256
X4.5768Y-4.0256
X4.5866Y-3.5236
X4.6161Y-4.2323
X4.6161Y-4.2618
X4.6161Y-4.2913
X4.6296Y-3.8199
X4.6457Y-4.3209
X4.6457Y-3.6122
X4.6555Y-3.8878
X4.6752Y-4.0256
X4.6752Y-4.3209
X4.7047Y-4.3209
X4.7137Y-3.7492
X4.7343Y-3.7008
X4.7343Y-3.9469
X4.7343Y-4.3209
X4.7441Y-3.9961
X4.7441Y-4.0453
X4.7736Y-3.6122
X4.8402Y-3.7402
X4.8402Y-3.8091
X4.8425Y-3.622
X4.8425Y-3.6713
X4.8425Y-3.878
X4.8425Y-4.065
X4.8524Y-3.9272
X4.8524Y-4.0059
X4.8622Y-3.9665
X4.9606Y-3.6713
X4.9606Y-3.9272
X4.9606Y-3.9961
X4.9606Y-4.0748
X5.0098Y-3.8681
X5.0492Y-4.1535
X5.0567Y-4.0748
X5.0591Y-3.8189
X5.0591Y-4.2618
X5.0689Y-4.1929
X5.0787Y-3.5925
X5.089Y-3.8189
X5.2067Y-3.8667
X5.2067Y-3.9272
X5.2067Y-3.9571
X5.2067Y-3.8368
X5.2073Y-3.8966
X5.2165Y-4.0059
X5.2756Y-4.6457
X5.2953Y-4.1732
X5.3051Y-4.6457
X5.3323Y-4.2028
X5.3346Y-3.5925
X5.3346Y-4.1512
X5.3346Y-4.6457
X5.374Y-3.5925
X5.374Y-4.1535
X5.3839Y-4.3701
X5.4134Y-4.1535
X5.4232Y-4.4094
X5.4528Y-4.1535
X5.4528Y-4.4094
X5.4626Y-4.3307
X5.4921Y-4.1535
X5.502Y-4.3307
X5.5315Y-4.1535
X5.5709Y-4.1535
X5.6004Y-4.3209
X5.6004Y-4.3504
X5.6004Y-4.3799
X5.6102Y-3.5827
X5.6201Y-4.1929
X5.6496Y-3.5827
X5.6496Y-4.4291
X5.6496Y-4.4685
X5.6496Y-4.5079
X5.6496Y-4.5472
X5.6496Y-4.5866
X5.689Y-3.5433
X5.689Y-3.7303
X5.6988Y-4.626
X5.7087Y-3.9075
X5.7154Y-3.5433
X5.7181Y-3.7303
X5.7185Y-3.9567
X5.7185Y-4.0055
X5.7185Y-4.0354
X5.7247Y-4.6053
X5.7283Y-4.5079
X5.739Y-4.3134
X5.7654Y-4.3134
X5.7776Y-4.252
X5.8268Y-4.2618
X5.9276Y-4.2717
X5.935Y-4.2224
X6.0039Y-4.4094
X6.0225Y-3.6012
X6.0531Y-3.6024
X6.0827Y-3.6024
X6.1122Y-4.6063
T2
X4.3602Y-3.6811
X4.3602Y-3.7992
X4.4783Y-3.6811
X4.4783Y-3.7992
X5.7283Y-4.6457
X5.8169Y-4.3799
X6.042Y-3.9469
X6.0433Y-4.124
X6.063Y-4.3701
T5
X4.6016Y-4.4685
X4.7016Y-4.4685
X4.9016Y-4.4685
X5.1016Y-4.4685
X6.2295Y-3.6445
X6.2295Y-3.7445
X6.2295Y-3.8445
X6.2295Y-3.9445
X6.2295Y-4.0445
X6.2295Y-4.1445
X6.2295Y-4.2445
X6.2295Y-4.3445
X6.2295Y-4.4445
X6.2295Y-4.5445
X6.3295Y-3.6445
X6.3295Y-3.7445
X6.3295Y-3.8445
X6.3295Y-3.9445
X6.3295Y-4.0445
X6.3295Y-4.1445
X6.3295Y-4.2445
X6.3295Y-4.3445
X6.3295Y-4.4445
X6.3295Y-4.5445
T6
X4.0354Y-3.5433
X4.0354Y-4.6457
X6.2992Y-3.5433
X6.2992Y-4.6457
T3
X4.001Y-4.2028G85X3.9754Y-4.2028
G05
X4.001Y-4.4783G85X3.9754Y-4.4783
G05
T4
X4.0945Y-4.2362G85X4.0945Y-4.248
G05
X4.0945Y-4.4331G85X4.0945Y-4.4449
G05
T0
M30
