G04 #@! TF.FileFunction,Copper,L4,Bot,Signal*
%FSLAX46Y46*%
G04 Gerber Fmt 4.6, Leading zero omitted, Abs format (unit mm)*
G04 Created by KiCad (PCBNEW (after 2015-mar-04 BZR unknown)-product) date Tue 07 Apr 2015 10:15:23 PM EDT*
%MOMM*%
G01*
G04 APERTURE LIST*
%ADD10C,0.100000*%
%ADD11R,0.600000X1.450000*%
%ADD12R,2.286000X1.524000*%
%ADD13O,2.286000X1.524000*%
%ADD14C,2.000000*%
%ADD15C,0.800000*%
%ADD16O,1.550000X1.550000*%
%ADD17O,1.250000X1.250000*%
%ADD18R,0.600000X0.650000*%
%ADD19R,1.150000X1.450000*%
%ADD20R,0.650000X0.600000*%
%ADD21R,0.900000X1.300000*%
%ADD22R,0.800000X1.300000*%
%ADD23R,1.300000X0.900000*%
%ADD24R,1.300000X0.800000*%
%ADD25R,0.600000X0.600000*%
%ADD26R,1.100000X0.600000*%
%ADD27C,0.600000*%
%ADD28C,0.200000*%
%ADD29C,0.400000*%
%ADD30C,0.500000*%
%ADD31C,0.600000*%
%ADD32C,0.300000*%
G04 APERTURE END LIST*
D10*
D11*
X134500000Y-104250000D03*
X135500000Y-104250000D03*
X136500000Y-104250000D03*
X137500000Y-104250000D03*
X138500000Y-104250000D03*
X139500000Y-104250000D03*
X140500000Y-104250000D03*
X141500000Y-104250000D03*
D12*
X157976000Y-92570000D03*
D13*
X157976000Y-95110000D03*
X157976000Y-97650000D03*
X157976000Y-100190000D03*
X157976000Y-102730000D03*
X157976000Y-105270000D03*
X157976000Y-107810000D03*
X157976000Y-110350000D03*
X157976000Y-112890000D03*
X157976000Y-115430000D03*
X161024000Y-92570000D03*
X161024000Y-95110000D03*
X161024000Y-97650000D03*
X161024000Y-100190000D03*
X161024000Y-102730000D03*
X161024000Y-105270000D03*
X161024000Y-107810000D03*
X161024000Y-110350000D03*
X161024000Y-112890000D03*
X161024000Y-115430000D03*
D14*
X116880000Y-113500000D03*
X119420000Y-113500000D03*
X124500000Y-113500000D03*
X129580000Y-113500000D03*
D15*
X110750000Y-96500000D03*
X110750000Y-93500000D03*
X113750000Y-93500000D03*
X113750000Y-96500000D03*
D16*
X101300000Y-106750000D03*
X101300000Y-113750000D03*
D17*
X104000000Y-107750000D03*
X104000000Y-112750000D03*
D18*
X144250000Y-100200000D03*
X144250000Y-99300000D03*
X144250000Y-102700000D03*
X144250000Y-101800000D03*
X133500000Y-100450000D03*
X133500000Y-99550000D03*
X133500000Y-98200000D03*
X133500000Y-97300000D03*
D19*
X155400000Y-90000000D03*
X153600000Y-90000000D03*
X149600000Y-90000000D03*
X151400000Y-90000000D03*
D20*
X152550000Y-96250000D03*
X153450000Y-96250000D03*
D21*
X149950000Y-94600000D03*
X148050000Y-94600000D03*
D22*
X149000000Y-92400000D03*
D23*
X147900000Y-98450000D03*
X147900000Y-96550000D03*
D24*
X150100000Y-97500000D03*
D23*
X150100000Y-100300000D03*
X150100000Y-102200000D03*
D24*
X147900000Y-101250000D03*
D25*
X146000000Y-96300000D03*
X146000000Y-97200000D03*
X146000000Y-98550000D03*
X146000000Y-99450000D03*
X152550000Y-97750000D03*
X153450000Y-97750000D03*
X152000000Y-100800000D03*
X152000000Y-101700000D03*
D26*
X154100000Y-92550000D03*
X154100000Y-94450000D03*
X154100000Y-93500000D03*
X151900000Y-94450000D03*
X151900000Y-92550000D03*
D25*
X119550000Y-116000000D03*
X120450000Y-116000000D03*
X123550000Y-116000000D03*
X124450000Y-116000000D03*
D27*
X114000000Y-107000000D03*
X114000000Y-103000000D03*
X105500000Y-101500000D03*
X108000000Y-99500000D03*
X110424008Y-100784018D03*
X113750000Y-102250000D03*
X116250000Y-102250000D03*
X117250000Y-107500000D03*
X117250000Y-108250000D03*
X117250000Y-109000000D03*
X114750000Y-110500000D03*
X106500000Y-111750000D03*
X107500000Y-111750000D03*
X106500000Y-112750000D03*
X107500000Y-112750000D03*
X108000000Y-107000000D03*
X112250000Y-104000000D03*
X107750000Y-103500000D03*
X123000000Y-93250000D03*
X122939990Y-96750000D03*
X120250000Y-100250000D03*
X123000000Y-103250000D03*
X101750000Y-96500000D03*
X101750000Y-94250000D03*
X105222546Y-89472546D03*
X106810010Y-92500000D03*
X116500000Y-89500000D03*
X119728503Y-95230155D03*
X106000000Y-96000000D03*
X106250000Y-93250000D03*
X118000444Y-91750889D03*
X109750000Y-101250000D03*
X106750000Y-90000000D03*
X112750000Y-102250000D03*
X118750000Y-102250000D03*
X120250000Y-109750000D03*
X119500000Y-109750000D03*
X118750000Y-109750000D03*
X118000000Y-109750000D03*
X121250000Y-91750000D03*
X123000000Y-98500000D03*
X120500000Y-102750000D03*
X117592303Y-97026372D03*
X114500000Y-89500000D03*
X106500000Y-90750000D03*
X115250000Y-102250000D03*
X106750000Y-99250000D03*
X113620011Y-89288591D03*
X120250000Y-94000000D03*
X122939990Y-95000000D03*
X123000000Y-92000000D03*
X118250000Y-98750000D03*
X120500000Y-101500000D03*
X132500000Y-101750000D03*
X126000000Y-101500000D03*
X144750000Y-117500000D03*
X146750000Y-108000000D03*
D15*
X153500000Y-104750000D03*
X153465631Y-100251636D03*
D27*
X150560010Y-108500000D03*
D15*
X154000000Y-111000000D03*
X147750000Y-111250000D03*
X145500000Y-118000000D03*
D27*
X106750000Y-95739997D03*
X104250000Y-94250000D03*
X106750000Y-96500000D03*
X104770986Y-99229014D03*
X142250000Y-109750000D03*
X142250000Y-110500000D03*
X142250000Y-111250000D03*
X132250000Y-100510003D03*
X132249210Y-98214195D03*
X136750000Y-111000000D03*
X145250000Y-100500000D03*
X128500000Y-108250000D03*
X145239990Y-94750000D03*
X144500000Y-94750000D03*
X129260003Y-97000000D03*
X128439990Y-103500000D03*
X129000000Y-91250000D03*
X152500000Y-112000000D03*
X150750000Y-107250000D03*
X135439980Y-106750000D03*
X155250000Y-117000000D03*
X137750000Y-112000000D03*
X138500000Y-112000000D03*
X134000000Y-118000000D03*
X134750000Y-118000000D03*
X135500000Y-118000000D03*
X154500000Y-91500000D03*
X153750000Y-91500000D03*
X152970698Y-91470698D03*
X126000000Y-99750000D03*
X132265985Y-98974012D03*
X132250050Y-97454194D03*
X138750000Y-110000000D03*
X145250000Y-101739997D03*
X145000000Y-99250000D03*
X143500000Y-91000000D03*
X136500000Y-91250000D03*
X126000000Y-93250000D03*
X128500000Y-97000000D03*
X126000000Y-103500000D03*
X128250000Y-105500000D03*
X128750000Y-106500000D03*
X142750000Y-106500000D03*
X139750000Y-110000000D03*
X145500000Y-114500000D03*
X145407697Y-116973628D03*
X148000000Y-108250000D03*
X143500000Y-112500000D03*
X143500000Y-113500000D03*
X143500000Y-114500000D03*
X143500000Y-115500000D03*
X143500000Y-116500000D03*
X144500000Y-90000000D03*
X145172430Y-90000000D03*
X145250000Y-102500000D03*
X142500000Y-91000000D03*
X135500000Y-91250000D03*
X127250000Y-98250000D03*
X132250000Y-99750000D03*
X123500000Y-100750000D03*
X113037403Y-88712597D03*
X123250000Y-101750000D03*
X112500000Y-89250000D03*
X123250000Y-99750000D03*
X111962597Y-88712597D03*
X145770986Y-109560010D03*
X146439990Y-109560010D03*
X134500000Y-106000000D03*
X135500000Y-105439990D03*
X136500000Y-105500000D03*
X137500000Y-105500000D03*
X138500000Y-105500000D03*
X139500000Y-105500000D03*
X140500000Y-105500000D03*
X141500000Y-105500000D03*
D28*
X114000000Y-107000000D02*
X114000000Y-103000000D01*
X119420000Y-113500000D02*
X119420000Y-114920000D01*
X119550000Y-115050000D02*
X119550000Y-116000000D01*
X119420000Y-114920000D02*
X119550000Y-115050000D01*
D29*
X103000000Y-113750000D02*
X104000000Y-112750000D01*
X101300000Y-113750000D02*
X103000000Y-113750000D01*
X103000000Y-106750000D02*
X104000000Y-107750000D01*
X101300000Y-106750000D02*
X103000000Y-106750000D01*
X104000000Y-107750000D02*
X104000000Y-112750000D01*
X151900000Y-95600000D02*
X151900000Y-94450000D01*
X152550000Y-96250000D02*
X151900000Y-95600000D01*
D28*
X113920010Y-89901749D02*
X118018261Y-94000000D01*
X113620011Y-89288591D02*
X113920010Y-89588590D01*
X113920010Y-89588590D02*
X113920010Y-89901749D01*
X118018261Y-94000000D02*
X119684315Y-94000000D01*
X119684315Y-94000000D02*
X120250000Y-94000000D01*
X123750000Y-94189990D02*
X122939990Y-95000000D01*
X123750000Y-92750000D02*
X123750000Y-94189990D01*
X123000000Y-92000000D02*
X123750000Y-92750000D01*
X118250000Y-99250000D02*
X120500000Y-101500000D01*
X118250000Y-98750000D02*
X118250000Y-99250000D01*
X132250000Y-101500000D02*
X132500000Y-101750000D01*
X126000000Y-101500000D02*
X132250000Y-101500000D01*
X144750000Y-116500000D02*
X145250000Y-116000000D01*
X144750000Y-117500000D02*
X144750000Y-116500000D01*
X145250000Y-116000000D02*
X146500000Y-116000000D01*
X146500000Y-116000000D02*
X147000000Y-115500000D01*
X147000000Y-108250000D02*
X146750000Y-108000000D01*
X147000000Y-115500000D02*
X147000000Y-108250000D01*
X153500000Y-100286005D02*
X153465631Y-100251636D01*
X153500000Y-104750000D02*
X153500000Y-100286005D01*
D30*
X147750000Y-111250000D02*
X150542862Y-111250000D01*
X150560010Y-111232852D02*
X150542862Y-111250000D01*
X150542862Y-111250000D02*
X153750000Y-111250000D01*
X150560010Y-108500000D02*
X150560010Y-111232852D01*
X153750000Y-111250000D02*
X154000000Y-111000000D01*
X145500000Y-118000000D02*
X147000000Y-118000000D01*
X147750000Y-117250000D02*
X147750000Y-111250000D01*
X147000000Y-118000000D02*
X147750000Y-117250000D01*
D28*
X105260003Y-94250000D02*
X104250000Y-94250000D01*
X106750000Y-95739997D02*
X105260003Y-94250000D01*
X106750000Y-97250000D02*
X104770986Y-99229014D01*
X106750000Y-96500000D02*
X106750000Y-97250000D01*
X146000000Y-96300000D02*
X146800000Y-96300000D01*
X147050000Y-96550000D02*
X147900000Y-96550000D01*
X146800000Y-96300000D02*
X147050000Y-96550000D01*
X148050000Y-95750000D02*
X148050000Y-94600000D01*
X147900000Y-95900000D02*
X148050000Y-95750000D01*
X147900000Y-96550000D02*
X147900000Y-95900000D01*
X132310003Y-100450000D02*
X132250000Y-100510003D01*
X133500000Y-100450000D02*
X132310003Y-100450000D01*
X132263405Y-98200000D02*
X132249210Y-98214195D01*
X133500000Y-98200000D02*
X132263405Y-98200000D01*
X144950000Y-100200000D02*
X145250000Y-100500000D01*
X144250000Y-100200000D02*
X144950000Y-100200000D01*
D30*
X145389990Y-94600000D02*
X145239990Y-94750000D01*
X148050000Y-94600000D02*
X145389990Y-94600000D01*
X145239990Y-94750000D02*
X144500000Y-94750000D01*
D28*
X128439990Y-103500000D02*
X128500000Y-103500000D01*
D30*
X152970698Y-95070698D02*
X152970698Y-93487809D01*
X152970698Y-93487809D02*
X152970698Y-91470698D01*
X152982889Y-93500000D02*
X152970698Y-93487809D01*
X154100000Y-93500000D02*
X152982889Y-93500000D01*
X153750000Y-91500000D02*
X154500000Y-91500000D01*
X152970698Y-91470698D02*
X153720698Y-91470698D01*
X153720698Y-91470698D02*
X153750000Y-91500000D01*
D28*
X151450000Y-101700000D02*
X152000000Y-101700000D01*
X150950000Y-102200000D02*
X151450000Y-101700000D01*
X150100000Y-102200000D02*
X150950000Y-102200000D01*
X153450000Y-97750000D02*
X153450000Y-96250000D01*
D29*
X153450000Y-95550000D02*
X152970698Y-95070698D01*
X153450000Y-96250000D02*
X153450000Y-95550000D01*
D28*
X132841973Y-99550000D02*
X133500000Y-99550000D01*
X132265985Y-98974012D02*
X132841973Y-99550000D01*
X132404244Y-97300000D02*
X132250050Y-97454194D01*
X133500000Y-97300000D02*
X132404244Y-97300000D01*
X145189997Y-101800000D02*
X145250000Y-101739997D01*
X144250000Y-101800000D02*
X145189997Y-101800000D01*
X144300000Y-99250000D02*
X144250000Y-99300000D01*
X145000000Y-99250000D02*
X144300000Y-99250000D01*
X124500000Y-113500000D02*
X124500000Y-115250000D01*
X124450000Y-115300000D02*
X124450000Y-116000000D01*
X124500000Y-115250000D02*
X124450000Y-115300000D01*
D30*
X150100000Y-102200000D02*
X146700000Y-102200000D01*
X146239997Y-101739997D02*
X145250000Y-101739997D01*
X146700000Y-102200000D02*
X146239997Y-101739997D01*
X152501604Y-91001604D02*
X152501604Y-90000000D01*
X152501604Y-90000000D02*
X151400000Y-90000000D01*
X152970698Y-91470698D02*
X152501604Y-91001604D01*
X153600000Y-90000000D02*
X152501604Y-90000000D01*
X149600000Y-90000000D02*
X145172430Y-90000000D01*
X145172430Y-90000000D02*
X142495652Y-90000000D01*
D31*
X149000000Y-92400000D02*
X150650000Y-92400000D01*
X150650000Y-92450000D02*
X150750000Y-92550000D01*
X150750000Y-92550000D02*
X151900000Y-92550000D01*
X150650000Y-92400000D02*
X150650000Y-92450000D01*
X150650000Y-92375000D02*
X150650000Y-92400000D01*
X149600000Y-91325000D02*
X150650000Y-92375000D01*
X149600000Y-90000000D02*
X149600000Y-91325000D01*
D28*
X145050000Y-102700000D02*
X145250000Y-102500000D01*
X144250000Y-102700000D02*
X145050000Y-102700000D01*
D30*
X135500000Y-90500000D02*
X135500000Y-91250000D01*
X136000000Y-90000000D02*
X135500000Y-90500000D01*
X142500000Y-90004348D02*
X142495652Y-90000000D01*
X142500000Y-91000000D02*
X142500000Y-90004348D01*
X142495652Y-90000000D02*
X136000000Y-90000000D01*
X142500000Y-91000000D02*
X142500000Y-102000000D01*
X143200000Y-102700000D02*
X144250000Y-102700000D01*
X142500000Y-102000000D02*
X143200000Y-102700000D01*
D28*
X130750000Y-98250000D02*
X131000000Y-98500000D01*
X127250000Y-98250000D02*
X130750000Y-98250000D01*
X131000000Y-98500000D02*
X132250000Y-99750000D01*
X113037403Y-88712597D02*
X113060001Y-88735195D01*
X113060001Y-88735195D02*
X113060001Y-89550870D01*
X113060001Y-89550870D02*
X122589999Y-99080868D01*
X122589999Y-99080868D02*
X122589999Y-100066801D01*
X122589999Y-100066801D02*
X122952652Y-100429454D01*
X122952652Y-100429454D02*
X123179454Y-100429454D01*
X123179454Y-100429454D02*
X123500000Y-100750000D01*
X112500000Y-89250000D02*
X112500000Y-89750000D01*
X122229989Y-99479989D02*
X122229989Y-100215922D01*
X112500000Y-89750000D02*
X122229989Y-99479989D01*
X122229989Y-100215922D02*
X122850001Y-100835934D01*
X122850001Y-100835934D02*
X122850001Y-101350001D01*
X122850001Y-101350001D02*
X123250000Y-101750000D01*
X123815685Y-99750000D02*
X123250000Y-99750000D01*
X111939999Y-89699129D02*
X121750000Y-99509130D01*
X111962597Y-88712597D02*
X111939999Y-88735195D01*
X124182428Y-101817572D02*
X124182428Y-100116743D01*
X123500000Y-102500000D02*
X124182428Y-101817572D01*
X111939999Y-88735195D02*
X111939999Y-89699129D01*
X121750000Y-99509130D02*
X121750000Y-101500000D01*
X121750000Y-101500000D02*
X122750000Y-102500000D01*
X122750000Y-102500000D02*
X123500000Y-102500000D01*
X124182428Y-100116743D02*
X123815685Y-99750000D01*
D30*
X155400000Y-92800000D02*
X155400000Y-90000000D01*
D28*
X152000000Y-100300000D02*
X153300000Y-99000000D01*
X152000000Y-100800000D02*
X152000000Y-100300000D01*
X153300000Y-99000000D02*
X154250000Y-99000000D01*
X154250000Y-99000000D02*
X154750000Y-98500000D01*
X154750000Y-98500000D02*
X154750000Y-95750000D01*
X154100000Y-95100000D02*
X154100000Y-94450000D01*
X154750000Y-95750000D02*
X154100000Y-95100000D01*
X151450000Y-100800000D02*
X152000000Y-100800000D01*
X150950000Y-100300000D02*
X151450000Y-100800000D01*
X150100000Y-100300000D02*
X150950000Y-100300000D01*
D31*
X156750000Y-90000000D02*
X155400000Y-90000000D01*
X158230000Y-91480000D02*
X156750000Y-90000000D01*
X158230000Y-92570000D02*
X158230000Y-91480000D01*
D30*
X155150000Y-94450000D02*
X154100000Y-94450000D01*
X155400000Y-94200000D02*
X155150000Y-94450000D01*
X155400000Y-92800000D02*
X155400000Y-94200000D01*
X155150000Y-92550000D02*
X155400000Y-92800000D01*
X154100000Y-92550000D02*
X155150000Y-92550000D01*
D28*
X150100000Y-97500000D02*
X150100000Y-95850000D01*
X149950000Y-95700000D02*
X149950000Y-94600000D01*
X150100000Y-95850000D02*
X149950000Y-95700000D01*
X152550000Y-97750000D02*
X151550000Y-97750000D01*
X151300000Y-97500000D02*
X150100000Y-97500000D01*
X151550000Y-97750000D02*
X151300000Y-97500000D01*
X146000000Y-98550000D02*
X146700000Y-98550000D01*
X146800000Y-98450000D02*
X147900000Y-98450000D01*
X146700000Y-98550000D02*
X146800000Y-98450000D01*
X146000000Y-98550000D02*
X146000000Y-97200000D01*
X146500000Y-99450000D02*
X146000000Y-99450000D01*
X146700000Y-99450000D02*
X146500000Y-99450000D01*
X147900000Y-100650000D02*
X146700000Y-99450000D01*
X147900000Y-101250000D02*
X147900000Y-100650000D01*
D30*
X146439990Y-109560010D02*
X145189990Y-109560010D01*
X145189990Y-109560010D02*
X141250000Y-113500000D01*
X141250000Y-113500000D02*
X129580000Y-113500000D01*
D28*
X120450000Y-116000000D02*
X123550000Y-116000000D01*
X134500000Y-106000000D02*
X134500000Y-104250000D01*
X134500000Y-104250000D02*
X134500000Y-104675000D01*
X135500000Y-105439990D02*
X135500000Y-104250000D01*
X135500000Y-104250000D02*
X135500000Y-104675000D01*
X136500000Y-105500000D02*
X136500000Y-104250000D01*
X137500000Y-105500000D02*
X137500000Y-104250000D01*
X138500000Y-105500000D02*
X138500000Y-104250000D01*
X139500000Y-105500000D02*
X139500000Y-104250000D01*
X140500000Y-105500000D02*
X140500000Y-104250000D01*
X141500000Y-105500000D02*
X141500000Y-104250000D01*
D32*
G36*
X115100000Y-97850000D02*
X109400000Y-97850000D01*
X109400000Y-92150000D01*
X113613052Y-92150000D01*
X115100000Y-93636947D01*
X115100000Y-97850000D01*
X115100000Y-97850000D01*
G37*
X115100000Y-97850000D02*
X109400000Y-97850000D01*
X109400000Y-92150000D01*
X113613052Y-92150000D01*
X115100000Y-93636947D01*
X115100000Y-97850000D01*
M02*
