G04 #@! TF.FileFunction,Copper,L1,Top,Signal*
%FSLAX46Y46*%
G04 Gerber Fmt 4.6, Leading zero omitted, Abs format (unit mm)*
G04 Created by KiCad (PCBNEW (after 2015-mar-04 BZR unknown)-product) date Tue 07 Apr 2015 10:15:23 PM EDT*
%MOMM*%
G01*
G04 APERTURE LIST*
%ADD10C,0.100000*%
%ADD11O,1.500000X0.300000*%
%ADD12O,0.300000X1.500000*%
%ADD13O,0.300000X0.850000*%
%ADD14R,2.100000X1.600000*%
%ADD15R,0.900000X0.950000*%
%ADD16R,2.286000X1.524000*%
%ADD17O,2.286000X1.524000*%
%ADD18R,2.400000X2.000000*%
%ADD19C,2.000000*%
%ADD20R,0.300000X0.900000*%
%ADD21R,0.900000X0.300000*%
%ADD22R,6.150000X6.150000*%
%ADD23C,0.800000*%
%ADD24R,0.899160X0.800100*%
%ADD25R,1.100000X1.300000*%
%ADD26R,0.900000X1.300000*%
%ADD27R,1.000000X0.950000*%
%ADD28R,1.350000X0.400000*%
%ADD29O,1.550000X1.550000*%
%ADD30O,1.250000X1.250000*%
%ADD31R,0.800000X1.300000*%
%ADD32R,1.300000X0.900000*%
%ADD33R,1.300000X0.800000*%
%ADD34R,1.600000X1.500000*%
%ADD35R,1.200000X1.800000*%
%ADD36R,0.900000X1.200000*%
%ADD37R,2.700000X1.000000*%
%ADD38R,0.457000X1.727000*%
%ADD39R,0.950000X1.450000*%
%ADD40R,0.600000X0.600000*%
%ADD41R,0.650000X0.600000*%
%ADD42R,0.600000X0.650000*%
%ADD43R,1.450000X1.150000*%
%ADD44R,1.150000X1.450000*%
%ADD45O,1.550000X0.400000*%
%ADD46R,1.550000X2.400000*%
%ADD47R,2.400000X1.550000*%
%ADD48R,0.800100X0.899160*%
%ADD49C,0.600000*%
%ADD50C,0.500000*%
%ADD51C,0.200000*%
%ADD52C,0.400000*%
%ADD53C,0.300000*%
%ADD54C,0.600000*%
%ADD55C,0.254000*%
G04 APERTURE END LIST*
D10*
D11*
X131050000Y-94250000D03*
X131050000Y-94750000D03*
X131050000Y-95250000D03*
X131050000Y-95750000D03*
X131050000Y-96250000D03*
X131050000Y-96750000D03*
X131050000Y-97250000D03*
X131050000Y-97750000D03*
X131050000Y-98250000D03*
X131050000Y-98750000D03*
X131050000Y-99250000D03*
X131050000Y-99750000D03*
X131050000Y-100250000D03*
X131050000Y-100750000D03*
X131050000Y-101250000D03*
X131050000Y-101750000D03*
X131050000Y-102250000D03*
X131050000Y-102750000D03*
X131050000Y-103250000D03*
X131050000Y-103750000D03*
X131050000Y-104250000D03*
X131050000Y-104750000D03*
X131050000Y-105250000D03*
X131050000Y-105750000D03*
X131050000Y-106250000D03*
D12*
X132750000Y-107950000D03*
X133250000Y-107950000D03*
X133750000Y-107950000D03*
X134250000Y-107950000D03*
X134750000Y-107950000D03*
X135250000Y-107950000D03*
X135750000Y-107950000D03*
X136250000Y-107950000D03*
X136750000Y-107950000D03*
X137250000Y-107950000D03*
X137750000Y-107950000D03*
X138250000Y-107950000D03*
X138750000Y-107950000D03*
X139250000Y-107950000D03*
X139750000Y-107950000D03*
X140250000Y-107950000D03*
X140750000Y-107950000D03*
X141250000Y-107950000D03*
X141750000Y-107950000D03*
X142250000Y-107950000D03*
X142750000Y-107950000D03*
X143250000Y-107950000D03*
X143750000Y-107950000D03*
X144250000Y-107950000D03*
X144750000Y-107950000D03*
D11*
X146450000Y-106250000D03*
X146450000Y-105750000D03*
X146450000Y-105250000D03*
X146450000Y-104750000D03*
X146450000Y-104250000D03*
X146450000Y-103750000D03*
X146450000Y-103250000D03*
X146450000Y-102750000D03*
X146450000Y-102250000D03*
X146450000Y-101750000D03*
X146450000Y-101250000D03*
X146450000Y-100750000D03*
X146450000Y-100250000D03*
X146450000Y-99750000D03*
X146450000Y-99250000D03*
X146450000Y-98750000D03*
X146450000Y-98250000D03*
X146450000Y-97750000D03*
X146450000Y-97250000D03*
X146450000Y-96750000D03*
X146450000Y-96250000D03*
X146450000Y-95750000D03*
X146450000Y-95250000D03*
X146450000Y-94750000D03*
X146450000Y-94250000D03*
D12*
X144750000Y-92550000D03*
X144250000Y-92550000D03*
X143750000Y-92550000D03*
X143250000Y-92550000D03*
X142750000Y-92550000D03*
X142250000Y-92550000D03*
X141750000Y-92550000D03*
X141250000Y-92550000D03*
X140750000Y-92550000D03*
X140250000Y-92550000D03*
X139750000Y-92550000D03*
X139250000Y-92550000D03*
X138750000Y-92550000D03*
X138250000Y-92550000D03*
X137750000Y-92550000D03*
X137250000Y-92550000D03*
X136750000Y-92550000D03*
X136250000Y-92550000D03*
X135750000Y-92550000D03*
X135250000Y-92550000D03*
X134750000Y-92550000D03*
X134250000Y-92550000D03*
X133750000Y-92550000D03*
X133250000Y-92550000D03*
X132750000Y-92550000D03*
D13*
X146475000Y-113050000D03*
X145825000Y-113050000D03*
X145175000Y-113050000D03*
X144525000Y-113050000D03*
X144525000Y-115950000D03*
X145175000Y-115950000D03*
X145825000Y-115950000D03*
X146475000Y-115950000D03*
D14*
X145500000Y-114500000D03*
D15*
X122950000Y-89000000D03*
X121450000Y-89000000D03*
D16*
X157976000Y-92570000D03*
D17*
X157976000Y-95110000D03*
X157976000Y-97650000D03*
X157976000Y-100190000D03*
X157976000Y-102730000D03*
X157976000Y-105270000D03*
X157976000Y-107810000D03*
X157976000Y-110350000D03*
X157976000Y-112890000D03*
X157976000Y-115430000D03*
X161024000Y-92570000D03*
X161024000Y-95110000D03*
X161024000Y-97650000D03*
X161024000Y-100190000D03*
X161024000Y-102730000D03*
X161024000Y-105270000D03*
X161024000Y-107810000D03*
X161024000Y-110350000D03*
X161024000Y-112890000D03*
X161024000Y-115430000D03*
D18*
X102500000Y-99500000D03*
X102500000Y-103500000D03*
D19*
X116880000Y-113500000D03*
X119420000Y-113500000D03*
X124500000Y-113500000D03*
X129580000Y-113500000D03*
D20*
X108500000Y-99540000D03*
X109000000Y-99450000D03*
X109500000Y-99450000D03*
X110000000Y-99450000D03*
X110500000Y-99450000D03*
X111000000Y-99450000D03*
X111500000Y-99450000D03*
X112000000Y-99450000D03*
X112500000Y-99450000D03*
X113000000Y-99450000D03*
X113500000Y-99450000D03*
X114000000Y-99450000D03*
X114500000Y-99450000D03*
X115000000Y-99450000D03*
X115500000Y-99450000D03*
X116000000Y-99540000D03*
D21*
X116790000Y-98750000D03*
X116700000Y-98250000D03*
X116700000Y-97750000D03*
X116700000Y-97250000D03*
X116700000Y-96750000D03*
X116700000Y-96250000D03*
X116700000Y-95750000D03*
X116700000Y-95250000D03*
X116700000Y-94750000D03*
X116700000Y-94250000D03*
X116700000Y-93750000D03*
X116700000Y-93250000D03*
X116700000Y-92750000D03*
X116700000Y-92250000D03*
X116700000Y-91750000D03*
X116790000Y-91250000D03*
D20*
X116000000Y-90460000D03*
X115500000Y-90550000D03*
X115000000Y-90550000D03*
X114500000Y-90550000D03*
X114000000Y-90550000D03*
X113500000Y-90550000D03*
X113000000Y-90550000D03*
X112500000Y-90550000D03*
X112000000Y-90550000D03*
X111500000Y-90550000D03*
X111000000Y-90550000D03*
X110500000Y-90550000D03*
X110000000Y-90550000D03*
X109500000Y-90550000D03*
X109000000Y-90550000D03*
X108500000Y-90460000D03*
D21*
X107710000Y-91250000D03*
X107800000Y-91750000D03*
X107800000Y-92250000D03*
X107800000Y-92750000D03*
X107800000Y-93250000D03*
X107800000Y-93750000D03*
X107800000Y-94250000D03*
X107800000Y-94750000D03*
X107800000Y-95250000D03*
X107800000Y-95750000D03*
X107800000Y-96250000D03*
X107800000Y-96750000D03*
X107800000Y-97250000D03*
X107800000Y-97750000D03*
X107800000Y-98250000D03*
X107710000Y-98750000D03*
D22*
X112250000Y-95000000D03*
D23*
X110750000Y-96500000D03*
X110750000Y-93500000D03*
X113750000Y-93500000D03*
X113750000Y-96500000D03*
D24*
X101600840Y-95500000D03*
X103399160Y-95500000D03*
X101600840Y-97250000D03*
X103399160Y-97250000D03*
D25*
X111250000Y-104150000D03*
D26*
X109550000Y-104150000D03*
X109550000Y-106350000D03*
X111450000Y-106350000D03*
D27*
X109750000Y-114550000D03*
X109750000Y-112950000D03*
D28*
X104000000Y-108950000D03*
X104000000Y-109600000D03*
X104000000Y-110250000D03*
X104000000Y-110900000D03*
X104000000Y-111550000D03*
D29*
X101300000Y-106750000D03*
X101300000Y-113750000D03*
D30*
X104000000Y-107750000D03*
X104000000Y-112750000D03*
D26*
X113050000Y-106350000D03*
X114950000Y-106350000D03*
D31*
X114000000Y-104150000D03*
D26*
X118550000Y-106350000D03*
X120450000Y-106350000D03*
D31*
X119500000Y-104150000D03*
D32*
X141600000Y-115950000D03*
X141600000Y-114050000D03*
D33*
X139400000Y-115000000D03*
D34*
X127100000Y-108020000D03*
X127100000Y-105480000D03*
X124900000Y-105480000D03*
X124900000Y-108020000D03*
D35*
X146450000Y-118000000D03*
X143550000Y-118000000D03*
D36*
X148400000Y-118000000D03*
X151600000Y-118000000D03*
D37*
X150000000Y-115600000D03*
X150000000Y-113400000D03*
D38*
X153225000Y-108696000D03*
X152575000Y-108696000D03*
X151925000Y-108696000D03*
X151275000Y-108696000D03*
X151275000Y-110804000D03*
X151925000Y-110804000D03*
X152575000Y-110804000D03*
X153225000Y-110804000D03*
D39*
X154500000Y-93500000D03*
X152500000Y-93500000D03*
X150500000Y-95000000D03*
X148500000Y-95000000D03*
X154500000Y-96500000D03*
X152500000Y-96500000D03*
X150500000Y-98000000D03*
X148500000Y-98000000D03*
X154500000Y-99500000D03*
X152500000Y-99500000D03*
X150500000Y-101000000D03*
X148500000Y-101000000D03*
X154500000Y-102500000D03*
X152500000Y-102500000D03*
X150500000Y-104000000D03*
X148500000Y-104000000D03*
X154500000Y-106000000D03*
X152500000Y-106000000D03*
D40*
X105000000Y-94050000D03*
X105000000Y-94950000D03*
X105000000Y-98450000D03*
X105000000Y-97550000D03*
D41*
X110450000Y-89000000D03*
X109550000Y-89000000D03*
X114550000Y-89000000D03*
X115450000Y-89000000D03*
D42*
X106250000Y-94050000D03*
X106250000Y-94950000D03*
X118250000Y-96950000D03*
X118250000Y-96050000D03*
X106250000Y-98450000D03*
X106250000Y-97550000D03*
D41*
X115300000Y-101500000D03*
X116200000Y-101500000D03*
D15*
X122950000Y-90600000D03*
X121450000Y-90600000D03*
D40*
X124750000Y-90200000D03*
X124750000Y-89300000D03*
X119950000Y-89000000D03*
X119050000Y-89000000D03*
X119950000Y-90500000D03*
X119050000Y-90500000D03*
D42*
X120000000Y-92050000D03*
X120000000Y-92950000D03*
X129000000Y-92050000D03*
X129000000Y-92950000D03*
X105500000Y-99800000D03*
X105500000Y-100700000D03*
X105500000Y-103200000D03*
X105500000Y-102300000D03*
D41*
X108950000Y-101250000D03*
X108050000Y-101250000D03*
D40*
X108950000Y-102500000D03*
X108050000Y-102500000D03*
D41*
X112800000Y-101500000D03*
X113700000Y-101500000D03*
D40*
X117800000Y-101500000D03*
X118700000Y-101500000D03*
D42*
X108000000Y-114700000D03*
X108000000Y-113800000D03*
X107000000Y-107950000D03*
X107000000Y-107050000D03*
D40*
X108750000Y-108300000D03*
X108750000Y-109200000D03*
X110000000Y-108300000D03*
X110000000Y-109200000D03*
X106750000Y-114700000D03*
X106750000Y-113800000D03*
D43*
X116750000Y-104350000D03*
X116750000Y-106150000D03*
D44*
X120400000Y-108250000D03*
X118600000Y-108250000D03*
X103400000Y-93000000D03*
X101600000Y-93000000D03*
D41*
X111550000Y-108000000D03*
X112450000Y-108000000D03*
D40*
X111550000Y-109500000D03*
X112450000Y-109500000D03*
D41*
X114950000Y-108000000D03*
X114050000Y-108000000D03*
D40*
X114050000Y-109500000D03*
X114950000Y-109500000D03*
D45*
X121800000Y-92545000D03*
X121800000Y-93175000D03*
X121800000Y-93805000D03*
X121800000Y-94435000D03*
X121800000Y-95065000D03*
X121800000Y-95695000D03*
X121800000Y-96325000D03*
X121800000Y-96955000D03*
X127200000Y-96955000D03*
X127200000Y-96325000D03*
X127200000Y-95695000D03*
X127200000Y-95065000D03*
X127200000Y-94435000D03*
X127200000Y-93805000D03*
X127200000Y-93175000D03*
X127200000Y-92545000D03*
X121800000Y-99045000D03*
X121800000Y-99675000D03*
X121800000Y-100305000D03*
X121800000Y-100935000D03*
X121800000Y-101565000D03*
X121800000Y-102195000D03*
X121800000Y-102825000D03*
X121800000Y-103455000D03*
X127200000Y-103455000D03*
X127200000Y-102825000D03*
X127200000Y-102195000D03*
X127200000Y-101565000D03*
X127200000Y-100935000D03*
X127200000Y-100305000D03*
X127200000Y-99675000D03*
X127200000Y-99045000D03*
D42*
X129250000Y-108200000D03*
X129250000Y-107300000D03*
D41*
X135550000Y-90250000D03*
X136450000Y-90250000D03*
X142550000Y-90250000D03*
X143450000Y-90250000D03*
X141450000Y-110000000D03*
X140550000Y-110000000D03*
X136800000Y-110000000D03*
X137700000Y-110000000D03*
D42*
X120250000Y-98550000D03*
X120250000Y-99450000D03*
X129000000Y-98550000D03*
X129000000Y-99450000D03*
D44*
X139600000Y-118000000D03*
X141400000Y-118000000D03*
X141400000Y-112000000D03*
X139600000Y-112000000D03*
D40*
X148750000Y-111450000D03*
X148750000Y-110550000D03*
X148750000Y-109200000D03*
X148750000Y-108300000D03*
D44*
X145900000Y-111000000D03*
X144100000Y-111000000D03*
D43*
X112000000Y-112700000D03*
X112000000Y-114500000D03*
D40*
X130500000Y-108200000D03*
X130500000Y-107300000D03*
X130000000Y-92050000D03*
X130000000Y-92950000D03*
X129500000Y-100500000D03*
X129500000Y-101400000D03*
X147600000Y-107250000D03*
X148500000Y-107250000D03*
D46*
X136750000Y-113900000D03*
X136750000Y-118100000D03*
D47*
X146900000Y-90500000D03*
X151100000Y-90500000D03*
D48*
X153750000Y-118149160D03*
X153750000Y-116350840D03*
D40*
X153750000Y-113550000D03*
X153750000Y-114450000D03*
D49*
X114000000Y-107000000D03*
X114000000Y-103000000D03*
X105500000Y-101500000D03*
X108000000Y-99500000D03*
X110424008Y-100784018D03*
X113750000Y-102250000D03*
X116250000Y-102250000D03*
X117250000Y-107500000D03*
X117250000Y-108250000D03*
X117250000Y-109000000D03*
X114750000Y-110500000D03*
X106500000Y-111750000D03*
X107500000Y-111750000D03*
X106500000Y-112750000D03*
X107500000Y-112750000D03*
X108000000Y-107000000D03*
X112250000Y-104000000D03*
X107750000Y-103500000D03*
X123000000Y-93250000D03*
X122939990Y-96750000D03*
X120250000Y-100250000D03*
X123000000Y-103250000D03*
X101750000Y-96500000D03*
X101750000Y-94250000D03*
X105222546Y-89472546D03*
X106810010Y-92500000D03*
X116500000Y-89500000D03*
X119728503Y-95230155D03*
X106000000Y-96000000D03*
X106250000Y-93250000D03*
X118000444Y-91750889D03*
X109750000Y-101250000D03*
X106750000Y-90000000D03*
X112750000Y-102250000D03*
X118750000Y-102250000D03*
X120250000Y-109750000D03*
X119500000Y-109750000D03*
X118750000Y-109750000D03*
X118000000Y-109750000D03*
X121250000Y-91750000D03*
X123000000Y-98500000D03*
X120500000Y-102750000D03*
X117592303Y-97026372D03*
X114500000Y-89500000D03*
X106500000Y-90750000D03*
X115250000Y-102250000D03*
X106750000Y-99250000D03*
X113620011Y-89288591D03*
X120250000Y-94000000D03*
X122939990Y-95000000D03*
X123000000Y-92000000D03*
X118250000Y-98750000D03*
X120500000Y-101500000D03*
X132500000Y-101750000D03*
X126000000Y-101500000D03*
X144750000Y-117500000D03*
X146750000Y-108000000D03*
D23*
X153500000Y-104750000D03*
X153465631Y-100251636D03*
D49*
X150560010Y-108500000D03*
D23*
X154000000Y-111000000D03*
X147750000Y-111250000D03*
X145500000Y-118000000D03*
D49*
X106750000Y-95739997D03*
X104250000Y-94250000D03*
X106750000Y-96500000D03*
X104770986Y-99229014D03*
X142250000Y-109750000D03*
X142250000Y-110500000D03*
X142250000Y-111250000D03*
X132250000Y-100510003D03*
X132249210Y-98214195D03*
X136750000Y-111000000D03*
X145250000Y-100500000D03*
X128500000Y-108250000D03*
X145239990Y-94750000D03*
X144500000Y-94750000D03*
X129260003Y-97000000D03*
X128439990Y-103500000D03*
X129000000Y-91250000D03*
X152500000Y-112000000D03*
X150750000Y-107250000D03*
X135439980Y-106750000D03*
X155250000Y-117000000D03*
X137750000Y-112000000D03*
X138500000Y-112000000D03*
X134000000Y-118000000D03*
X134750000Y-118000000D03*
X135500000Y-118000000D03*
X154500000Y-91500000D03*
X153750000Y-91500000D03*
X152970698Y-91470698D03*
X126000000Y-99750000D03*
X132265985Y-98974012D03*
X132250050Y-97454194D03*
X138750000Y-110000000D03*
X145250000Y-101739997D03*
X145000000Y-99250000D03*
X143500000Y-91000000D03*
X136500000Y-91250000D03*
X126000000Y-93250000D03*
X128500000Y-97000000D03*
X126000000Y-103500000D03*
X128250000Y-105500000D03*
X128750000Y-106500000D03*
X142750000Y-106500000D03*
X139750000Y-110000000D03*
X145500000Y-114500000D03*
X145407697Y-116973628D03*
X148000000Y-108250000D03*
X143500000Y-112500000D03*
X143500000Y-113500000D03*
X143500000Y-114500000D03*
X143500000Y-115500000D03*
X143500000Y-116500000D03*
X144500000Y-90000000D03*
X145172430Y-90000000D03*
X145250000Y-102500000D03*
X142500000Y-91000000D03*
X135500000Y-91250000D03*
X127250000Y-98250000D03*
X132250000Y-99750000D03*
X123500000Y-100750000D03*
X113037403Y-88712597D03*
X123250000Y-101750000D03*
X112500000Y-89250000D03*
X123250000Y-99750000D03*
X111962597Y-88712597D03*
X145770986Y-109560010D03*
X146439990Y-109560010D03*
X134500000Y-106000000D03*
X135500000Y-105439990D03*
X136500000Y-105500000D03*
X137500000Y-105500000D03*
X138500000Y-105500000D03*
X139500000Y-105500000D03*
X140500000Y-105500000D03*
X141500000Y-105500000D03*
D50*
X111450000Y-105550000D02*
X111450000Y-106350000D01*
X111789999Y-105210001D02*
X111450000Y-105550000D01*
X114710001Y-105210001D02*
X111789999Y-105210001D01*
X114950000Y-105450000D02*
X114710001Y-105210001D01*
X114950000Y-106350000D02*
X114950000Y-105450000D01*
X114950000Y-106350000D02*
X116000000Y-107400000D01*
X116000000Y-107400000D02*
X116000000Y-111000000D01*
X116000000Y-111000000D02*
X115750000Y-111250000D01*
X115750000Y-111250000D02*
X110250000Y-111250000D01*
X109750000Y-111750000D02*
X109750000Y-112950000D01*
X110250000Y-111250000D02*
X109750000Y-111750000D01*
D51*
X111550000Y-108000000D02*
X111550000Y-109500000D01*
X111550000Y-108000000D02*
X111550000Y-107300000D01*
X111450000Y-107200000D02*
X111450000Y-106350000D01*
X111550000Y-107300000D02*
X111450000Y-107200000D01*
X113240345Y-107390345D02*
X113240345Y-108000000D01*
X113050000Y-106350000D02*
X113050000Y-107200000D01*
X113050000Y-107200000D02*
X113240345Y-107390345D01*
X113240345Y-108000000D02*
X114050000Y-108000000D01*
X112450000Y-108000000D02*
X113240345Y-108000000D01*
X112450000Y-108000000D02*
X112450000Y-109500000D01*
X114050000Y-108000000D02*
X114050000Y-109500000D01*
D50*
X116750000Y-104350000D02*
X115350000Y-104350000D01*
X115150000Y-104150000D02*
X114000000Y-104150000D01*
X115350000Y-104350000D02*
X115150000Y-104150000D01*
X116750000Y-104350000D02*
X118150000Y-104350000D01*
X118350000Y-104150000D02*
X119500000Y-104150000D01*
X118150000Y-104350000D02*
X118350000Y-104150000D01*
X119500000Y-104150000D02*
X120650000Y-104150000D01*
X120650000Y-104150000D02*
X121750000Y-105250000D01*
X121750000Y-105250000D02*
X121750000Y-109750000D01*
X121750000Y-109750000D02*
X120750000Y-110750000D01*
X120750000Y-110750000D02*
X118000000Y-110750000D01*
X116880000Y-111870000D02*
X116880000Y-113500000D01*
X118000000Y-110750000D02*
X116880000Y-111870000D01*
D51*
X114439999Y-107439999D02*
X114000000Y-107000000D01*
X114889999Y-107439999D02*
X114439999Y-107439999D01*
X114950000Y-107500000D02*
X114889999Y-107439999D01*
X114950000Y-108000000D02*
X114950000Y-107500000D01*
X114000000Y-103000000D02*
X114000000Y-104150000D01*
D50*
X112000000Y-112700000D02*
X113700000Y-112700000D01*
X114500000Y-113500000D02*
X116880000Y-113500000D01*
X113700000Y-112700000D02*
X114500000Y-113500000D01*
D51*
X115450000Y-89378802D02*
X115450000Y-89000000D01*
X115000000Y-89828802D02*
X115450000Y-89378802D01*
X115000000Y-90550000D02*
X115000000Y-89828802D01*
X105500000Y-102300000D02*
X105500000Y-101500000D01*
X105500000Y-100700000D02*
X105500000Y-101500000D01*
X108040000Y-99540000D02*
X108000000Y-99500000D01*
X108500000Y-99540000D02*
X108040000Y-99540000D01*
X110500000Y-100708026D02*
X110424008Y-100784018D01*
X110500000Y-99450000D02*
X110500000Y-100708026D01*
D50*
X113700000Y-102200000D02*
X113750000Y-102250000D01*
X113700000Y-101500000D02*
X113700000Y-102200000D01*
X116200000Y-102200000D02*
X116250000Y-102250000D01*
X116200000Y-101500000D02*
X116200000Y-102200000D01*
D51*
X113700000Y-100950000D02*
X113700000Y-101000000D01*
X113700000Y-101000000D02*
X113700000Y-101500000D01*
X113000000Y-99450000D02*
X113000000Y-100250000D01*
X113194494Y-100444494D02*
X113700000Y-100950000D01*
X113000000Y-100250000D02*
X113194494Y-100444494D01*
X113305506Y-100444494D02*
X113194494Y-100444494D01*
X113500000Y-100250000D02*
X113305506Y-100444494D01*
X113500000Y-99450000D02*
X113500000Y-100250000D01*
X114500000Y-97250000D02*
X112250000Y-95000000D01*
X114500000Y-99450000D02*
X114500000Y-97250000D01*
X115500000Y-98250000D02*
X112250000Y-95000000D01*
X115500000Y-99450000D02*
X115500000Y-98250000D01*
D50*
X116750000Y-107000000D02*
X117250000Y-107500000D01*
X116750000Y-106150000D02*
X116750000Y-107000000D01*
X117250000Y-107500000D02*
X117250000Y-108250000D01*
X117250000Y-108250000D02*
X117250000Y-109000000D01*
X117250000Y-108250000D02*
X118600000Y-108250000D01*
X118550000Y-108200000D02*
X118600000Y-108250000D01*
X118550000Y-106350000D02*
X118550000Y-108200000D01*
D51*
X114950000Y-110300000D02*
X114750000Y-110500000D01*
X114950000Y-109500000D02*
X114950000Y-110300000D01*
D52*
X106300000Y-111550000D02*
X106500000Y-111750000D01*
X104000000Y-111550000D02*
X106300000Y-111550000D01*
X106500000Y-111750000D02*
X107500000Y-111750000D01*
X106500000Y-111750000D02*
X106500000Y-112750000D01*
X107500000Y-111750000D02*
X107500000Y-112750000D01*
X107500000Y-113782357D02*
X107482357Y-113800000D01*
X107500000Y-112750000D02*
X107500000Y-113782357D01*
X107482357Y-113800000D02*
X108000000Y-113800000D01*
X106750000Y-113800000D02*
X107482357Y-113800000D01*
X107950000Y-107050000D02*
X108000000Y-107000000D01*
X107000000Y-107050000D02*
X107950000Y-107050000D01*
X112100000Y-104150000D02*
X112250000Y-104000000D01*
X111250000Y-104150000D02*
X112100000Y-104150000D01*
X108050000Y-101250000D02*
X108050000Y-102500000D01*
X108050000Y-103200000D02*
X107750000Y-103500000D01*
X108050000Y-102500000D02*
X108050000Y-103200000D01*
D50*
X119420000Y-114914213D02*
X118834213Y-115500000D01*
X119420000Y-113500000D02*
X119420000Y-114914213D01*
X118834213Y-115500000D02*
X114500000Y-115500000D01*
X113500000Y-114500000D02*
X112000000Y-114500000D01*
X114500000Y-115500000D02*
X113500000Y-114500000D01*
D53*
X122925000Y-93175000D02*
X123000000Y-93250000D01*
X121800000Y-93175000D02*
X122925000Y-93175000D01*
X120000000Y-92950000D02*
X120700000Y-92950000D01*
X120925000Y-93175000D02*
X121800000Y-93175000D01*
X120700000Y-92950000D02*
X120925000Y-93175000D01*
X122734990Y-96955000D02*
X122939990Y-96750000D01*
X121800000Y-96955000D02*
X122734990Y-96955000D01*
X121800000Y-99675000D02*
X120925000Y-99675000D01*
X120850000Y-99450000D02*
X120250000Y-99450000D01*
X120925000Y-99525000D02*
X120850000Y-99450000D01*
X120925000Y-99675000D02*
X120925000Y-99525000D01*
X120250000Y-99450000D02*
X120250000Y-100250000D01*
X122795000Y-103455000D02*
X123000000Y-103250000D01*
X121800000Y-103455000D02*
X122795000Y-103455000D01*
D51*
X101600840Y-96649160D02*
X101750000Y-96500000D01*
X101600840Y-97250000D02*
X101600840Y-96649160D01*
X101600840Y-96350840D02*
X101750000Y-96500000D01*
X101600840Y-95500000D02*
X101600840Y-96350840D01*
X101600000Y-94100000D02*
X101750000Y-94250000D01*
X101600000Y-93000000D02*
X101600000Y-94100000D01*
D50*
X105695092Y-89000000D02*
X105222546Y-89472546D01*
X109550000Y-89000000D02*
X105695092Y-89000000D01*
D51*
X109000000Y-91750000D02*
X112250000Y-95000000D01*
X109000000Y-90550000D02*
X109000000Y-91750000D01*
X108500000Y-92250000D02*
X109000000Y-91750000D01*
X107800000Y-92250000D02*
X108500000Y-92250000D01*
X107060010Y-92250000D02*
X106810010Y-92500000D01*
X107800000Y-92250000D02*
X107060010Y-92250000D01*
X115450000Y-89000000D02*
X116250000Y-89000000D01*
X116250000Y-89000000D02*
X116549999Y-89299999D01*
X116549999Y-89299999D02*
X116549999Y-89450001D01*
X116549999Y-89450001D02*
X116500000Y-89500000D01*
X112500000Y-94750000D02*
X112250000Y-95000000D01*
X116700000Y-94750000D02*
X112500000Y-94750000D01*
X116700000Y-94750000D02*
X118000000Y-94750000D01*
X118250000Y-95000000D02*
X118250000Y-96050000D01*
X118000000Y-94750000D02*
X118250000Y-95000000D01*
D50*
X118908658Y-96050000D02*
X119728503Y-95230155D01*
X118250000Y-96050000D02*
X118908658Y-96050000D01*
D51*
X106000000Y-95200000D02*
X106000000Y-96000000D01*
X106250000Y-94950000D02*
X106000000Y-95200000D01*
X106000000Y-97300000D02*
X106000000Y-96000000D01*
X106250000Y-97550000D02*
X106000000Y-97300000D01*
X111500000Y-89408602D02*
X111379989Y-89288591D01*
X111091398Y-89000000D02*
X111379989Y-89288591D01*
X110450000Y-89000000D02*
X111091398Y-89000000D01*
X110000000Y-100379224D02*
X109864007Y-100515217D01*
X110000000Y-99450000D02*
X110000000Y-100379224D01*
X107150000Y-94750000D02*
X107800000Y-94750000D01*
X107000000Y-94600000D02*
X107150000Y-94750000D01*
X107000000Y-94250000D02*
X107000000Y-94600000D01*
X106800000Y-94050000D02*
X107000000Y-94250000D01*
X106250000Y-94050000D02*
X106800000Y-94050000D01*
X106750000Y-91750000D02*
X106250000Y-92250000D01*
X107800000Y-91750000D02*
X106750000Y-91750000D01*
X106250000Y-94050000D02*
X106250000Y-93250000D01*
X106250000Y-92250000D02*
X106250000Y-93250000D01*
X117999555Y-91750000D02*
X118000444Y-91750889D01*
X116700000Y-91750000D02*
X117999555Y-91750000D01*
X109864007Y-101135993D02*
X109750000Y-101250000D01*
X109864007Y-100515217D02*
X109864007Y-101135993D01*
X108950000Y-101250000D02*
X109750000Y-101250000D01*
X107093691Y-89656309D02*
X106750000Y-90000000D01*
X111500000Y-89656309D02*
X107093691Y-89656309D01*
X111500000Y-90550000D02*
X111500000Y-89656309D01*
X111500000Y-89656309D02*
X111500000Y-89408602D01*
D50*
X112800000Y-102200000D02*
X112750000Y-102250000D01*
X112800000Y-101500000D02*
X112800000Y-102200000D01*
D51*
X112500000Y-100700000D02*
X112500000Y-99450000D01*
X112800000Y-101000000D02*
X112500000Y-100700000D01*
X112800000Y-101500000D02*
X112800000Y-101000000D01*
X118700000Y-102200000D02*
X118750000Y-102250000D01*
X118700000Y-101500000D02*
X118700000Y-102200000D01*
D50*
X120400000Y-109600000D02*
X120250000Y-109750000D01*
X120400000Y-108250000D02*
X120400000Y-109600000D01*
X120250000Y-109750000D02*
X119500000Y-109750000D01*
X119500000Y-109750000D02*
X118750000Y-109750000D01*
X118750000Y-109750000D02*
X118000000Y-109750000D01*
D53*
X121800000Y-92545000D02*
X121045000Y-92545000D01*
X120550000Y-92050000D02*
X120000000Y-92050000D01*
X121045000Y-92545000D02*
X120550000Y-92050000D01*
X121800000Y-92300000D02*
X121250000Y-91750000D01*
X121800000Y-92545000D02*
X121800000Y-92300000D01*
X124750000Y-90200000D02*
X124750000Y-91250000D01*
X123389999Y-92610001D02*
X124750000Y-91250000D01*
X121865001Y-92610001D02*
X123389999Y-92610001D01*
X121800000Y-92545000D02*
X121865001Y-92610001D01*
X121305000Y-98550000D02*
X121800000Y-99045000D01*
X122950000Y-98550000D02*
X123000000Y-98500000D01*
X121047056Y-98550000D02*
X122950000Y-98550000D01*
X120250000Y-98550000D02*
X121047056Y-98550000D01*
X121047056Y-98550000D02*
X121305000Y-98550000D01*
D54*
X120400000Y-106400000D02*
X120450000Y-106350000D01*
X120400000Y-108250000D02*
X120400000Y-106400000D01*
D51*
X120575000Y-102825000D02*
X120500000Y-102750000D01*
X121800000Y-102825000D02*
X120575000Y-102825000D01*
X117368675Y-97250000D02*
X117592303Y-97026372D01*
X116700000Y-97250000D02*
X117368675Y-97250000D01*
X117668675Y-96950000D02*
X117592303Y-97026372D01*
X118250000Y-96950000D02*
X117668675Y-96950000D01*
D52*
X106750000Y-114700000D02*
X108000000Y-114700000D01*
X105950000Y-114700000D02*
X104000000Y-112750000D01*
X106750000Y-114700000D02*
X105950000Y-114700000D01*
X104000000Y-108950000D02*
X102800000Y-108950000D01*
X102800000Y-108950000D02*
X102250000Y-109500000D01*
X102250000Y-109500000D02*
X102250000Y-112750000D01*
X102250000Y-112750000D02*
X105500000Y-116000000D01*
X105500000Y-116000000D02*
X109250000Y-116000000D01*
X109750000Y-115500000D02*
X109750000Y-114550000D01*
X109250000Y-116000000D02*
X109750000Y-115500000D01*
X104000000Y-108950000D02*
X106800000Y-108950000D01*
X107000000Y-108750000D02*
X107000000Y-107950000D01*
X106800000Y-108950000D02*
X107000000Y-108750000D01*
D51*
X114000000Y-90000000D02*
X114500000Y-89500000D01*
X114000000Y-90550000D02*
X114000000Y-90000000D01*
X114550000Y-89450000D02*
X114500000Y-89500000D01*
X114550000Y-89000000D02*
X114550000Y-89450000D01*
X107710000Y-91250000D02*
X106500000Y-91250000D01*
X104750000Y-93000000D02*
X103400000Y-93000000D01*
X106500000Y-91250000D02*
X104750000Y-93000000D01*
X106500000Y-91250000D02*
X106500000Y-90750000D01*
X115275000Y-101500000D02*
X115300000Y-101500000D01*
X114000000Y-100225000D02*
X115275000Y-101500000D01*
X114000000Y-99450000D02*
X114000000Y-100225000D01*
X115300000Y-102200000D02*
X115250000Y-102250000D01*
X115300000Y-101500000D02*
X115300000Y-102200000D01*
X106760000Y-98450000D02*
X106250000Y-98450000D01*
X107060000Y-98750000D02*
X106760000Y-98450000D01*
X107710000Y-98750000D02*
X107060000Y-98750000D01*
X107049999Y-98760001D02*
X107060000Y-98750000D01*
X107049999Y-98950001D02*
X107049999Y-98760001D01*
X106750000Y-99250000D02*
X107049999Y-98950001D01*
X109000000Y-100100000D02*
X108849999Y-100250001D01*
X108849999Y-100250001D02*
X106850001Y-100250001D01*
X109000000Y-99450000D02*
X109000000Y-100100000D01*
X106400000Y-99800000D02*
X105500000Y-99800000D01*
X106850001Y-100250001D02*
X106400000Y-99800000D01*
X105500000Y-99800000D02*
X104550000Y-99800000D01*
X104250000Y-99500000D02*
X102500000Y-99500000D01*
X104550000Y-99800000D02*
X104250000Y-99500000D01*
X107000000Y-102750000D02*
X106550000Y-103200000D01*
X106550000Y-103200000D02*
X105500000Y-103200000D01*
X107000000Y-101000000D02*
X107000000Y-102750000D01*
X107506998Y-100700000D02*
X107300000Y-100700000D01*
X107516999Y-100689999D02*
X107506998Y-100700000D01*
X109060001Y-100689999D02*
X107516999Y-100689999D01*
X107300000Y-100700000D02*
X107000000Y-101000000D01*
X109500000Y-100250000D02*
X109060001Y-100689999D01*
X109500000Y-99450000D02*
X109500000Y-100250000D01*
X104250000Y-103500000D02*
X102500000Y-103500000D01*
X104550000Y-103200000D02*
X104250000Y-103500000D01*
X105500000Y-103200000D02*
X104550000Y-103200000D01*
X105000000Y-94950000D02*
X105000000Y-95250000D01*
X104750000Y-95500000D02*
X103399160Y-95500000D01*
X105000000Y-95250000D02*
X104750000Y-95500000D01*
X105000000Y-97550000D02*
X104300000Y-97550000D01*
X104000000Y-97250000D02*
X103399160Y-97250000D01*
X104300000Y-97550000D02*
X104000000Y-97250000D01*
X109550000Y-107050000D02*
X109550000Y-106350000D01*
X108750000Y-107850000D02*
X109550000Y-107050000D01*
X108750000Y-108300000D02*
X108750000Y-107850000D01*
X110200000Y-102500000D02*
X111560000Y-101140000D01*
X111560000Y-100185000D02*
X111500000Y-100125000D01*
X111560000Y-101140000D02*
X111560000Y-100185000D01*
X108800000Y-103200000D02*
X109800000Y-103200000D01*
X108500000Y-103500000D02*
X108800000Y-103200000D01*
X108500000Y-105000000D02*
X108500000Y-103500000D01*
X108750000Y-105250000D02*
X108500000Y-105000000D01*
X111500000Y-100125000D02*
X111500000Y-99450000D01*
X109250000Y-105250000D02*
X108750000Y-105250000D01*
X109550000Y-105550000D02*
X109250000Y-105250000D01*
X110200000Y-102800000D02*
X110200000Y-102500000D01*
X109800000Y-103200000D02*
X110200000Y-102800000D01*
X109550000Y-106350000D02*
X109550000Y-105550000D01*
X110400000Y-105700000D02*
X109550000Y-104850000D01*
X110400000Y-107000000D02*
X110400000Y-105700000D01*
X109550000Y-104850000D02*
X109550000Y-104150000D01*
X110000000Y-107400000D02*
X110400000Y-107000000D01*
X110000000Y-108300000D02*
X110000000Y-107400000D01*
X111940000Y-100185000D02*
X112000000Y-100125000D01*
X111940000Y-101310000D02*
X111940000Y-100185000D01*
X110600000Y-102650000D02*
X111940000Y-101310000D01*
X110600000Y-103000000D02*
X110600000Y-102650000D01*
X112000000Y-100125000D02*
X112000000Y-99450000D01*
X109550000Y-104050000D02*
X110600000Y-103000000D01*
X109550000Y-104150000D02*
X109550000Y-104050000D01*
X152250000Y-105750000D02*
X152500000Y-106000000D01*
X147400000Y-105250000D02*
X146450000Y-105250000D01*
X151075000Y-105250000D02*
X147400000Y-105250000D01*
X151825000Y-106000000D02*
X151075000Y-105250000D01*
X152500000Y-106000000D02*
X151825000Y-106000000D01*
X148250000Y-104250000D02*
X148500000Y-104000000D01*
X146450000Y-104250000D02*
X148250000Y-104250000D01*
X146450000Y-102750000D02*
X148000000Y-102750000D01*
X148250000Y-102500000D02*
X152500000Y-102500000D01*
X148000000Y-102750000D02*
X148250000Y-102500000D01*
X148250000Y-101250000D02*
X148500000Y-101000000D01*
X146450000Y-101250000D02*
X148250000Y-101250000D01*
X148250000Y-98250000D02*
X148500000Y-98000000D01*
X146450000Y-98250000D02*
X148250000Y-98250000D01*
X146450000Y-96750000D02*
X148000000Y-96750000D01*
X148250000Y-96500000D02*
X152500000Y-96500000D01*
X148000000Y-96750000D02*
X148250000Y-96500000D01*
X148250000Y-94750000D02*
X148500000Y-95000000D01*
X146450000Y-94750000D02*
X148250000Y-94750000D01*
X152500000Y-93500000D02*
X146500000Y-93500000D01*
X145550000Y-92550000D02*
X144750000Y-92550000D01*
X146500000Y-93500000D02*
X145550000Y-92550000D01*
X105012500Y-109600000D02*
X105147500Y-109735000D01*
X104000000Y-109600000D02*
X105012500Y-109600000D01*
X105147500Y-109735000D02*
X106253700Y-109735000D01*
X106253700Y-109735000D02*
X107078700Y-110560000D01*
X107078700Y-110560000D02*
X108921300Y-110560000D01*
X108750000Y-109650000D02*
X108750000Y-109200000D01*
X109185000Y-110296300D02*
X109185000Y-110085000D01*
X108921300Y-110560000D02*
X109185000Y-110296300D01*
X109185000Y-110085000D02*
X108750000Y-109650000D01*
X105147500Y-110115000D02*
X106096300Y-110115000D01*
X105012500Y-110250000D02*
X105147500Y-110115000D01*
X104000000Y-110250000D02*
X105012500Y-110250000D01*
X106096300Y-110115000D02*
X106921300Y-110940000D01*
X106921300Y-110940000D02*
X109078700Y-110940000D01*
X110000000Y-109650000D02*
X110000000Y-109200000D01*
X109565000Y-110085000D02*
X110000000Y-109650000D01*
X109565000Y-110453700D02*
X109565000Y-110085000D01*
X109078700Y-110940000D02*
X109565000Y-110453700D01*
X158230000Y-95110000D02*
X158090000Y-95250000D01*
X158090000Y-95250000D02*
X156500000Y-95250000D01*
X156500000Y-95250000D02*
X156000000Y-94750000D01*
X156000000Y-94750000D02*
X156000000Y-94000000D01*
X156000000Y-94000000D02*
X155500000Y-93500000D01*
X155500000Y-93500000D02*
X154500000Y-93500000D01*
X150500000Y-95000000D02*
X155250000Y-95000000D01*
X155250000Y-95000000D02*
X156750000Y-96500000D01*
X156750000Y-96500000D02*
X156750000Y-97006492D01*
X156750000Y-97006492D02*
X156993508Y-97250000D01*
X156993508Y-97250000D02*
X157830000Y-97250000D01*
X157830000Y-97250000D02*
X158230000Y-97650000D01*
X157000000Y-99500000D02*
X157690000Y-100190000D01*
X157690000Y-100190000D02*
X158230000Y-100190000D01*
X157000000Y-99000000D02*
X157000000Y-99500000D01*
X156250000Y-98250000D02*
X157000000Y-99000000D01*
X156250000Y-97250000D02*
X156250000Y-98250000D01*
X155500000Y-96500000D02*
X156250000Y-97250000D01*
X154500000Y-96500000D02*
X155500000Y-96500000D01*
X150500000Y-98000000D02*
X154750000Y-98000000D01*
X154750000Y-98000000D02*
X156500000Y-99750000D01*
X157000000Y-101500000D02*
X157000000Y-102000000D01*
X156500000Y-99750000D02*
X156500000Y-101000000D01*
X157730000Y-102730000D02*
X158230000Y-102730000D01*
X156500000Y-101000000D02*
X157000000Y-101500000D01*
X157000000Y-102000000D02*
X157730000Y-102730000D01*
X157022140Y-104272140D02*
X158020000Y-105270000D01*
X158020000Y-105270000D02*
X158230000Y-105270000D01*
X156139990Y-102889990D02*
X157022140Y-103772140D01*
X157022140Y-103772140D02*
X157022140Y-104272140D01*
X156139990Y-100389990D02*
X156139990Y-102889990D01*
X155250000Y-99500000D02*
X156139990Y-100389990D01*
X154500000Y-99500000D02*
X155250000Y-99500000D01*
X150500000Y-101000000D02*
X155000000Y-101000000D01*
X155000000Y-101000000D02*
X155500000Y-101500000D01*
X155500000Y-101500000D02*
X155500000Y-103009130D01*
X155500000Y-103009130D02*
X156500000Y-104009130D01*
X156500000Y-104009130D02*
X156500000Y-107500000D01*
X156500000Y-107500000D02*
X156810000Y-107810000D01*
X156810000Y-107810000D02*
X158230000Y-107810000D01*
X156500000Y-110000000D02*
X156850000Y-110350000D01*
X156850000Y-110350000D02*
X158230000Y-110350000D01*
X156500000Y-108500000D02*
X156500000Y-110000000D01*
X156000000Y-108000000D02*
X156500000Y-108500000D01*
X156000000Y-104250000D02*
X156000000Y-108000000D01*
X154500000Y-102750000D02*
X156000000Y-104250000D01*
X154500000Y-102500000D02*
X154500000Y-102750000D01*
X150500000Y-104000000D02*
X155000000Y-104000000D01*
X155000000Y-104000000D02*
X155500000Y-104500000D01*
X155500000Y-104500000D02*
X155500000Y-108282282D01*
X156000000Y-112250000D02*
X156640000Y-112890000D01*
X155500000Y-108282282D02*
X156000000Y-108782282D01*
X156000000Y-108782282D02*
X156000000Y-112250000D01*
X156640000Y-112890000D02*
X158230000Y-112890000D01*
X154500000Y-106000000D02*
X154500000Y-108000000D01*
X154500000Y-108000000D02*
X155250000Y-108750000D01*
X155250000Y-108750000D02*
X155250000Y-114750000D01*
X155250000Y-114750000D02*
X155930000Y-115430000D01*
X155930000Y-115430000D02*
X158230000Y-115430000D01*
X115000000Y-100100000D02*
X115400000Y-100500000D01*
X115000000Y-99450000D02*
X115000000Y-100100000D01*
X115400000Y-100500000D02*
X116500000Y-100500000D01*
X116500000Y-100500000D02*
X117000000Y-101000000D01*
X117000000Y-101000000D02*
X117000000Y-101250000D01*
X117250000Y-101500000D02*
X117800000Y-101500000D01*
X117000000Y-101250000D02*
X117250000Y-101500000D01*
X111000000Y-101000000D02*
X111000000Y-99450000D01*
X109500000Y-102500000D02*
X111000000Y-101000000D01*
X108950000Y-102500000D02*
X109500000Y-102500000D01*
X116000000Y-90460000D02*
X116790000Y-90460000D01*
X118250000Y-89000000D02*
X119050000Y-89000000D01*
X116790000Y-90460000D02*
X118250000Y-89000000D01*
X113500000Y-89408602D02*
X113620011Y-89288591D01*
X113500000Y-90550000D02*
X113500000Y-89408602D01*
X116790000Y-99540000D02*
X116000000Y-99540000D01*
X117020011Y-99770011D02*
X116790000Y-99540000D01*
X119500000Y-99000000D02*
X118960000Y-99540000D01*
X119500000Y-97956998D02*
X119500000Y-99000000D01*
X118960000Y-99540000D02*
X118945932Y-99540000D01*
X119706998Y-97750000D02*
X119500000Y-97956998D01*
X122750000Y-97750000D02*
X119706998Y-97750000D01*
X118945932Y-99540000D02*
X118715922Y-99770011D01*
X123500000Y-97000000D02*
X122750000Y-97750000D01*
X123500000Y-94500000D02*
X123500000Y-97000000D01*
X122805000Y-93805000D02*
X123500000Y-94500000D01*
X118715922Y-99770011D02*
X117020011Y-99770011D01*
X121800000Y-93805000D02*
X122805000Y-93805000D01*
X120445000Y-93805000D02*
X120250000Y-94000000D01*
X121800000Y-93805000D02*
X120445000Y-93805000D01*
X120805000Y-95695000D02*
X121800000Y-95695000D01*
X120500000Y-96000000D02*
X120805000Y-95695000D01*
X120500000Y-96327905D02*
X120500000Y-96000000D01*
X120500000Y-96447868D02*
X120500000Y-96327905D01*
X120500000Y-96447867D02*
X120500000Y-96327905D01*
X119139990Y-97807877D02*
X120500000Y-96447867D01*
X119139990Y-98836812D02*
X119139990Y-97807877D01*
X118566801Y-99410001D02*
X119139990Y-98836812D01*
X117750001Y-99410001D02*
X118566801Y-99410001D01*
X117090000Y-98750000D02*
X117750001Y-99410001D01*
X116790000Y-98750000D02*
X117090000Y-98750000D01*
X120685000Y-95065000D02*
X121800000Y-95065000D01*
X120139990Y-95610010D02*
X120685000Y-95065000D01*
X120139990Y-96298746D02*
X120139990Y-95610010D01*
X118688736Y-97750000D02*
X120139990Y-96298746D01*
X116700000Y-97750000D02*
X118688736Y-97750000D01*
X122874990Y-95065000D02*
X122939990Y-95000000D01*
X121800000Y-95065000D02*
X122874990Y-95065000D01*
X122950000Y-89000000D02*
X122950000Y-90600000D01*
X123250000Y-89300000D02*
X122950000Y-89000000D01*
X124750000Y-89300000D02*
X123250000Y-89300000D01*
X123000000Y-90650000D02*
X122950000Y-90600000D01*
X123000000Y-92000000D02*
X123000000Y-90650000D01*
X117500000Y-92250000D02*
X116700000Y-92250000D01*
X119910001Y-94660001D02*
X117500000Y-92250000D01*
X120566801Y-94660001D02*
X119910001Y-94660001D01*
X120791802Y-94435000D02*
X120566801Y-94660001D01*
X121800000Y-94435000D02*
X120791802Y-94435000D01*
X116700000Y-98250000D02*
X117750000Y-98250000D01*
X121735000Y-101500000D02*
X121800000Y-101565000D01*
X117750000Y-98250000D02*
X118250000Y-98750000D01*
X120565000Y-101565000D02*
X120500000Y-101500000D01*
X121800000Y-101565000D02*
X120565000Y-101565000D01*
X129750000Y-95250000D02*
X131050000Y-95250000D01*
X128935000Y-94435000D02*
X129750000Y-95250000D01*
X127200000Y-94435000D02*
X128935000Y-94435000D01*
X125935000Y-94435000D02*
X127200000Y-94435000D01*
X125439999Y-92310001D02*
X125439999Y-93939999D01*
X127060001Y-90689999D02*
X125439999Y-92310001D01*
X129439999Y-90689999D02*
X127060001Y-90689999D01*
X130000000Y-91250000D02*
X129439999Y-90689999D01*
X125439999Y-93939999D02*
X125935000Y-94435000D01*
X130000000Y-92050000D02*
X130000000Y-91250000D01*
X129000000Y-101400000D02*
X129500000Y-101400000D01*
X128750000Y-100750000D02*
X128750000Y-101150000D01*
X128305000Y-100305000D02*
X128750000Y-100750000D01*
X127200000Y-100305000D02*
X128305000Y-100305000D01*
X129750000Y-104500000D02*
X130000000Y-104750000D01*
X129750000Y-102240870D02*
X129750000Y-104500000D01*
X130000000Y-104750000D02*
X131050000Y-104750000D01*
X129500000Y-101400000D02*
X129500000Y-101990870D01*
X128750000Y-101150000D02*
X129000000Y-101400000D01*
X129500000Y-101990870D02*
X129750000Y-102240870D01*
X132500000Y-101750000D02*
X131050000Y-101750000D01*
X126065000Y-101565000D02*
X126000000Y-101500000D01*
X127200000Y-101565000D02*
X126065000Y-101565000D01*
X130100000Y-95750000D02*
X131050000Y-95750000D01*
X129500000Y-95750000D02*
X130100000Y-95750000D01*
X128815000Y-95065000D02*
X129500000Y-95750000D01*
X127200000Y-95065000D02*
X128815000Y-95065000D01*
X129250000Y-96250000D02*
X130100000Y-96250000D01*
X128695000Y-95695000D02*
X129250000Y-96250000D01*
X130100000Y-96250000D02*
X131050000Y-96250000D01*
X127200000Y-95695000D02*
X128695000Y-95695000D01*
X130000000Y-94750000D02*
X131050000Y-94750000D01*
X129055000Y-93805000D02*
X130000000Y-94750000D01*
X127200000Y-93805000D02*
X129055000Y-93805000D01*
X130500000Y-108200000D02*
X131300000Y-108200000D01*
X131300000Y-108200000D02*
X131500000Y-108000000D01*
X131500000Y-108000000D02*
X131500000Y-107500000D01*
X132352153Y-106647847D02*
X132352153Y-105750000D01*
X131500000Y-107500000D02*
X132352153Y-106647847D01*
X131050000Y-105750000D02*
X132352153Y-105750000D01*
X132750000Y-105750000D02*
X133250000Y-105250000D01*
X132352153Y-105750000D02*
X132750000Y-105750000D01*
X133250000Y-95445953D02*
X133250000Y-95250000D01*
X133250000Y-105250000D02*
X133250000Y-95445953D01*
X133250000Y-94500000D02*
X133250000Y-95445953D01*
X132000000Y-93250000D02*
X133250000Y-94500000D01*
X132000000Y-92000000D02*
X132000000Y-93250000D01*
X131750000Y-91750000D02*
X132000000Y-92000000D01*
X131000000Y-92000000D02*
X131250000Y-91750000D01*
X132250000Y-94250000D02*
X131000000Y-93000000D01*
X131250000Y-91750000D02*
X131750000Y-91750000D01*
X132250000Y-94500000D02*
X132250000Y-94250000D01*
X131000000Y-93000000D02*
X131000000Y-92000000D01*
X132000000Y-94750000D02*
X132250000Y-94500000D01*
X131050000Y-94750000D02*
X132000000Y-94750000D01*
X119950000Y-89000000D02*
X121450000Y-89000000D01*
X121350000Y-90500000D02*
X121450000Y-90600000D01*
X119950000Y-90500000D02*
X121350000Y-90500000D01*
X144525000Y-117275000D02*
X144750000Y-117500000D01*
X144525000Y-115950000D02*
X144525000Y-117275000D01*
X144800000Y-108000000D02*
X144750000Y-107950000D01*
X146750000Y-108000000D02*
X144800000Y-108000000D01*
X153500000Y-107107500D02*
X153500000Y-104750000D01*
X153225000Y-107382500D02*
X153500000Y-107107500D01*
X153465631Y-99685951D02*
X153279680Y-99500000D01*
X153465631Y-100251636D02*
X153465631Y-99685951D01*
X153279680Y-99500000D02*
X152500000Y-99500000D01*
X153225000Y-107382500D02*
X153225000Y-108696000D01*
X150856010Y-108696000D02*
X150756010Y-108696000D01*
X150756010Y-108696000D02*
X150560010Y-108500000D01*
X154000000Y-112250000D02*
X153750000Y-112500000D01*
X153750000Y-112500000D02*
X153750000Y-113550000D01*
X154000000Y-111000000D02*
X154000000Y-112250000D01*
D54*
X148400000Y-118000000D02*
X146450000Y-118000000D01*
D51*
X151275000Y-108696000D02*
X150856010Y-108696000D01*
X153804000Y-110804000D02*
X154000000Y-111000000D01*
X153225000Y-110804000D02*
X153804000Y-110804000D01*
X147950000Y-111450000D02*
X147750000Y-111250000D01*
X148750000Y-111450000D02*
X147950000Y-111450000D01*
D50*
X146450000Y-118000000D02*
X145500000Y-118000000D01*
D53*
X146475000Y-115950000D02*
X147550000Y-115950000D01*
X147900000Y-115600000D02*
X150000000Y-115600000D01*
X147550000Y-115950000D02*
X147900000Y-115600000D01*
D54*
X150000000Y-115600000D02*
X150000000Y-117500000D01*
X150500000Y-118000000D02*
X151600000Y-118000000D01*
X150000000Y-117500000D02*
X150500000Y-118000000D01*
D53*
X146475000Y-113050000D02*
X147550000Y-113050000D01*
X147900000Y-113400000D02*
X150000000Y-113400000D01*
X147550000Y-113050000D02*
X147900000Y-113400000D01*
D51*
X106760003Y-95750000D02*
X106750000Y-95739997D01*
X107800000Y-95750000D02*
X106760003Y-95750000D01*
X104850000Y-94200000D02*
X105000000Y-94050000D01*
X104300000Y-94200000D02*
X104850000Y-94200000D01*
X104250000Y-94250000D02*
X104300000Y-94200000D01*
X107000000Y-96250000D02*
X106750000Y-96500000D01*
X107800000Y-96250000D02*
X107000000Y-96250000D01*
X105000000Y-99000000D02*
X105000000Y-98450000D01*
X104770986Y-99229014D02*
X105000000Y-99000000D01*
X117750000Y-91250000D02*
X116790000Y-91250000D01*
X119050000Y-90500000D02*
X118500000Y-90500000D01*
X118500000Y-90500000D02*
X117750000Y-91250000D01*
X142250000Y-107950000D02*
X142250000Y-109750000D01*
D50*
X142250000Y-110500000D02*
X142250000Y-110097970D01*
X142152030Y-110000000D02*
X142250000Y-110097970D01*
X142250000Y-110097970D02*
X142250000Y-109750000D01*
X141450000Y-110000000D02*
X142152030Y-110000000D01*
X142250000Y-111250000D02*
X142250000Y-110500000D01*
X141400000Y-112000000D02*
X141500000Y-112000000D01*
X141500000Y-112000000D02*
X142250000Y-111250000D01*
X141600000Y-114050000D02*
X141600000Y-112200000D01*
X141600000Y-112200000D02*
X141400000Y-112000000D01*
X140650000Y-113900000D02*
X140800000Y-114050000D01*
X140800000Y-114050000D02*
X141600000Y-114050000D01*
X136750000Y-113900000D02*
X140650000Y-113900000D01*
D51*
X130100000Y-98250000D02*
X131050000Y-98250000D01*
X129800000Y-98250000D02*
X130100000Y-98250000D01*
X129500000Y-98550000D02*
X129800000Y-98250000D01*
X129000000Y-98550000D02*
X129500000Y-98550000D01*
X128500000Y-98550000D02*
X128050000Y-99000000D01*
X129000000Y-98550000D02*
X128500000Y-98550000D01*
X127245000Y-99000000D02*
X127200000Y-99045000D01*
X128050000Y-99000000D02*
X127245000Y-99000000D01*
X131989997Y-100250000D02*
X132250000Y-100510003D01*
X131050000Y-100250000D02*
X131989997Y-100250000D01*
X132213405Y-98250000D02*
X132249210Y-98214195D01*
X131050000Y-98250000D02*
X132213405Y-98250000D01*
X135250000Y-107950000D02*
X135250000Y-109250000D01*
D52*
X135250000Y-109250000D02*
X135250000Y-109500000D01*
X135750000Y-110000000D02*
X136800000Y-110000000D01*
X135250000Y-109500000D02*
X135750000Y-110000000D01*
X136800000Y-110950000D02*
X136750000Y-111000000D01*
X136800000Y-110000000D02*
X136800000Y-110950000D01*
D51*
X145500000Y-100250000D02*
X145250000Y-100500000D01*
X146450000Y-100250000D02*
X145500000Y-100250000D01*
X128670000Y-92050000D02*
X129000000Y-92050000D01*
X128175000Y-92545000D02*
X128670000Y-92050000D01*
X127200000Y-92545000D02*
X128175000Y-92545000D01*
X128270000Y-108020000D02*
X128500000Y-108250000D01*
X127100000Y-108020000D02*
X128270000Y-108020000D01*
X128550000Y-108200000D02*
X128500000Y-108250000D01*
X129250000Y-108200000D02*
X128550000Y-108200000D01*
X127100000Y-108020000D02*
X124900000Y-108020000D01*
X129260003Y-96931201D02*
X129260003Y-97000000D01*
X128653802Y-96325000D02*
X129260003Y-96931201D01*
X127200000Y-96325000D02*
X128653802Y-96325000D01*
X128439990Y-103089990D02*
X128439990Y-103500000D01*
X128175000Y-102825000D02*
X128439990Y-103089990D01*
X127200000Y-102825000D02*
X128175000Y-102825000D01*
X129000000Y-92050000D02*
X129000000Y-91250000D01*
X129750000Y-100250000D02*
X129500000Y-100500000D01*
X131050000Y-100250000D02*
X129750000Y-100250000D01*
X152575000Y-110804000D02*
X152575000Y-111925000D01*
X152575000Y-111925000D02*
X152500000Y-112000000D01*
X151542500Y-107250000D02*
X150750000Y-107250000D01*
X135750000Y-107000000D02*
X135500000Y-106750000D01*
X135750000Y-107950000D02*
X135750000Y-107000000D01*
X135500000Y-106750000D02*
X135439980Y-106750000D01*
X154850840Y-118149160D02*
X155250000Y-117750000D01*
X155250000Y-117750000D02*
X155250000Y-117000000D01*
X153750000Y-118149160D02*
X154850840Y-118149160D01*
D50*
X138500000Y-112000000D02*
X137750000Y-112000000D01*
X139600000Y-112000000D02*
X138500000Y-112000000D01*
X134750000Y-118000000D02*
X134000000Y-118000000D01*
X135500000Y-118000000D02*
X134750000Y-118000000D01*
X136750000Y-118100000D02*
X135600000Y-118100000D01*
X135600000Y-118100000D02*
X135500000Y-118000000D01*
X143500000Y-115500000D02*
X143500000Y-115804416D01*
X143500000Y-115804416D02*
X143500000Y-116500000D01*
X141600000Y-115950000D02*
X143354416Y-115950000D01*
X143354416Y-115950000D02*
X143500000Y-115804416D01*
X141600000Y-115950000D02*
X141600000Y-117800000D01*
X141600000Y-117800000D02*
X141400000Y-118000000D01*
D51*
X151925000Y-107632500D02*
X151542500Y-107250000D01*
X151925000Y-108696000D02*
X151925000Y-107632500D01*
X127200000Y-99675000D02*
X128325000Y-99675000D01*
X128550000Y-99450000D02*
X129000000Y-99450000D01*
X128325000Y-99675000D02*
X128550000Y-99450000D01*
X126075000Y-99675000D02*
X126000000Y-99750000D01*
X127200000Y-99675000D02*
X126075000Y-99675000D01*
X131050000Y-99250000D02*
X129750000Y-99250000D01*
X129550000Y-99450000D02*
X129000000Y-99450000D01*
X129750000Y-99250000D02*
X129550000Y-99450000D01*
X131989997Y-99250000D02*
X132265985Y-98974012D01*
X131050000Y-99250000D02*
X131989997Y-99250000D01*
X132250000Y-97454244D02*
X132250000Y-97500000D01*
X132250050Y-97454194D02*
X132250000Y-97454244D01*
D52*
X137700000Y-110000000D02*
X138750000Y-110000000D01*
D51*
X145260003Y-101750000D02*
X145250000Y-101739997D01*
X146450000Y-101750000D02*
X145260003Y-101750000D01*
X146450000Y-99250000D02*
X145000000Y-99250000D01*
X143250000Y-91250000D02*
X143500000Y-91000000D01*
X143250000Y-92550000D02*
X143250000Y-91250000D01*
X143450000Y-90950000D02*
X143500000Y-91000000D01*
X143450000Y-90250000D02*
X143450000Y-90950000D01*
X136250000Y-91500000D02*
X136500000Y-91250000D01*
X136250000Y-92550000D02*
X136250000Y-91500000D01*
X136450000Y-91200000D02*
X136500000Y-91250000D01*
X136450000Y-90250000D02*
X136450000Y-91200000D01*
X129000000Y-92950000D02*
X128550000Y-92950000D01*
X128325000Y-93175000D02*
X127200000Y-93175000D01*
X128550000Y-92950000D02*
X128325000Y-93175000D01*
X126075000Y-93175000D02*
X126000000Y-93250000D01*
X127200000Y-93175000D02*
X126075000Y-93175000D01*
X128455000Y-96955000D02*
X128500000Y-97000000D01*
X127200000Y-96955000D02*
X128455000Y-96955000D01*
X126045000Y-103455000D02*
X126000000Y-103500000D01*
X127200000Y-103455000D02*
X126045000Y-103455000D01*
X128230000Y-105480000D02*
X128250000Y-105500000D01*
X127100000Y-105480000D02*
X128230000Y-105480000D01*
X128250000Y-106000000D02*
X128750000Y-106500000D01*
X128250000Y-105500000D02*
X128250000Y-106000000D01*
X142750000Y-107950000D02*
X142750000Y-106500000D01*
X140550000Y-110000000D02*
X139750000Y-110000000D01*
X132041973Y-98750000D02*
X132265985Y-98974012D01*
X131050000Y-98750000D02*
X132041973Y-98750000D01*
D53*
X145175000Y-114825000D02*
X145500000Y-114500000D01*
X145175000Y-115950000D02*
X145175000Y-114825000D01*
X145825000Y-114825000D02*
X145500000Y-114500000D01*
X145825000Y-115950000D02*
X145825000Y-114825000D01*
X145175000Y-116740931D02*
X145407697Y-116973628D01*
X145175000Y-115950000D02*
X145175000Y-116740931D01*
D51*
X148050000Y-108300000D02*
X148000000Y-108250000D01*
X148750000Y-108300000D02*
X148050000Y-108300000D01*
D50*
X144100000Y-111900000D02*
X143500000Y-112500000D01*
X144100000Y-111000000D02*
X144100000Y-111900000D01*
X143500000Y-112500000D02*
X143500000Y-113500000D01*
X143500000Y-113500000D02*
X143500000Y-114500000D01*
X143500000Y-114500000D02*
X143500000Y-115500000D01*
X143500000Y-117950000D02*
X143550000Y-118000000D01*
X143500000Y-116500000D02*
X143500000Y-117950000D01*
D51*
X130500000Y-107300000D02*
X129250000Y-107300000D01*
X130000000Y-92950000D02*
X129000000Y-92950000D01*
X148500000Y-107250000D02*
X148500000Y-107750000D01*
X148750000Y-107800000D02*
X148750000Y-108300000D01*
X148700000Y-107750000D02*
X148750000Y-107800000D01*
X148500000Y-107750000D02*
X148700000Y-107750000D01*
X129250000Y-106750000D02*
X129000000Y-106500000D01*
X129000000Y-106500000D02*
X128750000Y-106500000D01*
X129250000Y-107300000D02*
X129250000Y-106750000D01*
D50*
X154500000Y-91500000D02*
X151500000Y-91500000D01*
X151100000Y-91100000D02*
X151100000Y-90500000D01*
X151500000Y-91500000D02*
X151100000Y-91100000D01*
X145172430Y-90000000D02*
X144500000Y-90000000D01*
X146900000Y-90500000D02*
X145672430Y-90500000D01*
X145672430Y-90500000D02*
X145172430Y-90000000D01*
D51*
X145500000Y-102250000D02*
X145250000Y-102500000D01*
X146450000Y-102250000D02*
X145500000Y-102250000D01*
X142750000Y-91250000D02*
X142500000Y-91000000D01*
X142750000Y-92550000D02*
X142750000Y-91250000D01*
X142550000Y-90950000D02*
X142500000Y-91000000D01*
X142550000Y-90250000D02*
X142550000Y-90950000D01*
X135750000Y-91500000D02*
X135500000Y-91250000D01*
X135750000Y-92550000D02*
X135750000Y-91500000D01*
X135550000Y-91200000D02*
X135500000Y-91250000D01*
X135550000Y-90250000D02*
X135550000Y-91200000D01*
X132250000Y-99750000D02*
X131050000Y-99750000D01*
X124900000Y-105480000D02*
X124900000Y-104350000D01*
X124900000Y-104350000D02*
X125250000Y-104000000D01*
X125250000Y-104000000D02*
X125250000Y-99250000D01*
X126250000Y-98250000D02*
X127250000Y-98250000D01*
X125250000Y-99250000D02*
X126250000Y-98250000D01*
X129750000Y-105250000D02*
X131050000Y-105250000D01*
X129389990Y-104889990D02*
X129750000Y-105250000D01*
X128315163Y-101565163D02*
X129389990Y-102639990D01*
X128315163Y-101065163D02*
X128315163Y-101565163D01*
X129389990Y-102639990D02*
X129389990Y-104889990D01*
X128185000Y-100935000D02*
X128315163Y-101065163D01*
X127200000Y-100935000D02*
X128185000Y-100935000D01*
X129000000Y-105500000D02*
X129750000Y-106250000D01*
X129000000Y-103000000D02*
X129000000Y-105500000D01*
X128195000Y-102195000D02*
X129000000Y-103000000D01*
X129750000Y-106250000D02*
X131050000Y-106250000D01*
X127200000Y-102195000D02*
X128195000Y-102195000D01*
X152575000Y-108696000D02*
X152575000Y-107773369D01*
X150551631Y-105750000D02*
X146450000Y-105750000D01*
X151561085Y-106759454D02*
X150551631Y-105750000D01*
X152575000Y-107773369D02*
X151561085Y-106759454D01*
X151561085Y-106759454D02*
X151301631Y-106500000D01*
X148750000Y-109200000D02*
X148750000Y-109871790D01*
X148750000Y-109871790D02*
X148750000Y-110550000D01*
X144525000Y-112475000D02*
X144525000Y-113050000D01*
X145000000Y-112000000D02*
X144525000Y-112475000D01*
X145000000Y-109500000D02*
X145000000Y-112000000D01*
X145500000Y-109000000D02*
X145000000Y-109500000D01*
X147250000Y-109000000D02*
X145500000Y-109000000D01*
X148121790Y-109871790D02*
X147250000Y-109000000D01*
X148750000Y-109871790D02*
X148121790Y-109871790D01*
X113000000Y-89900000D02*
X113060001Y-89839999D01*
X113060001Y-88735195D02*
X113037403Y-88712597D01*
X113060001Y-89839999D02*
X113060001Y-88735195D01*
X113000000Y-90550000D02*
X113000000Y-89900000D01*
X121800000Y-100935000D02*
X123416880Y-100935000D01*
X123416880Y-100935000D02*
X123522427Y-100829453D01*
X112500000Y-90550000D02*
X112500000Y-89250000D01*
X121800000Y-102195000D02*
X122804996Y-102195000D01*
X122804996Y-102195000D02*
X122850001Y-102149995D01*
X122850001Y-102149995D02*
X123250000Y-101749996D01*
X111939999Y-88735195D02*
X111962597Y-88712597D01*
X111939999Y-89839999D02*
X111939999Y-88735195D01*
X112000000Y-89900000D02*
X111939999Y-89839999D01*
X112000000Y-90550000D02*
X112000000Y-89900000D01*
X121800000Y-100305000D02*
X122775000Y-100305000D01*
X122775000Y-100305000D02*
X123250000Y-99830000D01*
X123250000Y-99830000D02*
X123250000Y-99750000D01*
D50*
X133500000Y-115000000D02*
X133078170Y-114578170D01*
X133078170Y-114578170D02*
X132000000Y-113500000D01*
X139400000Y-116150000D02*
X134650000Y-116150000D01*
X134650000Y-116150000D02*
X133078170Y-114578170D01*
X139600000Y-116350000D02*
X139400000Y-116150000D01*
X139400000Y-116150000D02*
X139400000Y-115000000D01*
X139600000Y-118000000D02*
X139600000Y-116350000D01*
D53*
X145825000Y-111075000D02*
X145900000Y-111000000D01*
X145825000Y-113050000D02*
X145825000Y-111075000D01*
D50*
X145770986Y-109560010D02*
X145810010Y-109560010D01*
X146115056Y-110784944D02*
X145900000Y-111000000D01*
X146115056Y-109560010D02*
X146115056Y-110784944D01*
X145810010Y-109560010D02*
X146115056Y-109560010D01*
X146115056Y-109560010D02*
X146439990Y-109560010D01*
X132000000Y-113500000D02*
X129580000Y-113500000D01*
D51*
X150000000Y-107000000D02*
X149250000Y-106250000D01*
X150000000Y-111750000D02*
X150000000Y-107000000D01*
X150500000Y-112250000D02*
X150000000Y-111750000D01*
X151542500Y-112250000D02*
X150500000Y-112250000D01*
X151925000Y-111867500D02*
X151542500Y-112250000D01*
X151925000Y-110804000D02*
X151925000Y-111867500D01*
X147600000Y-106261686D02*
X147588314Y-106250000D01*
X147600000Y-107250000D02*
X147600000Y-106261686D01*
X147588314Y-106250000D02*
X146450000Y-106250000D01*
X149250000Y-106250000D02*
X147588314Y-106250000D01*
X153750000Y-114450000D02*
X153750000Y-116350840D01*
X135518782Y-106000000D02*
X134500000Y-106000000D01*
X136250000Y-107950000D02*
X136250000Y-106731218D01*
X136250000Y-106731218D02*
X135518782Y-106000000D01*
X136750000Y-107950000D02*
X136750000Y-106689990D01*
X136750000Y-106689990D02*
X135500000Y-105439990D01*
X137250000Y-107950000D02*
X137250000Y-106250000D01*
X137250000Y-106250000D02*
X136500000Y-105500000D01*
X137750000Y-107950000D02*
X137750000Y-105750000D01*
X137750000Y-105750000D02*
X137500000Y-105500000D01*
X138250000Y-105750000D02*
X138500000Y-105500000D01*
X138250000Y-107950000D02*
X138250000Y-105750000D01*
X138750000Y-107950000D02*
X138750000Y-106250000D01*
X138750000Y-106250000D02*
X139500000Y-105500000D01*
X139250000Y-107950000D02*
X139250000Y-106750000D01*
X139250000Y-106750000D02*
X140500000Y-105500000D01*
X139750000Y-107950000D02*
X139750000Y-107250000D01*
X139750000Y-107250000D02*
X141500000Y-105500000D01*
D53*
G36*
X118720000Y-108350000D02*
X118700000Y-108350000D01*
X118700000Y-108370000D01*
X118500000Y-108370000D01*
X118500000Y-108350000D01*
X117537500Y-108350000D01*
X117375000Y-108512500D01*
X117375000Y-108845707D01*
X117375000Y-109104293D01*
X117436504Y-109252777D01*
X117364552Y-109324605D01*
X117250197Y-109600000D01*
X116700000Y-109600000D01*
X116700000Y-107400000D01*
X116650000Y-107148635D01*
X116650000Y-107148631D01*
X116650000Y-106250000D01*
X116630000Y-106250000D01*
X116630000Y-106050000D01*
X116650000Y-106050000D01*
X116650000Y-106030000D01*
X116850000Y-106030000D01*
X116850000Y-106050000D01*
X116870000Y-106050000D01*
X116870000Y-106250000D01*
X116850000Y-106250000D01*
X116850000Y-107212500D01*
X117012500Y-107375000D01*
X117345707Y-107375000D01*
X117383577Y-107375000D01*
X117375000Y-107395707D01*
X117375000Y-107654293D01*
X117375000Y-107987500D01*
X117537500Y-108150000D01*
X118500000Y-108150000D01*
X118500000Y-107037500D01*
X118450000Y-106987500D01*
X118450000Y-106450000D01*
X118430000Y-106450000D01*
X118430000Y-106250000D01*
X118450000Y-106250000D01*
X118450000Y-106230000D01*
X118650000Y-106230000D01*
X118650000Y-106250000D01*
X118670000Y-106250000D01*
X118670000Y-106450000D01*
X118650000Y-106450000D01*
X118650000Y-107487500D01*
X118700000Y-107537500D01*
X118700000Y-108150000D01*
X118720000Y-108150000D01*
X118720000Y-108350000D01*
X118720000Y-108350000D01*
G37*
X118720000Y-108350000D02*
X118700000Y-108350000D01*
X118700000Y-108370000D01*
X118500000Y-108370000D01*
X118500000Y-108350000D01*
X117537500Y-108350000D01*
X117375000Y-108512500D01*
X117375000Y-108845707D01*
X117375000Y-109104293D01*
X117436504Y-109252777D01*
X117364552Y-109324605D01*
X117250197Y-109600000D01*
X116700000Y-109600000D01*
X116700000Y-107400000D01*
X116650000Y-107148635D01*
X116650000Y-107148631D01*
X116650000Y-106250000D01*
X116630000Y-106250000D01*
X116630000Y-106050000D01*
X116650000Y-106050000D01*
X116650000Y-106030000D01*
X116850000Y-106030000D01*
X116850000Y-106050000D01*
X116870000Y-106050000D01*
X116870000Y-106250000D01*
X116850000Y-106250000D01*
X116850000Y-107212500D01*
X117012500Y-107375000D01*
X117345707Y-107375000D01*
X117383577Y-107375000D01*
X117375000Y-107395707D01*
X117375000Y-107654293D01*
X117375000Y-107987500D01*
X117537500Y-108150000D01*
X118500000Y-108150000D01*
X118500000Y-107037500D01*
X118450000Y-106987500D01*
X118450000Y-106450000D01*
X118430000Y-106450000D01*
X118430000Y-106250000D01*
X118450000Y-106250000D01*
X118450000Y-106230000D01*
X118650000Y-106230000D01*
X118650000Y-106250000D01*
X118670000Y-106250000D01*
X118670000Y-106450000D01*
X118650000Y-106450000D01*
X118650000Y-107487500D01*
X118700000Y-107537500D01*
X118700000Y-108150000D01*
X118720000Y-108150000D01*
X118720000Y-108350000D01*
D55*
G36*
X107873000Y-112840000D02*
X107872998Y-112840000D01*
X107872998Y-112998748D01*
X107714250Y-112840000D01*
X107573690Y-112840000D01*
X107344822Y-112934800D01*
X107176310Y-112865000D01*
X107035750Y-112865000D01*
X106877000Y-113023750D01*
X106877000Y-113123000D01*
X106623000Y-113123000D01*
X106623000Y-113023750D01*
X106464250Y-112865000D01*
X106323690Y-112865000D01*
X106127000Y-112946471D01*
X106127000Y-111377000D01*
X106644967Y-111377000D01*
X106644968Y-111377000D01*
X106719625Y-111426885D01*
X106719626Y-111426885D01*
X106753084Y-111433540D01*
X106921300Y-111467000D01*
X107873000Y-111467000D01*
X107873000Y-112840000D01*
X107873000Y-112840000D01*
G37*
X107873000Y-112840000D02*
X107872998Y-112840000D01*
X107872998Y-112998748D01*
X107714250Y-112840000D01*
X107573690Y-112840000D01*
X107344822Y-112934800D01*
X107176310Y-112865000D01*
X107035750Y-112865000D01*
X106877000Y-113023750D01*
X106877000Y-113123000D01*
X106623000Y-113123000D01*
X106623000Y-113023750D01*
X106464250Y-112865000D01*
X106323690Y-112865000D01*
X106127000Y-112946471D01*
X106127000Y-111377000D01*
X106644967Y-111377000D01*
X106644968Y-111377000D01*
X106719625Y-111426885D01*
X106719626Y-111426885D01*
X106753084Y-111433540D01*
X106921300Y-111467000D01*
X107873000Y-111467000D01*
X107873000Y-112840000D01*
G36*
X144247000Y-111127000D02*
X144227000Y-111127000D01*
X144227000Y-111147000D01*
X143973000Y-111147000D01*
X143973000Y-111127000D01*
X143953000Y-111127000D01*
X143953000Y-110873000D01*
X143973000Y-110873000D01*
X143973000Y-110853000D01*
X144227000Y-110853000D01*
X144227000Y-110873000D01*
X144247000Y-110873000D01*
X144247000Y-111127000D01*
X144247000Y-111127000D01*
G37*
X144247000Y-111127000D02*
X144227000Y-111127000D01*
X144227000Y-111147000D01*
X143973000Y-111147000D01*
X143973000Y-111127000D01*
X143953000Y-111127000D01*
X143953000Y-110873000D01*
X143973000Y-110873000D01*
X143973000Y-110853000D01*
X144227000Y-110853000D01*
X144227000Y-110873000D01*
X144247000Y-110873000D01*
X144247000Y-111127000D01*
G36*
X146623000Y-114573000D02*
X145573000Y-114573000D01*
X145573000Y-114938789D01*
X145500000Y-114970049D01*
X145371316Y-114914944D01*
X145250000Y-115053257D01*
X145250000Y-115148030D01*
X145148355Y-115257261D01*
X145105220Y-115373000D01*
X145100000Y-115373000D01*
X145100000Y-115053257D01*
X144978684Y-114914944D01*
X144709723Y-115030119D01*
X144640676Y-115104317D01*
X144525000Y-115081308D01*
X144304192Y-115125230D01*
X144116999Y-115250307D01*
X143991922Y-115437500D01*
X143948000Y-115658308D01*
X143948000Y-116241692D01*
X143991922Y-116462500D01*
X143993592Y-116465000D01*
X143835750Y-116465000D01*
X143677000Y-116623750D01*
X143677000Y-117873000D01*
X143697000Y-117873000D01*
X143697000Y-118127000D01*
X143677000Y-118127000D01*
X143677000Y-118147000D01*
X143423000Y-118147000D01*
X143423000Y-118127000D01*
X143403000Y-118127000D01*
X143403000Y-117873000D01*
X143423000Y-117873000D01*
X143423000Y-116623750D01*
X143264250Y-116465000D01*
X143127000Y-116465000D01*
X143127000Y-112225025D01*
X143165302Y-112263327D01*
X143398691Y-112360000D01*
X143814250Y-112360000D01*
X143972998Y-112201252D01*
X143972998Y-112360000D01*
X144020874Y-112360000D01*
X143998000Y-112475000D01*
X143998000Y-112528403D01*
X143991922Y-112537500D01*
X143948000Y-112758308D01*
X143948000Y-113341692D01*
X143991922Y-113562500D01*
X144116999Y-113749693D01*
X144304192Y-113874770D01*
X144525000Y-113918692D01*
X144745808Y-113874770D01*
X144850000Y-113805151D01*
X144954192Y-113874770D01*
X145175000Y-113918692D01*
X145395808Y-113874770D01*
X145500000Y-113805151D01*
X145604192Y-113874770D01*
X145825000Y-113918692D01*
X146045808Y-113874770D01*
X146150000Y-113805151D01*
X146254192Y-113874770D01*
X146475000Y-113918692D01*
X146623000Y-113889252D01*
X146623000Y-114573000D01*
X146623000Y-114573000D01*
G37*
X146623000Y-114573000D02*
X145573000Y-114573000D01*
X145573000Y-114938789D01*
X145500000Y-114970049D01*
X145371316Y-114914944D01*
X145250000Y-115053257D01*
X145250000Y-115148030D01*
X145148355Y-115257261D01*
X145105220Y-115373000D01*
X145100000Y-115373000D01*
X145100000Y-115053257D01*
X144978684Y-114914944D01*
X144709723Y-115030119D01*
X144640676Y-115104317D01*
X144525000Y-115081308D01*
X144304192Y-115125230D01*
X144116999Y-115250307D01*
X143991922Y-115437500D01*
X143948000Y-115658308D01*
X143948000Y-116241692D01*
X143991922Y-116462500D01*
X143993592Y-116465000D01*
X143835750Y-116465000D01*
X143677000Y-116623750D01*
X143677000Y-117873000D01*
X143697000Y-117873000D01*
X143697000Y-118127000D01*
X143677000Y-118127000D01*
X143677000Y-118147000D01*
X143423000Y-118147000D01*
X143423000Y-118127000D01*
X143403000Y-118127000D01*
X143403000Y-117873000D01*
X143423000Y-117873000D01*
X143423000Y-116623750D01*
X143264250Y-116465000D01*
X143127000Y-116465000D01*
X143127000Y-112225025D01*
X143165302Y-112263327D01*
X143398691Y-112360000D01*
X143814250Y-112360000D01*
X143972998Y-112201252D01*
X143972998Y-112360000D01*
X144020874Y-112360000D01*
X143998000Y-112475000D01*
X143998000Y-112528403D01*
X143991922Y-112537500D01*
X143948000Y-112758308D01*
X143948000Y-113341692D01*
X143991922Y-113562500D01*
X144116999Y-113749693D01*
X144304192Y-113874770D01*
X144525000Y-113918692D01*
X144745808Y-113874770D01*
X144850000Y-113805151D01*
X144954192Y-113874770D01*
X145175000Y-113918692D01*
X145395808Y-113874770D01*
X145500000Y-113805151D01*
X145604192Y-113874770D01*
X145825000Y-113918692D01*
X146045808Y-113874770D01*
X146150000Y-113805151D01*
X146254192Y-113874770D01*
X146475000Y-113918692D01*
X146623000Y-113889252D01*
X146623000Y-114573000D01*
D51*
G36*
X151400000Y-118150000D02*
X150700000Y-118150000D01*
X150550000Y-118300000D01*
X150550000Y-118480653D01*
X150550000Y-118650000D01*
X150041421Y-118650000D01*
X149350000Y-117958579D01*
X149350000Y-116700000D01*
X149450000Y-116700000D01*
X149600000Y-116550000D01*
X149600000Y-115850000D01*
X148200000Y-115850000D01*
X148050000Y-116000000D01*
X148050000Y-116219348D01*
X148141345Y-116439873D01*
X148310128Y-116608656D01*
X148409941Y-116650000D01*
X147102363Y-116650000D01*
X147190347Y-116516762D01*
X147247547Y-116220801D01*
X147087379Y-116100000D01*
X146550000Y-116100000D01*
X146550000Y-116120000D01*
X146400000Y-116120000D01*
X146400000Y-116100000D01*
X146325000Y-116100000D01*
X146325000Y-115800000D01*
X146400000Y-115800000D01*
X146400000Y-115780000D01*
X146550000Y-115780000D01*
X146550000Y-115800000D01*
X147087379Y-115800000D01*
X147247547Y-115679199D01*
X147190347Y-115383238D01*
X147024242Y-115131696D01*
X146977359Y-115100000D01*
X148050000Y-115100000D01*
X148050000Y-115200000D01*
X148200000Y-115350000D01*
X149600000Y-115350000D01*
X149600000Y-115180000D01*
X150400000Y-115180000D01*
X150400000Y-115350000D01*
X150420000Y-115350000D01*
X150420000Y-115850000D01*
X150400000Y-115850000D01*
X150400000Y-116550000D01*
X150550000Y-116700000D01*
X151400000Y-116700000D01*
X151400000Y-116900000D01*
X151300000Y-116800000D01*
X151030653Y-116800000D01*
X150810128Y-116891344D01*
X150641345Y-117060127D01*
X150550000Y-117280652D01*
X150550000Y-117519347D01*
X150550000Y-117700000D01*
X150700000Y-117850000D01*
X151400000Y-117850000D01*
X151400000Y-118150000D01*
X151400000Y-118150000D01*
G37*
X151400000Y-118150000D02*
X150700000Y-118150000D01*
X150550000Y-118300000D01*
X150550000Y-118480653D01*
X150550000Y-118650000D01*
X150041421Y-118650000D01*
X149350000Y-117958579D01*
X149350000Y-116700000D01*
X149450000Y-116700000D01*
X149600000Y-116550000D01*
X149600000Y-115850000D01*
X148200000Y-115850000D01*
X148050000Y-116000000D01*
X148050000Y-116219348D01*
X148141345Y-116439873D01*
X148310128Y-116608656D01*
X148409941Y-116650000D01*
X147102363Y-116650000D01*
X147190347Y-116516762D01*
X147247547Y-116220801D01*
X147087379Y-116100000D01*
X146550000Y-116100000D01*
X146550000Y-116120000D01*
X146400000Y-116120000D01*
X146400000Y-116100000D01*
X146325000Y-116100000D01*
X146325000Y-115800000D01*
X146400000Y-115800000D01*
X146400000Y-115780000D01*
X146550000Y-115780000D01*
X146550000Y-115800000D01*
X147087379Y-115800000D01*
X147247547Y-115679199D01*
X147190347Y-115383238D01*
X147024242Y-115131696D01*
X146977359Y-115100000D01*
X148050000Y-115100000D01*
X148050000Y-115200000D01*
X148200000Y-115350000D01*
X149600000Y-115350000D01*
X149600000Y-115180000D01*
X150400000Y-115180000D01*
X150400000Y-115350000D01*
X150420000Y-115350000D01*
X150420000Y-115850000D01*
X150400000Y-115850000D01*
X150400000Y-116550000D01*
X150550000Y-116700000D01*
X151400000Y-116700000D01*
X151400000Y-116900000D01*
X151300000Y-116800000D01*
X151030653Y-116800000D01*
X150810128Y-116891344D01*
X150641345Y-117060127D01*
X150550000Y-117280652D01*
X150550000Y-117519347D01*
X150550000Y-117700000D01*
X150700000Y-117850000D01*
X151400000Y-117850000D01*
X151400000Y-118150000D01*
M02*
