G04 #@! TF.FileFunction,Soldermask,Top*
%FSLAX46Y46*%
G04 Gerber Fmt 4.6, Leading zero omitted, Abs format (unit mm)*
G04 Created by KiCad (PCBNEW (after 2015-mar-04 BZR unknown)-product) date Tue 07 Apr 2015 10:15:23 PM EDT*
%MOMM*%
G01*
G04 APERTURE LIST*
%ADD10C,0.100000*%
%ADD11O,1.500000X0.300000*%
%ADD12O,0.300000X1.500000*%
%ADD13O,0.300000X0.850000*%
%ADD14R,2.100000X1.600000*%
%ADD15R,0.900000X0.950000*%
%ADD16R,2.286000X1.524000*%
%ADD17O,2.286000X1.524000*%
%ADD18C,2.900000*%
%ADD19R,2.400000X2.000000*%
%ADD20C,2.000000*%
%ADD21R,0.300000X0.900000*%
%ADD22R,0.900000X0.300000*%
%ADD23R,6.150000X6.150000*%
%ADD24R,0.899160X0.800100*%
%ADD25R,1.100000X1.300000*%
%ADD26R,0.900000X1.300000*%
%ADD27R,1.000000X0.950000*%
%ADD28R,1.350000X0.400000*%
%ADD29O,1.550000X1.550000*%
%ADD30O,1.250000X1.250000*%
%ADD31R,0.800000X1.300000*%
%ADD32R,1.300000X0.900000*%
%ADD33R,1.300000X0.800000*%
%ADD34R,1.600000X1.500000*%
%ADD35R,1.200000X1.800000*%
%ADD36R,0.900000X1.200000*%
%ADD37R,2.700000X1.000000*%
%ADD38R,0.457000X1.727000*%
%ADD39R,0.950000X1.450000*%
%ADD40R,0.600000X0.600000*%
%ADD41R,0.650000X0.600000*%
%ADD42R,0.600000X0.650000*%
%ADD43R,1.450000X1.150000*%
%ADD44R,1.150000X1.450000*%
%ADD45O,1.550000X0.400000*%
%ADD46R,1.550000X2.400000*%
%ADD47R,2.400000X1.550000*%
%ADD48R,0.800100X0.899160*%
G04 APERTURE END LIST*
D10*
D11*
X131050000Y-94250000D03*
X131050000Y-94750000D03*
X131050000Y-95250000D03*
X131050000Y-95750000D03*
X131050000Y-96250000D03*
X131050000Y-96750000D03*
X131050000Y-97250000D03*
X131050000Y-97750000D03*
X131050000Y-98250000D03*
X131050000Y-98750000D03*
X131050000Y-99250000D03*
X131050000Y-99750000D03*
X131050000Y-100250000D03*
X131050000Y-100750000D03*
X131050000Y-101250000D03*
X131050000Y-101750000D03*
X131050000Y-102250000D03*
X131050000Y-102750000D03*
X131050000Y-103250000D03*
X131050000Y-103750000D03*
X131050000Y-104250000D03*
X131050000Y-104750000D03*
X131050000Y-105250000D03*
X131050000Y-105750000D03*
X131050000Y-106250000D03*
D12*
X132750000Y-107950000D03*
X133250000Y-107950000D03*
X133750000Y-107950000D03*
X134250000Y-107950000D03*
X134750000Y-107950000D03*
X135250000Y-107950000D03*
X135750000Y-107950000D03*
X136250000Y-107950000D03*
X136750000Y-107950000D03*
X137250000Y-107950000D03*
X137750000Y-107950000D03*
X138250000Y-107950000D03*
X138750000Y-107950000D03*
X139250000Y-107950000D03*
X139750000Y-107950000D03*
X140250000Y-107950000D03*
X140750000Y-107950000D03*
X141250000Y-107950000D03*
X141750000Y-107950000D03*
X142250000Y-107950000D03*
X142750000Y-107950000D03*
X143250000Y-107950000D03*
X143750000Y-107950000D03*
X144250000Y-107950000D03*
X144750000Y-107950000D03*
D11*
X146450000Y-106250000D03*
X146450000Y-105750000D03*
X146450000Y-105250000D03*
X146450000Y-104750000D03*
X146450000Y-104250000D03*
X146450000Y-103750000D03*
X146450000Y-103250000D03*
X146450000Y-102750000D03*
X146450000Y-102250000D03*
X146450000Y-101750000D03*
X146450000Y-101250000D03*
X146450000Y-100750000D03*
X146450000Y-100250000D03*
X146450000Y-99750000D03*
X146450000Y-99250000D03*
X146450000Y-98750000D03*
X146450000Y-98250000D03*
X146450000Y-97750000D03*
X146450000Y-97250000D03*
X146450000Y-96750000D03*
X146450000Y-96250000D03*
X146450000Y-95750000D03*
X146450000Y-95250000D03*
X146450000Y-94750000D03*
X146450000Y-94250000D03*
D12*
X144750000Y-92550000D03*
X144250000Y-92550000D03*
X143750000Y-92550000D03*
X143250000Y-92550000D03*
X142750000Y-92550000D03*
X142250000Y-92550000D03*
X141750000Y-92550000D03*
X141250000Y-92550000D03*
X140750000Y-92550000D03*
X140250000Y-92550000D03*
X139750000Y-92550000D03*
X139250000Y-92550000D03*
X138750000Y-92550000D03*
X138250000Y-92550000D03*
X137750000Y-92550000D03*
X137250000Y-92550000D03*
X136750000Y-92550000D03*
X136250000Y-92550000D03*
X135750000Y-92550000D03*
X135250000Y-92550000D03*
X134750000Y-92550000D03*
X134250000Y-92550000D03*
X133750000Y-92550000D03*
X133250000Y-92550000D03*
X132750000Y-92550000D03*
D13*
X146475000Y-113050000D03*
X145825000Y-113050000D03*
X145175000Y-113050000D03*
X144525000Y-113050000D03*
X144525000Y-115950000D03*
X145175000Y-115950000D03*
X145825000Y-115950000D03*
X146475000Y-115950000D03*
D14*
X145500000Y-114500000D03*
D15*
X122950000Y-89000000D03*
X121450000Y-89000000D03*
D16*
X157976000Y-92570000D03*
D17*
X157976000Y-95110000D03*
X157976000Y-97650000D03*
X157976000Y-100190000D03*
X157976000Y-102730000D03*
X157976000Y-105270000D03*
X157976000Y-107810000D03*
X157976000Y-110350000D03*
X157976000Y-112890000D03*
X157976000Y-115430000D03*
X161024000Y-92570000D03*
X161024000Y-95110000D03*
X161024000Y-97650000D03*
X161024000Y-100190000D03*
X161024000Y-102730000D03*
X161024000Y-105270000D03*
X161024000Y-107810000D03*
X161024000Y-110350000D03*
X161024000Y-112890000D03*
X161024000Y-115430000D03*
D18*
X160000000Y-118000000D03*
X160000000Y-90000000D03*
X102500000Y-118000000D03*
D19*
X102500000Y-99500000D03*
X102500000Y-103500000D03*
D18*
X102500000Y-90000000D03*
D20*
X116880000Y-113500000D03*
X119420000Y-113500000D03*
X124500000Y-113500000D03*
X129580000Y-113500000D03*
D21*
X108500000Y-99540000D03*
X109000000Y-99450000D03*
X109500000Y-99450000D03*
X110000000Y-99450000D03*
X110500000Y-99450000D03*
X111000000Y-99450000D03*
X111500000Y-99450000D03*
X112000000Y-99450000D03*
X112500000Y-99450000D03*
X113000000Y-99450000D03*
X113500000Y-99450000D03*
X114000000Y-99450000D03*
X114500000Y-99450000D03*
X115000000Y-99450000D03*
X115500000Y-99450000D03*
X116000000Y-99540000D03*
D22*
X116790000Y-98750000D03*
X116700000Y-98250000D03*
X116700000Y-97750000D03*
X116700000Y-97250000D03*
X116700000Y-96750000D03*
X116700000Y-96250000D03*
X116700000Y-95750000D03*
X116700000Y-95250000D03*
X116700000Y-94750000D03*
X116700000Y-94250000D03*
X116700000Y-93750000D03*
X116700000Y-93250000D03*
X116700000Y-92750000D03*
X116700000Y-92250000D03*
X116700000Y-91750000D03*
X116790000Y-91250000D03*
D21*
X116000000Y-90460000D03*
X115500000Y-90550000D03*
X115000000Y-90550000D03*
X114500000Y-90550000D03*
X114000000Y-90550000D03*
X113500000Y-90550000D03*
X113000000Y-90550000D03*
X112500000Y-90550000D03*
X112000000Y-90550000D03*
X111500000Y-90550000D03*
X111000000Y-90550000D03*
X110500000Y-90550000D03*
X110000000Y-90550000D03*
X109500000Y-90550000D03*
X109000000Y-90550000D03*
X108500000Y-90460000D03*
D22*
X107710000Y-91250000D03*
X107800000Y-91750000D03*
X107800000Y-92250000D03*
X107800000Y-92750000D03*
X107800000Y-93250000D03*
X107800000Y-93750000D03*
X107800000Y-94250000D03*
X107800000Y-94750000D03*
X107800000Y-95250000D03*
X107800000Y-95750000D03*
X107800000Y-96250000D03*
X107800000Y-96750000D03*
X107800000Y-97250000D03*
X107800000Y-97750000D03*
X107800000Y-98250000D03*
X107710000Y-98750000D03*
D23*
X112250000Y-95000000D03*
D24*
X101600840Y-95500000D03*
X103399160Y-95500000D03*
X101600840Y-97250000D03*
X103399160Y-97250000D03*
D25*
X111250000Y-104150000D03*
D26*
X109550000Y-104150000D03*
X109550000Y-106350000D03*
X111450000Y-106350000D03*
D27*
X109750000Y-114550000D03*
X109750000Y-112950000D03*
D28*
X104000000Y-108950000D03*
X104000000Y-109600000D03*
X104000000Y-110250000D03*
X104000000Y-110900000D03*
X104000000Y-111550000D03*
D29*
X101300000Y-106750000D03*
X101300000Y-113750000D03*
D30*
X104000000Y-107750000D03*
X104000000Y-112750000D03*
D26*
X113050000Y-106350000D03*
X114950000Y-106350000D03*
D31*
X114000000Y-104150000D03*
D26*
X118550000Y-106350000D03*
X120450000Y-106350000D03*
D31*
X119500000Y-104150000D03*
D32*
X141600000Y-115950000D03*
X141600000Y-114050000D03*
D33*
X139400000Y-115000000D03*
D34*
X127100000Y-108020000D03*
X127100000Y-105480000D03*
X124900000Y-105480000D03*
X124900000Y-108020000D03*
D35*
X146450000Y-118000000D03*
X143550000Y-118000000D03*
D36*
X148400000Y-118000000D03*
X151600000Y-118000000D03*
D37*
X150000000Y-115600000D03*
X150000000Y-113400000D03*
D38*
X153225000Y-108696000D03*
X152575000Y-108696000D03*
X151925000Y-108696000D03*
X151275000Y-108696000D03*
X151275000Y-110804000D03*
X151925000Y-110804000D03*
X152575000Y-110804000D03*
X153225000Y-110804000D03*
D39*
X154500000Y-93500000D03*
X152500000Y-93500000D03*
X150500000Y-95000000D03*
X148500000Y-95000000D03*
X154500000Y-96500000D03*
X152500000Y-96500000D03*
X150500000Y-98000000D03*
X148500000Y-98000000D03*
X154500000Y-99500000D03*
X152500000Y-99500000D03*
X150500000Y-101000000D03*
X148500000Y-101000000D03*
X154500000Y-102500000D03*
X152500000Y-102500000D03*
X150500000Y-104000000D03*
X148500000Y-104000000D03*
X154500000Y-106000000D03*
X152500000Y-106000000D03*
D40*
X105000000Y-94050000D03*
X105000000Y-94950000D03*
X105000000Y-98450000D03*
X105000000Y-97550000D03*
D41*
X110450000Y-89000000D03*
X109550000Y-89000000D03*
X114550000Y-89000000D03*
X115450000Y-89000000D03*
D42*
X106250000Y-94050000D03*
X106250000Y-94950000D03*
X118250000Y-96950000D03*
X118250000Y-96050000D03*
X106250000Y-98450000D03*
X106250000Y-97550000D03*
D41*
X115300000Y-101500000D03*
X116200000Y-101500000D03*
D15*
X122950000Y-90600000D03*
X121450000Y-90600000D03*
D40*
X124750000Y-90200000D03*
X124750000Y-89300000D03*
X119950000Y-89000000D03*
X119050000Y-89000000D03*
X119950000Y-90500000D03*
X119050000Y-90500000D03*
D42*
X120000000Y-92050000D03*
X120000000Y-92950000D03*
X129000000Y-92050000D03*
X129000000Y-92950000D03*
X105500000Y-99800000D03*
X105500000Y-100700000D03*
X105500000Y-103200000D03*
X105500000Y-102300000D03*
D41*
X108950000Y-101250000D03*
X108050000Y-101250000D03*
D40*
X108950000Y-102500000D03*
X108050000Y-102500000D03*
D41*
X112800000Y-101500000D03*
X113700000Y-101500000D03*
D40*
X117800000Y-101500000D03*
X118700000Y-101500000D03*
D42*
X108000000Y-114700000D03*
X108000000Y-113800000D03*
X107000000Y-107950000D03*
X107000000Y-107050000D03*
D40*
X108750000Y-108300000D03*
X108750000Y-109200000D03*
X110000000Y-108300000D03*
X110000000Y-109200000D03*
X106750000Y-114700000D03*
X106750000Y-113800000D03*
D43*
X116750000Y-104350000D03*
X116750000Y-106150000D03*
D44*
X120400000Y-108250000D03*
X118600000Y-108250000D03*
X103400000Y-93000000D03*
X101600000Y-93000000D03*
D41*
X111550000Y-108000000D03*
X112450000Y-108000000D03*
D40*
X111550000Y-109500000D03*
X112450000Y-109500000D03*
D41*
X114950000Y-108000000D03*
X114050000Y-108000000D03*
D40*
X114050000Y-109500000D03*
X114950000Y-109500000D03*
D45*
X121800000Y-92545000D03*
X121800000Y-93175000D03*
X121800000Y-93805000D03*
X121800000Y-94435000D03*
X121800000Y-95065000D03*
X121800000Y-95695000D03*
X121800000Y-96325000D03*
X121800000Y-96955000D03*
X127200000Y-96955000D03*
X127200000Y-96325000D03*
X127200000Y-95695000D03*
X127200000Y-95065000D03*
X127200000Y-94435000D03*
X127200000Y-93805000D03*
X127200000Y-93175000D03*
X127200000Y-92545000D03*
X121800000Y-99045000D03*
X121800000Y-99675000D03*
X121800000Y-100305000D03*
X121800000Y-100935000D03*
X121800000Y-101565000D03*
X121800000Y-102195000D03*
X121800000Y-102825000D03*
X121800000Y-103455000D03*
X127200000Y-103455000D03*
X127200000Y-102825000D03*
X127200000Y-102195000D03*
X127200000Y-101565000D03*
X127200000Y-100935000D03*
X127200000Y-100305000D03*
X127200000Y-99675000D03*
X127200000Y-99045000D03*
D42*
X129250000Y-108200000D03*
X129250000Y-107300000D03*
D41*
X135550000Y-90250000D03*
X136450000Y-90250000D03*
X142550000Y-90250000D03*
X143450000Y-90250000D03*
X141450000Y-110000000D03*
X140550000Y-110000000D03*
X136800000Y-110000000D03*
X137700000Y-110000000D03*
D42*
X120250000Y-98550000D03*
X120250000Y-99450000D03*
X129000000Y-98550000D03*
X129000000Y-99450000D03*
D44*
X139600000Y-118000000D03*
X141400000Y-118000000D03*
X141400000Y-112000000D03*
X139600000Y-112000000D03*
D40*
X148750000Y-111450000D03*
X148750000Y-110550000D03*
X148750000Y-109200000D03*
X148750000Y-108300000D03*
D44*
X145900000Y-111000000D03*
X144100000Y-111000000D03*
D43*
X112000000Y-112700000D03*
X112000000Y-114500000D03*
D40*
X130500000Y-108200000D03*
X130500000Y-107300000D03*
X130000000Y-92050000D03*
X130000000Y-92950000D03*
X129500000Y-100500000D03*
X129500000Y-101400000D03*
X147600000Y-107250000D03*
X148500000Y-107250000D03*
D46*
X136750000Y-113900000D03*
X136750000Y-118100000D03*
D47*
X146900000Y-90500000D03*
X151100000Y-90500000D03*
D48*
X153750000Y-118149160D03*
X153750000Y-116350840D03*
D40*
X153750000Y-113550000D03*
X153750000Y-114450000D03*
M02*
